<?xml version="1.0" encoding="utf-8"?>
<svg version="1.1" xmlns:xlink="http://www.w3.org/1999/xlink" width="8px" height="24px" xmlns="http://www.w3.org/2000/svg">
  <g transform="matrix(1 0 0 1 -211 -163 )">
    <path d="M 1.28410940033501 20.1453043350084  C 1.28410940033501 18.5352630887772  2.60141593299834 17.2179564489112  4.21145728643216 17.2179564489112  C 5.82149863986599 17.2179564489112  7.1388051725293 18.5352629815745  7.1388051725293 20.1453043350084  C 7.1388051725293 21.7553456884422  5.82149863986599 23.0726522211055  4.21145728643216 23.0726521139028  C 2.60141593299834 23.0726520067002  1.28410940033501 21.7553455812395  1.28410940033501 20.1453043350084  Z M 7.87064206365159 20.1453043350084  C 7.87064206365159 18.0961609112228  6.26060071021774 16.4861195577889  4.21145728643216 16.4861194505863  C 2.16231375544388 16.4861194505863  0.552272509212727 18.0961608040201  0.552272509212727 20.1453043350084  C 0.552272509212727 22.1944478659967  2.16231386264657 23.8044891122278  4.21145728643216 23.8044891122278  C 6.26060071021774 23.8044891122278  7.87064206365159 22.194447758794  7.87064206365159 20.1453043350084  Z M 4.5773757319933 0.385706345058622  C 4.5773757319933 0.605257541038526  4.43100837520937 0.751624790619772  4.21145728643216 0.751624790619772  L 3.84553884087103 0.751624790619772  C 3.62598775209381 0.751624790619772  3.47962039530989 0.605257433835845  3.47962028810721 0.385706345058622  C 3.47962018090453 0.166155256281407  3.62598764489113 0.0197878994974872  3.84553884087103 0.0197877922948066  L 4.21145728643216 0.0197877922948066  C 4.43100837520937 0.0197877922948066  4.5773757319933 0.166155149078726  4.5773757319933 0.385706345058622  Z " fill-rule="nonzero" fill="#b1c4de" stroke="none" transform="matrix(1 0 0 1 211 163 )" />
  </g>
</svg>