<?xml version="1.0" encoding="utf-8"?>
<svg version="1.1" xmlns:xlink="http://www.w3.org/1999/xlink" width="39px" height="30px" xmlns="http://www.w3.org/2000/svg">
  <g transform="matrix(1 0 0 1 -140 -154 )">
    <path d="M 19.8113991825796 29.3648554237856  C 19.7382154505863 29.4380391557789  19.6650318257956 29.5112227805695  19.5186644690117 29.5112227805695  C 19.3722971122278 29.5112227805695  19.2991133802345 29.4380390485762  19.2259296482412 29.3648554237856  L 15.7131122278057 25.1202010050251  L 7.15061976549414 25.1202010050251  C 3.71098607705193 25.1202010050251  0.930005547738695 22.3392205829146  0.930005547738695 18.8995867872697  L 0.930005547738695 15.8990552763819  C 0.930005547738695 15.6795041876047  1.07637290452261 15.5331368308208  1.29592410050251 15.5331368308208  C 1.51547529648241 15.5331368308208  1.66184254606365 15.6795041876047  1.66184254606365 15.8990552763819  L 1.66184254606365 18.8995867872697  C 1.66184254606365 21.9001182981575  4.15008825460636 24.3883640067002  7.15061976549413 24.3883640067002  L 15.9326633165829 24.3883640067002  C 16.0058470485762 24.3883640067002  16.1522144053601 24.4615477386935  16.2253981373534 24.5347314706868  L 19.5186644690117 28.5598346934673  L 22.9582981574539 24.5347314706868  C 23.0314818894472 24.4615477386935  23.1046655142379 24.3883641139028  23.2510329782245 24.3883640067002  L 32.0330765293132 24.3883640067002  C 35.033608040201 24.3883640067002  37.5218537487437 21.9001182981575  37 18.8995867872697  L 37 6.45835845896147  C 37.5218537487437 3.4578269480737  35.033608040201 0.969581239530989  32.0330765293132 1  L 7.15061976549414 1  C 4.15008825460637 0.969581239530989  1.66184254606365 3.4578269480737  1.66184254606365 6.45835845896147  L 1.66184254606365 10.9225639664992  C 1.66184254606365 11.1421150552764  1.51547518927973 11.2884824120603  1.29592410050251 11.2884824120603  C 1.07637301172529 11.2884824120603  0.930005654941372 11.1421150552764  0.930005547738695 10.9225639664992  L 0.930005547738695 6.45835845896147  C 0.930005547738695 3.01872477051926  3.71098596984924 0.237744241206027  7.15061976549414 0.237744241206027  L 32.0330765293132 0.237744241206027  C 35.4727102177554 0.237744241206027  38.2536907470687 3.01872466331658  38 6.45835845896147  L 38 18.8995867872697  C 38.253690639866 22.3392204757119  35.4727102177554 25.1202010050251  32.0330765293132 25.1202010050251  L 23.3974003350084 25.1202010050251  L 19.8113991825796 29.3648554237856  Z " fill-rule="nonzero" fill="#b1c4de" stroke="none" transform="matrix(1 0 0 1 140 154 )" />
  </g>
</svg>