<?xml version="1.0" encoding="utf-8"?>
<svg version="1.1" xmlns:xlink="http://www.w3.org/1999/xlink" width="56px" height="37px" xmlns="http://www.w3.org/2000/svg">
  <g transform="matrix(1 0 0 1 -274 -247 )">
    <path d="M 20 3  L 20 6.16666666666667  L 36 6.16666666666667  L 36 3  L 20 3  Z M 35 21  L 56 21  L 56 33.1458333333333  C 56 34.2057291666667  55.5104166666667 35.1130642361111  54.53125 35.8678385416667  C 53.5520833333333 36.6226128472222  52.375 37  51 37  L 5 37  C 3.625 37  2.44791666666667 36.6226128472222  1.46875 35.8678385416667  C 0.489583333333333 35.1130642361111  0 34.2057291666667  0 33.1458333333333  L 0 21  L 21 21  L 21 25.4375  C 21 25.8550347222222  21.1979166666667 26.2163628472222  21.59375 26.521484375  C 21.9895833333333 26.8266059027778  22.4583333333333 26.9791666666667  23 27  L 33 27  C 33.5416666666667 26.9791666666667  34.0104166666667 26.8266059027778  34.40625 26.521484375  C 34.8020833333333 26.2163628472222  35 25.8550347222222  35 25.4375  L 35 21  Z M 24 21.5833333333333  L 32 21.5833333333333  L 32 24.6666666666667  L 24 24.6666666666667  L 24 21.5833333333333  Z M 54.53125 7.298828125  C 55.5104166666667 8.05360243055555  56 8.9609375  56 10.0208333333333  L 56 19  L 0 19  L 0 10.0208333333333  C 0 8.9609375  0.489583333333333 8.05360243055555  1.46875 7.298828125  C 2.44791666666667 6.54405381944444  3.625 6.16666666666667  5 6.16666666666667  L 16 6.16666666666667  L 16 2.3125  C 16 1.67013888888889  16.2916666666667 1.12413194444444  16.875 0.674479166666665  C 17.4583333333333 0.224826388888891  18.1666666666667 0  19 0  L 37 0  C 37.8333333333333 0  38.5416666666667 0.224826388888891  39.125 0.674479166666665  C 39.7083333333333 1.12413194444444  40 1.67013888888889  40 2.3125  L 40 6.16666666666667  L 51 6.16666666666667  C 52.375 6.16666666666667  53.5520833333333 6.54405381944444  54.53125 7.298828125  Z " fill-rule="nonzero" fill="#f59a23" stroke="none" transform="matrix(1 0 0 1 274 247 )" />
  </g>
</svg>