<?xml version="1.0" encoding="utf-8"?>
<svg version="1.1" xmlns:xlink="http://www.w3.org/1999/xlink" width="56px" height="37px" xmlns="http://www.w3.org/2000/svg">
  <g transform="matrix(1 0 0 1 -124 -248 )">
    <path d="M 11.83984375 24.813125  C 12.6966145833333 24.0885416666667  13.125 23.2175  13.125 22.2  C 13.125 21.1825  12.6966145833333 20.3114583333333  11.83984375 19.586875  C 10.9830729166667 18.8622916666667  9.953125 18.5  8.75 18.5  C 7.546875 18.5  6.51692708333333 18.8622916666667  5.66015625 19.586875  C 4.80338541666667 20.3114583333333  4.375 21.1825  4.375 22.2  C 4.375 23.2175  4.80338541666667 24.0885416666667  5.66015625 24.813125  C 6.51692708333333 25.5377083333333  7.546875 25.9  8.75 25.9  C 9.953125 25.9  10.9830729166667 25.5377083333333  11.83984375 24.813125  Z M 16.54296875 6.544375  L 14.109375 15  L 41.890625 15  L 39.45703125 6.544375  C 39.4205729166667 6.42104166666666  39.29296875 6.28614583333333  39.07421875 6.1396875  C 38.85546875 5.99322916666666  38.6640625 5.92  38.5 6  L 17.5 6  C 17.3359375 5.92  17.14453125 5.99322916666666  16.92578125 6.1396875  C 16.70703125 6.28614583333333  16.5794270833333 6.42104166666666  16.54296875 6.544375  Z M 50.33984375 24.813125  C 51.1966145833333 24.0885416666667  51.625 23.2175  51.625 22.2  C 51.625 21.1825  51.1966145833333 20.3114583333333  50.33984375 19.586875  C 49.4830729166667 18.8622916666667  48.453125 18.5  47.25 18.5  C 46.046875 18.5  45.0169270833333 18.8622916666667  44.16015625 19.586875  C 43.3033854166667 20.3114583333333  42.875 21.1825  42.875 22.2  C 42.875 23.2175  43.3033854166667 24.0885416666667  44.16015625 24.813125  C 45.0169270833333 25.5377083333333  46.046875 25.9  47.25 25.9  C 48.453125 25.9  49.4830729166667 25.5377083333333  50.33984375 24.813125  Z M 54.208984375 16.3146875  C 55.4029947916667 17.3244791666667  56 18.54625  56 19.98  L 56 28.86  C 56 29.0758333333333  55.91796875 29.253125  55.75390625 29.391875  C 55.58984375 29.530625  55.3802083333333 29.6  55.125 29.6  L 52.5 29.6  L 52.5 32.56  C 52.5 33.7933333333333  51.9895833333333 34.8416666666667  50.96875 35.705  C 49.9479166666667 36.5683333333333  48.7083333333333 37  47.25 37  C 45.7916666666667 37  44.5520833333333 36.5683333333333  43.53125 35.705  C 42.5104166666667 34.8416666666667  42 33.7933333333333  42 32.56  L 42 29  L 14 29  L 14 32.56  C 14 33.7933333333333  13.4895833333333 34.8416666666667  12.46875 35.705  C 11.4479166666667 36.5683333333333  10.2083333333333 37  8.75 37  C 7.29166666666667 37  6.05208333333333 36.5683333333333  5.03125 35.705  C 4.01041666666667 34.8416666666667  3.5 33.7933333333333  3.5 32.56  L 3.5 29.6  L 0.875 29.6  C 0.619791666666667 29.6  0.41015625 29.530625  0.24609375 29.391875  C 0.08203125 29.253125  0 29.0758333333333  0 28.86  L 0 19.98  C 0 18.54625  0.597005208333333 17.3244791666667  1.791015625 16.3146875  C 2.98502604166667 15.3048958333333  4.4296875 14.8  6.125 14.8  L 6.890625 14.8  L 9.76171875 5.110625  C 10.1809895833333 3.66145833333333  11.12890625 2.44739583333333  12.60546875 1.4684375  C 14.08203125 0.489479166666665  15.7135416666667 0  17.5 0  L 38.5 0  C 40.2864583333333 0  41.91796875 0.489479166666665  43.39453125 1.4684375  C 44.87109375 2.44739583333333  45.8190104166667 3.66145833333333  46.23828125 5.110625  L 49.109375 14.8  L 49.875 14.8  C 51.5703125 14.8  53.0149739583333 15.3048958333333  54.208984375 16.3146875  Z " fill-rule="nonzero" fill="#f59a23" stroke="none" transform="matrix(1 0 0 1 124 248 )" />
  </g>
</svg>