<?xml version="1.0" encoding="utf-8"?>
<svg version="1.1" xmlns:xlink="http://www.w3.org/1999/xlink" width="56px" height="37px" xmlns="http://www.w3.org/2000/svg">
  <g transform="matrix(1 0 0 1 -119 -129 )">
    <path d="M 43.8666666666667 29  L 12.1333333333333 29  C 10.85 29.6  9.75138888888889 29.1471354166667  8.8375 28.24140625  C 7.92361111111111 27.3356770833333  7.46666666666667 26.246875  8 24.975  L 8 4.625  C 7.46666666666667 3.353125  7.92361111111111 2.26432291666667  8.8375 1.35859375  C 9.75138888888889 0.452864583333328  10.85 0  12.1333333333333 0  L 43.8666666666667 0  C 45.15 0  46.2486111111111 0.452864583333328  47.1625 1.35859375  C 48.0763888888889 2.26432291666667  48.5333333333333 3.353125  48 4.625  L 48 24.975  C 48.5333333333333 26.246875  48.0763888888889 27.3356770833333  47.1625 28.24140625  C 46.2486111111111 29.1471354166667  45.15 29.6  43.8666666666667 29  Z M 11.4770833333333 3.974609375  C 11.2923611111111 4.15768229166666  11.2 4.37447916666666  12 4.625  L 12 24.975  C 11.2 25.2255208333333  11.2923611111111 25.4423177083333  11.4770833333333 25.625390625  C 11.6618055555556 25.8084635416667  11.8805555555556 25.9  12.1333333333333 25.9  L 43.8666666666667 25.9  C 44.1194444444444 25.9  44.3381944444444 25.8084635416667  44.5229166666667 25.625390625  C 44.7076388888889 25.4423177083333  44.8 25.2255208333333  44 24.975  L 44 4.625  C 44.8 4.37447916666666  44.7076388888889 4.15768229166666  44.5229166666667 3.974609375  C 44.3381944444444 3.79153645833333  44.1194444444444 3.7  43.8666666666667 4  L 12.1333333333333 4  C 11.8805555555556 3.7  11.6618055555556 3.79153645833333  11.4770833333333 3.974609375  Z M 4.66666666666667 31  L 51.3333333333333 31  L 56 31.45  L 56 34.225  C 56 34.9958333333333  55.5430555555556 35.6510416666667  54.6291666666667 36.190625  C 53.7152777777778 36.7302083333333  52.6166666666667 37  51.3333333333333 37  L 4.66666666666667 37  C 3.38333333333333 37  2.28472222222222 36.7302083333333  1.37083333333333 36.190625  C 0.456944444444444 35.6510416666667  0 34.9958333333333  0 34.225  L 0 31.45  L 4.66666666666667 31  Z M 25.6666666666667 34.225  L 30.3333333333333 34.225  C 30.6444444444444 34.225  30.8 34.0708333333333  30.8 33.7625  C 30.8 33.4541666666667  30.6444444444444 33.3  30.3333333333333 33.3  L 25.6666666666667 33.3  C 25.3555555555556 33.3  25.2 33.4541666666667  25.2 33.7625  C 25.2 34.0708333333333  25.3555555555556 34.225  25.6666666666667 34.225  Z " fill-rule="nonzero" fill="#f59a23" stroke="none" transform="matrix(1 0 0 1 119 129 )" />
  </g>
</svg>