<?xml version="1.0" encoding="utf-8"?>
<svg version="1.1" xmlns:xlink="http://www.w3.org/1999/xlink" width="56px" height="37px" xmlns="http://www.w3.org/2000/svg">
  <g transform="matrix(1 0 0 1 -201 -232 )">
    <path d="M 15.173597359736 10.0254125412541  C 16.0976897689769 9.41485148514852  16.5597359735974 8.67810781078107  16.5597359735974 7.81518151815182  C 16.5597359735974 6.95225522552255  16.0976897689769 6.21551155115512  15.173597359736 5.60495049504951  C 14.249504950495 4.9943894389439  13.1344334433443 4.68910891089109  11.8283828382838 4.68910891089109  C 10.5223322332233 4.68910891089109  9.40726072607261 4.9943894389439  8.48316831683168 5.60495049504951  C 7.55907590759076 6.21551155115512  7.0970297029703 6.95225522552255  7.0970297029703 7.81518151815182  C 7.0970297029703 8.67810781078107  7.55907590759076 9.41485148514852  8.48316831683168 10.0254125412541  C 9.40726072607261 10.6359735973597  10.5223322332233 10.9412541254125  11.8283828382838 10.9412541254125  C 13.1344334433443 10.9412541254125  14.249504950495 10.6359735973597  15.173597359736 10.0254125412541  Z M 54.6323432343234 19.6600660066007  C 55.5441144114411 20.2950495049505  56 21.0358635863586  56 21.8825082508251  C 56 22.7454345434543  55.5441144114411 23.4781078107811  54.6323432343234 24.0805280528053  L 36.4831683168317 36.0963696369637  C 35.5221122112211 36.6987898789879  34.4008800880088 37  33.1194719471947 37  C 31.8134213421342 37  30.7045104510451 36.6987898789879  29.7927392739274 36.0963696369637  L 3.36369636963696 18.609900990099  C 2.42728272827283 18.0074807480748  1.63256325632563 17.1852585258526  0.979537953795379 16.1432343234323  C 0.326512651265126 15.1012101210121  0 14.1487348734873  0 13.2858085808581  L 0 3.12607260726073  C 0 2.27942794279428  0.468206820682068 1.54675467546755  1.4046204620462 0.928052805280526  C 2.34103410341034 0.309350935093506  3.44994499449945 0  4.73135313531353 0  L 20.1082508250825 0  C 21.414301430143 0  22.8558855885589 0.215731573157313  24.43300330033 0.647194719471946  C 26.0101210121012 1.07865786578658  27.2668866886689 1.6037403740374  28.203300330033 2.22244224422442  L 54.6323432343234 19.6600660066007  Z " fill-rule="nonzero" fill="#f59a23" stroke="none" transform="matrix(1 0 0 1 201 232 )" />
  </g>
</svg>