<?xml version="1.0" encoding="utf-8"?>
<svg version="1.1" xmlns:xlink="http://www.w3.org/1999/xlink" width="18px" height="18px" xmlns="http://www.w3.org/2000/svg">
  <g transform="matrix(1 0 0 1 -342 -33 )">
    <path d="M 16.20703125 12.60546875  L 16.20703125 15.177734375  C 16.20703125 15.74609375  15.74609375 16.20703125  15.177734375 16  L 2.826171875 16  C 2.2578125 16.20703125  1.796875 15.74609375  2 15.177734375  L 2 2.826171875  C 1.796875 2.2578125  2.2578125 1.796875  2.826171875 1.796875  L 5.400390625 1.796875  L 5.400390625 0.251953125  L 2.310546875 0.251953125  C 1.173828125 0.251953125  0.251953125 1.173828125  0.251953125 2.310546875  L 0.251953125 15.693359375  C 0.251953125 16.830078125  1.173828125 17.751953125  2.310546875 17.751953125  L 15.693359375 17.751953125  C 16.830078125 17.751953125  17.751953125 16.830078125  17.751953125 15.693359375  L 17.751953125 12.60546875  L 16.20703125 12.60546875  Z M 17.75 1.0234375  C 17.751953125 0.59765625  17.40625 0.251953125  16.98046875 0.251953124999998  L 10.2890625 0.251953124999998  C 9.86328125 0.251953124999998  9.517578125 0.597656249999998  9.517578125 1.0234375  C 9.517578125 1.44921875  9.86328125 1.794921875  10.2890625 1.794921875  L 15.373046875 1.794921875  L 7.873046875 9.294921875  C 7.572265625 9.595703125  7.572265625 10.0859375  7.873046875 10.38671875  C 8.173828125 10.6875  8.6640625 10.6875  8.96484375 10.38671875  L 16.20703125 3.14453125  L 16.20703125 7.71484375  C 16.20703125 8.140625  16.552734375 8.486328125  16.978515625 8.486328125  C 17.404296875 8.486328125  17.75 8.140625  17.75 7.71484375  L 17.75 1.0234375  Z " fill-rule="nonzero" fill="#ffffff" stroke="none" transform="matrix(1 0 0 1 342 33 )" />
  </g>
</svg>