<?xml version="1.0" encoding="utf-8"?>
<svg version="1.1" xmlns:xlink="http://www.w3.org/1999/xlink" width="14px" height="12px" xmlns="http://www.w3.org/2000/svg">
  <g transform="matrix(1 0 0 1 -290 -252 )">
    <path d="M 4.59261764705882 9.348  C 4.74195098039216 9.292  4.90446078431373 9.264  5.08014705882353 9.264  C 5.24704901960784 9.264  5.40516666666667 9.292  5.5545 9.348  C 5.70383333333333 9.404  5.83340196078431 9.482  5.94320588235294 9.582  C 6.05300980392157 9.682  6.14085294117647 9.8  6.20673529411765 9.936  C 6.27261764705882 10.072  6.30555882352941 10.216  6.30555882352941 10.368  C 6.30555882352941 10.52  6.27261764705882 10.664  6.20673529411765 10.8  C 6.14085294117647 10.936  6.05300980392157 11.054  5.94320588235294 11.154  C 5.83340196078431 11.254  5.70383333333333 11.334  5.5545 11.394  C 5.40516666666667 11.454  5.24704901960784 11.484  5.08014705882353 11.484  C 4.90446078431373 11.484  4.74195098039216 11.454  4.59261764705882 11.394  C 4.44328431372549 11.334  4.31371568627451 11.254  4.20391176470588 11.154  C 4.09410784313726 11.054  4.00626470588235 10.936  3.94038235294118 10.8  C 3.8745 10.664  3.84155882352941 10.52  3.84155882352941 10.368  C 3.84155882352941 10.216  3.8745 10.072  3.94038235294118 9.936  C 4.00626470588235 9.8  4.09410784313726 9.682  4.20391176470588 9.582  C 4.31371568627451 9.482  4.44328431372549 9.404  4.59261764705882 9.348  Z M 10.0872058823529 9.372  C 10.2365392156863 9.316  10.3946568627451 9.288  10.5615588235294 9.288  C 10.7284607843137 9.288  10.8887745098039 9.316  11.0425 9.372  C 11.1962254901961 9.428  11.3279901960784 9.506  11.4377941176471 9.606  C 11.5475980392157 9.706  11.6354411764706 9.824  11.7013235294118 9.96  C 11.7672058823529 10.096  11.8001470588235 10.24  11.8001470588235 10.392  C 11.8001470588235 10.544  11.7672058823529 10.688  11.7013235294118 10.824  C 11.6354411764706 10.96  11.5475980392157 11.078  11.4377941176471 11.178  C 11.3279901960784 11.278  11.1962254901961 11.358  11.0425 11.418  C 10.8887745098039 11.478  10.7284607843137 11.508  10.5615588235294 11.508  C 10.3946568627451 11.508  10.2365392156863 11.478  10.0872058823529 11.418  C 9.93787254901961 11.358  9.80830392156863 11.278  9.6985 11.178  C 9.58869607843137 11.078  9.50085294117647 10.96  9.43497058823529 10.824  C 9.36908823529412 10.688  9.33614705882353 10.544  9.33614705882353 10.392  C 9.33614705882353 10.24  9.36908823529412 10.096  9.43497058823529 9.96  C 9.50085294117647 9.824  9.58869607843137 9.706  9.6985 9.606  C 9.80830392156863 9.506  9.93787254901961 9.428  10.0872058823529 9.372  Z M 3.7625 2.472  L 12.7752058823529 2.472  C 13.0211666666667 2.472  13.2122254901961 2.502  13.3483823529412 2.562  C 13.4845392156863 2.622  13.5811666666667 2.696  13.6382647058824 2.784  C 13.695362745098 2.872  13.7217156862745 2.966  13.7173235294118 3.066  C 13.712931372549 3.166  13.6975588235294 3.252  13.6712058823529 3.324  C 13.6448529411765 3.396  13.5877549019608 3.544  13.4999117647059 3.768  C 13.412068627451 3.992  13.317637254902 4.238  13.2166176470588 4.506  C 13.1155980392157 4.774  13.0145784313726 5.04  12.9135588235294 5.304  C 12.8125392156863 5.568  12.7312843137255 5.776  12.6697941176471 5.928  C 12.5555980392157 6.248  12.4128529411765 6.47  12.2415588235294 6.594  C 12.0702647058824 6.718  11.8572450980392 6.78  11.6025 6.78  L 11.1413235294118 6.78  L 10.2980294117647 6.78  L 9.19120588235294 6.78  L 7.95261764705883 6.78  L 4.68485294117647 6.78  L 4.86932352941177 7.86  L 11.5234411764706 7.86  C 11.9450882352941 7.86  12.1559117647059 8.024  12.1559117647059 8.352  C 12.1559117647059 8.512  12.1141862745098 8.652  12.0307352941177 8.772  C 11.9472843137255 8.892  11.7825784313726 8.948  11.5366176470588 8.94  L 10.9041470588235 8.94  L 9.69191176470589 8.94  L 8.16344117647059 8.94  L 6.62179411764706 8.94  L 5.34367647058824 8.94  L 4.63214705882353 8.94  C 4.45646078431373 8.94  4.30932352941177 8.904  4.19073529411765 8.832  C 4.07214705882353 8.76  3.97332352941177 8.666  3.89426470588236 8.55  C 3.81520588235295 8.434  3.75151960784314 8.308  3.70320588235295 8.172  C 3.65489215686275 8.036  3.61755882352942 7.908  3.59120588235294 7.788  C 3.58242156862745 7.74  3.55826470588236 7.624  3.51873529411765 7.44  C 3.47920588235295 7.256  3.43089215686275 7.026  3.37379411764706 6.75  C 3.31669607843138 6.474  3.25300980392157 6.166  3.18273529411765 5.826  C 3.11246078431373 5.486  3.04218627450981 5.144  2.97191176470589 4.8  C 2.80500980392157 3.992  2.61614705882353 3.092  2.40532352941177 2.1  L 1.41708823529412 2.1  C 1.28532352941177 2.1  1.17551960784314 2.07  1.08767647058824 2.01  C 0.999833333333337 1.95  0.927362745098043 1.878  0.870264705882357 1.794  C 0.81316666666667 1.71  0.773637254901964 1.62  0.751676470588239 1.524  C 0.729715686274513 1.428  0.718735294117651 1.34  0.718735294117651 1.26  C 0.718735294117651 1.1  0.77802941176471 0.968  0.896617647058827 0.864  C 1.01520588235295 0.76  1.17551960784314 0.712  1.37755882352942 0.72  L 2.70838235294118 0.72  C 2.88406862745098 0.72  3.02461764705883 0.744  3.13002941176471 0.792  C 3.23544117647059 0.84  3.31889215686275 0.9  3.38038235294118 0.972  C 3.44187254901961 1.044  3.48579411764706 1.118  3.51214705882353 1.194  C 3.5385 1.27  3.56046078431373 1.336  3.57802941176471 1.392  C 3.59559803921569 1.456  3.61316666666667 1.546  3.63073529411765 1.662  C 3.64830392156863 1.778  3.66587254901961 1.896  3.68344117647059 2.016  C 3.70979411764706 2.16  3.73614705882353 2.312  3.7625 2.472  Z M 11.3916764705882 5.7  L 12.2876764705882 3.54  L 4.03920588235294 3.516  L 4.50038235294118 5.688  L 11.3916764705882 5.7  Z " fill-rule="nonzero" fill="#ffffff" stroke="none" transform="matrix(1 0 0 1 290 252 )" />
  </g>
</svg>