<?xml version="1.0" encoding="utf-8"?>
<svg version="1.1" xmlns:xlink="http://www.w3.org/1999/xlink" width="109px" height="44px" xmlns="http://www.w3.org/2000/svg">
  <g transform="matrix(1 0 0 1 -134 -173 )">
    <path d="M 101.68 39.552  C 101.616 41.792  99.568 43.584  97.008 43  L 11.504 43  C 8.944 43.584  6.896 41.792  6.832 39.616  L 0.496 4.864  C 0.496 2.624  2.608 0.831999999999994  5.168 1  L 104.176 1  C 106.736 0.831999999999994  108.848 2.624  108.848 4.86399999999999  L 108.848 4.92799999999999  L 101.68 39.552  Z M 5.168 2  C 3.12 1.72799999999999  1.392 3.136  1.392 4.8  L 7.728 39.552  C 7.728 41.28  9.456 42.688  11.504 42  L 97.008 42  C 99.12 42.688  100.784 41.28  100.784 39.552  L 100.784 39.488  L 107.952 4.8  C 107.952 3.072  106.224 1.72799999999999  104.176 2  L 5.168 2  Z " fill-rule="nonzero" fill="#a2adc2" stroke="none" transform="matrix(1 0 0 1 134 173 )" />
  </g>
</svg>