<?xml version="1.0" encoding="utf-8"?>
<svg version="1.1" xmlns:xlink="http://www.w3.org/1999/xlink" width="92px" height="70px" xmlns="http://www.w3.org/2000/svg">
  <g transform="matrix(1 0 0 1 -143 -135 )">
    <path d="M 91 14.832  L 91 69  L 1 69  L 1 4.592  C 0.199999999999999 2.16  2.184 0.175999999999998  4.616 1  L 43.656 1  C 45.832 0.175999999999998  47.624 1.712  48.84 4.464  L 50.824 11  L 86.792 11  C 87.944 10.352  89.096 10.864  89.928 11.696  C 90.76 12.528  91.208 13.68  91 14.832  Z M 1 4.656  L 1 68  L 90 68  L 90 14.768  C 90.12 13.872  89.8 12.976  89.16 12.336  C 88.52 11.696  87.624 11.312  86.664 12  L 50.12 12  L 47.944 4.784  C 47.368 3.44  46.024 1.136  43.656 2  L 4.61600000000001 2  C 2.69600000000001 1.136  1.09600000000001 2.672  1 4.656  Z " fill-rule="nonzero" fill="#a2adc2" stroke="none" transform="matrix(1 0 0 1 143 135 )" />
  </g>
</svg>