<?xml version="1.0" encoding="utf-8"?>
<svg version="1.1" xmlns:xlink="http://www.w3.org/1999/xlink" width="36px" height="37px" xmlns="http://www.w3.org/2000/svg">
  <g transform="matrix(1 0 0 1 -194 -125 )">
    <path d="M 35 34.048  C 35.408 35.392  34.32 36.48  32.912 36  L 3.408 36  C 2 36.48  0.912000000000006 35.392  1 34.048  L 1 2.944  C 0.848000000000013 1.6  2.00000000000001 0.511999999999995  3.34400000000001 1  L 32.848 1  C 34.256 0.511999999999995  35.344 1.59999999999999  35 2.944  L 35 34.048  Z M 32.848 2  L 3.34400000000001 2  C 2.44800000000001 1.40799999999999  1.74400000000001 2.04799999999999  2 2.94399999999999  L 2 34.048  C 1.80800000000001 34.88  2.512 35.584  3.408 35  L 32.912 35  C 33.808 35.584  34.512 34.944  34 34.048  L 34 2.944  C 34.448 2.11199999999999  33.744 1.408  32.848 2  Z " fill-rule="nonzero" fill="#a2adc2" stroke="none" transform="matrix(1 0 0 1 194 125 )" />
  </g>
</svg>