<?xml version="1.0" encoding="utf-8"?>
<svg version="1.1" xmlns:xlink="http://www.w3.org/1999/xlink" width="53px" height="34px" xmlns="http://www.w3.org/2000/svg">
  <g transform="matrix(1 0 0 1 -163 -135 )">
    <path d="M 0.295999999999999 30.576  C 0.423999999999999 30.192  0.68 29.808  0.936 29.488  L 1.896 30.192  L 1.32 31.152  L 0.295999999999999 30.576  Z M 46.76 1.648  C 47.592 1.456  48.36 1.328  49.064 1.264  L 49.256 2.416  C 48.552 2.544  47.784 2.608  46.952 2.8  L 46.76 1.648  Z M 42.152 2.544  C 42.92 2.352  43.688 2.224  44.392 2.032  L 44.648 3.184  C 43.944 3.312  43.176 3.504  42.408 3.696  L 42.152 2.544  Z M 37.544 3.76  C 38.312 3.504  39.08 3.312  39.784 3.12  L 40.104 4.272  C 39.4 4.464  38.632 4.656  37.864 4.912  L 37.544 3.76  Z M 33.128 5.296  C 33.832 4.976  34.536 4.72  35.304 4.464  L 35.688 5.616  C 34.984 5.872  34.216 6.128  33.512 6.384  L 33.128 5.296  Z M 28.648 7.024  C 29.416 6.704  30.12 6.384  30.824 6.128  L 31.272 7.216  C 30.568 7.536  29.864 7.79200000000001  29.16 8.11200000000001  L 28.648 7.024  Z M 24.488 9.2  C 25.192 8.816  25.896 8.432  26.536 8.112  L 27.112 9.136  C 26.408 9.52  25.768 9.84  25.064 10.224  L 24.488 9.2  Z M 20.52 11.824  L 22.44 10.48  L 23.08 11.504  C 22.44 11.952  21.8 12.336  21.224 12.848  L 20.52 11.824  Z M 16.936 14.896  C 17.448 14.384  18.088 13.872  18.664 13.296  L 19.432 14.192  C 18.856 14.704  18.28 15.216  17.768 15.728  L 16.936 14.896  Z M 13.864 18.544  C 14.312 17.904  14.824 17.264  15.336 16.688  L 16.232 17.456  C 15.72 18.032  15.272 18.672  14.824 19.248  L 13.864 18.544  Z M 15.016 21.04  C 15.72 20.976  16.296 20.976  16.808 21.104  C 17.128 21.168  17.448 21.296  17.704 21.488  L 17.064 22.448  C 16.68 22.192  16.04 22.128  15.208 22.192  L 15.016 21.04  Z M 11.944 21.744  C 12.136 21.296  12.328 20.976  12.584 20.592  L 13.608 21.168  C 13.352 21.552  13.16 22  12.904 22.448  L 12.968 22.64  C 12.904 22.64  12.84 22.704  12.776 22.704  C 12.712 22.896  12.584 23.024  12.52 23.216  L 12.008 22.96  C 11.624 23.088  11.24 23.216  10.856 23.408  L 10.344 22.32  C 10.856 22.064  11.432 21.872  11.944 21.744  Z M 17.96 24.112  L 19.176 23.792  C 19.368 24.56  19.432 25.392  19.368 26.288  L 18.152 26.224  C 18.216 25.456  18.152 24.752  17.96 24.112  Z M 6.184 24.56  C 6.824 24.112  7.464 23.728  8.232 23.344  L 8.808 24.368  C 8.104 24.752  7.464 25.136  6.824 25.52  L 6.184 24.56  Z M 10.344 25.584  C 10.472 25.392  10.536 25.2  10.6 24.944  L 11.752 25.328  L 11.56 25.904  C 11.432 26.416  11.368 26.928  11.304 27.44  L 10.088 27.376  C 10.088 26.8  10.216 26.224  10.344 25.584  Z M 16.936 30.384  C 17.256 29.808  17.512 29.104  17.768 28.4  L 18.92 28.72  C 18.664 29.488  18.344 30.32  17.96 30.96  L 16.936 30.384  Z M 2.472 27.568  C 2.984 27.056  3.56 26.48  4.2 25.968  L 4.968 26.864  C 4.392 27.376  3.816 27.888  3.304 28.4  L 2.472 27.568  Z M 10.408 29.872  L 11.56 29.552  C 11.752 30.256  12.072 30.832  12.52 31.344  L 11.624 32.112  C 11.048 31.472  10.664 30.704  10.408 29.872  Z M 14.44 32.688  C 14.824 32.816  15.272 32.432  15.656 32.112  L 16.488 33.008  C 15.464 33.904  14.632 33.968  14.12 33.84  C 13.992 33.84  13.864 33.776  13.8 33.712  L 14.248 32.624  C 14.376 32.688  14.376 32.688  14.44 32.688  Z M 51.432 1.008  C 52.2 0.879999999999999  52.648 0.815999999999999  52.648 0.815999999999999  L 52.712 2.032  C 52.712 2.032  52.264 2.032  51.56 2.16  L 51.432 1.008  Z " fill-rule="nonzero" fill="#a2adc2" stroke="none" transform="matrix(1 0 0 1 163 135 )" />
  </g>
</svg>