<?xml version="1.0" encoding="utf-8"?>
<svg version="1.1" xmlns:xlink="http://www.w3.org/1999/xlink" width="14px" height="14px" xmlns="http://www.w3.org/2000/svg">
  <g transform="matrix(1 0 0 1 -335 -35 )">
    <path d="M 13.8923076923077 7  C 13.8923076923077 3.19348357039699  10.806516429603 0.107692307692307  7 0.107692307692308  C 3.19348357039699 0.107692307692308  0.107692307692308 3.19348357039699  0.107692307692308 7  C 0.107692307692308 10.806516429603  3.19348357039699 13.8923076923077  7 13.8923076923077  C 10.806516429603 13.8923076923077  13.8923076923077 10.806516429603  13.8923076923077 7  Z M 8.21476923076923 7  L 10.0498461538462 8.82646153846154  C 10.2120770405542 8.98869242516954  10.3032174036916 9.20872472593557  10.3032174036916 9.43815384615385  C 10.3032174036916 9.91591525661632  9.91591525661632 10.3032174036916  9.43815384615385 10.3032174036916  C 9.20872472593558 10.3032174036916  8.98869242516954 10.2120770405542  8.82646153846154 10.0498461538462  L 7 8.21476923076923  L 5.17353846153846 10.0498461538462  C 5.01130757483046 10.2120770405542  4.79127527406443 10.3032174036916  4.56184615384615 10.3032174036916  C 4.08408474338368 10.3032174036916  3.6967825963084 9.91591525661632  3.6967825963084 9.43815384615385  C 3.6967825963084 9.20872472593557  3.78792295944584 8.98869242516954  3.95015384615385 8.82646153846154  L 5.78523076923077 7  L 3.95015384615385 5.17353846153846  C 3.78792295944584 5.01130757483046  3.6967825963084 4.79127527406443  3.6967825963084 4.56184615384615  C 3.6967825963084 4.08408474338368  4.08408474338368 3.6967825963084  4.56184615384615 3.6967825963084  C 4.79127527406443 3.6967825963084  5.01130757483046 3.78792295944584  5.17353846153846 3.95015384615385  L 7 5.78523076923077  L 8.82646153846154 3.95015384615385  C 8.98869242516954 3.78792295944584  9.20872472593557 3.6967825963084  9.43815384615385 3.6967825963084  C 9.91591525661632 3.6967825963084  10.3032174036916 4.08408474338368  10.3032174036916 4.56184615384615  C 10.3032174036916 4.79127527406442  10.2120770405542 5.01130757483046  10.0498461538462 5.17353846153846  L 8.21476923076923 7  Z " fill-rule="nonzero" fill="#979797" stroke="none" transform="matrix(1 0 0 1 335 35 )" />
  </g>
</svg>