<?xml version="1.0" encoding="utf-8"?>
<svg version="1.1" xmlns:xlink="http://www.w3.org/1999/xlink" width="14px" height="17px" xmlns="http://www.w3.org/2000/svg">
  <g transform="matrix(1 0 0 1 -25 -117 )">
    <path d="M 13.4130208333333 10.7502232142857  C 13.7783333333333 10.5073660714286  13.8089583333333 10.0595982142857  13.4852083333333 9.75412946428571  L 13.4677083333333 9.76551339285714  L 13.4852083333333 9.75412946428571  C 12.6452083333333 9.14129464285714  11.6148958333333 8.66506696428572  10.4708333333333 8.37667410714286  C 11.6892708333333 7.68794642857143  12.4920833333333 6.52299107142857  12.4920833333333 5.20814732142857  L 12.4920833333333 4.12857142857143  C 12.4920833333333 3.07745535714286  11.9780208333333 2.12310267857143  11.1533333333333 1.43058035714286  C 10.3286458333333 0.739955357142857  9.18677083333333 0.309263392857143  7.93333333333333 0.309263392857143  C 5.42427083333333 0.309263392857143  3.37239583333333 2.02823660714286  3.37239583333333 4.12857142857143  L 3.37239583333333 5.20814732142857  C 3.37239583333333 6.52299107142857  4.17739583333333 7.68984375  5.39364583333333 8.37667410714286  C 2.30489583333333 9.15078125  0.0692708333333325 11.2966517857143  0.0692708333333325 13.8049107142857  L 0.0692708333333325 16.2505580357143  C 0.0692708333333325 16.4497767857143  0.169895833333333 16.6300223214286  0.333958333333333 16.7628348214286  C 0.498020833333333 16.89375  0.723333333333333 16.9753348214286  0.970520833333333 16.9753348214286  C 1.46708333333333 16.9753348214286  1.79739583333333 16.6489955357143  1.79739583333333 16.2505580357143  L 1.79739583333333 15.83125  L 1.79520833333333 15.83125  L 1.79520833333333 13.7935267857143  C 1.79520833333333 11.3611607142857  4.59739583333333 9.37276785714286  7.92895833333333 9.37276785714286  C 9.59364583333333 9.37276785714286  11.1073958333333 9.86986607142857  12.2055208333333 10.6705357142857  L 12.2077083333333 10.6724330357143  C 12.3892708333333 10.82421875  12.6342708333333 10.90390625  12.8770833333333 10.90390625  C 13.0695833333333 10.90390625  13.2598958333333 10.8545758928571  13.4130208333333 10.7502232142857  Z M 7.93333333333333 7.75625  C 6.16145833333333 7.75625  4.71114583333333 6.54006696428571  4.71114583333333 5.05636160714286  L 4.71114583333333 4.28225446428571  C 4.71114583333333 2.79665178571429  6.16145833333333 1.58236607142857  7.93333333333333 1.58236607142857  C 8.81927083333333 1.58236607142857  9.62427083333333 1.8859375  10.2083333333333 2.37544642857143  C 10.7923958333333 2.86495535714286  11.1555208333333 3.54040178571429  11.1555208333333 4.28225446428571  L 11.1555208333333 5.05636160714286  C 11.1555208333333 6.54006696428571  9.70520833333333 7.75625  7.93333333333333 7.75625  Z " fill-rule="nonzero" fill="#cdcdcd" stroke="none" transform="matrix(1 0 0 1 25 117 )" />
  </g>
</svg>