<?xml version="1.0" encoding="utf-8"?>
<svg version="1.1" xmlns:xlink="http://www.w3.org/1999/xlink" width="6px" height="4px" xmlns="http://www.w3.org/2000/svg">
  <g transform="matrix(1 0 0 1 -30 -172 )">
    <path d="M 5.83513727725216 0.955496181488203  C 5.83513727725216 1.27070008304224  5.57964068883373 1.52623742357863  5.26443679128857 1.52628769509982  L 0.72593075862069 1.52628769509982  C 0.410726861075529 1.52623742357863  0.155230272657096 1.27070008304224  0.155230272657096 0.955496181488203  C 0.155230272657096 0.640292279934168  0.410726861075529 0.38475493939778  0.72593075862069 0.384704667876588  L 5.26443679128857 0.384704667876588  C 5.57964068883373 0.38475493939778  5.83513727725216 0.640292279934169  5.83513727725216 0.955496181488203  Z M 5.28111275456613 3.2358082831216  C 5.28111275456613 3.55101218467563  5.0256161661477 3.80654952521202  4.71041226860254 3.80659979673321  L 1.27995526678766 3.80659979673321  C 0.964751369242498 3.80654952521202  0.709254780824065 3.55101218467563  0.709254780824065 3.2358082831216  C 0.709254780824065 2.92060438156756  0.964751369242499 2.66506704103117  1.27995526678766 2.66501676950998  L 4.71041226860254 2.66501676950998  C 5.0256161661477 2.66506704103117  5.28111275456613 2.92060438156756  5.28111275456613 3.2358082831216  Z " fill-rule="nonzero" fill="#cdcdcd" stroke="none" transform="matrix(1 0 0 1 30 172 )" />
  </g>
</svg>