<?xml version="1.0" encoding="utf-8"?>
<svg version="1.1" xmlns:xlink="http://www.w3.org/1999/xlink" width="18px" height="9px" xmlns="http://www.w3.org/2000/svg">
  <g transform="matrix(1 0 0 1 -25 -176 )">
    <path d="M 15.787446707804 1.74196056430732  L 15.787446707804 6.71165203049002  L 1.21331101088929 6.71165203049002  L 1.21331101088929 1.74196056430732  L 4.12624294646098 1.74196056430732  L 4.65822732486388 3.51883455728977  C 4.88950079752651 4.29079809114361  5.59751559236655 4.8192717857464  6.4004903892922 4.81928788868723  L 10.5803676569873 4.81928788868723  C 11.3833424539129 4.8192717857464  12.091357248753 4.29079809114361  12.3226307214156 3.51883455728977  L 12.8549941442831 1.74158004888082  L 15.787446707804 1.74158004888082  Z M 15.787446707804 0.523891471022383  L 12.4041245871143 0.523891471022383  C 12.1365070561399 0.523916406452037  11.9005407056939 0.700038896878948  11.8234334038113 0.957312495583786  L 11.1610588402904 3.16817830175438  C 11.0839515384077 3.42545190045922  10.8479851879618 3.60157439088613  10.5803676569873 3.60159932631579  L 6.4004903892922 3.60159932631579  C 6.13287285831773 3.60157439088613  5.89690650787181 3.42545190045922  5.81979920598911 3.16817830175438  L 5.15742464246824 0.957312495583786  C 5.08031734058554 0.700038896878948  4.84435099013962 0.523916406452037  4.57673345916515 0.523891471022383  L 1.21293196642468 0.523891471022383  C 0.543048138786054 0.523891471022383  0 1.0690692103527  0 1.74158003339383  L 0 6.71127149957653  C 0 7.38378232261766  0.543048138786054 7.92896006194797  1.21293196642468 8  L 15.7870676633394 8  C 15.7870676633394 7.92896006194797  15.7870676633394 7.92896006194797  15.7870676633394 7.92896006194797  C 16.456951490978 7.92896006194797  16.9999996297641 7.38378232261766  16.9999996297641 6.71127149957653  L 16.9999996297641 1.74196056430732  C 16.9999996297641 1.06944974126619  16.456951490978 0.524272001935875  15.7870676633394 0.524272001935875  Z " fill-rule="nonzero" fill="#cdcdcd" stroke="none" transform="matrix(1 0 0 1 25 176 )" />
  </g>
</svg>