<?xml version="1.0" encoding="utf-8"?>
<svg version="1.1" xmlns:xlink="http://www.w3.org/1999/xlink" width="7px" height="6px" xmlns="http://www.w3.org/2000/svg">
  <g transform="matrix(1 0 0 1 -35 -128 )">
    <path d="M 6.5666015625 0.523557692307695  C 6.5666015625 0.793990384615387  6.35537109375 1.01682692307692  6.0990234375 1.01682692307692  L 0.479882812499999 1.01682692307692  C 0.223535156249999 1.01682692307692  0.0123046875000012 0.793990384615387  0.0123046875000012 0.523557692307695  L 0.0123046875000012 0.519230769230769  C 0.0123046875000012 0.248798076923077  0.223535156249999 0.0259615384615411  0.479882812499999 0.0259615384615411  L 6.0990234375 0.0259615384615411  C 6.35537109375 0.0259615384615411  6.5666015625 0.248798076923077  6.5666015625 0.519230769230769  L 6.5666015625 0.523557692307695  Z M 6.5666015625 2.89254807692308  C 6.5666015625 3.16298076923077  6.35537109375 3.38581730769231  6.0990234375 3.38581730769231  L 0.479882812499999 3.38581730769231  C 0.223535156249999 3.38581730769231  0.0123046875000012 3.16298076923077  0.0123046875000012 2.89254807692308  L 0.0123046875000012 2.88822115384615  C 0.0123046875000012 2.61778846153846  0.223535156249999 2.39495192307693  0.479882812499999 2.39495192307693  L 6.0990234375 2.39495192307693  C 6.35537109375 2.39495192307693  6.5666015625 2.61778846153846  6.5666015625 2.88822115384615  L 6.5666015625 2.89254807692308  Z M 6.5666015625 5.06466346153846  C 6.5666015625 5.33509615384616  6.35537109375 5.55793269230769  6.0990234375 5.55793269230769  L 0.479882812499999 5.55793269230769  C 0.223535156249999 5.55793269230769  0.0123046875000012 5.33509615384616  0.0123046875000012 5.06466346153846  L 0.0123046875000012 5.06033653846154  C 0.0123046875000012 4.78990384615384  0.223535156249999 4.56706730769231  0.479882812499999 4.56706730769231  L 6.0990234375 4.56706730769231  C 6.35537109375 4.56706730769231  6.5666015625 4.78990384615384  6.5666015625 5.06033653846154  L 6.5666015625 5.06466346153846  Z " fill-rule="nonzero" fill="#cdcdcd" stroke="none" transform="matrix(1 0 0 1 35 128 )" />
  </g>
</svg>