<?xml version="1.0" encoding="utf-8"?>
<svg version="1.1" xmlns:xlink="http://www.w3.org/1999/xlink" width="17px" height="19px" xmlns="http://www.w3.org/2000/svg">
  <g transform="matrix(1 0 0 1 -23 -366 )">
    <path d="M 14.3254826957237 18.0492975  C 14.7117386332237 17.8298031425  14.8433517664474 17.3457899425  14.6201816661184 16.968709915  L 12.1882524473684 12.41866692  L 13.6703307894737 12.57062455  C 13.7590265838816 12.5790666375  13.84772240625 12.584694705  13.9364182006579 12.584694705  C 14.8863216924342 12.584694705  15.7246401200658 12.052843  16.1194795197368 11.1804936375  C 16.5515139407895 10.22653742  16.3197603782895 9.16001996249997  15.5329427236842 8.45932645250002  L 14.116670962171 7.20426899500001  C 13.8591670131579 6.97633255  13.7819158256579 6.6161366975  13.9221124210526 6.30659336999997  L 14.6974854407895 4.59284900249997  C 15.1295198618421 3.638892785  14.8977662993421 2.57237532750003  14.1109486447368 1.87168181750002  C 13.3184087006579 1.17380232750003  12.2140028338816 1.06124114250002  11.2955720460526 1.58183671249998  L 9.6446855493421 2.51890875499998  C 9.34426426151316 2.68775055999998  8.97231410361842 2.65116816250003  8.71481015460526 2.42323171750002  L 7.2985383930921 1.16817426  C 6.50885959375 0.470294797500003  5.40445372697368 0.357733585000005  4.48602293914474 0.878329182500011  C 3.56759215131579 1.40173879999998  3.11552966118421 2.39790548249999  3.33583858881579 3.41939842750003  L 3.73353913322368 5.25414609500001  C 3.80506800328947 5.58620166499998  3.65342680098684 5.92388527499998  3.35300551315789 6.09272707999997  L 1.70211901644737 7.02979912249998  C 0.78368822861842 7.55320874  0.331625738486842 8.54937542250002  0.55193466611842 9.5708683675  C 0.772243621710526 10.5923613125  1.59625626973684 11.3211951325  2.65202250822368 11.430942325  L 4.54896831907894 11.62792444  C 4.89230691776316 11.6645068375  5.17270013651316 11.9093274575  5.24422900657895 12.2441970475  L 5.64192955098684 14.078944715  C 5.86223850657894 15.10043766  6.68625115460526 15.82927148  7.7420173930921 15.9390186725  C 7.8307131875 15.94746076  7.91940900986842 15.9530888275  8.00810480427631 15.9530888275  C 8.95800829605263 15.9530888275  9.79632672368421 15.4212371225  10.1911661233553 14.54888776  L 10.7977309884868 13.21222342  L 13.2267991463816 17.759452395  C 13.3755792039474 18.0127151025  13.6473889325658 18.156230645  13.9249209786184 18.156230645  C 14.0622564292763 18.156230645  14.1995918799342 18.122462295  14.3254826957237 18.0492975  Z M 11.9421931052632 10.7977855425  C 10.9035937911184 10.693666445  9.9193564506579 11.2508444125  9.49304434703947 12.190730475  L 8.71767132730263 13.90447487  C 8.50022354440789 14.3856740225  8.0424387368421 14.377231935  7.90796443092105 14.36316178  C 7.77349015296053 14.349091625  7.32428877960526 14.2646707225  7.21270374342105 13.7468891725  L 6.81500319901316 11.912141505  C 6.59755541611842 10.907532735  5.75351467105263 10.1590006925  4.71491535690789 10.0520675475  L 2.81796954605263 9.8550854325  C 2.28579469572368 9.79880484  2.15132041776316 9.37107223250001  2.12270885855263 9.23881282500002  C 2.09409729934211 9.1093674375  2.03973535361842 8.66193663500002  2.50324247861842 8.40023184  L 4.15412897532895 7.4631597975  C 5.05825398355263 6.94819226750002  5.52176110855263 5.9295133425  5.30431332565789 4.92209055249998  L 4.91233504276316 3.09015687750002  C 4.80075000657894 2.57518934749999  5.17556130921053 2.31629857249999  5.29286866282895 2.2515758925  C 5.35867524342105 2.21499349499999  5.51317761842105 2.14182872750001  5.7048749868421 2.14182872750001  C 5.86223850657895 2.14182872750001  6.04249129605263 2.18966723250003  6.22274405756579 2.35006694999998  L 7.63901581907895 3.6051244075  C 8.41438883881579 4.29174776249999  9.54454512006579 4.40993704250002  10.4515312730263 3.89496951249998  L 12.1024177697368 2.95789746999998  C 12.5659248947368 2.69337862750001  12.9321527351974 2.9635255375  13.0322931644737 3.0535745075  C 13.13243359375 3.1436234775  13.4442994884868 3.47005098  13.2268517055921 3.95125013249998  L 12.4514786858553 5.66499449999998  C 12.0251665822368 6.60488058999999  12.2626424621711 7.69672428249999  13.0380154819079 8.38616168499999  L 14.454287243421 9.64121914250001  C 14.8519877878289 9.99297290750002  14.7032077302632 10.4178914675  14.6488457845395 10.5388947675  C 14.5944838388158 10.6598980675  14.3713137664474 11.0510482775  13.8391389161184 10.9947676575  L 11.9421931052632 10.7977855425  Z " fill-rule="nonzero" fill="#cdcdcd" stroke="none" transform="matrix(1 0 0 1 23 366 )" />
  </g>
</svg>