<?xml version="1.0" encoding="utf-8"?>
<svg version="1.1" xmlns:xlink="http://www.w3.org/1999/xlink" width="17px" height="14px" xmlns="http://www.w3.org/2000/svg">
  <g transform="matrix(1 0 0 1 -23 -420 )">
    <path d="M 16.7875 12.1692307692308  C 16.7875 13.1384615384615  16.04375 13.8923076923077  15.19375 13.8923076923077  L 1.80625 13.8923076923077  C 0.95625 13.8923076923077  0.2125 13.1384615384615  0.2125 12.2769230769231  L 0.2125 1.61538461538462  C 0.2125 0.753846153846154  0.95625 0  1.80625 0  L 15.19375 0  C 16.04375 0  16.7875 0.753846153846154  16.7875 1.61538461538462  L 16.7875 12.1692307692308  Z M 15.19375 1  L 1.80625 1  C 1.4875 1.07692307692308  1.275 1.4  1.275 1.61538461538462  L 1.275 12.1692307692308  C 1.275 12.4923076923077  1.4875 12.7076923076923  1.80625 12.7076923076923  L 15.19375 12.7076923076923  C 15.5125 12.7076923076923  15.725 12.4923076923077  15.725 12.1692307692308  L 15.725 1.61538461538462  C 15.725 1.29230769230769  15.5125 1.07692307692308  15.19375 1  Z " fill-rule="nonzero" fill="#cdcdcd" stroke="none" transform="matrix(1 0 0 1 23 420 )" />
  </g>
</svg>