<?xml version="1.0" encoding="utf-8"?>
<svg version="1.1" xmlns:xlink="http://www.w3.org/1999/xlink" width="9px" height="6px" xmlns="http://www.w3.org/2000/svg">
  <g transform="matrix(1 0 0 1 -28 -274 )">
    <path d="M 8.20205935274148 3.51872903055804  L 0.797940647258522 3.51872903055804  C 0.788741003995031 3.51926758507996  0.779528803764179 3.51953701972098  0.770314808482782 3.51953701972098  C 0.496850772559782 3.51953701972098  0.275164370222839 3.28729412203466  0.275164370222839 3.00080798916295  C 0.275164370222839 2.71432185629123  0.496850772559782 2.48207895860491  0.770314808482782 2.48207895860491  C 0.779528803764179 2.48207895860491  0.788741003995031 2.48234839324593  0.797940647258522 2.48288694776786  L 8.20205935274148 2.48288694776786  C 8.21125899600497 2.48234839324593  8.22047119623582 2.48207895860491  8.22968519151722 2.48207895860491  C 8.50314922744022 2.48207895860491  8.72483562977716 2.71432185629123  8.72483562977716 3.00080798916295  C 8.72483562977716 3.28729412203466  8.50314922744022 3.51953701972098  8.22968519151722 3.51953701972098  C 8.22047119623582 3.51953701972098  8.21125899600497 3.51926758507996  8.20205935274148 3.51872903055804  Z M 5.84970913904829 5.97663200819196  L 0.797940647258522 5.9685521165625  C 0.777482033145446 5.97124278654166  0.756882965315987 5.97259206217634  0.736263765539122 5.97259206217634  C 0.462799729616121 5.97259206217634  0.241113327279179 5.74034916449002  0.241113327279179 5.4538630316183  C 0.241113327279179 5.16737689874659  0.462799729616121 4.93513400106027  0.736263765539122 4.93513400106027  C 0.756882965315987 4.93513400106027  0.777482033145446 4.93648327669494  0.797940647258522 4.93917394667411  L 5.84970913904829 4.93917394667411  C 6.1231731750772 4.93917394667411  6.3448595775 5.17141684445037  6.3448595775 5.45790297743304  C 6.3448595775 5.7443891104157  6.1231731750772 5.97663200819196  5.84970913904829 5.97663200819196  Z M 8.20205935274148 1.06082605332589  L 0.797940647258522 1.06082605332589  C 0.524476611229614 1.06082605332589  0.302790208806817 0.82858315554963  0.302790208806817 0.542097022566963  C 0.302790208806817 0.2556108895843  0.524476611229614 0.0233679918080359  0.797940647258522 0.0233679918080359  L 8.20205935274148 0.0233679918080359  C 8.47552338877038 0.0233679918080359  8.69720979119318 0.2556108895843  8.69720979119318 0.542097022566963  C 8.69720979119318 0.82858315554963  8.47552338877038 1.06082605332589  8.20205935274148 1.06082605332589  Z " fill-rule="nonzero" fill="#cdcdcd" stroke="none" transform="matrix(1 0 0 1 28 274 )" />
  </g>
</svg>