<?xml version="1.0" encoding="utf-8"?>
<svg version="1.1" xmlns:xlink="http://www.w3.org/1999/xlink" width="16px" height="14px" xmlns="http://www.w3.org/2000/svg">
  <g transform="matrix(1 0 0 1 -25 -320 )">
    <path d="M 15.987265625 11.70785625  C 15.987265625 12.92491875  15.162109375 13.91510625  14.147859375 14  L 1.8788125 14  C 0.8645625 13.91510625  0.0394062500000001 12.92491875  0.0394062500000001 11.7078375  L 0.0394062500000001 2.4918375  C 0.0394062500000001 1.2747375  0.8645625 0.28456875  1.8788125 0.28456875  L 14.147859375 0.28456875  C 15.162109375 0.28456875  15.987265625 1.27475625  15.987265625 2.4918375  L 15.987265625 5.00544375  C 15.987265625 5.38245  15.732546875 5.6881125  15.418390625 5.6881125  C 14.774890625 5.6881125  14.251390625 6.31633125  14.251390625 7.088475  C 14.251390625 7.86065625  14.774890625 8.48885625  15.418390625 8.48885625  C 15.732546875 8.48885625  15.987265625 8.79451875  15.987265625 9.171525  L 15.987265625 11.70785625  Z M 14.147859375 1.6498875  L 1.8788125 1.6498875  C 1.491953125 1.6498875  1.177171875 2.0275875  1.177171875 2.4918375  L 1.177171875 11.7078375  C 1.177171875 12.172125  1.491953125 12.5497875  1.8788125 12.5497875  L 14.147859375 12.5497875  C 14.534734375 12.5497875  14.84946875 12.17210625  14.84946875 11.7078375  L 14.84946875 9.76891875  C 13.8528125 9.464175  13.113625 8.37796875  13.113625 7.08845625  C 13.113625 5.7989625  13.8528125 4.7127375  14.84946875 4.40803125  L 14.84946875 2.4918375  C 14.84946875 2.0275875  14.53471875 1.6498875  14.147859375 1.6498875  Z " fill-rule="nonzero" fill="#cdcdcd" stroke="none" transform="matrix(1 0 0 1 25 320 )" />
  </g>
</svg>