<?xml version="1.0" encoding="utf-8"?>
<svg version="1.1" xmlns:xlink="http://www.w3.org/1999/xlink" width="14px" height="16px" xmlns="http://www.w3.org/2000/svg">
  <g transform="matrix(1 0 0 1 -26 -269 )">
    <path d="M 11.710608397932 15.9167853693125  L 2.29094420869485 15.91829361575  C 1.04144618059605 15.916632014151  0.028954270813418 14.933068444564  0 13.719270360125  L 0 2.280729639875  C 0.0289542708134187 1.06693155543602  1.04144618059605 0.0833679858490292  2.29094420869485 0.0817063842499998  L 11.710608397932 0.0817063842499998  C 12.9601064261062 0.0833679857457774  13.9725983360062 1.06693155536294  14 2.280729639875  L 14 13.717762113875  C 13.9725983358999 14.9315601983138  12.9601064260309 15.915123767817  11.710608397932 15.9167853693125  Z M 11.710608397932 1.04849232875  L 2.29094420869485 1.050000575  C 1.59073693470761 1.05083160987334  1.0233201006158 1.60203653425193  1 2.282237886125  L 1 13.719270360125  C 1.0233201006158 14.3994717119981  1.59073693470761 14.9506766363767  2.29094420869485 14.95150767125  L 11.710608397932 14.95150767125  C 12.4108156719192 14.9506766363767  12.978232506011 14.3994717119981  13 13.719270360125  L 13 2.280729639875  C 12.978232506011 1.60052828800193  12.4108156719192 1.04932336362334  11.710608397932 1.04849232875  Z " fill-rule="nonzero" fill="#cdcdcd" stroke="none" transform="matrix(1 0 0 1 26 269 )" />
  </g>
</svg>