<?xml version="1.0" encoding="utf-8"?>
<svg version="1.1" xmlns:xlink="http://www.w3.org/1999/xlink" width="17px" height="18px" xmlns="http://www.w3.org/2000/svg">
  <g transform="matrix(1 0 0 1 -24 -468 )">
    <path d="M 1.41540178571429 9.18379360465116  C 1.41540178571429 5.13379360465116  4.58962053571429 1.84709302325581  8.50758928571429 1.84709302325581  C 12.4236607142857 1.84709302325581  15.5997767857143 5.13183139534884  15.5997767857143 9.18183139534884  C 15.5997767857143 13.2318313953488  12.4236607142857 16.5185319767442  8.50758928571429 16.5185319767442  C 4.59151785714286 16.5185319767442  1.41540178571429 13.2337936046512  1.41540178571429 9.18379360465116  Z M 11.8146205357143 1.08771802325581  C 10.7654017857143 0.628561046511628  9.65357142857143 0.395058139534884  8.50758928571429 0.395058139534884  C 7.36160714285714 0.395058139534884  6.24787946428571 0.626598837209302  5.20055803571429 1.08575581395349  C 4.18928571428571 1.52921511627907  3.28046875 2.16104651162791  2.50066964285714 2.96751453488372  C 1.72087053571429 3.77398255813954  1.10803571428571 4.71388081395349  0.681138392857143 5.75973837209302  C 0.237165178571429 6.84484011627907  0.0132812500000001 7.99469476744186  0.0132812500000001 9.17986918604651  C 0.0132812500000001 10.3650436046512  0.235267857142857 11.5188226744186  0.679241071428571 12.6039244186047  C 1.10803571428571 13.6497819767442  1.71897321428571 14.5896802325581  2.49877232142857 15.3961482558139  C 3.27857142857143 16.2026162790698  4.18738839285714 16.8364098837209  5.19866071428571 17.2779069767442  C 6.24787946428571 17.7370639534884  7.35970982142857 17.9686046511628  8.50569196428571 17.9686046511628  C 9.65167410714286 17.9686046511628  10.7654017857143 17.7370639534884  11.8127232142857 17.2779069767442  C 12.8239955357143 16.8344476744186  13.7328125 16.2026162790698  14.5126116071429 15.3961482558139  C 15.2924107142857 14.5896802325581  15.9052455357143 13.6497819767442  16.3321428571429 12.6039244186047  C 16.7761160714286 11.5188226744186  17 10.3689680232558  17 9.18379360465116  C 17 7.99861918604651  16.7780133928571 6.8468023255814  16.3359375 5.76170058139535  C 15.9071428571429 4.71584302325581  15.2943080357143 3.77594476744186  14.5145089285714 2.96947674418605  C 13.7347098214286 2.16300872093023  12.8258928571429 1.52921511627907  11.8146205357143 1.08771802325581  Z " fill-rule="nonzero" fill="#cdcdcd" stroke="none" transform="matrix(1 0 0 1 24 468 )" />
  </g>
</svg>