<?xml version="1.0" encoding="utf-8"?>
<svg version="1.1" xmlns:xlink="http://www.w3.org/1999/xlink" width="18px" height="11px" xmlns="http://www.w3.org/2000/svg">
  <g transform="matrix(1 0 0 1 -24 -220 )">
    <path d="M 3.27272727272727 3.89304347826087  L 4.36363636363636 10.5886956521739  C 4.40630574609571 10.824291228629  4.63703534964028 10.9982747253308  4.90909090909091 11  L 15.8181818181818 11  C 16.0902373776324 10.9982747253308  16.320966981177 10.824291228629  16.3636363636364 10.5886956521739  L 17.4545454545455 3.89304347826087  C 17.4724684012353 3.75517301689447  17.4251540667311 3.61688716001001  17.3236363636364 3.5104347826087  C 17.2189820202311 3.40597304569985  17.0676611885304 3.34661626636948  16.9090909090909 3.34782608695652  L 7.09090909090909 3.34782608695652  C 6.78966287998447 3.34782608695652  6.54545456171036 3.56195077182006  6.54545456171036 3.82608695652174  C 6.54545456171036 4.09022314122342  6.78966287998447 4.30434782608696  7.0909091071649 4.30434782608696  L 16.2763636363636 4.30434782608696  L 15.3490909090909 10.0434782608696  L 5.37818181818182 10.0434782608696  L 4.36363636363636 3.67304347826087  L 3.27272727272727 0.803478260869565  C 3.19795985050246 0.597909508745139  2.9727920044683 0.463657259674916  2.72727272727273 0.478260869565217  L 0.545454545454545 0.478260869565217  C 0.244208318274113 0.478260869565217  0 0.692385554428751  0 0.956521739130435  C 0 1.22065792383212  0.244208318274113 1.43478260869565  0.545454545454545 1.43478260869565  L 2.33454545454545 1.43478260869565  L 3.27272727272727 3.89304347826087  Z " fill-rule="nonzero" fill="#cdcdcd" stroke="none" transform="matrix(1 0 0 1 24 220 )" />
  </g>
</svg>