<?xml version="1.0" encoding="utf-8"?>
<svg version="1.1" xmlns:xlink="http://www.w3.org/1999/xlink" width="10px" height="6px" xmlns="http://www.w3.org/2000/svg">
  <g transform="matrix(1 0 0 1 -27 -474 )">
    <path d="M 9.6625 1.69471153846154  C 9.9325 1.38533653846154  9.9325 0.879086538461539  9.664375 0.569711538461538  C 9.39625 0.260336538461538  8.955625 0.260336538461538  8.6875 0.569711538461538  L 5.726875 3.98798076923077  L 3.533125 1.45673076923077  C 3.39625 1.29879807692308  3.214375 1.22091346153846  3.0325 1.22524038461539  C 2.8525 1.22091346153846  2.670625 1.29879807692308  2.531875 1.45673076923077  L 0.435625 3.86899038461538  C 0.1675 4.17836538461538  0.1675 4.68677884615385  0.435625 4.99615384615385  C 0.703749999999999 5.30552884615384  1.144375 5.30552884615384  1.4125 4.99615384615385  L 3.0325 3.13341346153846  L 5.21875 5.65600961538462  C 5.3575 5.81610576923077  5.543125 5.89399038461539  5.725 5.8875  C 5.90875 5.89399038461539  6.0925 5.81610576923077  6.23125 5.65600961538462  L 9.6625 1.69471153846154  Z " fill-rule="nonzero" fill="#cdcdcd" stroke="none" transform="matrix(1 0 0 1 27 474 )" />
  </g>
</svg>