<?xml version="1.0" encoding="utf-8"?>
<svg version="1.1" xmlns:xlink="http://www.w3.org/1999/xlink" width="18px" height="17px" xmlns="http://www.w3.org/2000/svg">
  <g transform="matrix(1 0 0 1 -24 -518 )">
    <path d="M 18 8.5  C 18 13.175  13.95 17  9 17  C 4.05 17  0 13.175  0 8.5  C 0 3.825  4.05 0  9 0  C 13.95 0  18 3.825  18 8.5  Z M 1.2375 8.5  C 1.2375 12.5375  4.725 15.83125  9 15.83125  C 13.275 15.83125  16.7625 12.5375  16.7625 8.5  C 16.7625 4.4625  13.275 1.16875  9 1.16875  C 4.725 1.16875  1.2375 4.4625  1.2375 8.5  Z " fill-rule="nonzero" fill="#cdcdcd" stroke="none" transform="matrix(1 0 0 1 24 518 )" />
  </g>
</svg>