<?xml version="1.0" encoding="utf-8"?>
<svg version="1.1" xmlns:xlink="http://www.w3.org/1999/xlink" width="6px" height="9px" xmlns="http://www.w3.org/2000/svg">
  <g transform="matrix(1 0 0 1 -30 -523 )">
    <path d="M 0.975000000000001 0.787499999999999  C 1.5375 0.224999999999999  2.2125 0  3.1125 0  C 3.9 0  4.575 0.225000000000001  5.025 0.675  C 5.475 1.125  5.8125 1.6875  5.8125 2.475  C 5.8125 3.0375  5.7 3.6  5.3625 3.9375  L 4.35 4.95  C 4.0125 5.0625  3.9 5.2875  3.7875 5.5125  C 3.675 5.7375  3.5625 6.075  3.5625 6.4125  L 3.5625 6.6375  L 2.2125 6.6375  L 2.2125 6.4125  C 2.2125 5.9625  2.325 5.5125  2.4375 5.2875  C 2.55 4.95  3.1125 4.3875  3.7875 3.7125  L 4.125 3.375  C 4.35 3.0375  4.4625 2.8125  4.4625 2.475  C 4.4625 2.025  4.35 1.6875  4.125 1.4625  C 3.9 1.2375  3.45 1.125  3 1.125  C 2.4375 1.125  2.1 1.35  1.875 1.6875  C 1.65 1.9125  1.5375 2.3625  1.5375 2.925  L 0.1875 2.925  C 0.1875 2.025  0.412500000000001 1.35  0.975000000000001 0.787499999999999  Z M 2.2125 7.425  C 2.4375 7.3125  2.6625 7.2  2.8875 7.2  C 3.1125 7.2  3.3375 7.3125  3.5625 7.425  C 3.7875 7.5375  3.7875 7.7625  3.7875 8.1  C 3.7875 8.325  3.675 8.55  3.5625 8.775  C 3.3375 8.8875  3.1125 9  2.8875 9  C 2.6625 9  2.4375 8.8875  2.2125 8.775  C 1.9875 8.55  1.9875 8.4375  1.9875 8.1  C 1.9875 7.875  2.1 7.65  2.2125 7.425  Z " fill-rule="nonzero" fill="#cdcdcd" stroke="none" transform="matrix(1 0 0 1 30 523 )" />
  </g>
</svg>