<?xml version="1.0" encoding="utf-8"?>
<svg version="1.1" xmlns:xlink="http://www.w3.org/1999/xlink" width="8px" height="7px" xmlns="http://www.w3.org/2000/svg">
  <g transform="matrix(1 0 0 1 -28 -623 )">
    <path d="M 7.1880984765625 3.25000000019531  C 7.1880984765625 5.00794812519531  5.7578881640625 6.43815843769531  3.9999400390625 6.43815843769531  C 2.24199193359375 6.43815843769531  0.811781601562501 5.00794812519531  0.811781621093751 3.25000000019531  C 0.811781640625001 1.49205187519531  2.24199193359375 0.0618415626953119  3.9999400390625 0.0618415626953119  C 5.75788814453125 0.0618415626953119  7.1880984765625 1.49205187519531  7.1880984765625 3.25000000019531  Z M 5.5101161328125 3.24998001972656  C 5.5101161328125 2.41722462910156  4.8326954296875 1.73980392597656  3.9999400390625 1.73980390644531  C 3.1671846484375 1.73980390644531  2.4897639453125 2.41722460957031  2.4897639453125 3.24998001972656  C 2.4897639453125 4.08273542988281  3.1671846484375 4.76015611347656  3.9999400390625 4.76015611347656  C 4.8326954296875 4.76015611347656  5.5101161328125 4.08273541035156  5.5101161328125 3.24998001972656  Z " fill-rule="nonzero" fill="#cdcdcd" stroke="none" transform="matrix(1 0 0 1 28 623 )" />
  </g>
</svg>