<?xml version="1.0" encoding="utf-8"?>
<svg version="1.1" xmlns:xlink="http://www.w3.org/1999/xlink" width="16px" height="14px" xmlns="http://www.w3.org/2000/svg">
  <g transform="matrix(1 0 0 1 -24 -570 )">
    <path d="M 1.63625 4.08328125  C 1.63642045454545 4.40421875  1.35005681818182 4.66671875  0.999943181818182 4.66671875  C 0.65 4.66671875  0.363636363636364 4.40421875  0.363636363636364 4.0834375  L 0.363636363636364 1.4584375  C 0.363636363636364 0.64171875  1.06369318181818 0  1.95448863636364 0  L 4.818125 0  C 5.16806818181818 0  5.45443181818182 0.2625  5.45443181818182 0.58328125  C 5.45443181818182 0.9040625  5.16806818181818 1.1665625  4.818125 1.1665625  L 1.95448863636364 1.1665625  C 1.79545454545455 1.1665625  1.63625 1.3125  1.63625 1.45828125  L 1.63625 4.08328125  Z M 15.6363636363636 4.0834375  C 15.6363636363636 4.40421875  15.35 4.66671875  15.0000568181818 4.66671875  C 14.6501136363636 4.66671875  14.36375 4.40421875  14.36375 4.0834375  L 14.36375 1.4584375  C 14.36375 1.31265625  14.2045454545455 1.16671875  14.0455113636364 1.16671875  L 11.181875 1.16671875  C 10.8319318181818 1.16671875  10.5455681818182 0.904218750000001  10.5455681818182 0.5834375  C 10.5455681818182 0.26265625  10.8319318181818 0.00015625000000045  11.181875 0.00015625000000045  L 14.0455113636364 0.00015625000000045  C 14.9363068181818 0.00015625000000045  15.6363636363636 0.641875  15.6363636363636 1.4584375  L 15.6363636363636 4.0834375  Z M 15.6363636363636 12.54171875  C 15.6363636363636 13.35828125  14.9363068181818 14  14.0455113636364 14  L 11.181875 14  C 10.8319318181818 14  10.5455681818182 13.7375  10.5455681818182 13.41671875  C 10.5455681818182 13.0959375  10.8319318181818 12.8334375  11.181875 12.8334375  L 14.0455113636364 12.8334375  C 14.2045454545455 12.8334375  14.36375 12.6875  14.36375 12.54171875  L 14.36375 9.91671875  C 14.36375 9.5959375  14.6501136363636 9.3334375  15.0000568181818 9.3334375  C 15.35 9.3334375  15.6363636363636 9.5959375  15.6363636363636 9.91671875  L 15.6363636363636 12.54171875  Z M 5.45443181818182 13.41671875  C 5.45460227272727 13.7375  5.16823863636364 14  4.818125 14  L 1.95448863636364 14  C 1.06369318181818 14  0.363636363636364 13.35828125  0.363636363636364 12.54171875  L 0.363636363636364 9.91671875  C 0.363636363636364 9.5959375  0.65 9.3334375  0.999943181818182 9.3334375  C 1.34988636363636 9.3334375  1.63625 9.5959375  1.63625 9.91671875  L 1.63625 12.54171875  C 1.63625 12.6875  1.79545454545455 12.8334375  1.95448863636364 12.8334375  L 4.818125 12.8334375  C 5.16806818181818 12.8334375  5.45443181818182 13.0959375  5.45443181818182 13.41671875  Z M 15.6361931818182 7.14578125  C 15.6363636363636 7.46671875  15.35 7.72921875  15.0000568181818 7.72921875  L 0.999943181818182 7.72921875  C 0.65 7.72921875  0.363636363636364 7.46671875  0.363636363636364 7.1459375  C 0.363636363636364 6.825  0.65 6.5625  0.999943181818182 6.5625  L 14.9998863636364 6.5625  C 15.3498295454545 6.5625  15.6361931818182 6.825  15.6361931818182 7.14578125  Z " fill-rule="nonzero" fill="#cdcdcd" stroke="none" transform="matrix(1 0 0 1 24 570 )" />
  </g>
</svg>