<?xml version="1.0" encoding="utf-8"?>
<svg version="1.1" xmlns:xlink="http://www.w3.org/1999/xlink" width="18px" height="16px" xmlns="http://www.w3.org/2000/svg">
  <g transform="matrix(1 0 0 1 -23 -618 )">
    <path d="M 13.8559276757813 15.2955631056641  C 13.6150509960937 15.7109614650391  13.1663751953125 15.9687266994141  12.6846218359375 15.9687266994141  L 5.315578046875 15.9687266994141  C 4.8331651171875 15.9687266994141  4.38448931640625 15.7108015822266  4.1442721875 15.2955631056641  L 0.4543539453125 8.91922626972656  C 0.2154359375 8.50660603535156  0.2154359375 7.99339398457031  0.45467373046875 7.58027408222656  L 4.1442721875 1.20443689472656  C 4.38450931640625 0.789358320507813  4.83348490234375 0.531273300976563  5.315578046875 0.531273300976563  L 12.6846018359375 0.531273300976563  C 13.1660354296875 0.531273300976563  13.6147112304687 0.789038535351563  13.8555879101562 1.20393722675781  L 17.5458459179688 7.58075375019531  C 17.784444140625 7.99369376972656  17.784444140625 8.50626625019531  17.5458459179688 8.91888650410156  L 13.8559276757813 15.2955631056641  Z M 12.6937956054688 1.87694093769531  L 5.315578046875 1.87366316425781  L 1.616486015625 8.25327777363281  L 5.3064042578125 14.6230590626953  L 4.72533822265625 14.9593110939453  L 5.3064042578125 14.6232189650391  C 5.3064042578125 14.6233788478516  5.30936224609375 14.6263368556641  5.315578046875 14.6263368361328  L 12.6846018359375 14.6263368361328  L 16.3836938476563 8.24672222675781  L 12.6937956054688 1.87694093769531  Z " fill-rule="nonzero" fill="#cdcdcd" stroke="none" transform="matrix(1 0 0 1 23 618 )" />
  </g>
</svg>