<?xml version="1.0" encoding="utf-8"?>
<svg version="1.1" xmlns:xlink="http://www.w3.org/1999/xlink" width="28px" height="26px" xmlns="http://www.w3.org/2000/svg">
  <g transform="matrix(1 0 0 1 -295 -76 )">
    <path d="M 8.306976734375 17.297674421875  L 8.2511628125 17.297674421875  C 8.86511628125 16.572093015625  17.013953515625 11.99534884375  17.01395346875 11.99534884375  L 6.4093023125 10.54418603125  L 20.58604653125 10.376744171875  C 20.86511628125 10.655813921875  20.86511628125 11.046511609375  20.641860453125 11.32558140625  C 20.641860453125 11.32558140625  20.641860453125 11.381395375  20.58604653125 11.381395328125  C 20.083720953125 11.939534875  12.548837234375 17.130232515625  12.5488371875 17.1302325625  L 21.14418603125 17.8  L 20.86511628125 16.3488371875  L 27.7302325625 9.65116281249999  L 18.241860453125 8.25581396874999  L 14 0.162790703124999  L 9.758139546875 8.311627890625  L 0.269767437500001 9.706976734375  L 7.13488371875 16.460465125  L 5.40465115625 25.837209296875  L 14 21.372093015625  L 22.59534884375 25.837209296875  L 21.2 18.13488371875  L 8.306976734375 18.693023265625  C 7.972093015625 18.358139546875  7.916279046875 17.8  8.2511628125 17.4093023125  L 8.306976734375 17.353488390625  L 8.306976734375 17.297674421875  Z " fill-rule="nonzero" fill="#ffffff" stroke="none" transform="matrix(1 0 0 1 295 76 )" />
  </g>
</svg>