<?xml version="1.0" encoding="utf-8"?>
<svg version="1.1" xmlns:xlink="http://www.w3.org/1999/xlink" width="16px" height="12px" xmlns="http://www.w3.org/2000/svg">
  <g transform="matrix(1 0 0 1 -59 -80 )">
    <path d="M 8.68000000714844 5.28000005906592  C 10.138429951834 6.4125204955396  10.9941624399095 8.15349348088054  10.9999999892578 10.0000000019541  L 10.9999999892578 12  C 13.7614237443445 12  16 9.76142376183454  16 7.00000002832286  L 16 5.000000077152  C 16 2.23857634364032  13.7614237443445 0  10.9999999892578 0  L 4.99999999511719 0  C 2.62365691729792 -0.000484890935808331  0.575268604864264 1.67166881923555  0.100000015527343 4.00000005469157  L 4.99999999511719 4.00000005469157  C 6.25784489005598 4.00535643995108  7.48219602617899 4.4058941693168  8.50000000732422 5.14500006025251  C 8.5651886650856 5.18263100524947  8.62562147549592 5.22795561270308  8.68000000714844 5.28000005906592  Z M 11.9999999726563 7.00000002832286  C 11.4477152319942 7.00000002832286  10.9999999892578 6.55228478908443  10.9999999892578 6.00000005273743  C 10.9999999892578 5.44771531639043  11.4477152319942 5.000000077152  11.9999999726563 5.000000077152  C 12.5522847601933 5.000000077152  13.0000000029297 5.44771531639043  13.0000000029297 6.00000005273743  C 13.0000000029297 6.55228478908443  12.5522847601933 7.00000002832286  12.0000000195313 7.00000002832286  Z " fill-rule="nonzero" fill="#ffffff" stroke="none" transform="matrix(1 0 0 1 59 80 )" />
  </g>
</svg>