<?xml version="1.0" encoding="utf-8"?>
<svg version="1.1" xmlns:xlink="http://www.w3.org/1999/xlink" width="17px" height="15px" xmlns="http://www.w3.org/2000/svg">
  <g transform="matrix(1 0 0 1 -53 -85 )">
    <path d="M 16.0000000165441 4.99999998437501  C 15.9999999906558 2.23857624489741  13.7614237424542 0  11.0000000055147 0  L 5.00000001102941 0  C 2.2385762740899 0  0 2.23857624489741  0 4.999999984375  L 0 7  C 0 9.76142375778343  2.23857625578407 12.000000015625  5.00000001102941 12.000000015625  L 7.00000002481618 12.000000015625  L 7.00000002481618 13.714999984375  C 6.99999696845363 13.7158741028159  6.99999544026885 13.716748225932  6.99999544026885 13.7176223497162  C 6.99999544026885 14.1318359120893  7.33578187758713 14.4676223497162  7.74999543957951 14.4676223497162  C 7.87969666405572 14.4676223497162  8.00718109870936 14.4339867432185  8.12000000816177 14.370000015625  L 13.4549999876333 11.370000015625  C 15.0317472651717 10.4813286844639  16.005136897038 8.80992881878854  16.0000000165441 7  L 16.0000000165441 4.99999998437501  Z M 5.00000001102941 6.000000015625  C 5.00000001102942 6.55228475682634  4.55228476826726 6.99999999999999  4.00000002757353 7  C 3.4477152400048 7.00000000000001  2.99999999724265 6.55228475682635  2.99999999724265 6.00000001562501  C 2.99999999724265 5.44771522754865  3.4477152400048 4.99999998437499  3.99999998069853 4.99999998437499  C 4.55228476826726 4.99999998437499  5.00000001102941 5.44771522754865  5.00000001102941 5.99999996875  Z M 12.0000000358456 4.999999984375  C 12.5522847765393 4.999999984375  13.0000000193015 5.44771522754866  13.0000000193015 5.99999996875  C 13.0000000193015 6.55228475682635  12.5522847765393 7.00000000000001  12.0000000358456 7.00000000000001  C 11.4477152482769 7.00000000000001  11.0000000055147 6.55228475682635  11.0000000055147 6.00000001562501  C 11.0000000055147 5.44771522754866  11.4477152482769 4.999999984375  11.9999999889706 4.999999984375  Z M 8.00000000827206 4.999999984375  C 8.55228474896579 4.999999984375  8.99999999172794 5.44771522754866  8.99999999172794 5.99999996875  C 8.99999999172794 6.55228475682635  8.55228474896579 7.00000000000001  8.00000000827206 7.00000000000001  C 7.44771526757833 7.00000000000001  7.00000002481618 6.55228475682635  7.00000002481618 6.00000001562501  C 7.00000002481618 5.44771522754866  7.44771526757833 4.999999984375  8.00000000827206 4.999999984375  Z " fill-rule="nonzero" fill="#ffffff" stroke="none" transform="matrix(1 0 0 1 53 85 )" />
  </g>
</svg>