<?xml version="1.0" encoding="utf-8"?>
<svg version="1.1" xmlns:xlink="http://www.w3.org/1999/xlink" width="24px" height="24px" xmlns="http://www.w3.org/2000/svg">
  <g transform="matrix(1 0 0 1 -236 -77 )">
    <path d="M 16.714285734375 12.61125  L 22.647321421875 6.72  C 22.5481755244198 6.49299509101954  22.431389318193 6.27411050201081  22.298035734375 6.06535715625  C 21.7755378528026 5.17712593442374  21.1458137257454 4.35650542503355  20.423035734375 3.621964265625  C 20.1092683810338 3.30789227042876  19.77379764928 3.01627978738633  19.41910715625 2.749285734375  C 18.589285734375 2.09464284375  17.672678578125 1.527321421875  16.714285734375 1.13464284375  C 16.714285734375 1.13464284375  16.757678578125 12.261964265625  16.714285734375 12.61125  Z M 7.638214265625 1.090714265625  C 7.638214265625 1.090714265625  15.5780356875 8.901964265625  15.84 9.207321421875  L 15.84 0.829285734375002  C 15.578035734375 0.7419643125  15.35785715625 0.698035734375001  15.098035734375 0.610714265624999  C 14.1018354993346 0.346313358341984  13.0751478638518 0.214284946077903  12.044464265625 0.218035734375004  C 11.5923793330542 0.224107434370399  11.1408990345209 0.253252497817252  10.691785734375 0.305357156250004  C 9.64299950666699 0.427327415601972  8.61570561844031 0.691540179833286  7.638214265625 1.090714265625  Z M 1.13464284375 7.281964265625  C 1.13464284375 7.285714265625  12.305357109375 7.24392853125  12.65464284375 7.285714265625  L 6.72 1.39285715625  C 6.49310658917007 1.49202632967557  6.27423738833662 1.608625227104  6.06535715625 1.74160715625  C 5.17714414001434 2.26413204466616  4.35652680119052 2.89385373870821  3.621964265625 3.61660715625  C 3.316071421875 3.96535715625  3.01125 4.27125  2.749285734375 4.62  C 2.094642890625 5.449285734375  1.5707143125 6.36535715625  1.13464284375 7.281964265625  Z M 1.090714265625 16.36285715625  C 1.090714265625 16.36285715625  8.946428578125 8.421964265625  9.207321421875 8.203928578125  L 0.829285734375002 8.203928578125  C 0.7419643125 8.464285734375  0.696428578125001 8.68339284375  0.610714265625003 8.94642857812499  C 0.349123300021686 9.94317785917275  0.217142380880585 10.9694961598936  0.218035734375004 12  C 0.218035734375004 12.43660715625  0.261964312500002 12.872678578125  0.305357156250007 13.309285734375  C 0.427438786870958 14.3580512451204  0.691647719338972 15.385330219179  1.090714265625 16.36285715625  Z M 7.285714265625 11.344821421875  L 1.352678578125 17.23660715625  C 1.45172902043766 17.464172779754  1.56851741480405 17.6835988442787  1.701964265625 17.89285715625  C 2.22445712698908 18.7812548527502  2.85417972869368 19.6020532861353  3.576964265625 20.336785734375  C 3.89112733269202 20.6504333014931  4.22656756368123 20.9420192713323  4.58089284375 21.209464265625  C 5.42043052980339 21.8446887651733  6.32753246451799 22.3852848780013  7.285714265625 22.821428578125  C 7.285714265625 22.864821421875  7.242321421875 11.69410715625  7.285714265625 11.344821421875  Z M 16.40625 22.909285734375  C 16.40625 22.909285734375  8.421964265625 15.098035734375  8.203928578125 14.792678578125  L 8.203928578125 23.170714265625  C 8.46535715625 23.2580356875  8.68339284375 23.301964265625  8.94535715625 23.389285734375  C 9.9415645761935 23.6536499231531  10.9682473188587 23.7856777082448  11.998928578125 23.781964265625  C 12.435535734375 23.781964265625  12.87160715625 23.7380356875  13.308214265625 23.69464284375  C 14.3704041487968 23.5673615990734  15.411700510537 23.3033912737525  16.40625 22.909285734375  Z M 22.778035734375 16.714285734375  C 22.778035734375 16.714285734375  11.60732146875 16.75607146875  11.258035734375 16.714285734375  L 17.192678578125 22.647321421875  C 17.4196834871055 22.5481755244197  17.6385680761142 22.431389318193  17.847321421875 22.298035734375  C 18.7356437897014 21.7756730971289  19.5562801728032 21.1459367768921  20.290714265625 20.423035734375  C 20.6047862769558 20.1092683826263  20.8963987756952 19.7737976508341  21.16339284375 19.41910715625  C 21.8307135697624 18.6011221298929  22.3746951747571 17.6898536959632  22.778035734375 16.714285734375  Z M 23.781964265625 12.001071421875  C 23.781964265625 11.56339284375  23.7380356875 11.127321421875  23.69464284375 10.690714265625  C 23.5726725802209 9.64192805385049  23.3084598160601 8.61463418166792  22.909285734375 7.63714284375  C 22.909285734375 7.63714284375  15.053571421875 15.578035734375  14.749285734375 15.79660715625  L 23.170714265625 15.79660715625  C 23.2580356875 15.534642890625  23.301964265625 15.3144643125  23.389285734375 15.05464284375  C 23.6564545773148 14.058987433085  23.7885307732954 13.031928234629  23.781964265625 12.001071421875  Z " fill-rule="nonzero" fill="#ffffff" stroke="none" transform="matrix(1 0 0 1 236 77 )" />
  </g>
</svg>