<?xml version="1.0" encoding="utf-8"?>
<svg version="1.1" xmlns:xlink="http://www.w3.org/1999/xlink" width="25px" height="28px" xmlns="http://www.w3.org/2000/svg">
  <g transform="matrix(1 0 0 1 -178 -75 )">
    <path d="M 24.19704 17.86712  C 24.46872 20.06072  23.97648 21.52352  23.48904 21.57968  C 23.10936 21.62648  22.3032 20.88128  21.69384 19.42352  C 21.27648 20.98904  20.46096 22.31072  19.37352 23.33744  C 20.69064 23.67488  21.58584 24.33104  21.58584 25.08584  C 21.58584 26.18744  19.67808 27.07808  17.32488 27.07808  C 15.55776 27.07808  14.03928 26.57168  13.3968 25.8548  C 13.1270833976733 25.8774698424562  12.8565060683579 25.8883601995994  12.58584 25.88744  C 12.27192 25.88744  11.95776 25.86872  11.6484 25.8452  C 11.01096 26.57192  9.48744 27.08288  7.70616 27.08288  C 5.3532 27.08288  3.45 26.19224  3.45 25.09064  C 3.45 24.30776  4.41551999999999 23.63288  5.82192 23.3048  C 4.70723966125589 22.2463376911583  3.90461846606017 20.9021049240287  3.5016 19.41872  C 2.892 20.89064  2.08584 21.6452  1.7064 21.5984  C 1.21872 21.53744  0.726479999999995 20.07968  0.998399999999997 17.87192  C 1.17648 16.3952  2.02512 14.58584  2.87808 13.99064  C 2.87328 13.82192  2.87808 13.6484  2.90159999999999 13.47512  C 3.06095999999999 12.1016  3.29039999999999 10.88744  3.88583999999999 10.76552  C 3.7808835040362 10.2597448671182  3.72749033520566 9.74462944614172  3.72648 9.22808  C 3.72648 4.64384  7.84679999999999 0.926479999999998  12.58584 0.926479999999998  C 17.32488 0.926479999999998  21.4452 4.64384  21.4452 9.22808  C 21.4452 9.75776  21.38904 10.27352  21.28128 10.77488  L 21.29064 10.77488  C 21.77808 10.80776  22.2048 12.03128  22.37352 13.48928  C 22.3968 13.68128  22.4016 13.86416  22.39224 14.0468  C 23.22192 14.7032  24.02352 16.442  24.19704 17.86712  Z " fill-rule="nonzero" fill="#ffffff" stroke="none" transform="matrix(1 0 0 1 178 75 )" />
  </g>
</svg>