<?xml version="1.0" encoding="utf-8"?>
<svg version="1.1" xmlns:xlink="http://www.w3.org/1999/xlink" width="27px" height="24px" xmlns="http://www.w3.org/2000/svg">
  <g transform="matrix(1 0 0 1 -109 -74 )">
    <path d="M 14.2 19.400000015625  C 14.119999984375 13.880000015625  18.919999984375 9.40000003125  25 9.399999984375  C 25.399999984375 9.399999984375  25.800000015625 9.399999984375  26.2 9.48  C 25.080000015625 4.359999984375  19.639999984375 0.600000000000001  13.320000015625 0.600000000000001  C 6.360000015625 0.600000000000001  0.600000015625 5.319999984375  0.600000015625 11.4  C 0.600000015625 14.919999984375  2.520000015625 17.720000015625  5.719999984375 19.959999984375  L 4.440000015625 23.799999984375  L 8.92 21.560000015625  C 10.36 21.96  11.880000015625 22.12000003125  13.399999984375 22.2  C 13.79999996875 22.2  14.2 22.2  14.599999984375 22.119999984375  C 14.359999984375 21.24  14.2 20.35999996875  14.2 19.400000015625  Z M 16.440000015625 6.680000015625  C 16.84 6.12  17.48000003125 5.88  18.120000015625 5.960000015625  C 18.76 5.80000003125  19.40000003125 6.12  19.800000015625 6.680000015625  C 20.2 7.24000003125  20.2 7.96000003125  19.800000015625 8.439999984375  C 19.40000003125 9  18.76 9.24  18.120000015625 9.15999998437501  C 17.48000003125 9.31999996875  16.84 9  16.440000015625 8.439999984375  C 16.04000003125 7.87999996875  16.04000003125 7.15999996875  16.440000015625 6.680000015625  Z M 10.519999984375 7.56  C 10.5199999375 8.35999996875  10.039999984375 9  9.240000015625 9.159999984375  C 8.60000003125 9.31999996875  7.96 9  7.560000015625 8.439999984375  C 7.16000003125 7.87999996875  7.16000003125 7.15999996875  7.560000015625 6.680000015625  C 7.96 6.12  8.60000003125 5.88  9.240000015625 5.960000015625  C 10.04000003125 6.12  10.52000003125 6.76000003125  10.519999984375 7.56  Z " fill-rule="nonzero" fill="#ffffff" stroke="none" transform="matrix(1 0 0 1 109 74 )" />
  </g>
</svg>