<?xml version="1.0" encoding="utf-8"?>
<svg version="1.1" xmlns:xlink="http://www.w3.org/1999/xlink" width="22px" height="20px" xmlns="http://www.w3.org/2000/svg">
  <g transform="matrix(1 0 0 1 -124 -84 )">
    <path d="M 17.2 16.199999984375  C 19.680000015625 14.43999996875  21.600000015625 11.96  21.600000015625 9.160000015625  C 21.600000015625 4.199999984375  16.48 0.200000000000003  10.800000015625 0.200000000000003  C 4.800000015625 0.200000000000003  0 4.199999984375  0 9.160000015625  C 0 14.120000046875  4.800000015625 18.12000003125  10.800000015625 18.119999984375  C 12.08000003125 18.03999996875  13.36 17.879999984375  14.640000015625 17.48  L 18.16 19.319999984375  L 17.2 16.199999984375  Z M 8.640000015625 7.07999998437501  C 8.400000015625 7.47999996875001  7.84 7.71999996875001  7.279999984375 7.64  C 6.559999984375 7.64  5.99999996875 7.079999984375  6.00000001562501 6.359999984375  C 6.00000001562501 5.639999984375  6.56000003125001 5.07999996875001  7.279999984375 5.08000001562501  C 7.759999984375 5.00000000000001  8.32 5.16000003125001  8.640000015625 5.63999998437501  C 8.96000003125 6.03999996875001  8.96000003125 6.59999998437501  8.640000015625 7.07999998437501  Z M 15.679999984375 7.07999998437501  C 15.35999996875 7.47999996875001  14.8 7.71999996875001  14.32 7.64  C 13.6 7.64  13.039999984375 7.079999984375  13.039999984375 6.359999984375  C 13.039999984375 5.639999984375  13.6 5.07999996875001  14.32 5.08000001562501  C 14.8 5.00000000000001  15.360000015625 5.16000003125001  15.679999984375 5.63999998437501  C 16 6.03999996875001  16 6.59999998437501  15.679999984375 7.07999998437501  Z " fill-rule="nonzero" fill="#ffffff" stroke="none" transform="matrix(1 0 0 1 124 84 )" />
  </g>
</svg>