<?xml version="1.0" encoding="utf-8"?>
<svg version="1.1" xmlns:xlink="http://www.w3.org/1999/xlink" width="24px" height="24px" xmlns="http://www.w3.org/2000/svg">
  <g transform="matrix(1 0 0 1 -116 -190 )">
    <path d="M 16.7012 12.0658  C 16.6988841986001 9.35747174755437  14.5039282524456 7.16251580139987  11.7956 7.1602  C 9.08727174755437 7.16251580139987  6.89231580139987 9.35747174755437  6.89 12.0658  C 6.89308605286656 14.7738087537506  9.08759124624945 16.9683139471334  11.7956 16.9714  C 14.5036087537506 16.9683139471334  16.6981139471334 14.7738087537506  16.7012 12.0658  Z M 11.7942 15.6624  L 11.7956 15.6624  C 9.80911940779345 15.6608559024546  8.19914409754539 14.0508805922066  8.1976 12.0644  C 8.20068709902585 10.0790129633311  9.81021116163872 8.47074144862685  11.7956 8.4692  C 13.7813073937905 8.47074409665169  15.3906559033483 10.0800926062095  15.3922 12.0658  C 15.3906550280701 14.0520536549058  13.7804541057585 15.6616280398936  11.7942 15.6624  Z M 22.605 9.7544  L 22.6036 9.7544  C 22.1416 9.7124  20.7304 9.4114  20.3608 8.605  C 20.0388 7.905  20.5722 6.9138  21.0748 6.2082  L 21.387 5.77  L 18.3266 2.5458  L 17.8604 2.8944  C 17.4404 3.2094  16.067 4.0242  15.2844 3.6532  C 14.6558 3.3536  14.485 2.2784  14.4514 1.4286  L 14.4276 0.8  L 9.5724 0.8  L 9.5472 1.43  C 9.5136 2.2784  9.3428 3.3536  8.7128 3.6532  C 7.933 4.0242  6.5582 3.2094  6.1368 2.8944  L 5.6706 2.5444  L 2.6102 5.77  L 2.921 6.2082  C 3.425 6.9138  3.957 7.9022  3.6364 8.6022  C 3.2682 9.4072  1.8906 9.7082  1.3922 9.7544  L 0.8 9.8104  L 0.8 14.1826  L 1.395 14.2372  C 1.8948 14.2848  3.2738 14.5844  3.6406 15.388  C 3.9598 16.0894  3.4278 17.0778  2.9252 17.7834  L 2.613 18.2216  L 5.6734 21.4458  L 6.141 21.0958  C 6.561 20.7808  7.9358 19.966  8.717 20.337  C 9.3442 20.6366  9.5164 21.7118  9.55 22.5616  L 9.5738 23.1902  L 14.4276 23.1902  L 14.4514 22.5602  C 14.485 21.7118  14.6572 20.6366  15.2844 20.337  C 16.067 19.966  17.4404 20.7808  17.8604 21.0958  L 18.3266 21.4458  L 21.387 18.2202  L 21.0748 17.782  C 20.5708 17.0764  20.0388 16.0866  20.3608 15.3852  C 20.729 14.5788  22.1388 14.2792  22.6022 14.2344  L 23.1986 14.1812  L 23.1986 9.8062  L 22.605 9.7544  Z M 21.891 11.7774  L 21.8896 11.7774  L 21.8896 13.0304  C 21.0846 13.2012  19.7154 13.6576  19.1708 14.8434  C 18.7536 15.7548  18.9328 16.8454  19.7084 18.0942  L 18.16 19.728  C 17.404 19.2702  15.948 18.5828  14.7272 19.1582  C 13.8704 19.5642  13.3552 20.4798  13.1928 21.884  L 10.8072 21.884  C 10.6462 20.4798  10.131 19.5642  9.2728 19.1582  C 8.0548 18.5828  6.5974 19.2688  5.8428 19.728  L 4.2916 18.0942  C 5.0658 16.8468  5.2464 15.7562  4.8278 14.8434  C 4.2832 13.6576  2.914 13.2012  2.1076 13.0304  L 2.1076 10.9668  C 2.914 10.7946  4.2832 10.3396  4.8278 9.1538  C 5.245 8.241  5.0644 7.1504  4.2902 5.903  L 5.84 4.2692  C 6.596 4.727  8.052 5.4144  9.2714 4.839  C 10.1296 4.433  10.6434 3.5174  10.8058 2.1118  L 13.1914 2.1118  C 13.3538 3.5174  13.869 4.4316  14.7258 4.839  C 15.9452 5.4158  17.4026 4.727  18.1586 4.2692  L 19.7084 5.903  C 18.9342 7.149  18.7536 8.241  19.1708 9.1538  C 19.7154 10.3396  21.0846 10.7946  21.891 10.9668  L 21.891 11.7774  Z " fill-rule="nonzero" fill="#666666" stroke="none" transform="matrix(1 0 0 1 116 190 )" />
  </g>
</svg>