<?xml version="1.0" encoding="utf-8"?>
<svg version="1.1" xmlns:xlink="http://www.w3.org/1999/xlink" width="18px" height="20px" xmlns="http://www.w3.org/2000/svg">
  <g transform="matrix(1 0 0 1 -55 -192 )">
    <path d="M 6.60000000878906 17.3333333235677  L 9.44999999707031 14.1666666699219  C 9.74999998828125 13.8333333463542  10.2000000058594 13.8333333463542  10.4999999970703 14.1666666699219  C 10.7999999882813 14.4999999934896  10.7999999882813 15.0000000130208  10.4999999970703 15.3333333365885  L 7.65000000878906 18.4999999902344  C 5.85 20.5  3.00000001171875 20.5  1.35000000878906 18.4999999902344  C -0.299999994140624 16.4999999804688  -0.45 13.3333333268229  1.35000000878906 11.4999999902344  L 4.19999999707031 8.33333333658854  C 4.49999998828125 8.00000001302083  4.95000000585938 8.00000001302083  5.24999999707031 8.33333333658854  C 5.54999998828125 8.66666666015625  5.54999998828125 9.1666666796875  5.24999999707031 9.50000000325521  L 2.40000000878906 12.666666656901  C 1.20000000292969 13.9999999967448  1.20000000292969 15.999999983724  2.40000000878906 17.3333333235677  C 3.60000001464844 18.6666666634115  5.40000000292969 18.6666666634115  6.60000000878906 17.3333333235677  Z M 12.7500000029297 11.6666666634115  C 12.4500000117187 11.3333333398438  12.4500000117187 10.8333333203125  12.7500000029297 10.4999999967448  L 15.5999999912109 7.33333334309896  C 16.7999999970703 6.00000000325521  16.7999999970703 4.00000001627604  15.5999999912109 2.66666667643229  C 14.3999999853516 1.33333333658854  12.5999999970703 1.33333333658854  11.3999999912109 2.66666667643229  L 8.55000000292969 5.83333333007813  C 8.25000001171875 6.16666665364583  7.79999999414062 6.16666665364583  7.50000000292969 5.83333333007813  C 7.20000001171875 5.50000000651042  7.20000001171875 4.99999998697916  7.50000000292969 4.66666666341146  L 10.3499999912109 1.50000000976563  C 12.15 -0.5  15.0000000087891 -0.5  16.6499999912109 1.50000000976563  C 18.2999999736328 3.50000001953125  18.45 6.66666667317708  16.6499999912109 8.50000000976562  L 13.8000000029297 11.6666666634115  C 13.5000000117188 11.9999999869792  13.0499999941406 11.9999999869792  12.7500000029297 11.6666666634115  Z M 13.4999999912109 6.16666667643229  L 5.69999999414063 14.8333333398438  C 5.40000000292969 15.1666666634115  4.94999998535156 15.1666666634115  4.64999999414063 14.8333333398438  C 4.35000000292969 14.500000016276  4.35000000292969 13.9999999967448  4.64999999414063 13.6666666731771  L 12.4499999912109 5.00000000976562  C 12.7499999824219 4.66666668619792  13.2 4.66666668619792  13.4999999912109 5.00000000976562  C 13.7999999824219 5.33333333333334  13.7999999824219 5.83333335286458  13.4999999912109 6.16666667643229  Z " fill-rule="nonzero" fill="#6c6f6e" stroke="none" transform="matrix(1 0 0 1 55 192 )" />
  </g>
</svg>