<?xml version="1.0" encoding="utf-8"?>
<svg version="1.1" xmlns:xlink="http://www.w3.org/1999/xlink" width="20px" height="16px" xmlns="http://www.w3.org/2000/svg">
  <g transform="matrix(1 0 0 1 -10 -34 )">
    <path d="M 19.7127046130952 15.2  C 19.7127046130952 15.6416  19.3500379464286 16  18.9031808035714 16  L 1.09365699404762 16  C 0.646799851190476 16  0.284133184523809 15.6416  0.284133184523809 15.2  L 0.284133184523809 14.666666671875  C 0.284133184523809 14.225066671875  0.646799851190476 13.866666671875  1.09365699404762 13.866666671875  L 18.9031808035714 13.866666671875  C 19.3500379464286 13.866666671875  19.7127046130952 14.225066671875  19.7127046130952 14.666666671875  L 19.7127046130952 15.2  Z M 19.7127046130952 8.266666671875  C 19.7127046130952 8.708266671875  19.3500379464286 9.066666671875  18.9031808035714 9  L 1.09365699404762 9  C 0.646799851190476 9.066666671875  0.284133184523809 8.708266671875  0.284133184523809 8.266666671875  L 0.284133184523809 7.733333328125  C 0.284133184523809 7.291733328125  0.646799851190476 6.933333328125  1.09365699404762 7  L 18.9031808035714 7  C 19.3500379464286 6.933333328125  19.7127046130952 7.291733328125  19.7127046130952 7.733333328125  L 19.7127046130952 8.266666671875  Z M 19.7127046130952 1.333333328125  C 19.7127046130952 1.774933328125  19.3500379464286 2.133333328125  18.9031808035714 2.133333328125  L 1.09365699404762 2.133333328125  C 0.646799851190476 2.133333328125  0.284133184523809 1.774933328125  0.284133184523809 1.333333328125  L 0.284133184523809 0.8  C 0.284133184523809 0.3584  0.646799851190476 0  1.09365699404762 0  L 18.9031808035714 0  C 19.3500379464286 0  19.7127046130952 0.3584  19.7127046130952 0.8  L 19.7127046130952 1.333333328125  Z " fill-rule="nonzero" fill="#ffffff" stroke="none" transform="matrix(1 0 0 1 10 34 )" />
  </g>
</svg>