<?xml version="1.0" encoding="utf-8"?>
<svg version="1.1" xmlns:xlink="http://www.w3.org/1999/xlink" width="30px" height="30px" xmlns="http://www.w3.org/2000/svg">
  <g transform="matrix(1 0 0 1 -130 -236 )">
    <path d="M 28.393753485778 0.183946488294313  C 28.7841606246514 -0.0501672240802709  29.1634132738427 -0.0390189520624351  29.5315114333519 0.217391304347827  C 29.8996095928611 0.484949832775918  30.0501952035694 0.841694537346709  29.9832682654769 1.2876254180602  L 25.6999442275516 26.9732441471572  C 25.6441717791411 27.2965440356745  25.4656999442276 27.5473801560758  25.1645287228109 27.7257525083612  C 25.0083658672616 27.8149386845039  24.8354712771891 27.8595317725752  24.6458449525934 27.8595317725752  C 24.5231455660904 27.8595317725752  24.3892916899052 27.8316610925307  24.2442833240379 27.7759197324415  L 15.4266592303402 24.180602006689  L 10.4406023424428 29.6488294314381  C 10.2398215281651 29.8829431438127  9.97769102063581 30  9.65421081985499 30  C 9.49804796430563 30  9.36977133296152 29.9777034559643  9.26938092582264 29.933110367893  C 9.0574456218628 29.8550724637681  8.89012827663135 29.7240802675585  8.76742889012828 29.5401337792642  C 8.64472950362521 29.3561872909699  8.58337981037368 29.1527313266444  8.58337981037368 28.9297658862876  L 8.58337981037368 21.371237458194  L 0.686001115448968 18.1438127090301  C 0.273284997211378 17.9877369007804  0.0501952035694367 17.6811594202899  0.0167317345231456 17.2240802675585  C -0.0167317345231456 16.7892976588629  0.161740100390407 16.4604236343367  0.552147239263804 16.2374581939799  L 28.393753485778 0.183946488294313  Z M 15.5772448410485 21.9230769230769  L 23.8092582264361 25.2842809364548  L 27.5069715560513 3.16053511705686  L 3.51366424986057 16.9899665551839  L 9.13552704963748 19.2809364548495  L 23.5750139431121 8.59531772575251  L 15.5772448410485 21.9230769230769  Z " fill-rule="nonzero" fill="#f59a23" stroke="none" transform="matrix(1 0 0 1 130 236 )" />
  </g>
</svg>