<?xml version="1.0" encoding="utf-8"?>
<svg version="1.1" xmlns:xlink="http://www.w3.org/1999/xlink" width="30px" height="30px" xmlns="http://www.w3.org/2000/svg">
  <g transform="matrix(1 0 0 1 -291 -236 )">
    <path d="M 24.78515625 19.1271901362751  C 25.3450520833333 17.809863724854  25.625 16.4308890330954  25.625 14.9902660609993  C 25.625 12.9007138221934  25.05859375 10.9863724853991  23.92578125 9.24724205061649  L 9.19921875 23.9065541855938  C 10.9830729166667 25.0616482803374  12.9166666666667 25.6391953277093  15 25.6391953277093  C 16.4453125 25.6391953277093  17.822265625 25.3569110966905  19.130859375 24.7923426346528  C 20.439453125 24.2277741726152  21.5690104166667 23.4717715768981  22.51953125 22.5243348475016  C 23.4700520833333 21.5768981181051  24.2252604166667 20.4445165476963  24.78515625 19.1271901362751  Z M 4.375 14.9902660609993  C 4.375 17.0927968851395  4.95442708333333 19.0330953926022  6.11328125 20.8111615833874  L 20.859375 6.13238157040883  C 19.1015625 4.95133030499676  17.1484375 4.36080467229072  15 4.36080467229072  C 13.0729166666667 4.36080467229072  11.2955729166667 4.83452303698897  9.66796875 5.78195976638546  C 8.04036458333333 6.72939649578196  6.75130208333333 8.02076573653472  5.80078125 9.65606748864374  C 4.85026041666667 11.2913692407528  4.375 13.069435431538  4.375 14.9902660609993  Z M 28.80859375 9.15963659961064  C 29.6028645833333 11.0090850097339  30 12.9526281635302  30 14.9902660609993  C 30 17.0279039584685  29.6028645833333 18.9746917585983  28.80859375 20.8306294613887  C 28.0143229166667 22.6865671641791  26.9498697916667 24.2829331602855  25.615234375 25.619727449708  C 24.2805989583333 26.9565217391304  22.685546875 28.0207657365347  20.830078125 28.8124594419208  C 18.974609375 29.6041531473069  17.03125 30  15 30  C 12.96875 30  11.025390625 29.6041531473069  9.169921875 28.8124594419208  C 7.314453125 28.0207657365347  5.71940104166667 26.9565217391304  4.384765625 25.619727449708  C 3.05013020833333 24.2829331602855  1.98567708333333 22.6865671641791  1.19140625 20.8306294613887  C 0.397135416666667 18.9746917585983  0 17.0279039584685  0 14.9902660609993  C 0 12.9526281635302  0.397135416666667 11.0090850097339  1.19140625 9.15963659961064  C 1.98567708333333 7.31018818948734  3.05013020833333 5.71706683971447  4.384765625 4.38027255029202  C 5.71940104166667 3.04347826086956  7.314453125 1.97923426346528  9.169921875 1.18754055807917  C 11.025390625 0.395846852693054  12.96875 0  15 0  C 17.03125 0  18.974609375 0.395846852693054  20.830078125 1.18754055807917  C 22.685546875 1.97923426346528  24.2805989583333 3.04347826086956  25.615234375 4.38027255029202  C 26.9498697916667 5.71706683971447  28.0143229166667 7.31018818948734  28.80859375 9.15963659961064  Z " fill-rule="nonzero" fill="#d9001b" stroke="none" transform="matrix(1 0 0 1 291 236 )" />
  </g>
</svg>