<?xml version="1.0" encoding="utf-8"?>
<svg version="1.1" xmlns:xlink="http://www.w3.org/1999/xlink" width="39px" height="40px" xmlns="http://www.w3.org/2000/svg">
  <defs>
    <linearGradient gradientUnits="userSpaceOnUse" x1="19.5" y1="0" x2="19.5" y2="40" id="LinearGradient10">
      <stop id="Stop11" stop-color="#f9f9f9" offset="1" />
      <stop id="Stop12" stop-color="#000000" offset="1" />
    </linearGradient>
  </defs>
  <g transform="matrix(1 0 0 1 -210 -15 )">
    <path d="M 10.5673267326733 10.8382838283828  C 11.2108910891089 10.1782178217822  11.5326732673267 9.38173817381738  11.5326732673267 8.44884488448845  C 11.5326732673267 7.51595159515951  11.2108910891089 6.71947194719472  10.5673267326733 6.05940594059406  C 9.92376237623762 5.3993399339934  9.14719471947195 5.06930693069307  8.23762376237624 5.06930693069307  C 7.32805280528053 5.06930693069307  6.55148514851485 5.3993399339934  5.90792079207921 6.05940594059406  C 5.26435643564356 6.71947194719472  4.94257425742574 7.51595159515951  4.94257425742574 8.44884488448845  C 4.94257425742574 9.38173817381738  5.26435643564356 10.1782178217822  5.90792079207921 10.8382838283828  C 6.55148514851485 11.4983498349835  7.32805280528053 11.8283828382838  8.23762376237624 11.8283828382838  C 9.14719471947195 11.8283828382838  9.92376237623762 11.4983498349835  10.5673267326733 10.8382838283828  Z M 38.0475247524752 21.2541254125413  C 38.6825082508251 21.9405940594059  39 22.7414741474147  39 23.6567656765677  C 39 24.5896589658966  38.6825082508251 25.3817381738174  38.0475247524752 26.03300330033  L 25.4079207920792 39.023102310231  C 24.7386138613861 39.6743674367437  23.9577557755776 40  23.0653465346535 40  C 22.1557755775578 40  21.383498349835 39.6743674367437  20.7485148514851 39.023102310231  L 2.34257425742574 20.1188118811881  C 1.69042904290429 19.4675467546755  1.13696369636964 18.5786578657866  0.682178217821782 17.4521452145215  C 0.227392739273927 16.3256325632563  0 15.2959295929593  0 14.3630363036304  L 0 3.37953795379538  C 0 2.46424642464246  0.326072607260726 1.67216721672167  0.978217821782178 1.003300330033  C 1.63036303630363 0.334433443344331  2.4026402640264 0  3.2950495049505 0  L 14.0039603960396 0  C 14.9135313531353 0  15.9174917491749 0.23322332233223  17.0158415841584 0.699669966996699  C 18.1141914191419 1.16611661166116  18.9894389438944 1.73377337733773  19.6415841584158 2.4026402640264  L 38.0475247524752 21.2541254125413  Z " fill-rule="nonzero" fill="url(#LinearGradient10)" stroke="none" transform="matrix(1 0 0 1 210 15 )" />
  </g>
</svg>