<?xml version="1.0" encoding="utf-8"?>
<svg version="1.1" xmlns:xlink="http://www.w3.org/1999/xlink" width="50px" height="40px" xmlns="http://www.w3.org/2000/svg">
  <defs>
    <linearGradient gradientUnits="userSpaceOnUse" x1="25" y1="0" x2="25" y2="40" id="LinearGradient1142">
      <stop id="Stop1143" stop-color="#f9f9f9" offset="1" />
      <stop id="Stop1144" stop-color="#000000" offset="1" />
    </linearGradient>
  </defs>
  <g transform="matrix(1 0 0 1 -128 -14 )">
    <path d="M 10.5712890625 26.825  C 11.3362630208333 26.0416666666667  11.71875 25.1  11.71875 24  C 11.71875 22.9  11.3362630208333 21.9583333333333  10.5712890625 21.175  C 9.80631510416667 20.3916666666667  8.88671875 20  7.8125 20  C 6.73828125 20  5.81868489583333 20.3916666666667  5.0537109375 21.175  C 4.28873697916667 21.9583333333333  3.90625 22.9  3.90625 24  C 3.90625 25.1  4.28873697916667 26.0416666666667  5.0537109375 26.825  C 5.81868489583333 27.6083333333333  6.73828125 28  7.8125 28  C 8.88671875 28  9.80631510416667 27.6083333333333  10.5712890625 26.825  Z M 14.7705078125 7.075  L 12.59765625 16  L 37.40234375 16  L 35.2294921875 7.075  C 35.1969401041667 6.94166666666666  35.0830078125 6.79583333333333  34.8876953125 6.6375  C 34.6923828125 6.47916666666666  34.521484375 6.4  34.375 7  L 15.625 7  C 15.478515625 6.4  15.3076171875 6.47916666666666  15.1123046875 6.6375  C 14.9169921875 6.79583333333333  14.8030598958333 6.94166666666666  14.7705078125 7.075  Z M 44.9462890625 26.825  C 45.7112630208333 26.0416666666667  46.09375 25.1  46.09375 24  C 46.09375 22.9  45.7112630208333 21.9583333333333  44.9462890625 21.175  C 44.1813151041667 20.3916666666667  43.26171875 20  42.1875 20  C 41.11328125 20  40.1936848958333 20.3916666666667  39.4287109375 21.175  C 38.6637369791667 21.9583333333333  38.28125 22.9  38.28125 24  C 38.28125 25.1  38.6637369791667 26.0416666666667  39.4287109375 26.825  C 40.1936848958333 27.6083333333333  41.11328125 28  42.1875 28  C 43.26171875 28  44.1813151041667 27.6083333333333  44.9462890625 26.825  Z M 48.40087890625 17.6375  C 49.4669596354167 18.7291666666667  50 20.05  50 21.6  L 50 31.2  C 50 31.4333333333333  49.9267578125 31.625  49.7802734375 31.775  C 49.6337890625 31.925  49.4466145833333 32  49.21875 32  L 46.875 32  L 46.875 35.2  C 46.875 36.5333333333333  46.4192708333333 37.6666666666667  45.5078125 38.6  C 44.5963541666667 39.5333333333333  43.4895833333333 40  42.1875 40  C 40.8854166666667 40  39.7786458333333 39.5333333333333  38.8671875 38.6  C 37.9557291666667 37.6666666666667  37.5 36.5333333333333  37.5 35.2  L 37.5 32  L 12.5 32  L 12.5 35.2  C 12.5 36.5333333333333  12.0442708333333 37.6666666666667  11.1328125 38.6  C 10.2213541666667 39.5333333333333  9.11458333333333 40  7.8125 40  C 6.51041666666667 40  5.40364583333333 39.5333333333333  4.4921875 38.6  C 3.58072916666667 37.6666666666667  3.125 36.5333333333333  3.125 35.2  L 3.125 32  L 0.78125 32  C 0.553385416666667 32  0.3662109375 31.925  0.2197265625 31.775  C 0.0732421875 31.625  0 31.4333333333333  0 31.2  L 0 21.6  C 0 20.05  0.533040364583333 18.7291666666667  1.59912109375 17.6375  C 2.66520182291667 16.5458333333333  3.955078125 16  5.46875 16  L 6.15234375 16  L 8.7158203125 5.525  C 9.09016927083333 3.95833333333333  9.9365234375 2.64583333333333  11.2548828125 1.5875  C 12.5732421875 0.529166666666665  14.0299479166667 0  15.625 0  L 34.375 0  C 35.9700520833333 0  37.4267578125 0.529166666666665  38.7451171875 1.5875  C 40.0634765625 2.64583333333333  40.9098307291667 3.95833333333333  41.2841796875 5.525  L 43.84765625 16  L 44.53125 16  C 46.044921875 16  47.3347981770833 16.5458333333333  48.40087890625 17.6375  Z " fill-rule="nonzero" fill="url(#LinearGradient1142)" stroke="none" transform="matrix(1 0 0 1 128 14 )" />
  </g>
</svg>