<?xml version="1.0" encoding="utf-8"?>
<svg version="1.1" xmlns:xlink="http://www.w3.org/1999/xlink" width="59px" height="36px" xmlns="http://www.w3.org/2000/svg">
  <defs>
    <linearGradient gradientUnits="userSpaceOnUse" x1="29.5" y1="0" x2="29.5" y2="36" id="LinearGradient214">
      <stop id="Stop215" stop-color="#f9f9f9" offset="1" />
      <stop id="Stop216" stop-color="#000000" offset="1" />
    </linearGradient>
  </defs>
  <g transform="matrix(1 0 0 1 -38 -14 )">
    <path d="M 46.2166666666667 28.8  L 12.7833333333333 28.8  C 11.43125 28.8  10.2737847222222 28.359375  9.3109375 27.478125  C 8.34809027777778 26.596875  7.86666666666667 25.5375  8 24.3  L 8 4.5  C 7.86666666666667 3.2625  8.34809027777778 2.203125  9.3109375 1.321875  C 10.2737847222222 0.440624999999995  11.43125 0  12.7833333333333 0  L 46.2166666666667 0  C 47.56875 0  48.7262152777778 0.440624999999995  49.6890625 1.321875  C 50.6519097222222 2.203125  51.1333333333333 3.2625  51 4.5  L 51 24.3  C 51.1333333333333 25.5375  50.6519097222222 26.596875  49.6890625 27.478125  C 48.7262152777778 28.359375  47.56875 28.8  46.2166666666667 28.8  Z M 12.0919270833333 3.8671875  C 11.8973090277778 4.0453125  11.8 4.25625  12 4.5  L 12 24.3  C 11.8 24.54375  11.8973090277778 24.7546875  12.0919270833333 24.9328125  C 12.2865451388889 25.1109375  12.5170138888889 25.2  12.7833333333333 25  L 46.2166666666667 25  C 46.4829861111111 25.2  46.7134548611111 25.1109375  46.9080729166667 24.9328125  C 47.1026909722222 24.7546875  47.2 24.54375  47 24.3  L 47 4.5  C 47.2 4.25625  47.1026909722222 4.0453125  46.9080729166667 3.8671875  C 46.7134548611111 3.68906249999999  46.4829861111111 3.6  46.2166666666667 4  L 12.7833333333333 4  C 12.5170138888889 3.6  12.2865451388889 3.68906249999999  12.0919270833333 3.8671875  Z M 4.91666666666667 30  L 54.0833333333333 30  L 59 30.6  L 59 33.3  C 59 34.05  58.5185763888889 34.6875  57.5557291666667 35.2125  C 56.5928819444444 35.7375  55.4354166666667 36  54.0833333333333 36  L 4.91666666666667 36  C 3.56458333333333 36  2.40711805555556 35.7375  1.44427083333333 35.2125  C 0.481423611111111 34.6875  0 34.05  0 33.3  L 0 30.6  L 4.91666666666667 30  Z M 27.0416666666667 33.3  L 31.9583333333333 33.3  C 32.2861111111111 33.3  32.45 33.15  32.45 32.85  C 32.45 32.55  32.2861111111111 32.4  31.9583333333333 32.4  L 27.0416666666667 32.4  C 26.7138888888889 32.4  26.55 32.55  26.55 32.85  C 26.55 33.15  26.7138888888889 33.3  27.0416666666667 33.3  Z " fill-rule="nonzero" fill="url(#LinearGradient214)" stroke="none" transform="matrix(1 0 0 1 38 14 )" />
  </g>
</svg>