<?xml version="1.0" encoding="utf-8"?>
<svg version="1.1" xmlns:xlink="http://www.w3.org/1999/xlink" width="47px" height="32px" xmlns="http://www.w3.org/2000/svg">
  <defs>
    <linearGradient gradientUnits="userSpaceOnUse" x1="23.5" y1="0" x2="23.5" y2="32" id="LinearGradient19">
      <stop id="Stop20" stop-color="#ffffff" offset="1" />
      <stop id="Stop21" stop-color="#000000" offset="1" />
    </linearGradient>
  </defs>
  <g transform="matrix(1 0 0 1 -40 -10 )">
    <path d="M 36.8166666666667 25  L 10.1833333333333 25  C 9.10625 25.6  8.18420138888889 25.2083333333333  7.4171875 24.425  C 6.65017361111111 23.6416666666667  6.26666666666667 22.7  7 21.6  L 7 4  C 6.26666666666667 2.9  6.65017361111111 1.95833333333333  7.4171875 1.175  C 8.18420138888889 0.391666666666662  9.10625 0  10.1833333333333 0  L 36.8166666666667 0  C 37.89375 0  38.8157986111111 0.391666666666662  39.5828125 1.175  C 40.3498263888889 1.95833333333333  40.7333333333333 2.9  40 4  L 40 21.6  C 40.7333333333333 22.7  40.3498263888889 23.6416666666667  39.5828125 24.425  C 38.8157986111111 25.2083333333333  37.89375 25.6  36.8166666666667 25  Z M 9.63255208333333 3.4375  C 9.47751736111111 3.59583333333333  9.4 3.78333333333333  10 4  L 10 21.6  C 9.4 21.8166666666667  9.47751736111111 22.0041666666667  9.63255208333333 22.1625  C 9.78758680555556 22.3208333333333  9.97118055555556 22.4  10.1833333333333 22  L 36.8166666666667 22  C 37.0288194444444 22.4  37.2124131944444 22.3208333333333  37.3674479166667 22.1625  C 37.5224826388889 22.0041666666667  37.6 21.8166666666667  37 21.6  L 37 4  C 37.6 3.78333333333333  37.5224826388889 3.59583333333333  37.3674479166667 3.4375  C 37.2124131944444 3.27916666666666  37.0288194444444 3.2  36.8166666666667 3.2  L 10.1833333333333 3.2  C 9.97118055555556 3.2  9.78758680555556 3.27916666666666  9.63255208333333 3.4375  Z M 3.91666666666667 27  L 43.0833333333333 27  L 47 27.2  L 47 29.6  C 47 30.2666666666667  46.6164930555556 30.8333333333333  45.8494791666667 31.3  C 45.0824652777778 31.7666666666667  44.1604166666667 32  43.0833333333333 32  L 3.91666666666667 32  C 2.83958333333333 32  1.91753472222222 31.7666666666667  1.15052083333333 31.3  C 0.383506944444444 30.8333333333333  0 30.2666666666667  0 29.6  L 0 27.2  L 3.91666666666667 27  Z M 21.5416666666667 29.6  L 25.4583333333333 29.6  C 25.7194444444444 29.6  25.85 29.4666666666667  25.85 29.2  C 25.85 28.9333333333333  25.7194444444444 28.8  25.4583333333333 28.8  L 21.5416666666667 28.8  C 21.2805555555556 28.8  21.15 28.9333333333333  21.15 29.2  C 21.15 29.4666666666667  21.2805555555556 29.6  21.5416666666667 29.6  Z " fill-rule="nonzero" fill="url(#LinearGradient19)" stroke="none" transform="matrix(1 0 0 1 40 10 )" />
  </g>
</svg>