<?xml version="1.0" encoding="utf-8"?>
<svg version="1.1" xmlns:xlink="http://www.w3.org/1999/xlink" width="37px" height="32px" xmlns="http://www.w3.org/2000/svg">
  <defs>
    <linearGradient gradientUnits="userSpaceOnUse" x1="18.5" y1="0" x2="18.5" y2="32" id="LinearGradient202">
      <stop id="Stop203" stop-color="#ffffff" offset="1" />
      <stop id="Stop204" stop-color="#000000" offset="1" />
    </linearGradient>
  </defs>
  <g transform="matrix(1 0 0 1 -293 -10 )">
    <path d="M 13.2142857142857 3  L 13.2142857142857 5.33333333333333  L 23.7857142857143 5.33333333333333  L 23.7857142857143 3  L 13.2142857142857 3  Z M 23.125 18.6666666666667  L 37 18.6666666666667  L 37 28.6666666666667  C 37 29.5833333333333  36.6765252976191 30.3680555555556  36.0295758928571 31.0208333333333  C 35.3826264880952 31.6736111111111  34.6049107142857 32  33.6964285714286 32  L 3.30357142857143 32  C 2.39508928571429 32  1.61737351190476 31.6736111111111  0.970424107142857 31.0208333333333  C 0.323474702380952 30.3680555555556  0 29.5833333333333  0 28.6666666666667  L 0 18.6666666666667  L 13.875 18.6666666666667  L 13.875 22  C 13.875 22.3611111111111  14.0057663690476 22.6736111111111  14.2672991071429 22.9375  C 14.5288318452381 23.2013888888889  14.8385416666667 23.3333333333333  15.1964285714286 23.3333333333333  L 21.8035714285714 23.3333333333333  C 22.1614583333333 23.3333333333333  22.4711681547619 23.2013888888889  22.7327008928571 22.9375  C 22.9942336309524 22.6736111111111  23.125 22.3611111111111  23.125 22  L 23.125 18.6666666666667  Z M 15.8571428571429 18.6666666666667  L 21.1428571428571 18.6666666666667  L 21.1428571428571 21.3333333333333  L 15.8571428571429 21.3333333333333  L 15.8571428571429 18.6666666666667  Z M 36.0295758928571 6.3125  C 36.6765252976191 6.96527777777778  37 7.75  37 8.66666666666667  L 37 16.6666666666667  L 0 16.6666666666667  L 0 8.66666666666667  C 0 7.75  0.323474702380952 6.96527777777778  0.970424107142857 6.3125  C 1.61737351190476 5.65972222222222  2.39508928571429 5.33333333333333  3.30357142857143 5.33333333333333  L 10.5714285714286 5.33333333333333  L 10.5714285714286 2  C 10.5714285714286 1.44444444444444  10.7641369047619 0.972222222222218  11.1495535714286 0.583333333333332  C 11.5349702380952 0.194444444444446  12.0029761904762 0  12.5535714285714 0  L 24.4464285714286 0  C 24.9970238095238 0  25.4650297619048 0.194444444444446  25.8504464285714 0.583333333333332  C 26.2358630952381 0.972222222222218  26.4285714285714 1.44444444444444  26.4285714285714 2  L 26.4285714285714 5.33333333333333  L 33.6964285714286 5.33333333333333  C 34.6049107142857 5.33333333333333  35.3826264880952 5.65972222222222  36.0295758928571 6.3125  Z " fill-rule="nonzero" fill="url(#LinearGradient202)" stroke="none" transform="matrix(1 0 0 1 293 10 )" />
  </g>
</svg>