<?xml version="1.0" encoding="utf-8"?>
<svg version="1.1" xmlns:xlink="http://www.w3.org/1999/xlink" width="31px" height="36px" xmlns="http://www.w3.org/2000/svg">
  <defs>
    <linearGradient gradientUnits="userSpaceOnUse" x1="15.5" y1="0" x2="15.5" y2="36" id="LinearGradient205">
      <stop id="Stop206" stop-color="#ffffff" offset="1" />
      <stop id="Stop207" stop-color="#000000" offset="1" />
    </linearGradient>
  </defs>
  <g transform="matrix(1 0 0 1 -215 -10 )">
    <path d="M 8.3996699669967 9.75445544554455  C 8.91122112211221 9.16039603960396  9.16699669966997 8.44356435643564  9.16699669966997 7.6039603960396  C 9.16699669966997 6.76435643564356  8.91122112211221 6.04752475247525  8.3996699669967 5.45346534653465  C 7.88811881188119 4.85940594059406  7.27084708470847 4.56237623762376  6.54785478547855 4.56237623762376  C 5.82486248624863 4.56237623762376  5.20759075907591 4.85940594059406  4.6960396039604 5.45346534653465  C 4.18448844884488 6.04752475247525  3.92871287128713 6.76435643564356  3.92871287128713 7.6039603960396  C 3.92871287128713 8.44356435643564  4.18448844884488 9.16039603960396  4.6960396039604 9.75445544554455  C 5.20759075907591 10.3485148514851  5.82486248624863 10.6455445544554  6.54785478547855 10.6455445544554  C 7.27084708470847 10.6455445544554  7.88811881188119 10.3485148514851  8.3996699669967 9.75445544554455  Z M 30.242904290429 19.1287128712871  C 30.7476347634763 19.7465346534653  31 20.4673267326733  31 21.2910891089109  C 31 22.1306930693069  30.7476347634763 22.8435643564356  30.242904290429 23.429702970297  L 20.1960396039604 35.1207920792079  C 19.6640264026403 35.7069306930693  19.0433443344334 36  18.3339933993399 36  C 17.61100110011 36  16.9971397139714 35.7069306930693  16.4924092409241 35.1207920792079  L 1.86204620462046 18.1069306930693  C 1.34367436743674 17.5207920792079  0.903740374037404 16.7207920792079  0.542244224422442 15.7069306930693  C 0.180748074807481 14.6930693069307  0 13.7663366336634  0 12.9267326732673  L 0 3.04158415841584  C 0 2.21782178217822  0.259185918591859 1.5049504950495  0.777557755775578 0.902970297029701  C 1.2959295929593 0.300990099009898  1.90979097909791 0  2.61914191419142 0  L 11.1313531353135 0  C 11.8543454345435 0  12.6523652365237 0.209900990099007  13.5254125412541 0.629702970297029  C 14.3984598459846 1.04950495049505  15.0941694169417 1.56039603960396  15.6125412541254 2.16237623762376  L 30.242904290429 19.1287128712871  Z " fill-rule="nonzero" fill="url(#LinearGradient205)" stroke="none" transform="matrix(1 0 0 1 215 10 )" />
  </g>
</svg>