<?xml version="1.0" encoding="utf-8"?>
<svg version="1.1" xmlns:xlink="http://www.w3.org/1999/xlink" width="17px" height="14px" xmlns="http://www.w3.org/2000/svg">
  <g transform="matrix(1 0 0 1 -334 -15 )">
    <path d="M 16.3044170966046 4.72236579251803  C 16.348874618765 3.52882423001803  16.3524225897686 2.33308724308894  16.3161587240835 1.13935197641226  C 16.3052991567758 0.782416292067308  15.9751606828425 0.5574649609375  15.50226015625 0.565665546123798  C 15.028575550631 0.573866147085337  14.7845294786659 0.811860935997596  14.7067091564002 1.16894191030649  C 14.6663876453576 1.35411712439904  14.67936423753 1.5478480874399  14.677031577524 1.73781774414063  C 14.6730523553936 2.06191878004808  14.6759534592849 2.38608436823918  14.6759534592849 2.71024997220553  C 14.6144224879808 2.73322132512019  14.5528719012921 2.75620881610577  14.491340929988 2.77921244516226  C 14.2846564381761 2.61565257587139  14.0814611286809 2.44900940429688  13.8707778185096 2.2890332436899  C 11.9719033657602 0.847359186448317  9.71893664475661 0.310656150841346  7.19587266714243 0.629639872295673  C 3.63354484938401 1.07999452674279  0.994162043269231 3.52246392127404  0.684448950570914 6.5714705483774  C 0.393906716496394 9.43163751502404  2.63446530836839 12.19514078125  5.99759663499099 13.1247781738281  C 9.39979495004507 14.0652313236178  13.1853122074069 12.9706134698017  15.0987902565355 10.4903535404147  C 15.2219698148287 10.3306840978065  15.349971501277 10.1667690805288  15.425145528095 9.99023032151442  C 15.5711223200871 9.64733895507813  15.4977908943059 9.3281130836839  15.0864997430889 9.14489115985577  C 14.6902434010667 8.96840081505409  14.3146672678786 9.03928430213341  14.0333184236028 9.33883198091947  C 13.8926145879657 9.48863811222957  13.7856459574069 9.65952685847356  13.6542923197115 9.81570942082332  C 12.467953973107 11.226518273738  10.8382946401743 11.9952270913462  8.7529650379357 12.0789441781851  C 5.96072509465144 12.1910404807692  3.40110321213942 10.6995009833233  2.5873418753756 8.50104767653245  C 1.74688246769832 6.23046790414663  2.9093650777494 3.78396277719351  5.39583195800781 2.59045352238582  C 7.81282899977464 1.43024706204928  10.9157621345403 1.76319441105769  12.8717179311899 3.39911602313702  C 13.0149504274339 3.51891248873197  13.111451549354 3.67661250300481  13.3436579552284 3.95165525465745  C 12.5800387710337 3.95165525465745  11.9921523617788 3.92605260742187  11.409166465595 3.95914555964543  C 10.8707949380258 3.98973635366586  10.5856432759916 4.2535759397536  10.5900733454778 4.62397479792668  C 10.5943857992788 4.98460720477764  10.8995316105769 5.2830087492488  11.4175757572115 5.29350163461538  C 12.7697478331581 5.32089614408053  14.1233508552434 5.3109521108774  15.4762090099159 5.29908707932692  C 15.9219214257812 5.29518049879808  16.2908916567758 5.08506448768029  16.3044170966046 4.72236579251803  Z " fill-rule="nonzero" fill="#9a9a9a" stroke="none" transform="matrix(1 0 0 1 334 15 )" />
  </g>
</svg>