<?xml version="1.0" encoding="utf-8"?>
<svg version="1.1" xmlns:xlink="http://www.w3.org/1999/xlink" width="13px" height="14px" xmlns="http://www.w3.org/2000/svg">
  <g transform="matrix(1 0 0 1 -87 -14 )">
    <path d="M 13 7  C 13 10.8641736723274  10.0924872787483 13.9974262134374  6.50432680655626 13.9999984491267  C 6.50288453790417 13.9999994830421  6.50144226897162 14  6.5 14  C 2.91014912609984 14  0 10.8659932488155  0 7  C 0 3.13400675118441  2.91014912609984 0  6.5 0  C 8.22212808354865 0  9.8738721484198 0.735980681880515  11.0925621006739 2.04634426017834  C 12.3137701663974 3.35941537222596  13 5.14156846631272  13 7  Z M 6.50432680655626 1.49108579315514  L 6.50432680655626 1.52228008905536  C 6.50287720870547 1.52227876190515  6.5014276103952 1.52227809832998  6.49997801202058 1.52227809832998  C 3.67481016740931 1.52227809832998  1.38455911718991 3.98870230625859  1.38455911718991 7.03119075430149  C 1.38455911718991 10.0736792023444  3.67481016740931 12.5401034102729  6.49997801202058 12.5401034102729  C 9.32514585663183 12.5401034102729  11.6153969068512 10.0736792023444  11.6153969068512 7.03119075430149  C 11.6153969068512 5.57128427463227  11.0772967768261 4.17107502395436  10.1193000685883 3.13814461668458  C 9.16784662377391 2.08977389084911  7.86554548226167 1.49641774945005  6.50432680655626 1.49108579315514  Z " fill-rule="nonzero" fill="#999999" stroke="none" transform="matrix(1 0 0 1 87 14 )" />
  </g>
</svg>