<?xml version="1.0" encoding="utf-8"?>
<svg version="1.1" xmlns:xlink="http://www.w3.org/1999/xlink" width="14px" height="19px" xmlns="http://www.w3.org/2000/svg">
  <g transform="matrix(1 0 0 1 -8 -13 )">
    <path d="M 9.474609375 8.572265625  C 10.158203125 7.95377604166667  10.5 7.20746527777778  10.5 6.33333333333333  C 10.5 5.45920138888889  10.158203125 4.712890625  9.474609375 4.09440104166667  C 8.791015625 3.47591145833333  7.96614583333333 3.16666666666667  7 3.16666666666667  C 6.03385416666667 3.16666666666667  5.208984375 3.47591145833333  4.525390625 4.09440104166667  C 3.841796875 4.712890625  3.5 5.45920138888889  3.5 6.33333333333333  C 3.5 7.20746527777778  3.841796875 7.95377604166667  4.525390625 8.572265625  C 5.208984375 9.19075520833333  6.03385416666667 9.5  7 9.5  C 7.96614583333333 9.5  8.791015625 9.19075520833333  9.474609375 8.572265625  Z M 11.94921875 1.85546875  C 13.31640625 3.09244791666667  14 4.58506944444444  14 6.33333333333333  C 14 7.23220486111111  13.849609375 7.97026909722222  13.548828125 8.54752604166667  L 8.572265625 18.1217447916667  C 8.42643229166667 18.3938802083333  8.2099609375 18.6082899305556  7.9228515625 18.7649739583333  C 7.6357421875 18.9216579861111  7.328125 19  7 19  C 6.671875 19  6.3642578125 18.9216579861111  6.0771484375 18.7649739583333  C 5.7900390625 18.6082899305556  5.578125 18.3938802083333  5.44140625 18.1217447916667  L 0.451171875 8.54752604166667  C 0.150390625 7.97026909722222  0 7.23220486111111  0 6.33333333333333  C 0 4.58506944444444  0.68359375 3.09244791666667  2.05078125 1.85546875  C 3.41796875 0.618489583333334  5.06770833333333 0  7 0  C 8.93229166666667 0  10.58203125 0.618489583333334  11.94921875 1.85546875  Z " fill-rule="nonzero" fill="#ffffff" stroke="none" transform="matrix(1 0 0 1 8 13 )" />
  </g>
</svg>