<?xml version="1.0" encoding="utf-8"?>
<svg version="1.1" xmlns:xlink="http://www.w3.org/1999/xlink" width="6px" height="6px" xmlns="http://www.w3.org/2000/svg">
  <g transform="matrix(1 0 0 1 -56 -20 )">
    <path d="M 6 1.3304347826087  C 6 1.43285024154589  5.97642679900744 1.5207729468599  5.92928039702233 1.59420289855072  L 3.16749379652605 5.88985507246377  C 3.12034739454094 5.96328502415459  3.06451612903226 6  3 6  C 2.93548387096774 6  2.87965260545906 5.96328502415459  2.83250620347395 5.88985507246377  L 0.0707196029776675 1.59420289855072  C 0.0235732009925559 1.5207729468599  0 1.43285024154589  0 1.3304347826087  C 0 1.2280193236715  0.0235732009925559 1.14009661835749  0.0707196029776675 1.06666666666667  L 0.688585607940447 0.110144927536232  C 0.735732009925558 0.0367149758454104  0.791563275434243 0  0.856079404466501 0  C 0.920595533498759 0  0.976426799007444 0.0367149758454104  1.02357320099256 0.110144927536232  L 3 3.18840579710145  L 4.97642679900744 0.110144927536232  C 5.02357320099256 0.0367149758454104  5.07940446650124 0  5.1439205955335 0  C 5.20843672456576 0  5.26426799007444 0.0367149758454104  5.31141439205955 0.110144927536232  L 5.92928039702233 1.06666666666667  C 5.97642679900744 1.14009661835749  6 1.2280193236715  6 1.3304347826087  Z " fill-rule="nonzero" fill="#ffffff" stroke="none" transform="matrix(1 0 0 1 56 20 )" />
  </g>
</svg>