<?xml version="1.0" encoding="utf-8"?>
<svg version="1.1" xmlns:xlink="http://www.w3.org/1999/xlink" width="14px" height="14px" xmlns="http://www.w3.org/2000/svg">
  <g transform="matrix(1 0 0 1 -27 -34 )">
    <path d="M 14 7  C 14 10.8641736723274  10.8688324540367 13.9974262134374  7.00465963782982 13.9999984491267  C 7.00310642543526 13.9999994830421  7.00155321273867 14  7 14  C 3.13400675118444 14  0 10.8659932488155  0 7  C 0 3.13400675118441  3.13400675118444 0  7 0  C 8.85459947459085 0  10.6334007752213 0.735980681880515  11.9458361084181 2.04634426017834  C 13.2609832561203 3.35941537222596  14 5.14156846631272  14 7  Z M 7.00465963782982 1.49108579315514  L 7.00465963782982 1.52228008905536  C 7.00309853245205 1.52227876190515  7.00153742657945 1.52227809832998  6.99997632063755 1.52227809832998  C 3.95748787259464 1.52227809832998  1.49106366466606 3.98870230625859  1.49106366466606 7.03119075430149  C 1.49106366466606 10.0736792023444  3.95748787259464 12.5401034102729  6.99997632063755 12.5401034102729  C 10.0424647686804 12.5401034102729  12.508888976609 10.0736792023444  12.508888976609 7.03119075430149  C 12.508888976609 5.57128427463227  11.9293965288896 4.17107502395436  10.8977077661721 3.13814461668458  C 9.87306559483344 2.08977389084911  8.47058744243564 1.49641774945005  7.00465963782982 1.49108579315514  Z " fill-rule="nonzero" fill="#999999" stroke="none" transform="matrix(1 0 0 1 27 34 )" />
  </g>
</svg>