<?xml version="1.0" encoding="utf-8"?>
<svg version="1.1" xmlns:xlink="http://www.w3.org/1999/xlink" width="46px" height="36px" xmlns="http://www.w3.org/2000/svg">
  <defs>
    <linearGradient gradientUnits="userSpaceOnUse" x1="23" y1="0" x2="23" y2="36" id="LinearGradient3069">
      <stop id="Stop3070" stop-color="#f9f9f9" offset="1" />
      <stop id="Stop3071" stop-color="#000000" offset="1" />
    </linearGradient>
  </defs>
  <g transform="matrix(1 0 0 1 -288 -14 )">
    <path d="M 16.4285714285714 3  L 16.4285714285714 6  L 29.5714285714286 6  L 29.5714285714286 3  L 16.4285714285714 3  Z M 28.75 21  L 46 21  L 46 32.25  C 46 33.28125  45.5978422619048 34.1640625  44.7935267857143 34.8984375  C 43.9892113095238 35.6328125  43.0223214285714 36  41.8928571428571 36  L 4.10714285714286 36  C 2.97767857142857 36  2.01078869047619 35.6328125  1.20647321428571 34.8984375  C 0.402157738095238 34.1640625  0 33.28125  0 32.25  L 0 21  L 17.25 21  L 17.25 24.75  C 17.25 25.15625  17.4125744047619 25.5078125  17.7377232142857 25.8046875  C 18.0628720238095 26.1015625  18.4479166666667 26.25  18.8928571428571 26.25  L 27.1071428571429 26.25  C 27.5520833333333 26.25  27.9371279761905 26.1015625  28.2622767857143 25.8046875  C 28.5874255952381 25.5078125  28.75 25.15625  28.75 24.75  L 28.75 21  Z M 19.7142857142857 21  L 26.2857142857143 21  L 26.2857142857143 24  L 19.7142857142857 24  L 19.7142857142857 21  Z M 44.7935267857143 7.1015625  C 45.5978422619048 7.8359375  46 8.71875  46 9.75  L 46 18.75  L 0 18.75  L 0 9.75  C 0 8.71875  0.402157738095238 7.8359375  1.20647321428571 7.1015625  C 2.01078869047619 6.36718749999999  2.97767857142857 6  4.10714285714286 6  L 13.1428571428571 6  L 13.1428571428571 2.25  C 13.1428571428571 1.625  13.3824404761905 1.09375  13.8616071428571 0.656249999999999  C 14.3407738095238 0.218750000000002  14.922619047619 0  15.6071428571429 0  L 30.3928571428571 0  C 31.077380952381 0  31.6592261904762 0.218750000000002  32.1383928571429 0.656249999999999  C 32.6175595238095 1.09375  32.8571428571429 1.625  32.8571428571429 2.25  L 32.8571428571429 6  L 41.8928571428571 6  C 43.0223214285714 6  43.9892113095238 6.36718749999999  44.7935267857143 7.1015625  Z " fill-rule="nonzero" fill="url(#LinearGradient3069)" stroke="none" transform="matrix(1 0 0 1 288 14 )" />
  </g>
</svg>