<?xml version="1.0" encoding="utf-8"?>
<svg version="1.1" xmlns:xlink="http://www.w3.org/1999/xlink" width="40px" height="36px" xmlns="http://www.w3.org/2000/svg">
  <defs>
    <linearGradient gradientUnits="userSpaceOnUse" x1="20" y1="0" x2="20" y2="36" id="LinearGradient3087">
      <stop id="Stop3088" stop-color="#ffffff" offset="1" />
      <stop id="Stop3089" stop-color="#000000" offset="1" />
    </linearGradient>
  </defs>
  <g transform="matrix(1 0 0 1 -130 -10 )">
    <path d="M 8.45703125 24.1425  C 9.06901041666667 23.4375  9.375 22.59  9.375 21.6  C 9.375 20.61  9.06901041666667 19.7625  8.45703125 19.0575  C 7.84505208333333 18.3525  7.109375 18  6.25 18  C 5.390625 18  4.65494791666667 18.3525  4.04296875 19.0575  C 3.43098958333333 19.7625  3.125 20.61  3.125 21.6  C 3.125 22.59  3.43098958333333 23.4375  4.04296875 24.1425  C 4.65494791666667 24.8475  5.390625 25.2  6.25 25.2  C 7.109375 25.2  7.84505208333333 24.8475  8.45703125 24.1425  Z M 11.81640625 6.3675  L 10.078125 15  L 29.921875 15  L 28.18359375 6.3675  C 28.1575520833333 6.2475  28.06640625 6.11625  27.91015625 5.97375  C 27.75390625 5.83125  27.6171875 5.76  27.5 6  L 12.5 6  C 12.3828125 5.76  12.24609375 5.83125  12.08984375 5.97375  C 11.93359375 6.11625  11.8424479166667 6.2475  11.81640625 6.3675  Z M 35.95703125 24.1425  C 36.5690104166667 23.4375  36.875 22.59  36.875 21.6  C 36.875 20.61  36.5690104166667 19.7625  35.95703125 19.0575  C 35.3450520833333 18.3525  34.609375 18  33.75 18  C 32.890625 18  32.1549479166667 18.3525  31.54296875 19.0575  C 30.9309895833333 19.7625  30.625 20.61  30.625 21.6  C 30.625 22.59  30.9309895833333 23.4375  31.54296875 24.1425  C 32.1549479166667 24.8475  32.890625 25.2  33.75 25.2  C 34.609375 25.2  35.3450520833333 24.8475  35.95703125 24.1425  Z M 38.720703125 15.87375  C 39.5735677083333 16.85625  40 18.045  40 19.44  L 40 28.08  C 40 28.29  39.94140625 28.4625  39.82421875 28.5975  C 39.70703125 28.7325  39.5572916666667 28.8  39.375 28.8  L 37.5 28.8  L 37.5 31.68  C 37.5 32.88  37.1354166666667 33.9  36.40625 34.74  C 35.6770833333333 35.58  34.7916666666667 36  33.75 36  C 32.7083333333333 36  31.8229166666667 35.58  31.09375 34.74  C 30.3645833333333 33.9  30 32.88  30 31.68  L 30 28.8  L 10 28.8  L 10 31.68  C 10 32.88  9.63541666666667 33.9  8.90625 34.74  C 8.17708333333333 35.58  7.29166666666667 36  6.25 36  C 5.20833333333333 36  4.32291666666667 35.58  3.59375 34.74  C 2.86458333333333 33.9  2.5 32.88  2.5 31.68  L 2.5 28.8  L 0.625 28.8  C 0.442708333333333 28.8  0.29296875 28.7325  0.17578125 28.5975  C 0.05859375 28.4625  0 28.29  0 28.08  L 0 19.44  C 0 18.045  0.426432291666667 16.85625  1.279296875 15.87375  C 2.13216145833333 14.89125  3.1640625 14.4  4.375 14.4  L 4.921875 14.4  L 6.97265625 4.9725  C 7.27213541666667 3.5625  7.94921875 2.38125  9.00390625 1.42875  C 10.05859375 0.476249999999999  11.2239583333333 0  12.5 0  L 27.5 0  C 28.7760416666667 0  29.94140625 0.476249999999999  30.99609375 1.42875  C 32.05078125 2.38125  32.7278645833333 3.5625  33.02734375 4.9725  L 35.078125 14.4  L 35.625 14.4  C 36.8359375 14.4  37.8678385416667 14.89125  38.720703125 15.87375  Z " fill-rule="nonzero" fill="url(#LinearGradient3087)" stroke="none" transform="matrix(1 0 0 1 130 10 )" />
  </g>
</svg>