<?xml version="1.0" encoding="utf-8"?>
<svg version="1.1" xmlns:xlink="http://www.w3.org/1999/xlink" width="75px" height="75px" xmlns="http://www.w3.org/2000/svg">
  <defs>
    <mask fill="white" id="clip1178">
      <path d="M 112 235  C 106.45 235  102 230.55  102 225  L 102 170  C 102 164.45  106.45 160  112 160  L 167 160  C 172.55 160  177 164.45  177 170  L 177 225  C 177 230.55  172.55 235  167 235  " fill-rule="evenodd" />
    </mask>
  </defs>
  <g transform="matrix(1 0 0 1 -102 -160 )">
    <path d="M 102 160  L 177 160  L 177 235  L 102 235  L 102 160  " fill-rule="nonzero" fill="#cccccc" stroke="none" mask="url(#clip1178)" />
    <path d="M 107 165  L 172 165  L 172 230  L 107 230  L 107 165  " fill-rule="nonzero" fill="#ffffff" stroke="none" mask="url(#clip1178)" />
    <path d="M 146.625 182.5  C 143.475 182.5  141 180.025  141 176.875  C 141 173.725  143.475 171.25  146.625 171.25  C 149.775 171.25  152.25 173.725  152.25 176.875  C 152.25 180.025  149.775 182.5  146.625 182.5  " fill-rule="nonzero" fill="#cccccc" stroke="none" mask="url(#clip1178)" />
    <path d="M 109 228  L 109 194.45  L 124.25 179.2  L 145.6 191.4  L 157.8 188.35  L 170 191.4  L 170 228  L 109 228  " fill-rule="nonzero" fill="#169bd5" stroke="none" mask="url(#clip1178)" />
  </g>
</svg>