<?xml version="1.0" encoding="utf-8"?>
<svg version="1.1" xmlns:xlink="http://www.w3.org/1999/xlink" width="12px" height="12px" viewBox="277 258  12 12" xmlns="http://www.w3.org/2000/svg">
  <path d="M 277.5 264  A 5.5 5.5 0 0 1 283 258.5 A 5.5 5.5 0 0 1 288.5 264 A 5.5 5.5 0 0 1 283 269.5 A 5.5 5.5 0 0 1 277.5 264 Z " fill-rule="nonzero" fill="#f0f0f0" stroke="none" />
  <path d="M 277.5 264  A 5.5 5.5 0 0 1 283 258.5 A 5.5 5.5 0 0 1 288.5 264 A 5.5 5.5 0 0 1 283 269.5 A 5.5 5.5 0 0 1 277.5 264 Z " stroke-width="1" stroke="#797979" fill="none" />
  <path d="M 279.571428571429 264  L 282.142857142857 266.571428571429  " stroke-width="2.57142857142857" stroke="#797979" fill="none" />
  <path d="M 282.142857142857 266.571428571429  L 286.428571428571 260.571428571429  " stroke-width="2.57142857142857" stroke="#797979" fill="none" />
</svg>