<?xml version="1.0" encoding="utf-8"?>
<svg version="1.1" xmlns:xlink="http://www.w3.org/1999/xlink" width="16px" height="20px" xmlns="http://www.w3.org/2000/svg">
  <g transform="matrix(1 0 0 1 -31 -249 )">
    <path d="M 10.828125 9.0234375  C 11.609375 8.37239583333333  12 7.58680555555556  12 6.66666666666667  C 12 5.74652777777778  11.609375 4.9609375  10.828125 4.30989583333333  C 10.046875 3.65885416666667  9.10416666666667 3.33333333333333  8 3.33333333333333  C 6.89583333333333 3.33333333333333  5.953125 3.65885416666667  5.171875 4.30989583333333  C 4.390625 4.9609375  4 5.74652777777778  4 6.66666666666667  C 4 7.58680555555556  4.390625 8.37239583333333  5.171875 9.0234375  C 5.953125 9.67447916666667  6.89583333333333 10  8 10  C 9.10416666666667 10  10.046875 9.67447916666667  10.828125 9.0234375  Z M 13.65625 1.953125  C 15.21875 3.25520833333333  16 4.82638888888889  16 6.66666666666667  C 16 7.61284722222222  15.828125 8.38975694444444  15.484375 8.99739583333333  L 9.796875 19.0755208333333  C 9.63020833333333 19.3619791666667  9.3828125 19.5876736111111  9.0546875 19.7526041666667  C 8.7265625 19.9175347222222  8.375 20  8 20  C 7.625 20  7.2734375 19.9175347222222  6.9453125 19.7526041666667  C 6.6171875 19.5876736111111  6.375 19.3619791666667  6.21875 19.0755208333333  L 0.515625 8.99739583333333  C 0.171875 8.38975694444444  0 7.61284722222222  0 6.66666666666667  C 0 4.82638888888889  0.78125 3.25520833333333  2.34375 1.953125  C 3.90625 0.651041666666667  5.79166666666667 0  8 0  C 10.2083333333333 0  12.09375 0.651041666666667  13.65625 1.953125  Z " fill-rule="nonzero" fill="#9a9a9a" stroke="none" transform="matrix(1 0 0 1 31 249 )" />
  </g>
</svg>