<?xml version="1.0" standalone="no"?><!DOCTYPE svg PUBLIC "-//W3C//DTD SVG 1.1//EN" "http://www.w3.org/Graphics/SVG/1.1/DTD/svg11.dtd"><svg xmlns:xlink="http://www.w3.org/1999/xlink" xmlns="http://www.w3.org/2000/svg" version="1.1" width="200" height="200" viewBox="0 0 200 200"><defs><style type="text/css"><![CDATA[
@font-face {
  font-family: "ifont";
  src: url("//at.alicdn.com/t/font_1442373896_4754455.eot?#iefix") format("embedded-opentype"), url("//at.alicdn.com/t/font_1442373896_4754455.woff") format("woff"), url("//at.alicdn.com/t/font_1442373896_4754455.ttf") format("truetype"), url("//at.alicdn.com/t/font_1442373896_4754455.svg#ifont") format("svg");
}

]]></style></defs><g class="transform-group"><g transform="scale(0.1953125, 0.1953125)"><path d="M642.422 496.254l64.775-64.775c10.025-10.025 7.994-21.447 7.994-21.447 0-12.309-7.742-18.528-7.742-18.528-8.503-8.503-18.909-8.629-18.909-8.629-13.581 0-21.577 8.629-21.577 8.629l-64.766 64.62-64.766-64.62c0 0-7.994-8.629-21.574-8.629 0 0-10.405 0.126-18.909 8.629 0 0-7.743 6.218-7.743 18.528 0 0-2.029 11.423 7.995 21.447l64.775 64.775-64.054 63.911c-8.885 7.232-8.885 21.573-8.885 21.573 0 11.167 8.756 20.177 8.756 20.177 7.806 7.805 18.784 7.106 18.784 7.106 14.339 0 20.94-7.867 20.94-7.867l64.679-64.681 64.681 64.681c0 0 6.601 7.867 20.94 7.867 0 0 10.977 0.699 18.783-7.106 0 0 8.757-9.011 8.757-20.177 0 0 0-14.341-8.885-21.573l-64.051-63.911zM967.968 694.239v-394.057c-3.761-110.931-111.402-113.751-111.402-113.751h-505.3c-14.1 0-22.25 7.991-22.25 7.991l-254.374 281.088c-8.343 8.578-7.991 19.743-7.991 19.743 0 15.041 8.698 23.502 8.698 23.502l251.475 278.582c9.713 9.713 20.995 8.618 20.995 8.618h508.748c114.222-6.111 111.402-111.716 111.402-111.716zM892.126 683.902c0 0-1.487 52.615-52.319 52.615h-472.053l-216.409-240.56 218.321-240.561h470.14c0 0 52.319 5.353 52.319 55.292v373.215z" fill="#272636"></path></g></g></svg>