<?xml version="1.0" encoding="utf-8"?>
<svg version="1.1" xmlns:xlink="http://www.w3.org/1999/xlink" width="30px" height="20px" xmlns="http://www.w3.org/2000/svg">
  <g transform="matrix(1 0 0 1 -210 -316 )">
    <path d="M 5.75 13.3333333333333  C 5.91666666666667 13.3333333333333  6 13.4259259259259  6 13.6111111111111  L 6 15.2777777777778  C 6 15.462962962963  5.91666666666667 15.5555555555556  5.75 15.5555555555556  L 4.25 15.5555555555556  C 4.08333333333333 15.5555555555556  4 15.462962962963  4 15.2777777777778  L 4 13.6111111111111  C 4 13.4259259259259  4.08333333333333 13.3333333333333  4.25 13.3333333333333  L 5.75 13.3333333333333  Z M 7.75 8.88888888888889  C 7.91666666666667 8.88888888888889  8 8.98148148148148  8 9.16666666666667  L 8 10.8333333333333  C 8 11.0185185185185  7.91666666666667 11.1111111111111  7.75 11.1111111111111  L 4.25 11.1111111111111  C 4.08333333333333 11.1111111111111  4 11.0185185185185  4 10.8333333333333  L 4 9.16666666666667  C 4 8.98148148148148  4.08333333333333 8.88888888888889  4.25 8.88888888888889  L 7.75 8.88888888888889  Z M 5.75 4.44444444444444  C 5.91666666666667 4.44444444444444  6 4.53703703703703  6 4.72222222222222  L 6 6.38888888888889  C 6 6.57407407407407  5.91666666666667 6.66666666666667  5.75 6.66666666666667  L 4.25 6.66666666666667  C 4.08333333333333 6.66666666666667  4 6.57407407407407  4 6.38888888888889  L 4 4.72222222222222  C 4 4.53703703703703  4.08333333333333 4.44444444444444  4.25 4.44444444444444  L 5.75 4.44444444444444  Z M 21.75 13  C 21.9166666666667 13.3333333333333  22 13.4259259259259  22 13.6111111111111  L 22 15.2777777777778  C 22 15.462962962963  21.9166666666667 15.5555555555556  21.75 15.5555555555556  L 8.25 15.5555555555556  C 8.08333333333333 15.5555555555556  8 15.462962962963  8 15.2777777777778  L 8 13.6111111111111  C 8 13.4259259259259  8.08333333333333 13.3333333333333  8.25 13  L 21.75 13  Z M 11.75 8.88888888888889  C 11.9166666666667 8.88888888888889  12 8.98148148148148  12 9.16666666666667  L 12 10.8333333333333  C 12 11.0185185185185  11.9166666666667 11.1111111111111  11.75 11.1111111111111  L 10.25 11.1111111111111  C 10.0833333333333 11.1111111111111  10 11.0185185185185  10 10.8333333333333  L 10 9.16666666666667  C 10 8.98148148148148  10.0833333333333 8.88888888888889  10.25 8.88888888888889  L 11.75 8.88888888888889  Z M 9.75 4.44444444444444  C 9.91666666666667 4.44444444444444  10 4.53703703703703  10 4.72222222222222  L 10 6.38888888888889  C 10 6.57407407407407  9.91666666666667 6.66666666666667  9.75 6.66666666666667  L 8.25 6.66666666666667  C 8.08333333333333 6.66666666666667  8 6.57407407407407  8 6.38888888888889  L 8 4.72222222222222  C 8 4.53703703703703  8.08333333333333 4.44444444444444  8.25 4.44444444444444  L 9.75 4.44444444444444  Z M 15.75 8.88888888888889  C 15.9166666666667 8.88888888888889  16 8.98148148148148  16 9.16666666666667  L 16 10.8333333333333  C 16 11.0185185185185  15.9166666666667 11.1111111111111  15.75 11.1111111111111  L 14.25 11.1111111111111  C 14.0833333333333 11.1111111111111  14 11.0185185185185  14 10.8333333333333  L 14 9.16666666666667  C 14 8.98148148148148  14.0833333333333 8.88888888888889  14.25 8.88888888888889  L 15.75 8.88888888888889  Z M 13.75 4.44444444444444  C 13.9166666666667 4.44444444444444  14 4.53703703703703  14 4.72222222222222  L 14 6.38888888888889  C 14 6.57407407407407  13.9166666666667 6.66666666666667  13.75 6.66666666666667  L 12.25 6.66666666666667  C 12.0833333333333 6.66666666666667  12 6.57407407407407  12 6.38888888888889  L 12 4.72222222222222  C 12 4.53703703703703  12.0833333333333 4.44444444444444  12.25 4.44444444444444  L 13.75 4.44444444444444  Z M 19.75 8.88888888888889  C 19.9166666666667 8.88888888888889  20 8.98148148148148  20 9.16666666666667  L 20 10.8333333333333  C 20 11.0185185185185  19.9166666666667 11.1111111111111  19.75 11.1111111111111  L 18.25 11.1111111111111  C 18.0833333333333 11.1111111111111  18 11.0185185185185  18 10.8333333333333  L 18 9.16666666666667  C 18 8.98148148148148  18.0833333333333 8.88888888888889  18.25 8.88888888888889  L 19.75 8.88888888888889  Z M 25.75 13.3333333333333  C 25.9166666666667 13.3333333333333  26 13.4259259259259  26 13.6111111111111  L 26 15.2777777777778  C 26 15.462962962963  25.9166666666667 15.5555555555556  25.75 15.5555555555556  L 24.25 15.5555555555556  C 24.0833333333333 15.5555555555556  24 15.462962962963  24 15.2777777777778  L 24 13.6111111111111  C 24 13.4259259259259  24.0833333333333 13.3333333333333  24.25 13.3333333333333  L 25.75 13.3333333333333  Z M 17.75 4.44444444444444  C 17.9166666666667 4.44444444444444  18 4.53703703703703  18 4.72222222222222  L 18 6.38888888888889  C 18 6.57407407407407  17.9166666666667 6.66666666666667  17.75 6.66666666666667  L 16.25 6.66666666666667  C 16.0833333333333 6.66666666666667  16 6.57407407407407  16 6.38888888888889  L 16 4.72222222222222  C 16 4.53703703703703  16.0833333333333 4.44444444444444  16.25 4.44444444444444  L 17.75 4.44444444444444  Z M 21.75 4.44444444444444  C 21.9166666666667 4.44444444444444  22 4.53703703703703  22 4.72222222222222  L 22 6.38888888888889  C 22 6.57407407407407  21.9166666666667 6.66666666666667  21.75 6.66666666666667  L 20.25 6.66666666666667  C 20.0833333333333 6.66666666666667  20 6.57407407407407  20 6.38888888888889  L 20 4.72222222222222  C 20 4.53703703703703  20.0833333333333 4.44444444444444  20.25 4.44444444444444  L 21.75 4.44444444444444  Z M 25.75 4.44444444444444  C 25.9166666666667 4.44444444444444  26 4.53703703703703  26 4.72222222222222  L 26 10.8333333333333  C 26 11.0185185185185  25.9166666666667 11.1111111111111  25.75 11.1111111111111  L 22.25 11.1111111111111  C 22.0833333333333 11.1111111111111  22 11.0185185185185  22 10.8333333333333  L 22 9.16666666666667  C 22 8.98148148148148  22.0833333333333 8.88888888888889  22.25 8.88888888888889  L 24 8.88888888888889  L 24 4.72222222222222  C 24 4.53703703703703  24.0833333333333 4.44444444444444  24.25 4.44444444444444  L 25.75 4.44444444444444  Z M 2 17.7777777777778  L 28 17.7777777777778  L 28 2.22222222222222  L 2 2.22222222222222  L 2 17.7777777777778  Z M 29.4140625 0.651041666666667  C 29.8046875 1.08506944444444  30 1.60879629629629  30 2.22222222222222  L 30 17.7777777777778  C 30 18.3912037037037  29.8046875 18.9149305555556  29.4140625 19.3489583333333  C 29.0234375 19.7829861111111  28.5520833333333 20  28 20  L 2 20  C 1.44791666666667 20  0.9765625 19.7829861111111  0.5859375 19.3489583333333  C 0.1953125 18.9149305555556  0 18.3912037037037  0 17.7777777777778  L 0 2.22222222222222  C 0 1.60879629629629  0.1953125 1.08506944444444  0.5859375 0.651041666666667  C 0.9765625 0.217013888888888  1.44791666666667 0  2 0  L 28 0  C 28.5520833333333 0  29.0234375 0.217013888888888  29.4140625 0.651041666666667  Z " fill-rule="nonzero" fill="#333333" stroke="none" transform="matrix(1 0 0 1 210 316 )" />
  </g>
</svg>