<?xml version="1.0" encoding="utf-8"?>
<svg version="1.1" xmlns:xlink="http://www.w3.org/1999/xlink" width="14px" height="14px" xmlns="http://www.w3.org/2000/svg">
  <g transform="matrix(1 0 0 1 -82 -72 )">
    <path d="M 13.8112104336283 13.789876090708  C 14.0430571548673 13.5529213672566  14.0430571548673 13.1670308185841  13.8112120132743 12.9300919535398  L 10.4479784778761 9.49423959734513  C 10.3924137942478 9.43747284955752  10.3285614977876 9.3944473960177  10.2604290265487 9.3648905  C 10.9829697699115 8.39539313274336  11.4120142190265 7.18510804646018  11.4120142190265 5.87222382079646  C 11.4120142190265 2.6852279380531  8.88400175884956 0.102359668141592  5.76540318584071 0.102359668141592  C 2.64682206637168 0.102359668141593  0.118904756637168 2.6852438119469  0.118904756637168 5.8722254159292  C 0.118904756637168 9.05928473230088  2.64682206637168 11.6421054269911  5.76542063938053 11.6421054269911  C 7.19672909955752 11.6421054269911  8.50359663938053 11.0979923761062  9.49879097566371 10.2011566349557  C 9.52633544911504 10.25625825  9.56253226327433 10.3079693561947  9.6076208738938 10.3540396084071  L 12.9700297721239 13.789876090708  C 13.2018749292035 14.026830829646  13.5785422190265 14.026830829646  13.8112104336283 13.789876090708  Z M 10.5208018628319 5.8722254159292  C 10.5208018628319 8.5557565199115  8.39150147345133 10.7315299712389  5.76542062389381 10.7315299712389  C 3.13941906637168 10.7315299712389  1.01003938495575 8.5557565199115  1.01003938495575 5.8722254159292  C 1.01003938495575 3.18786967477876  3.1394032079646 1.01301443141593  5.76542062389381 1.01301443141593  C 8.39151733185841 1.01301443141593  10.5208018628319 3.18786809513274  10.5208018628319 5.8722254159292  Z " fill-rule="nonzero" fill="#9a9a9a" stroke="none" transform="matrix(1 0 0 1 82 72 )" />
  </g>
</svg>