<?xml version="1.0" encoding="utf-8"?>
<svg version="1.1" xmlns:xlink="http://www.w3.org/1999/xlink" width="7px" height="12px" xmlns="http://www.w3.org/2000/svg">
  <g transform="matrix(1 0 0 1 -353 -136 )">
    <path d="M 6.80105295394737 6.45505405102041  C 6.8428017368421 6.41142593877551  6.86490402192983 6.35802956632653  6.89339670833333 6.30808235204082  C 6.90126585964912 6.29289018367347  6.91402022807018 6.280173  6.92091234210526 6.26448058163265  C 7.05600832017544 5.98430758163265  7.01177731578947 5.64147018367347  6.77256028289474 5.41614168367347  L 1.34989355482456 0.302200989795918  C 1.05416647368421 0.0235024438775511  0.588011421052632 0.0367198928571429  0.307996239035088 0.331110857142857  C 0.0284827850877196 0.625975760204082  0.0412635570175444 1.09077176020408  0.336990638157895 1.36997057142857  L 5.20261095175439 5.9593471377551  L 0.35613539254386 10.6168119795918  C 0.0633658421052633 10.8984331071429  0.0545196381578945 11.3632554336735  0.336990638157895 11.6556716938776  C 0.481408129385965 11.8055396326531  0.674466502192983 11.8804999285714  0.867524875 11.8804999285714  C 1.05173705921053 11.8804999285714  1.23594922807018 11.8119377142857  1.37888795394737 11.6747869591837  L 6.75243847587719 6.51087273979592  C 6.76276344517544 6.50057787244898  6.76667160964912 6.48638623469388  6.77699657894737 6.47561744387755  C 6.78486573026316 6.4682715  6.79321020614035 6.46287393367347  6.80105295394737 6.45505405102041  Z " fill-rule="nonzero" fill="#9a9a9a" stroke="none" transform="matrix(1 0 0 1 353 136 )" />
  </g>
</svg>