<?xml version="1.0" encoding="utf-8"?>
<svg version="1.1" xmlns:xlink="http://www.w3.org/1999/xlink" width="14px" height="12px" xmlns="http://www.w3.org/2000/svg">
  <g transform="matrix(1 0 0 1 -134 -699 )">
    <path d="M 14 3.69230769230769  C 14 1.65230769230769  12.3523966942149 0  10.3160330578512 0  C 8.91834710743802 0  7.69652892561983 0.793846153846154  7.05785123966942 1.95692307692308  C 6.42842975206612 0.793846153846154  5.19735537190083 0  3.7904132231405 0  C 1.75404958677686 0  0.106446280991735 1.65230769230769  0.106446280991735 3.69230769230769  C 0.106446280991735 4.66153846153846  0.476694214876033 5.53846153846154  1.08760330578512 6.20307692307692  L 6.74314049586777 11.8707692307692  C 6.83570247933884 11.9538461538462  6.94677685950413 12  7.05785123966942 12  C 7.16892561983471 12  7.28 11.9538461538462  7.37256198347107 11.8707692307692  L 13.0280991735537 6.20307692307692  C 13.6297520661157 5.54769230769231  14 4.66153846153846  14 3.69230769230769  Z M 13.0743801652893 3.69230769230769  C 13.0836363636364 4.43076923076923  12.796694214876 5.10461538461538  12.3246280991736 5.60307692307692  L 7.05785123966942 10.9384615384615  L 1.79107438016529 5.60307692307692  C 1.31900826446281 5.10461538461538  1.03206611570248 4.43076923076923  1.03206611570248 3.69230769230769  C 1.03206611570248 2.16  2.27239669421488 0.923076923076923  3.7904132231405 0.923076923076923  C 5.02148760330579 0.923076923076923  6.08595041322314 1.73538461538462  6.45619834710744 2.85230769230769  C 6.54876033057851 3.09230769230769  6.78942148760331 3.26769230769231  7.05785123966942 3.26769230769231  C 7.33553719008265 3.26769230769231  7.56694214876033 3.10153846153846  7.66876033057851 2.86153846153846  C 8.0297520661157 1.73538461538462  9.08495867768595 0.923076923076923  10.3160330578512 0.923076923076923  C 11.843305785124 0.923076923076923  13.0743801652893 2.16  13.0743801652893 3.69230769230769  Z " fill-rule="nonzero" fill="#9a9a9a" stroke="none" transform="matrix(1 0 0 1 134 699 )" />
  </g>
</svg>