<?xml version="1.0" encoding="utf-8"?>
<svg version="1.1" xmlns:xlink="http://www.w3.org/1999/xlink" width="22px" height="22px" xmlns="http://www.w3.org/2000/svg">
  <g transform="matrix(1 0 0 1 -65 -10 )">
    <path d="M 7.39676339285714 7.87044270833333  C 7.70368303571429 8.228515625  7.85714285714286 8.66059027777778  7.85714285714286 9.16666666666667  C 7.85714285714286 9.67274305555555  7.70368303571429 10.1048177083333  7.39676339285714 10.462890625  C 7.08984375 10.8209635416667  6.71949404761905 11  6.28571428571429 11  C 5.85193452380952 11  5.48158482142857 10.8209635416667  5.17466517857143 10.462890625  C 4.86774553571429 10.1048177083333  4.71428571428571 9.67274305555555  4.71428571428571 9.16666666666667  C 4.71428571428571 8.66059027777778  4.86774553571429 8.228515625  5.17466517857143 7.87044270833333  C 5.48158482142857 7.51236979166667  5.85193452380952 7.33333333333333  6.28571428571429 7.33333333333333  C 6.71949404761905 7.33333333333333  7.08984375 7.51236979166667  7.39676339285714 7.87044270833333  Z M 12.1110491071429 7.87044270833333  C 12.41796875 8.228515625  12.5714285714286 8.66059027777778  12.5714285714286 9.16666666666667  C 12.5714285714286 9.67274305555555  12.41796875 10.1048177083333  12.1110491071429 10.462890625  C 11.8041294642857 10.8209635416667  11.4337797619048 11  11 11  C 10.5662202380952 11  10.1958705357143 10.8209635416667  9.88895089285714 10.462890625  C 9.58203125 10.1048177083333  9.42857142857143 9.67274305555555  9.42857142857143 9.16666666666667  C 9.42857142857143 8.66059027777778  9.58203125 8.228515625  9.88895089285714 7.87044270833333  C 10.1958705357143 7.51236979166667  10.5662202380952 7.33333333333333  11 7.33333333333333  C 11.4337797619048 7.33333333333333  11.8041294642857 7.51236979166667  12.1110491071429 7.87044270833333  Z M 16.8253348214286 7.87044270833333  C 17.1322544642857 8.228515625  17.2857142857143 8.66059027777778  17.2857142857143 9.16666666666667  C 17.2857142857143 9.67274305555555  17.1322544642857 10.1048177083333  16.8253348214286 10.462890625  C 16.5184151785714 10.8209635416667  16.1480654761905 11  15.7142857142857 11  C 15.280505952381 11  14.91015625 10.8209635416667  14.6032366071429 10.462890625  C 14.2963169642857 10.1048177083333  14.1428571428571 9.67274305555555  14.1428571428571 9.16666666666667  C 14.1428571428571 8.66059027777778  14.2963169642857 8.228515625  14.6032366071429 7.87044270833333  C 14.91015625 7.51236979166667  15.280505952381 7.33333333333333  15.7142857142857 7.33333333333333  C 16.1480654761905 7.33333333333333  16.5184151785714 7.51236979166667  16.8253348214286 7.87044270833333  Z M 15.68359375 2.82877604166667  C 14.2308407738095 2.16514756944444  12.6696428571429 1.83333333333333  11 1.83333333333333  C 9.33035714285714 1.83333333333333  7.76915922619048 2.16514756944444  6.31640625 2.82877604166667  C 4.86365327380952 3.49240451388889  3.70963541666667 4.38758680555555  2.85435267857143 5.51432291666667  C 1.99906994047619 6.64105902777778  1.57142857142857 7.85850694444444  1.57142857142857 9.16666666666667  C 1.57142857142857 10.2361111111111  1.86402529761905 11.2554253472222  2.44921875 12.224609375  C 3.03441220238095 13.1937934027778  3.85900297619048 14.0316840277778  4.92299107142857 14.73828125  L 5.99107142857143 15.4544270833333  L 5.65959821428571 16.8294270833333  C 5.46316964285714 17.6983506944444  5.17671130952381 18.51953125  4.80022321428571 19.29296875  C 6.04427083333333 18.69140625  7.16964285714286 17.875  8.17633928571428 16.84375  L 8.70424107142857 16.2994791666667  L 9.40401785714286 16.3854166666667  C 9.96875 16.4618055555556  10.500744047619 16.5  11 16.5  C 12.6696428571429 16.5  14.2308407738095 16.1681857638889  15.68359375 15.5045572916667  C 17.1363467261905 14.8409288194444  18.2903645833333 13.9457465277778  19.1456473214286 12.8190104166667  C 20.0009300595238 11.6922743055556  20.4285714285714 10.4748263888889  20.4285714285714 9.16666666666667  C 20.4285714285714 7.85850694444444  20.0009300595238 6.64105902777778  19.1456473214286 5.51432291666667  C 18.2903645833333 4.38758680555555  17.1363467261905 3.49240451388889  15.68359375 2.82877604166667  Z M 21.1283482142857 5.607421875  C 21.7094494047619 6.73893229166667  22 7.92534722222222  22 9.16666666666667  C 22 10.828125  21.5089285714286 12.3630642361111  20.5267857142857 13.771484375  C 19.5446428571429 15.1799045138889  18.2105654761905 16.2923177083333  16.5245535714286 17.1087239583333  C 14.8385416666667 17.9251302083333  12.9970238095238 18.3333333333333  11 18.3333333333333  C 10.4270833333333 18.3333333333333  9.83370535714286 18.2951388888889  9.21986607142857 18.21875  C 7.59933035714286 19.8897569444444  5.71688988095238 21.0451388888889  3.57254464285714 21.6848958333333  C 3.17150297619048 21.8185763888889  2.70498511904762 21.9236111111111  2.17299107142857 22  L 2.11160714285714 22  C 1.98883928571429 22  1.87834821428571 21.9498697916667  1.78013392857143 21.849609375  C 1.68191964285714 21.7493489583333  1.61644345238095 21.6180555555556  1.58370535714286 21.4557291666667  L 1.58370535714286 21.44140625  C 1.55915178571429 21.4032118055556  1.5571056547619 21.3459201388889  1.57756696428571 21.26953125  C 1.59802827380952 21.1931423611111  1.60621279761905 21.1453993055556  1.60212053571429 21.1263020833333  C 1.59802827380952 21.1072048611111  1.61644345238095 21.0618489583333  1.65736607142857 20.990234375  L 1.73102678571429 20.861328125  C 1.73102678571429 20.861328125  1.75967261904762 20.8207465277778  1.81696428571429 20.7395833333333  C 1.87425595238095 20.6584201388889  1.90699404761905 20.6154513888889  1.91517857142857 20.6106770833333  C 1.97247023809524 20.5342881944444  2.09933035714286 20.3695746527778  2.29575892857143 20.1165364583333  C 2.4921875 19.8634982638889  2.63337053571429 19.6820746527778  2.71930803571429 19.572265625  C 2.80524553571429 19.4624565972222  2.93210565476191 19.2738715277778  3.09988839285714 19.0065104166667  C 3.26767113095238 18.7391493055556  3.40066964285714 18.4956597222222  3.49888392857143 18.2760416666667  C 3.59709821428571 18.0564236111111  3.70758928571429 17.7747395833333  3.83035714285714 17.4309895833333  C 3.953125 17.0872395833333  4.05952380952381 16.7243923611111  4.14955357142857 16.3424479166667  C 2.86458333333333 15.4926215277778  1.85174851190476 14.4422743055556  1.11104910714286 13.19140625  C 0.370349702380952 11.9405381944444  0 10.5989583333333  0 9.16666666666667  C 0 7.92534722222222  0.290550595238095 6.73893229166667  0.871651785714286 5.607421875  C 1.45275297619048 4.47591145833333  2.234375 3.49956597222222  3.21651785714286 2.67838541666667  C 4.19866071428571 1.85720486111111  5.36904761904762 1.20551215277777  6.72767857142857 0.723307291666666  C 8.08630952380952 0.241102430555554  9.51041666666667 0  11 0  C 12.4895833333333 0  13.9136904761905 0.241102430555554  15.2723214285714 0.723307291666666  C 16.6309523809524 1.20551215277777  17.8013392857143 1.85720486111111  18.7834821428571 2.67838541666667  C 19.765625 3.49956597222222  20.5472470238095 4.47591145833333  21.1283482142857 5.607421875  Z " fill-rule="nonzero" fill="#000000" stroke="none" transform="matrix(1 0 0 1 65 10 )" />
  </g>
</svg>