<?xml version="1.0" encoding="utf-8"?>
<svg version="1.1" xmlns:xlink="http://www.w3.org/1999/xlink" width="22px" height="22px" xmlns="http://www.w3.org/2000/svg">
  <g transform="matrix(1 0 0 1 -15 -10 )">
    <path d="M 18.1205357142857 11.8020833333333  C 19.6592261904762 10.0069444444444  20.4285714285714 8.30729166666667  20.4285714285714 6.703125  C 20.4285714285714 5.9296875  20.340587797619 5.24696180555555  20.1646205357143 4.65494791666667  C 19.9886532738095 4.06293402777778  19.7635788690476 3.59266493055555  19.4893973214286 3.244140625  C 19.2152157738095 2.89561631944444  18.8816964285714 2.61154513888889  18.4888392857143 2.39192708333333  C 18.0959821428571 2.17230902777778  17.7113095238095 2.02430555555555  17.3348214285714 1.94791666666667  C 16.9583333333333 1.87152777777777  16.5572916666667 1.83333333333333  16.1316964285714 1.83333333333333  C 15.7061011904762 1.83333333333333  15.2477678571429 1.955078125  14.7566964285714 2.19856770833333  C 14.265625 2.44205729166667  13.8134300595238 2.74761284722222  13.4001116071429 3.115234375  C 12.9867931547619 3.48285590277778  12.6328125 3.82660590277778  12.3381696428571 4.146484375  C 12.0435267857143 4.46636284722222  11.7979910714286 4.75998263888889  11.6015625 5.02734375  C 11.4542410714286 5.23741319444444  11.2537202380952 5.34244791666667  11 5.34244791666667  C 10.7462797619048 5.34244791666667  10.5457589285714 5.23741319444444  10.3984375 5.02734375  C 10.2020089285714 4.75998263888889  9.95647321428572 4.46636284722222  9.66183035714286 4.146484375  C 9.3671875 3.82660590277778  9.0132068452381 3.48285590277778  8.59988839285714 3.115234375  C 8.18656994047619 2.74761284722222  7.734375 2.44205729166667  7.24330357142857 2.19856770833333  C 6.75223214285714 1.955078125  6.29389880952381 1.83333333333333  5.86830357142857 1.83333333333333  C 5.44270833333333 1.83333333333333  5.04166666666667 1.87152777777777  4.66517857142857 1.94791666666667  C 4.28869047619048 2.02430555555555  3.90401785714286 2.17230902777778  3.51116071428571 2.39192708333333  C 3.11830357142857 2.61154513888889  2.78478422619048 2.89561631944444  2.51060267857143 3.244140625  C 2.23642113095238 3.59266493055555  2.01134672619048 4.06293402777778  1.83537946428571 4.65494791666667  C 1.65941220238095 5.24696180555555  1.57142857142857 5.9296875  1.57142857142857 6.703125  C 1.57142857142857 8.30729166666667  2.33668154761905 10.0021701388889  3.8671875 11.7877604166667  L 11 19.80859375  L 18.1205357142857 11.8020833333333  Z M 20.4408482142857 1.77604166666667  C 21.4802827380952 2.96006944444444  22 4.60243055555555  22 6.703125  C 22 8.81336805555555  21.0628720238095 10.9618055555556  19.1886160714286 13.1484375  L 11.5401785714286 21.7421875  C 11.3928571428571 21.9140625  11.2127976190476 22  11 22  C 10.7872023809524 22  10.6071428571429 21.9140625  10.4598214285714 21.7421875  L 2.79910714285714 13.1197916666667  C 2.71726190476191 13.0434027777778  2.60472470238095 12.9192708333333  2.46149553571429 12.7473958333333  C 2.31826636904762 12.5755208333333  2.09114583333333 12.2628038194444  1.78013392857143 11.8092447916667  C 1.46912202380952 11.3556857638889  1.19084821428571 10.8901909722222  0.9453125 10.4127604166667  C 0.699776785714286 9.93532986111111  0.480840773809524 9.35763888888889  0.288504464285714 8.6796875  C 0.0961681547619048 8.00173611111111  0 7.34288194444444  0 6.703125  C 0 4.60243055555555  0.519717261904762 2.96006944444444  1.55915178571429 1.77604166666667  C 2.59858630952381 0.592013888888889  4.03497023809524 0  5.86830357142857 0  C 6.37574404761905 0  6.89341517857143 0.102647569444443  7.42131696428571 0.307942708333334  C 7.94921875 0.51323784722222  8.44029017857143 0.790147569444443  8.89453125 1.138671875  C 9.34877232142857 1.48719618055555  9.73958333333334 1.81423611111111  10.0669642857143 2.11979166666667  C 10.3943452380952 2.42534722222222  10.7053571428571 2.75  11 3.09375  C 11.2946428571429 2.75  11.6056547619048 2.42534722222222  11.9330357142857 2.11979166666667  C 12.2604166666667 1.81423611111111  12.6512276785714 1.48719618055555  13.10546875 1.138671875  C 13.5597098214286 0.790147569444443  14.05078125 0.51323784722222  14.5786830357143 0.307942708333334  C 15.1065848214286 0.102647569444443  15.624255952381 0  16.1316964285714 0  C 17.9650297619048 0  19.4014136904762 0.592013888888889  20.4408482142857 1.77604166666667  Z " fill-rule="nonzero" fill="#000000" stroke="none" transform="matrix(1 0 0 1 15 10 )" />
  </g>
</svg>