<?xml version="1.0" encoding="utf-8"?>
<svg version="1.1" xmlns:xlink="http://www.w3.org/1999/xlink" width="18px" height="18px" xmlns="http://www.w3.org/2000/svg">
  <g transform="matrix(1 0 0 1 -315 -25 )">
    <path d="M 15.0036057692308 11.25  C 15.1550480769231 11.3203125  15.2307692307692 11.43359375  15.2307692307692 11.58984375  L 15.2307692307692 14.625  C 15.2307692307692 15.5546875  14.9260817307692 16.349609375  14.3167067307692 17.009765625  C 13.7073317307692 17.669921875  12.9735576923077 18  12.1153846153846 18  L 3.11538461538462 18  C 2.25721153846154 18  1.5234375 17.669921875  0.9140625 17.009765625  C 0.3046875 16.349609375  0 15.5546875  0 14.625  L 0 4.875  C 0 3.9453125  0.3046875 3.150390625  0.9140625 2.490234375  C 1.5234375 1.830078125  2.25721153846154 1.5  3.11538461538462 1.5  L 5.87379807692308 1.5  C 5.96754807692308 1.5  6.04867788461539 1.537109375  6.1171875 1.611328125  C 6.18569711538462 1.685546875  6.21995192307692 1.7734375  6.21995192307692 1.875  C 6.21995192307692 2.0859375  6.12620192307692 2.2109375  5.93870192307692 2.25  C 5.38341346153846 2.453125  4.90384615384615 2.6875  4.5 2.953125  C 4.42788461538462 2.984375  4.37019230769231 3  4.32692307692308 3  L 3.11538461538462 3  C 2.63942307692308 3  2.23197115384615 3.18359375  1.89302884615385 3.55078125  C 1.55408653846154 3.91796875  1.38461538461538 4.359375  1.38461538461538 4.875  L 1.38461538461538 14.625  C 1.38461538461538 15.140625  1.55408653846154 15.58203125  1.89302884615385 15.94921875  C 2.23197115384615 16.31640625  2.63942307692308 16.5  3.11538461538462 16.5  L 12.1153846153846 16.5  C 12.5913461538462 16.5  12.9987980769231 16.31640625  13.3377403846154 15.94921875  C 13.6766826923077 15.58203125  13.8461538461538 15.140625  13.8461538461538 14.625  L 13.8461538461538 12.1171875  C 13.8461538461538 11.96875  13.9110576923077 11.85546875  14.0408653846154 11.77734375  C 14.2427884615385 11.67578125  14.4375 11.53125  14.625 11.34375  C 14.7403846153846 11.21875  14.8665865384615 11.1875  15.0036057692308 11.25  Z M 18 5.25  C 18 5.453125  17.9314903846154 5.62890625  17.7944711538462 5.77734375  L 13.640625 10.27734375  C 13.5108173076923 10.42578125  13.3485576923077 10.5  13.1538461538462 10.5  C 13.0673076923077 10.5  12.9771634615385 10.48046875  12.8834134615385 10.44140625  C 12.6021634615385 10.30859375  12.4615384615385 10.078125  12.4615384615385 9.75  L 12.4615384615385 7.5  L 10.7307692307692 7.5  C 8.40144230769231 7.5  6.82211538461539 8.01171875  5.99278846153846 9.03515625  C 5.13461538461539 10.10546875  4.86778846153846 11.953125  5.19230769230769 14.578125  C 5.21394230769231 14.7578125  5.14182692307692 14.890625  4.97596153846154 14.9765625  C 4.91826923076923 14.9921875  4.875 15  4.84615384615385 15  C 4.73076923076923 15  4.63701923076923 14.94921875  4.56490384615385 14.84765625  C 4.49278846153846 14.73828125  4.41706730769231 14.6171875  4.33774038461539 14.484375  C 4.25841346153846 14.3515625  4.11598557692308 14.083984375  3.91045673076923 13.681640625  C 3.70492788461538 13.279296875  3.52644230769231 12.890625  3.375 12.515625  C 3.22355769230769 12.140625  3.08473557692308 11.6953125  2.95853365384615 11.1796875  C 2.83233173076923 10.6640625  2.76923076923077 10.1875  2.76923076923077 9.75  C 2.76923076923077 9.3671875  2.78185096153846 9.01171875  2.80709134615385 8.68359375  C 2.83233173076923 8.35546875  2.8828125 8.00390625  2.95853365384615 7.62890625  C 3.03425480769231 7.25390625  3.13521634615385 6.91015625  3.26141826923077 6.59765625  C 3.38762019230769 6.28515625  3.55709134615385 5.966796875  3.76983173076923 5.642578125  C 3.98257211538462 5.318359375  4.22956730769231 5.029296875  4.51081730769231 4.775390625  C 4.79206730769231 4.521484375  5.1328125 4.28125  5.53305288461539 4.0546875  C 5.93329326923077 3.828125  6.38221153846154 3.638671875  6.87980769230769 3.486328125  C 7.37740384615385 3.333984375  7.95252403846154 3.21484375  8.60516826923077 3.12890625  C 9.2578125 3.04296875  9.96634615384616 3  10.7307692307692 3  L 12.4615384615385 3  L 12.4615384615385 0.749999999999999  C 12.4615384615385 0.421875  12.6021634615385 0.191406249999998  12.8834134615385 0.0585937500000007  C 12.9771634615385 0.0195312500000016  13.0673076923077 0  13.1538461538462 0  C 13.3413461538462 0  13.5036057692308 0.0742187500000011  13.640625 0.222656249999999  L 17.7944711538462 4.72265625  C 17.9314903846154 4.87109375  18 5.046875  18 5.25  Z " fill-rule="nonzero" fill="#555555" stroke="none" transform="matrix(1 0 0 1 315 25 )" />
  </g>
</svg>