<?xml version="1.0" encoding="utf-8"?>
<svg version="1.1" xmlns:xlink="http://www.w3.org/1999/xlink" width="12px" height="3px" xmlns="http://www.w3.org/2000/svg">
  <g transform="matrix(1 0 0 1 -351 -33 )">
    <path d="M 3.03409090909091 0.21875  C 3.19318181818182 0.364583333333332  3.27272727272727 0.541666666666666  3.27272727272727 0.75  L 3.27272727272727 2.25  C 3.27272727272727 2.45833333333333  3.19318181818182 2.63541666666667  3.03409090909091 2.78125  C 2.875 2.92708333333333  2.68181818181818 3  2.45454545454545 3  L 0.818181818181818 3  C 0.590909090909091 3  0.397727272727273 2.92708333333333  0.238636363636364 2.78125  C 0.0795454545454545 2.63541666666667  0 2.45833333333333  0 2.25  L 0 0.75  C 0 0.541666666666666  0.0795454545454545 0.364583333333332  0.238636363636364 0.21875  C 0.397727272727273 0.0729166666666661  0.590909090909091 0  0.818181818181818 0  L 2.45454545454545 0  C 2.68181818181818 0  2.875 0.0729166666666661  3.03409090909091 0.21875  Z M 7.39772727272727 0.21875  C 7.55681818181818 0.364583333333332  7.63636363636364 0.541666666666666  7.63636363636364 0.75  L 7.63636363636364 2.25  C 7.63636363636364 2.45833333333333  7.55681818181818 2.63541666666667  7.39772727272727 2.78125  C 7.23863636363637 2.92708333333333  7.04545454545455 3  6.81818181818182 3  L 5.18181818181818 3  C 4.95454545454546 3  4.76136363636364 2.92708333333333  4.60227272727273 2.78125  C 4.44318181818182 2.63541666666667  4.36363636363636 2.45833333333333  4.36363636363636 2.25  L 4.36363636363636 0.75  C 4.36363636363636 0.541666666666666  4.44318181818182 0.364583333333332  4.60227272727273 0.21875  C 4.76136363636364 0.0729166666666661  4.95454545454546 0  5.18181818181818 0  L 6.81818181818182 0  C 7.04545454545455 0  7.23863636363637 0.0729166666666661  7.39772727272727 0.21875  Z M 11.7613636363636 0.21875  C 11.9204545454545 0.364583333333332  12 0.541666666666666  12 0.75  L 12 2.25  C 12 2.45833333333333  11.9204545454545 2.63541666666667  11.7613636363636 2.78125  C 11.6022727272727 2.92708333333333  11.4090909090909 3  11.1818181818182 3  L 9.54545454545454 3  C 9.31818181818182 3  9.125 2.92708333333333  8.96590909090909 2.78125  C 8.80681818181818 2.63541666666667  8.72727272727273 2.45833333333333  8.72727272727273 2.25  L 8.72727272727273 0.75  C 8.72727272727273 0.541666666666666  8.80681818181818 0.364583333333332  8.96590909090909 0.21875  C 9.125 0.0729166666666661  9.31818181818182 0  9.54545454545454 0  L 11.1818181818182 0  C 11.4090909090909 0  11.6022727272727 0.0729166666666661  11.7613636363636 0.21875  Z " fill-rule="nonzero" fill="#555555" stroke="none" transform="matrix(1 0 0 1 351 33 )" />
  </g>
</svg>