<?xml version="1.0" encoding="utf-8"?>
<svg version="1.1" xmlns:xlink="http://www.w3.org/1999/xlink" width="20px" height="18px" xmlns="http://www.w3.org/2000/svg">
  <g transform="matrix(1 0 0 1 -67 -98 )">
    <path d="M 6.72433035714286 6.439453125  C 7.00334821428571 6.732421875  7.14285714285714 7.0859375  7.14285714285714 7.5  C 7.14285714285714 7.9140625  7.00334821428571 8.267578125  6.72433035714286 8.560546875  C 6.4453125 8.853515625  6.10863095238095 9  5.71428571428571 9  C 5.31994047619048 9  4.98325892857143 8.853515625  4.70424107142857 8.560546875  C 4.42522321428571 8.267578125  4.28571428571429 7.9140625  4.28571428571429 7.5  C 4.28571428571429 7.0859375  4.42522321428571 6.732421875  4.70424107142857 6.439453125  C 4.98325892857143 6.146484375  5.31994047619048 6  5.71428571428571 6  C 6.10863095238095 6  6.4453125 6.146484375  6.72433035714286 6.439453125  Z M 11.0100446428571 6.439453125  C 11.2890625 6.732421875  11.4285714285714 7.0859375  11.4285714285714 7.5  C 11.4285714285714 7.9140625  11.2890625 8.267578125  11.0100446428571 8.560546875  C 10.7310267857143 8.853515625  10.3943452380952 9  10 9  C 9.60565476190476 9  9.26897321428572 8.853515625  8.98995535714286 8.560546875  C 8.7109375 8.267578125  8.57142857142857 7.9140625  8.57142857142857 7.5  C 8.57142857142857 7.0859375  8.7109375 6.732421875  8.98995535714286 6.439453125  C 9.26897321428572 6.146484375  9.60565476190476 6  10 6  C 10.3943452380952 6  10.7310267857143 6.146484375  11.0100446428571 6.439453125  Z M 15.2957589285714 6.439453125  C 15.5747767857143 6.732421875  15.7142857142857 7.0859375  15.7142857142857 7.5  C 15.7142857142857 7.9140625  15.5747767857143 8.267578125  15.2957589285714 8.560546875  C 15.0167410714286 8.853515625  14.6800595238095 9  14.2857142857143 9  C 13.891369047619 9  13.5546875 8.853515625  13.2756696428571 8.560546875  C 12.9966517857143 8.267578125  12.8571428571429 7.9140625  12.8571428571429 7.5  C 12.8571428571429 7.0859375  12.9966517857143 6.732421875  13.2756696428571 6.439453125  C 13.5546875 6.146484375  13.891369047619 6  14.2857142857143 6  C 14.6800595238095 6  15.0167410714286 6.146484375  15.2957589285714 6.439453125  Z M 14.2578125 2.314453125  C 12.9371279761905 1.771484375  11.5178571428571 1.5  10 1.5  C 8.48214285714286 1.5  7.06287202380952 1.771484375  5.7421875 2.314453125  C 4.42150297619048 2.857421875  3.37239583333333 3.58984375  2.59486607142857 4.51171875  C 1.81733630952381 5.43359375  1.42857142857143 6.4296875  1.42857142857143 7.5  C 1.42857142857143 8.375  1.69456845238095 9.208984375  2.2265625 10.001953125  C 2.75855654761905 10.794921875  3.50818452380952 11.48046875  4.47544642857143 12.05859375  L 5.44642857142857 12.64453125  L 5.14508928571429 13.76953125  C 4.96651785714286 14.48046875  4.70610119047619 15.15234375  4.36383928571429 15.78515625  C 5.49479166666667 15.29296875  6.51785714285714 14.625  7.43303571428571 13.78125  L 7.91294642857143 13.3359375  L 8.54910714285714 13.40625  C 9.0625 13.46875  9.54613095238095 13.5  10 13.5  C 11.5178571428571 13.5  12.9371279761905 13.228515625  14.2578125 12.685546875  C 15.5784970238095 12.142578125  16.6276041666667 11.41015625  17.4051339285714 10.48828125  C 18.1826636904762 9.56640625  18.5714285714286 8.5703125  18.5714285714286 7.5  C 18.5714285714286 6.4296875  18.1826636904762 5.43359375  17.4051339285714 4.51171875  C 16.6276041666667 3.58984375  15.5784970238095 2.857421875  14.2578125 2.314453125  Z M 19.2075892857143 4.587890625  C 19.7358630952381 5.513671875  20 6.484375  20 7.5  C 20 8.859375  19.5535714285714 10.115234375  18.6607142857143 11.267578125  C 17.7678571428571 12.419921875  16.5550595238095 13.330078125  15.0223214285714 13.998046875  C 13.4895833333333 14.666015625  11.8154761904762 15  10 15  C 9.47916666666667 15  8.93973214285714 14.96875  8.38169642857143 14.90625  C 6.90848214285714 16.2734375  5.19717261904762 17.21875  3.24776785714286 17.7421875  C 2.88318452380952 17.8515625  2.45907738095238 17.9375  1.97544642857143 18  L 1.91964285714286 18  C 1.80803571428571 18  1.70758928571429 17.958984375  1.61830357142857 17.876953125  C 1.52901785714286 17.794921875  1.46949404761905 17.6875  1.43973214285714 17.5546875  L 1.43973214285714 17.54296875  C 1.41741071428571 17.51171875  1.4155505952381 17.46484375  1.43415178571429 17.40234375  C 1.45275297619048 17.33984375  1.46019345238095 17.30078125  1.45647321428571 17.28515625  C 1.45275297619048 17.26953125  1.46949404761905 17.232421875  1.50669642857143 17.173828125  L 1.57366071428571 17.068359375  C 1.57366071428571 17.068359375  1.59970238095238 17.03515625  1.65178571428571 16.96875  C 1.70386904761905 16.90234375  1.73363095238095 16.8671875  1.74107142857143 16.86328125  C 1.79315476190476 16.80078125  1.90848214285714 16.666015625  2.08705357142857 16.458984375  C 2.265625 16.251953125  2.39397321428571 16.103515625  2.47209821428571 16.013671875  C 2.55022321428571 15.923828125  2.6655505952381 15.76953125  2.81808035714286 15.55078125  C 2.97061011904762 15.33203125  3.09151785714286 15.1328125  3.18080357142857 14.953125  C 3.27008928571429 14.7734375  3.37053571428571 14.54296875  3.48214285714286 14.26171875  C 3.59375 13.98046875  3.69047619047619 13.68359375  3.77232142857143 13.37109375  C 2.60416666666667 12.67578125  1.68340773809524 11.81640625  1.01004464285714 10.79296875  C 0.336681547619048 9.76953125  0 8.671875  0 7.5  C 0 6.484375  0.264136904761905 5.513671875  0.792410714285714 4.587890625  C 1.32068452380952 3.662109375  2.03125 2.86328125  2.92410714285714 2.19140625  C 3.81696428571429 1.51953125  4.88095238095238 0.986328124999998  6.11607142857143 0.591796874999999  C 7.35119047619048 0.197265624999999  8.64583333333333 0  10 0  C 11.3541666666667 0  12.6488095238095 0.197265624999999  13.8839285714286 0.591796874999999  C 15.1190476190476 0.986328124999998  16.1830357142857 1.51953125  17.0758928571429 2.19140625  C 17.96875 2.86328125  18.6793154761905 3.662109375  19.2075892857143 4.587890625  Z " fill-rule="nonzero" fill="#f2f2f2" stroke="none" transform="matrix(1 0 0 1 67 98 )" />
  </g>
</svg>