<?xml version="1.0" encoding="utf-8"?>
<svg version="1.1" xmlns:xlink="http://www.w3.org/1999/xlink" width="24px" height="24px" xmlns="http://www.w3.org/2000/svg">
  <g transform="matrix(1 0 0 1 -314 -18 )">
    <path d="M 20.0048076923077 15  C 20.2067307692308 15.09375  20.3076923076923 15.2447916666667  20.3076923076923 15.453125  L 20.3076923076923 19.5  C 20.3076923076923 20.7395833333333  19.9014423076923 21.7994791666667  19.0889423076923 22.6796875  C 18.2764423076923 23.5598958333333  17.2980769230769 24  16.1538461538462 24  L 4.15384615384615 24  C 3.00961538461538 24  2.03125 23.5598958333333  1.21875 22.6796875  C 0.40625 21.7994791666667  0 20.7395833333333  0 19.5  L 0 6.5  C 0 5.26041666666666  0.40625 4.20052083333333  1.21875 3.3203125  C 2.03125 2.44010416666666  3.00961538461538 2  4.15384615384615 2  L 7.83173076923077 2  C 7.95673076923077 2  8.06490384615385 2.04947916666666  8.15625 2.1484375  C 8.24759615384615 2.24739583333333  8.29326923076923 2.36458333333333  8.29326923076923 2.5  C 8.29326923076923 2.78125  8.16826923076923 2.94791666666667  7.91826923076923 3  C 7.17788461538462 3.27083333333333  6.53846153846154 3.58333333333333  6 3.9375  C 5.90384615384615 3.97916666666667  5.82692307692308 4  5.76923076923077 4  L 4.15384615384615 4  C 3.51923076923077 4  2.97596153846154 4.24479166666666  2.52403846153846 4.734375  C 2.07211538461539 5.22395833333333  1.84615384615385 5.8125  2 6.5  L 2 19.5  C 1.84615384615385 20.1875  2.07211538461539 20.7760416666667  2.52403846153846 21.265625  C 2.97596153846154 21.7552083333333  3.51923076923077 22  4.15384615384615 22  L 16.1538461538462 22  C 16.7884615384615 22  17.3317307692308 21.7552083333333  17.7836538461538 21.265625  C 18.2355769230769 20.7760416666667  18.4615384615385 20.1875  18.4615384615385 19.5  L 18.4615384615385 16.15625  C 18.4615384615385 15.9583333333333  18.5480769230769 15.8072916666667  18.7211538461538 15.703125  C 18.9903846153846 15.5677083333333  19.25 15.375  19.5 15.125  C 19.6538461538462 14.9583333333333  19.8221153846154 14.9166666666667  20.0048076923077 15  Z M 24 7  C 24 7.27083333333333  23.9086538461538 7.50520833333333  23.7259615384615 7.703125  L 18.1875 13.703125  C 18.0144230769231 13.9010416666667  17.7980769230769 14  17.5384615384615 14  C 17.4230769230769 14  17.3028846153846 13.9739583333333  17.1778846153846 13.921875  C 16.8028846153846 13.7447916666667  16.6153846153846 13.4375  16.6153846153846 13  L 16.6153846153846 10  L 14.3076923076923 10  C 11.2019230769231 10  9.09615384615385 10.6822916666667  7.99038461538461 12.046875  C 6.84615384615385 13.4739583333333  6.49038461538462 15.9375  6.92307692307692 19.4375  C 6.95192307692308 19.6770833333333  6.85576923076923 19.8541666666667  6.63461538461539 19.96875  C 6.55769230769231 19.9895833333333  6.5 20  6.46153846153846 20  C 6.30769230769231 20  6.18269230769231 19.9322916666667  6.08653846153846 19.796875  C 5.99038461538462 19.6510416666667  5.88942307692308 19.4895833333333  5.78365384615385 19.3125  C 5.67788461538462 19.1354166666667  5.48798076923077 18.7786458333333  5.21394230769231 18.2421875  C 4.93990384615385 17.7057291666667  4.70192307692308 17.1875  4.5 16.6875  C 4.29807692307692 16.1875  4.11298076923077 15.59375  3.94471153846154 14.90625  C 3.77644230769231 14.21875  3.69230769230769 13.5833333333333  3.69230769230769 13  C 3.69230769230769 12.4895833333333  3.70913461538462 12.015625  3.74278846153846 11.578125  C 3.77644230769231 11.140625  3.84375 10.671875  3.94471153846154 10.171875  C 4.04567307692308 9.671875  4.18028846153846 9.21354166666666  4.34855769230769 8.796875  C 4.51682692307692 8.38020833333333  4.74278846153846 7.95572916666666  5.02644230769231 7.5234375  C 5.31009615384615 7.09114583333333  5.63942307692308 6.70572916666666  6.01442307692308 6.3671875  C 6.38942307692308 6.02864583333333  6.84375 5.70833333333333  7.37740384615385 5.40625  C 7.91105769230769 5.10416666666667  8.50961538461539 4.8515625  9.17307692307692 4.6484375  C 9.83653846153846 4.4453125  10.6033653846154 4.28645833333333  11.4735576923077 4.171875  C 12.34375 4.05729166666666  13.2884615384615 4  14.3076923076923 4  L 16.6153846153846 4  L 16.6153846153846 0.999999999999999  C 16.6153846153846 0.5625  16.8028846153846 0.255208333333331  17.1778846153846 0.0781250000000009  C 17.3028846153846 0.0260416666666687  17.4230769230769 0  17.5384615384615 0  C 17.7884615384615 0  18.0048076923077 0.0989583333333348  18.1875 0.296874999999999  L 23.7259615384615 6.296875  C 23.9086538461538 6.49479166666666  24 6.72916666666666  24 7  Z " fill-rule="nonzero" fill="#555555" stroke="none" transform="matrix(1 0 0 1 314 18 )" />
  </g>
</svg>