<?xml version="1.0" encoding="utf-8"?>
<svg version="1.1" xmlns:xlink="http://www.w3.org/1999/xlink" width="23px" height="27px" xmlns="http://www.w3.org/2000/svg">
  <g transform="matrix(1 0 0 1 -213 -18 )">
    <path d="M 18.8372395833333 20.49609375  C 19.0568576388889 19.875  19.1666666666667 19.283203125  19.1666666666667 18.720703125  C 19.1666666666667 18.591796875  19.1566840277778 18.498046875  19.13671875 18.439453125  C 19.1167534722222 18.380859375  19.0269097222222 18.2841796875  18.8671875 18.1494140625  C 18.7074652777778 18.0146484375  18.5053168402778 17.8681640625  18.2607421875 17.7099609375  C 18.0161675347222 17.5517578125  17.7790798611111 17.396484375  17.5494791666667 17.244140625  C 17.3198784722222 17.091796875  17.0927734375 16.9453125  16.8681640625 16.8046875  C 16.6435546875 16.6640625  16.5013020833333 16.576171875  16.44140625 16.541015625  C 16.3914930555556 16.505859375  16.2966579861111 16.4296875  16.1569010416667 16.3125  C 16.0171440972222 16.1953125  15.8923611111111 16.107421875  15.7825520833333 16.048828125  C 15.6727430555556 15.990234375  15.5679253472222 15.9609375  15.4680989583333 15.9609375  C 15.318359375 15.9609375  15.1361762152778 16.0810546875  14.9215494791667 16.3212890625  C 14.7069227430556 16.5615234375  14.509765625 16.8251953125  14.330078125 17.1123046875  C 14.150390625 17.3994140625  13.9582248263889 17.6630859375  13.7535807291667 17.9033203125  C 13.5489366319444 18.1435546875  13.3817274305556 18.263671875  13.251953125 18.263671875  C 13.1820746527778 18.263671875  13.0997178819444 18.2431640625  13.0048828125 18.2021484375  C 12.9100477430556 18.1611328125  12.8326822916667 18.123046875  12.7727864583333 18.087890625  C 12.712890625 18.052734375  12.6280381944444 17.9970703125  12.5182291666667 17.9208984375  C 12.4084201388889 17.8447265625  12.3385416666667 17.794921875  12.30859375 17.771484375  C 11.3203125 17.126953125  10.4717881944444 16.3857421875  9.76302083333333 15.5478515625  C 9.05425347222222 14.7099609375  8.42035590277778 13.7109375  7.861328125 12.55078125  C 7.84136284722222 12.515625  7.79893663194444 12.43359375  7.73404947916667 12.3046875  C 7.66916232638889 12.17578125  7.62174479166667 12.076171875  7.591796875 12.005859375  C 7.56184895833333 11.935546875  7.52940538194444 11.8447265625  7.49446614583333 11.7333984375  C 7.45952690972222 11.6220703125  7.44205729166667 11.525390625  7.44205729166667 11.443359375  C 7.44205729166667 11.291015625  7.54437934027778 11.0947265625  7.7490234375 10.8544921875  C 7.95366753472222 10.6142578125  8.17827690972222 10.388671875  8.4228515625 10.177734375  C 8.66742621527778 9.966796875  8.89203559027778 9.7353515625  9.0966796875 9.4833984375  C 9.30132378472222 9.2314453125  9.40364583333333 9.017578125  9.40364583333333 8.841796875  C 9.40364583333333 8.724609375  9.37868923611111 8.6015625  9.32877604166667 8.47265625  C 9.27886284722222 8.34375  9.20399305555556 8.197265625  9.10416666666667 8.033203125  C 9.00434027777778 7.869140625  8.939453125 7.7578125  8.90950520833333 7.69921875  C 8.87955729166667 7.62890625  8.8046875 7.4619140625  8.68489583333333 7.1982421875  C 8.56510416666667 6.9345703125  8.44032118055556 6.66796875  8.310546875 6.3984375  C 8.18077256944444 6.12890625  8.04850260416667 5.8505859375  7.91373697916667 5.5634765625  C 7.77897135416667 5.2763671875  7.65418836805556 5.0390625  7.53938802083333 4.8515625  C 7.42458767361111 4.6640625  7.34223090277778 4.55859375  7.29231770833333 4.53515625  C 7.24240451388889 4.51171875  7.16254340277778 4.5  7.052734375 4.5  C 6.57356770833333 4.5  6.06944444444444 4.62890625  5.54036458333333 4.88671875  C 5.08116319444445 5.1328125  4.68185763888889 5.6865234375  4.34244791666667 6.5478515625  C 4.00303819444445 7.4091796875  3.83333333333333 8.173828125  3.83333333333333 8.841796875  C 3.83333333333333 9.029296875  3.84581163194445 9.228515625  3.87076822916667 9.439453125  C 3.89572482638889 9.650390625  3.92068142361111 9.8291015625  3.94563802083333 9.9755859375  C 3.97059461805556 10.1220703125  4.01551649305556 10.3154296875  4.08040364583333 10.5556640625  C 4.14529079861111 10.7958984375  4.19520399305556 10.96875  4.23014322916667 11.07421875  C 4.26508246527778 11.1796875  4.32747395833333 11.373046875  4.41731770833333 11.654296875  C 4.50716145833333 11.935546875  4.56206597222222 12.111328125  4.58203125 12.181640625  C 5.18098958333333 14.103515625  6.26161024305556 15.9814453125  7.82389322916667 17.8154296875  C 9.38617621527778 19.6494140625  10.9858940972222 20.91796875  12.623046875 21.62109375  C 12.6829427083333 21.64453125  12.8326822916667 21.708984375  13.072265625 21.814453125  C 13.3118489583333 21.919921875  13.4765625 21.9931640625  13.56640625 22.0341796875  C 13.65625 22.0751953125  13.8034939236111 22.1337890625  14.0081380208333 22.2099609375  C 14.2127821180556 22.2861328125  14.3774956597222 22.3388671875  14.5022786458333 22.3681640625  C 14.6270616319444 22.3974609375  14.779296875 22.4267578125  14.958984375 22.4560546875  C 15.138671875 22.4853515625  15.3083767361111 22.5  15.4680989583333 22.5  C 16.037109375 22.5  16.6884765625 22.30078125  17.4222005208333 21.90234375  C 18.1559244791667 21.50390625  18.6276041666667 21.03515625  18.8372395833333 20.49609375  Z M 21.7347005208333 1.4853515625  C 22.5782335069444 2.4755859375  23 3.66796875  23 5.0625  L 23 21.9375  C 23 23.33203125  22.5782335069444 24.5244140625  21.7347005208333 25.5146484375  C 20.8911675347222 26.5048828125  19.8754340277778 27  18.6875 27  L 4.3125 27  C 3.12456597222222 27  2.10883246527778 26.5048828125  1.26529947916667 25.5146484375  C 0.421766493055555 24.5244140625  0 23.33203125  0 21.9375  L 0 5.0625  C 0 3.66796875  0.421766493055555 2.4755859375  1.26529947916667 1.4853515625  C 2.10883246527778 0.495117187499998  3.12456597222222 0  4.3125 0  L 18.6875 0  C 19.8754340277778 0  20.8911675347222 0.495117187499998  21.7347005208333 1.4853515625  Z " fill-rule="nonzero" fill="#f2f2f2" stroke="none" transform="matrix(1 0 0 1 213 18 )" />
  </g>
</svg>