<?xml version="1.0" encoding="utf-8"?>
<svg version="1.1" xmlns:xlink="http://www.w3.org/1999/xlink" width="23px" height="24px" xmlns="http://www.w3.org/2000/svg">
  <g transform="matrix(1 0 0 1 -40 -19 )">
    <path d="M 7.73297991071429 8.5859375  C 8.05385044642857 8.9765625  8.21428571428572 9.44791666666667  8.21428571428572 10  C 8.21428571428572 10.5520833333333  8.05385044642857 11.0234375  7.73297991071429 11.4140625  C 7.412109375 11.8046875  7.02492559523809 12  6.57142857142857 12  C 6.11793154761905 12  5.73074776785714 11.8046875  5.40987723214286 11.4140625  C 5.08900669642857 11.0234375  4.92857142857143 10.5520833333333  4.92857142857143 10  C 4.92857142857143 9.44791666666667  5.08900669642857 8.9765625  5.40987723214286 8.5859375  C 5.73074776785714 8.1953125  6.11793154761905 8  6.57142857142857 8  C 7.02492559523809 8  7.412109375 8.1953125  7.73297991071429 8.5859375  Z M 12.6615513392857 8.5859375  C 12.982421875 8.9765625  13.1428571428571 9.44791666666667  13.1428571428571 10  C 13.1428571428571 10.5520833333333  12.982421875 11.0234375  12.6615513392857 11.4140625  C 12.3406808035714 11.8046875  11.9534970238095 12  11.5 12  C 11.0465029761905 12  10.6593191964286 11.8046875  10.3384486607143 11.4140625  C 10.017578125 11.0234375  9.85714285714286 10.5520833333333  9.85714285714286 10  C 9.85714285714286 9.44791666666667  10.017578125 8.9765625  10.3384486607143 8.5859375  C 10.6593191964286 8.1953125  11.0465029761905 8  11.5 8  C 11.9534970238095 8  12.3406808035714 8.1953125  12.6615513392857 8.5859375  Z M 17.5901227678571 8.5859375  C 17.9109933035714 8.9765625  18.0714285714286 9.44791666666667  18.0714285714286 10  C 18.0714285714286 10.5520833333333  17.9109933035714 11.0234375  17.5901227678571 11.4140625  C 17.2692522321429 11.8046875  16.882068452381 12  16.4285714285714 12  C 15.9750744047619 12  15.587890625 11.8046875  15.2670200892857 11.4140625  C 14.9461495535714 11.0234375  14.7857142857143 10.5520833333333  14.7857142857143 10  C 14.7857142857143 9.44791666666667  14.9461495535714 8.9765625  15.2670200892857 8.5859375  C 15.587890625 8.1953125  15.9750744047619 8  16.4285714285714 8  C 16.882068452381 8  17.2692522321429 8.1953125  17.5901227678571 8.5859375  Z M 16.396484375 3.0859375  C 14.877697172619 2.36197916666667  13.2455357142857 2  11.5 2  C 9.75446428571428 2  8.12230282738095 2.36197916666667  6.603515625 3.0859375  C 5.08472842261905 3.80989583333333  3.87825520833333 4.78645833333333  2.98409598214286 6.015625  C 2.08993675595238 7.24479166666666  1.64285714285714 8.57291666666666  1.64285714285714 10  C 1.64285714285714 11.1666666666667  1.9487537202381 12.2786458333333  2.560546875 13.3359375  C 3.1723400297619 14.3932291666667  4.03441220238095 15.3072916666667  5.14676339285714 16.078125  L 6.26339285714286 16.859375  L 5.91685267857143 18.359375  C 5.71149553571429 19.3072916666667  5.41201636904762 20.203125  5.01841517857143 21.046875  C 6.31901041666667 20.390625  7.49553571428571 19.5  8.54799107142857 18.375  L 9.09988839285714 17.78125  L 9.83147321428572 17.875  C 10.421875 17.9583333333333  10.9780505952381 18  11.5 18  C 13.2455357142857 18  14.877697172619 17.6380208333333  16.396484375 16.9140625  C 17.915271577381 16.1901041666667  19.1217447916667 15.2135416666667  20.0159040178571 13.984375  C 20.9100632440476 12.7552083333333  21.3571428571429 11.4270833333333  21.3571428571429 10  C 21.3571428571429 8.57291666666666  20.9100632440476 7.24479166666666  20.0159040178571 6.015625  C 19.1217447916667 4.78645833333333  17.915271577381 3.80989583333333  16.396484375 3.0859375  Z M 22.0887276785714 6.1171875  C 22.6962425595238 7.3515625  23 8.64583333333333  23 10  C 23 11.8125  22.4866071428571 13.4869791666667  21.4598214285714 15.0234375  C 20.4330357142857 16.5598958333333  19.038318452381 17.7734375  17.2756696428571 18.6640625  C 15.5130208333333 19.5546875  13.5877976190476 20  11.5 20  C 10.9010416666667 20  10.2806919642857 19.9583333333333  9.63895089285714 19.875  C 7.94475446428571 21.6979166666667  5.97674851190476 22.9583333333333  3.73493303571429 23.65625  C 3.31566220238095 23.8020833333333  2.82793898809524 23.9166666666667  2.27176339285714 24  L 2.20758928571429 24  C 2.07924107142857 24  1.96372767857143 23.9453125  1.86104910714286 23.8359375  C 1.75837053571429 23.7265625  1.68991815476191 23.5833333333333  1.65569196428571 23.40625  L 1.65569196428571 23.390625  C 1.63002232142857 23.3489583333333  1.62788318452381 23.2864583333333  1.64927455357143 23.203125  C 1.67066592261905 23.1197916666667  1.6792224702381 23.0677083333333  1.67494419642857 23.046875  C 1.67066592261905 23.0260416666667  1.68991815476191 22.9765625  1.73270089285714 22.8984375  L 1.80970982142857 22.7578125  C 1.80970982142857 22.7578125  1.83965773809524 22.7135416666667  1.89955357142857 22.625  C 1.95944940476191 22.5364583333333  1.9936755952381 22.4895833333333  2.00223214285714 22.484375  C 2.06212797619048 22.4010416666667  2.19475446428571 22.2213541666667  2.40011160714286 21.9453125  C 2.60546875 21.6692708333333  2.75306919642857 21.4713541666667  2.84291294642857 21.3515625  C 2.93275669642857 21.2317708333333  3.06538318452381 21.0260416666667  3.24079241071429 20.734375  C 3.41620163690476 20.4427083333333  3.55524553571429 20.1770833333333  3.65792410714286 19.9375  C 3.76060267857143 19.6979166666667  3.87611607142857 19.390625  4.00446428571429 19.015625  C 4.1328125 18.640625  4.24404761904762 18.2447916666667  4.33816964285714 17.828125  C 2.99479166666667 16.9010416666667  1.93591889880952 15.7552083333333  1.16155133928571 14.390625  C 0.387183779761905 13.0260416666667  0 11.5625  0 10  C 0 8.64583333333333  0.30375744047619 7.3515625  0.911272321428571 6.1171875  C 1.51878720238095 4.8828125  2.3359375 3.81770833333333  3.36272321428571 2.921875  C 4.38950892857143 2.02604166666666  5.61309523809524 1.31510416666666  7.03348214285714 0.789062499999999  C 8.45386904761905 0.263020833333332  9.94270833333333 0  11.5 0  C 13.0572916666667 0  14.546130952381 0.263020833333332  15.9665178571429 0.789062499999999  C 17.3869047619048 1.31510416666666  18.6104910714286 2.02604166666666  19.6372767857143 2.921875  C 20.6640625 3.81770833333333  21.4812127976191 4.8828125  22.0887276785714 6.1171875  Z " fill-rule="nonzero" fill="#f2f2f2" stroke="none" transform="matrix(1 0 0 1 40 19 )" />
  </g>
</svg>