<?xml version="1.0" encoding="utf-8"?>
<svg version="1.1" xmlns:xlink="http://www.w3.org/1999/xlink" width="35px" height="35px" xmlns="http://www.w3.org/2000/svg">
  <g transform="matrix(1 0 0 1 -170 -66 )">
    <path d="M 24.3750000292969 18.39140625  L 33.0273437402344 9.8  C 32.8827559731122 9.46895117440349  32.7124427556981 9.1497444820991  32.5179687792969 8.84531251953125  C 31.7559927020038 7.54997532103462  30.837645016712 6.35323707817393  29.7835937792969 5.28203122070313  C 29.3260163890076 4.82400956104194  28.8367882385333 4.39874135660507  28.3195312695313 4.00937502929688  C 27.1093750292969 3.05468748046875  25.7726562597656 2.22734374023437  24.3750000292969 1.65468748046875  C 24.3750000292969 1.65468748046875  24.4382812597656 17.8820312207031  24.3750000292969 18.39140625  Z M 11.1390624707031 1.59062497070313  C 11.1390624707031 1.59062497070313  22.7179687109375 12.9820312207031  23 13.4273437402344  L 23 1.20937502929688  C 22.7179687792969 1.0820312890625  22.3968750195312 1.01796877929688  22.0179687792969 0.890624970703124  C 20.565176769863 0.505040314248727  19.0679239681171 0.312498879696942  17.5648437207031 0.317968779296881  C 16.9055531940374 0.326823341790166  16.247144425343 0.369326559316826  15.5921875292969 0.445312519531256  C 14.0627076138894 0.623185814419543  12.5645706935588 1.00849609559021  11.1390624707031 1.59062497070313  Z M 1.65468748046875 10.6195312207031  C 1.65468748046875 10.6249999707031  17.9453124511719 10.5640624414063  18.4546874804688 10.6249999707031  L 9.8 2.03125001953125  C 9.46911377587302 2.17587173077687  9.14992952465758 2.34591178952667  8.84531251953125 2.53984376953125  C 7.55000187085424 3.30185923180482  6.35326825173617 4.22020336894947  5.28203122070313 5.27421876953125  C 4.83593749023438 5.78281251953125  4.39140625 6.22890625  4.00937502929688 6.7375  C 3.05468754882812 7.94687502929688  2.2906250390625 9.28281251953125  1.65468748046875 10.6195312207031  Z M 1.59062497070313 23.8625000195313  C 1.59062497070313 23.8625000195313  13.0468750097656 12.2820312207031  13.4273437402344 12  L 1.20937502929688 12  C 1.0820312890625 12.3437500292969  1.01562500976563 12.6632812304687  0.890624970703129 13.0468750097656  C 0.509138145864959 14.5004677112936  0.31666597211752 15.9971818998448  0.317968779296881 17.5  C 0.317968779296881 18.1367187695312  0.382031289062503 18.7726562597656  0.445312519531261 19.4093750292969  C 0.623348230853481 20.9388247324672  1.008652924036 22.4369399029694  1.59062497070313 23.8625000195313  Z M 10.6249999707031 16.5445312402344  L 1.97265625976563 25.1367187695313  C 2.11710482147159 25.4685853038079  2.28742122992257 25.7885816479065  2.48203122070313 26.0937500195313  C 3.24399997685907 27.389329993594  4.16234543767828 28.5863277089473  5.21640622070313 29.6578125292969  C 5.67456069350919 30.1152152313441  6.16374436370179 30.5404447706929  6.68046873046875 30.9304687207031  C 7.90479452262994 31.8568377825444  9.2276515107554 32.6452071137519  10.6249999707031 33.2812500097656  C 10.6249999707031 33.3445312402344  10.5617187402344 17.0539062695313  10.6249999707031 16.5445312402344  Z M 23.92578125 33.4093750292969  C 23.92578125 33.4093750292969  12.2820312207031 22.0179687792969  12 21.5726562597656  L 12 33.7906249707031  C 12.3453125195312 33.9179687109375  12.6632812304687 33.9820312207031  13.0453125195313 34.1093750292969  C 14.4981150069489 34.4949061379316  15.9953606733357 34.687446657857  17.4984375097656 34.6820312207031  C 18.1351562792969 34.6820312207031  18.7710937695313 34.6179687109375  19.4078124707031 34.5546874804688  C 20.9568393836621 34.3690689986488  22.4753965778665 33.9841122742223  23.92578125 33.4093750292969  Z M 33.2179687792969 24.3750000292969  C 33.2179687792969 24.3750000292969  16.9273438085937 24.4359375585938  16.4179687792969 24.3750000292969  L 25.0726562597656 33.0273437402344  C 25.4037050853621 32.8827559731121  25.7229117776665 32.7124427556981  26.0273437402344 32.5179687792969  C 27.3228138599811 31.756189933313  28.5195752520047 30.837824466301  29.5906249707031 29.7835937792969  C 30.0486466538938 29.32601639133  30.4739148812222 28.8367882407997  30.8632812304688 28.3195312695313  C 31.8364572892368 27.1266364394271  32.6297637965208 25.7977033066129  33.2179687792969 24.3750000292969  Z M 34.6820312207031 17.5015624902344  C 34.6820312207031 16.8632812304687  34.6179687109375 16.2273437402344  34.5546874804688 15.5906249707031  C 34.3768141794888 14.061145078532  33.991503898421 12.5630081815991  33.4093750292969 11.1374999804688  C 33.4093750292969 11.1374999804688  21.9531249902344 22.7179687792969  21.5093750292969 23  L 33.7906249707031 23  C 33.9179687109375 22.6546875488281  33.9820312207031 22.3335937890625  34.1093750292969 21.9546874804687  C 34.498996258584 20.5026900065822  34.6916073777225 19.0048953421673  34.6820312207031 17.5015624902344  Z " fill-rule="nonzero" fill="#ffffff" stroke="none" transform="matrix(1 0 0 1 170 66 )" />
  </g>
</svg>