<?xml version="1.0" encoding="utf-8"?>
<svg version="1.1" xmlns:xlink="http://www.w3.org/1999/xlink" width="40px" height="35px" xmlns="http://www.w3.org/2000/svg">
  <g transform="matrix(1 0 0 1 -72 -63 )">
    <path d="M 21.037037037037 28.2916666894531  C 20.9185184953704 20.2416666894531  28.0296296064815 13.7083333789062  37.037037037037 13.7083333105469  C 37.6296296064815 13.7083333105469  38.2222222453704 13.7083333105469  38.8148148148148 13.825  C 37.1555555787037 6.35833331054687  29.0962962731481 0.875000000000002  19.7333333564815 0.875000000000002  C 9.42222224537037 0.875000000000002  0.888888912037036 7.75833331054688  0.888888912037036 16.625  C 0.888888912037036 21.7583333105469  3.73333335648148 25.8416666894531  8.47407405092593 29.1083333105469  L 6.57777780092592 34.7083333105469  L 13.2148148148148 31.4416666894531  C 15.3481481481481 32.025  17.6000000231481 32.2583333789063  19.8518518287037 32.375  C 20.4444443981481 32.375  21.037037037037 32.375  21.6296296064815 32.2583333105469  C 21.2740740509259 30.975  21.037037037037 29.6916666210938  21.037037037037 28.2916666894531  Z M 24.3555555787037 9.74166668945313  C 24.9481481481481 8.925  25.8962963425926 8.575  26.8444444675926 8.69166668945313  C 27.7925925925926 8.45833337890625  28.740740787037 8.925  29.3333333564815 9.74166668945313  C 29.9259259259259 10.5583333789063  29.9259259259259 11.6083333789063  29.3333333564815 12.3083333105469  C 28.740740787037 13.125  27.7925925925926 13.475  26.8444444675926 13.3583333105469  C 25.8962963425926 13.5916666210938  24.9481481481481 13.125  24.3555555787037 12.3083333105469  C 23.7629630092593 11.4916666210938  23.7629630092593 10.4416666210938  24.3555555787037 9.74166668945313  Z M 15.585185162037 11.025  C 15.5851850925926 12.1916666210938  14.8740740509259 13.125  13.688888912037 13.3583333105469  C 12.740740787037 13.5916666210938  11.7925925925926 13.125  11.2000000231482 12.3083333105469  C 10.6074074537037 11.4916666210937  10.6074074537037 10.4416666210938  11.2000000231482 9.74166668945312  C 11.7925925925926 8.925  12.740740787037 8.575  13.688888912037 8.69166668945312  C 14.8740741203704 8.925  15.5851852314815 9.85833337890625  15.585185162037 11.025  Z " fill-rule="nonzero" fill="#ffffff" stroke="none" transform="matrix(1 0 0 1 72 63 )" />
  </g>
</svg>