<?xml version="1.0" encoding="utf-8"?>
<svg version="1.1" xmlns:xlink="http://www.w3.org/1999/xlink" width="33px" height="29px" xmlns="http://www.w3.org/2000/svg">
  <g transform="matrix(1 0 0 1 -94 -78 )">
    <path d="M 25.8 23.4899999773437  C 29.5200000234375 20.9379999546875  32.4000000234375 17.342  32.4000000234375 13.2820000226563  C 32.4000000234375 6.08999997734375  24.72 0.290000000000004  16.2000000234375 0.290000000000004  C 7.2000000234375 0.290000000000004  0 6.08999997734375  0 13.2820000226563  C 0 20.4740000679688  7.2000000234375 26.2740000453125  16.2000000234375 26.2739999773437  C 18.120000046875 26.1579999546875  20.04 25.9259999773437  21.9600000234375 25.346  L 27.24 28.0139999773438  L 25.8 23.4899999773437  Z M 12.9600000234375 10.2659999773438  C 12.6000000234375 10.8459999546875  11.76 11.1939999546875  10.9199999765625 11.078  C 9.8399999765625 11.078  8.99999995312501 10.2659999773438  9.00000002343751 9.22199997734376  C 9.00000002343751 8.17799997734375  9.84000004687501 7.36599995468751  10.9199999765625 7.36600002265626  C 11.6399999765625 7.25000000000001  12.48 7.48200004531251  12.9600000234375 8.17799997734376  C 13.440000046875 8.75799995468751  13.440000046875 9.56999997734376  12.9600000234375 10.2659999773438  Z M 23.5199999765625 10.2659999773438  C 23.039999953125 10.8459999546875  22.2 11.1939999546875  21.48 11.078  C 20.4 11.078  19.5599999765625 10.2659999773438  19.5599999765625 9.22199997734376  C 19.5599999765625 8.17799997734375  20.4 7.36599995468751  21.48 7.36600002265626  C 22.2 7.25000000000001  23.0400000234375 7.48200004531251  23.5199999765625 8.17799997734376  C 24 8.75799995468751  24 9.56999997734376  23.5199999765625 10.2659999773438  Z " fill-rule="nonzero" fill="#ffffff" stroke="none" transform="matrix(1 0 0 1 94 78 )" />
  </g>
</svg>