<?xml version="1.0" encoding="utf-8"?>
<svg version="1.1" xmlns:xlink="http://www.w3.org/1999/xlink" width="25px" height="25px" xmlns="http://www.w3.org/2000/svg">
  <g transform="matrix(1 0 0 1 -180 -405 )">
    <path d="M 17.4107143066406 13.13671875  L 23.5909598144531 7  C 23.4876828379372 6.76353655314535  23.3660305397844 6.53553177292793  23.2271205566406 6.31808037109375  C 22.6828519300027 5.39283951502473  22.0268892976514 4.53802648440995  21.2739955566406 3.77287944335937  C 20.9471545635769 3.44572111502996  20.5977058846667 3.14195811186077  20.2282366210938 2.86383930664063  C 19.3638393066406 2.18191962890625  18.4090401855469 1.59095981445312  17.4107143066406 1.18191962890625  C 17.4107143066406 1.18191962890625  17.4559151855469 12.7728794433594  17.4107143066406 13.13671875  Z M 7.95647319335937 1.13616069335938  C 7.95647319335937 1.13616069335938  16.2271205078125 9.27287944335938  16.5 9.59095981445313  L 16.5 0.863839306640627  C 16.2271205566406 0.7728794921875  15.9977678710937 0.727120556640626  15.7271205566406 0.636160693359374  C 14.6894119784736 0.360743081606233  13.6199456915122 0.223213485497816  12.5463169433594 0.227120556640629  C 12.0753951385981 0.233445244135833  11.6051031609593 0.263804685226304  11.1372768066406 0.318080371093754  C 10.0447911527781 0.445132724585388  8.97469335254199 0.720354353993006  7.95647319335937 1.13616069335938  Z M 1.18191962890625 7.58537944335937  C 1.18191962890625 7.58928569335938  12.8180803222656 7.54575888671875  13.1819196289063 7.58928569335938  L 7 1.45089287109375  C 6.76365269705215 1.55419409341205  6.53566394618398 1.67565127823334  6.31808037109375 1.81417412109375  C 5.3928584791816 2.35847087986059  4.53804875124012 3.01443097782105  3.77287944335937 3.76729912109375  C 3.45424106445313 4.13058037109375  3.13671875 4.44921875  2.86383930664063 4.8125  C 2.18191967773437 5.67633930664063  1.6361607421875 6.63058037109375  1.18191962890625 7.58537944335937  Z M 1.13616069335938 17.0446428710937  C 1.13616069335938 17.0446428710937  9.31919643554688 8.77287944335938  9.59095981445313 8.54575893554687  L 0.863839306640627 8.54575893554687  C 0.7728794921875 8.81696430664062  0.725446435546876 9.04520087890625  0.636160693359378 9.31919643554687  C 0.363670104189256 10.3574769366383  0.226189980083943 11.4265584998892  0.227120556640629 12.5  C 0.227120556640629 12.9547991210937  0.272879492187502 13.4090401855469  0.318080371093758 13.8638393066406  C 0.445248736323915 14.9563033803337  0.720466374311429 16.0263856449781  1.13616069335938 17.0446428710937  Z M 7.58928569335938 11.8175223144531  L 1.40904018554688 17.9547991210938  C 1.51221772962256 18.1918466455771  1.63387230708755 18.4204154627903  1.77287944335938 18.6383928710938  C 2.31714284061362 19.5638071382815  2.97310388405591 20.418805506391  3.72600444335938 21.1841518066406  C 4.05325763822085 21.5108680223886  4.40267454550128 21.8146034076378  4.77176337890625 22.0931919433594  C 5.64628180187853 22.7548841303889  6.59117965053957 23.3180050812514  7.58928569335938 23.7723214355469  C 7.58928569335938 23.8175223144531  7.54408481445312 12.1813616210937  7.58928569335938 11.8175223144531  Z M 17.08984375 23.8638393066406  C 17.08984375 23.8638393066406  8.77287944335938 15.7271205566406  8.54575893554687 15.4090401855469  L 8.54575893554687 24.1361606933594  C 8.81808037109375 24.2271205078125  9.04520087890625 24.2728794433594  9.31808037109375 24.3638393066406  C 10.3557964335349 24.6392186699511  11.4252576238112 24.776747612755  12.4988839355469 24.7728794433594  C 12.9536830566406 24.7728794433594  13.4079241210937 24.7271205078125  13.8627231933594 24.6819196289063  C 14.96917098833 24.5493349990348  16.0538546984761 24.2743659101588  17.08984375 23.8638393066406  Z M 23.7271205566406 17.4107143066406  C 23.7271205566406 17.4107143066406  12.0909598632812 17.4542411132813  11.7271205566406 17.4107143066406  L 17.9090401855469 23.5909598144531  C 18.1455036324015 23.4876828379372  18.3735084126189 23.3660305397844  18.5909598144531 23.2271205566406  C 19.5162956142722 22.6829928095093  20.3711251800034 22.0270174759293  21.1361606933594 21.2739955566406  C 21.4633190384956 20.9471545652357  21.7670820580159 20.5977058862855  22.0452008789063 20.2282366210937  C 22.7403266351692 19.3761688853051  23.306974140372 18.426930933295  23.7271205566406 17.4107143066406  Z M 24.7728794433594 12.5011160644531  C 24.7728794433594 12.0452008789062  24.7271205078125 11.5909598144531  24.6819196289063 11.1361606933594  C 24.5548672710634 10.0436750560943  24.2796456417293 8.97357727257075  23.8638393066406 7.95535712890625  C 23.8638393066406 7.95535712890625  15.6808035644531 16.2271205566406  15.3638393066406 16.4547991210937  L 24.1361606933594 16.4547991210937  C 24.2271205078125 16.1819196777344  24.2728794433594 15.9525669921875  24.3638393066406 15.6819196289062  C 24.6421401847029 14.6447785761302  24.7797195555161 13.5749252444052  24.7728794433594 12.5011160644531  Z " fill-rule="nonzero" fill="#ffffff" stroke="none" transform="matrix(1 0 0 1 180 405 )" />
  </g>
</svg>