<?xml version="1.0" encoding="utf-8"?>
<svg version="1.1" xmlns:xlink="http://www.w3.org/1999/xlink" width="70px" height="70px" xmlns="http://www.w3.org/2000/svg">
  <g transform="matrix(1 0 0 1 -242 -167 )">
    <path d="M 277 167  C 296.6 167  312 182.4  312 202  C 312 221.6  296.6 237  277 237  C 257.4 237  242 221.6  242 202  C 242 182.4  257.4 167  277 167  Z " fill-rule="nonzero" fill="#ffffff" stroke="none" />
    <path d="M 277 167.5  C 296.32 167.5  311.5 182.68  311.5 202  C 311.5 221.32  296.32 236.5  277 236.5  C 257.68 236.5  242.5 221.32  242.5 202  C 242.5 182.68  257.68 167.5  277 167.5  Z " stroke-width="1" stroke="#dddddd" fill="none" />
  </g>
</svg>