<?xml version="1.0" encoding="utf-8"?>
<svg version="1.1" xmlns:xlink="http://www.w3.org/1999/xlink" width="27px" height="29px" xmlns="http://www.w3.org/2000/svg">
  <g transform="matrix(1 0 0 1 -264 -188 )">
    <path d="M 9.90000001318359 25.1333333191732  L 14.1749999956055 20.5416666713867  C 14.6249999824219 20.0583333522135  15.3000000087891 20.0583333522135  15.7499999956055 20.5416666713867  C 16.1999999824219 21.0249999905599  16.1999999824219 21.7500000188802  15.7499999956055 22.2333333380534  L 11.4750000131836 26.8249999858398  C 8.775 29.725  4.50000001757813 29.725  2.0250000131836 26.8249999858398  C -0.449999991210936 23.9249999716797  -0.675 19.3333333238932  2.02500001318359 16.6749999858398  L 6.29999999560547 12.0833333380534  C 6.74999998242188 11.6000000188802  7.42500000878906 11.6000000188802  7.87499999560547 12.0833333380534  C 8.32499998242188 12.5666666572266  8.32499998242188 13.2916666855469  7.87499999560547 13.7750000047201  L 3.60000001318359 18.3666666525065  C 1.80000000439453 20.2999999952799  1.80000000439453 23.1999999763997  3.60000001318359 25.1333333191732  C 5.40000002197266 27.0666666619466  8.10000000439453 27.0666666619466  9.90000001318359 25.1333333191732  Z M 19.1250000043945 16.9166666619466  C 18.6750000175781 16.4333333427734  18.6750000175781 15.7083333144531  19.1250000043945 15.2249999952799  L 23.3999999868164 10.6333333474935  C 25.1999999956055 8.70000000472005  25.1999999956055 5.80000002360026  23.3999999868164 3.86666668082682  C 21.5999999780273 1.93333333805338  18.8999999956055 1.93333333805338  17.0999999868164 3.86666668082682  L 12.8250000043945 8.45833332861328  C 12.3750000175781 8.94166664778646  11.6999999912109 8.94166664778646  11.2500000043945 8.45833332861328  C 10.8000000175781 7.9750000094401  10.8000000175781 7.24999998111979  11.2500000043945 6.76666666194661  L 15.5249999868164 2.17500001416016  C 18.225 -0.725  22.5000000131836 -0.725  24.9749999868164 2.17500001416016  C 27.4499999604492 5.07500002832031  27.675 9.66666667610677  24.9749999868164 12.3250000141602  L 20.7000000043945 16.9166666619466  C 20.2500000175781 17.3999999811198  19.5749999912109 17.3999999811198  19.1250000043945 16.9166666619466  Z M 20.2499999868164 8.94166668082682  L 8.54999999121094 21.5083333427734  C 8.10000000439453 21.9916666619466  7.42499997802734 21.9916666619466  6.97499999121094 21.5083333427734  C 6.52500000439453 21.0250000236003  6.52500000439453 20.2999999952799  6.97499999121094 19.8166666761068  L 18.6749999868164 7.25000001416016  C 19.1249999736328 6.76666669498698  19.8 6.76666669498698  20.2499999868164 7.25000001416016  C 20.6999999736328 7.73333333333334  20.6999999736328 8.45833336165365  20.2499999868164 8.94166668082682  Z " fill-rule="nonzero" fill="#6c6f6e" stroke="none" transform="matrix(1 0 0 1 264 188 )" />
  </g>
</svg>