<?xml version="1.0" encoding="utf-8"?>
<svg version="1.1" xmlns:xlink="http://www.w3.org/1999/xlink" width="28px" height="25px" xmlns="http://www.w3.org/2000/svg">
  <g transform="matrix(1 0 0 1 -93 -401 )">
    <path d="M 14.7259259259259 20.2083333496094  C 14.6429629467593 14.4583333496094  19.620740724537 9.79166669921875  25.9259259259259 9.79166665039062  C 26.340740724537 9.79166665039062  26.7555555717593 9.79166665039062  27.1703703703704 9.875  C 26.0088889050926 4.54166665039062  20.3674073912037 0.625000000000002  13.813333349537 0.625000000000002  C 6.59555557175926 0.625000000000002  0.622222238425926 5.54166665039063  0.622222238425926 11.875  C 0.622222238425926 15.5416666503906  2.61333334953704 18.4583333496094  5.93185183564815 20.7916666503906  L 4.60444446064815 24.7916666503906  L 9.25037037037037 22.4583333496094  C 10.7437037037037 22.875  12.3200000162037 23.0416666992188  13.8962962800926 23.125  C 14.3111110787037 23.125  14.7259259259259 23.125  15.140740724537 23.0416666503906  C 14.8918518356481 22.125  14.7259259259259 21.2083333007813  14.7259259259259 20.2083333496094  Z M 17.0488889050926 6.95833334960938  C 17.4637037037037 6.375  18.1274074398148 6.125  18.7911111273148 6.20833334960938  C 19.4548148148148 6.04166669921875  20.1185185509259 6.375  20.533333349537 6.95833334960938  C 20.9481481481482 7.54166669921875  20.9481481481481 8.29166669921875  20.533333349537 8.79166665039063  C 20.1185185509259 9.375  19.4548148148148 9.625  18.7911111273148 9.54166665039063  C 18.1274074398148 9.70833330078125  17.4637037037037 9.375  17.0488889050926 8.79166665039063  C 16.6340741064815 8.20833330078125  16.6340741064815 7.45833330078125  17.0488889050926 6.95833334960938  Z M 10.9096296134259 7.875  C 10.9096295648148 8.70833330078125  10.4118518356482 9.375  9.58222223842593 9.54166665039063  C 8.91851855092593 9.70833330078125  8.25481481481482 9.375  7.84000001620371 8.79166665039062  C 7.4251852175926 8.20833330078125  7.42518521759259 7.45833330078125  7.84000001620371 6.95833334960937  C 8.25481481481482 6.375  8.91851855092593 6.125  9.58222223842593 6.20833334960937  C 10.4118518842593 6.375  10.909629662037 7.04166669921875  10.9096296134259 7.875  Z " fill-rule="nonzero" fill="#ffffff" stroke="none" transform="matrix(1 0 0 1 93 401 )" />
  </g>
</svg>