<?xml version="1.0" encoding="utf-8"?>
<svg version="1.1" xmlns:xlink="http://www.w3.org/1999/xlink" width="23px" height="21px" xmlns="http://www.w3.org/2000/svg">
  <g transform="matrix(1 0 0 1 -108 -412 )">
    <path d="M 17.9818181818182 17.0099999835937  C 20.5745454708807 15.1619999671875  22.5818181981534 12.558  22.5818181981534 9.61800001640625  C 22.5818181981534 4.40999998359375  17.2290909090909 0.210000000000003  11.2909091072443 0.210000000000003  C 5.01818183451705 0.210000000000003  0 4.40999998359375  0 9.61800001640625  C 0 14.8260000492188  5.01818183451705 19.0260000328125  11.2909091072443 19.0259999835937  C 12.6290909417614 18.9419999671875  13.9672727272727 18.7739999835937  15.3054545617898 18.354  L 18.9854545454546 20.2859999835938  L 17.9818181818182 17.0099999835937  Z M 9.0327272890625 7.43399998359376  C 8.78181819815341 7.85399996718751  8.19636363636363 8.10599996718751  7.61090907457387 8.022  C 6.85818180184659 8.022  6.27272724005682 7.43399998359375  6.27272728906251 6.67799998359375  C 6.27272728906251 5.92199998359375  6.85818185085228 5.33399996718751  7.61090907457387 5.33400001640626  C 8.11272725639204 5.25000000000001  8.69818181818182 5.41800003281251  9.0327272890625 5.92199998359376  C 9.36727275994319 6.34199996718751  9.36727275994319 6.92999998359376  9.0327272890625 7.43399998359376  Z M 16.392727256392 7.43399998359376  C 16.0581817855114 7.85399996718751  15.4727272727273 8.10599996718751  14.9709090909091 8.022  C 14.2181818181818 8.022  13.6327272563921 7.43399998359375  13.6327272563921 6.67799998359375  C 13.6327272563921 5.92199998359375  14.2181818181818 5.33399996718751  14.9709090909091 5.33400001640626  C 15.4727272727273 5.25000000000001  16.0581818345171 5.41800003281251  16.392727256392 5.92199998359376  C 16.7272727272727 6.34199996718751  16.7272727272727 6.92999998359376  16.392727256392 7.43399998359376  Z " fill-rule="nonzero" fill="#ffffff" stroke="none" transform="matrix(1 0 0 1 108 412 )" />
  </g>
</svg>