<?xml version="1.0" encoding="utf-8"?>
<svg version="1.1" xmlns:xlink="http://www.w3.org/1999/xlink" width="30px" height="30px" xmlns="http://www.w3.org/2000/svg">
  <g transform="matrix(1 0 0 1 -175 -594 )">
    <path d="M 29.2848071428571 28.4314772727273  C 29.0281928571429 28.6768977272727  28.68385 28.8117613636364  28.3153571428571 28.8117613636364  C 27.9468642857143 28.8117613636364  27.6025214285714 28.6768977272727  27.3459071428571 28.4316340909091  L 15.1642857142857 16.8038795454545  L 2.98282857142857 28.4316340909091  C 2.72605 28.6767409090909  2.38170714285714 28.8117613636364  2.01337857142857 28.8117613636364  C 1.64488571428571 28.8117613636364  1.30054285714286 28.6768977272727  1.04392857142857 28.4316340909091  L 0.978214285714285 28.3689068181818  C 0.721435714285714 28.1238  0.580149999999999 27.7952659090909  0.580149999999999 27.4435227272727  C 0.580149999999999 27.0919363636364  0.721435714285714 26.7630886363636  0.978214285714285 26.5181386363636  L 13.1595071428571 14.8902272727273  L 0.977885714285714 3.26231590909091  C 0.712564285714286 3.01564090909091  0.567335714285714 2.68757727272727  0.567335714285714 2.33693181818182  C 0.567335714285714 1.98628636363636  0.7124 1.65806590909091  0.975914285714286 1.41327272727273  L 1.04343571428571 1.34882045454545  C 1.30021428571429 1.10371363636364  1.64455714285714 0.968693181818182  2.01305 0.968693181818182  C 2.38154285714286 0.968693181818182  2.72572142857143 1.10371363636364  2.9825 1.34882045454545  L 15.1642857142857 12.9924136363636  L 27.3457428571429 1.34866363636364  C 27.6025214285714 1.10355681818182  27.9467 0.968693181818181  28.3151928571429 0.968693181818181  C 28.6836857142857 0.968693181818181  29.0280285714286 1.10371363636364  29.2846428571429 1.34882045454545  L 29.3505214285714 1.41154772727273  C 29.6073 1.65665454545454  29.7485857142857 1.98518863636364  29.7485857142857 2.33693181818182  C 29.7485857142857 2.688675  29.6073 3.01720909090909  29.3503571428571 3.26231590909091  L 17.1690642857143 14.8902272727273  L 29.3505214285714 26.5179818181818  C 29.6073 26.7630886363636  29.74875 27.0917795454545  29.74875 27.4433659090909  C 29.74875 27.7951090909091  29.6074642857143 28.1238  29.3505214285714 28.36875  L 29.2848071428571 28.4314772727273  Z " fill-rule="nonzero" fill="#ffffff" stroke="none" transform="matrix(1 0 0 1 175 594 )" />
  </g>
</svg>