<?xml version="1.0" encoding="utf-8"?>
<svg version="1.1" xmlns:xlink="http://www.w3.org/1999/xlink" width="27px" height="24px" xmlns="http://www.w3.org/2000/svg">
  <g transform="matrix(1 0 0 1 -17 -172 )">
    <path d="M 26.0066120608307 8.31294448160821  C 26.0066120608307 6.26280841848208  25.1843699034859 4.29832179663978  23.7240216082121 2.85941918220701  C 20.7757968314871 -0.0430045161633749  16.0768469951456 -0.146314679495144  13.0039084961506 2.62372893755346  C 9.93096999393858 -0.146314693530543  5.23202014143442 -0.0430045300577681  2.28379536184773 2.85941918220701  C 0.825967773883951 4.29801518324174  0.00533259003525373 6.26074842930761  0.00533259003525373 8.30887433618477  C 0.00533259003525373 10.3570002430619  0.825967773883949 12.3197334891278  2.28379536184773 13.7583294901625  L 11.264644968349 22.6578874165954  C 11.7230797957643 23.1244972417094  12.3497776071992 23.3873341707026  13.0039084961506 23.3873341707026  C 13.6580393851019 23.3873341707026  14.2847371965368 23.1244972417094  14.7431720239521 22.6578874165954  L 23.7240216082121 13.7664697810094  C 25.1843699034859 12.3275671665766  26.0066120608307 10.3630805447344  26.0066120608307 8.31294448160821  Z M 22.5617843319076 12.6123505320787  L 13.5809347476476 21.5119084807528  C 13.4283263037732 21.6657671498271  13.2205930319035 21.7523099266398  13.0038862549187 21.7523099266398  C 12.787179477934 21.7523099266398  12.5794462060643 21.6657671498271  12.4268377621899 21.5119084807528  L 3.43793682976903 12.6123727733105  C 2.28687439730786 11.4761934721776  1.63894834079898 9.92624382518239  1.63894834079898 8.30888544568007  C 1.63894834079898 6.69152706617775  2.28687439730786 5.14157741918256  3.43793682976903 4.00539811804962  C 5.77716570206134 1.7274999286386  9.48625096160389 1.66693070082972  11.8986087288281 3.86723565269461  L 13.0039529786142 4.81813683319076  L 14.1011124328486 3.86723565269461  C 16.5241291184572 1.67805408506868  20.233450405844 1.75645174975562  22.5618065731394 4.04605506757913  C 23.7003362512192 5.18065165880769  24.3402872319286 6.72185739429345  24.3402872319286 8.32920279982891  C 24.3402872319286 9.93654820536438  23.7003362512192 11.4777539408501  22.5618065731394 12.6123505320787  Z " fill-rule="nonzero" fill="#ffffff" stroke="none" transform="matrix(1 0 0 1 17 172 )" />
  </g>
</svg>