<?xml version="1.0" encoding="utf-8"?>
<svg version="1.1" xmlns:xlink="http://www.w3.org/1999/xlink" width="24px" height="24px" xmlns="http://www.w3.org/2000/svg">
  <g transform="matrix(1 0 0 1 -18 -476 )">
    <path d="M 3.2520602109375 7.13429896178291  C 1.38835621875 7.64648422690773  0.011303765625 9.39018903770489  0.011303765625 11.452381348191  C 0.011303765625 12.6447979095266  0.4771412578125 13.7680232209297  1.32605578125 14.6168905404132  C 1.821957984375 15.1151525946141  2.4078654375 15.4795630630082  3.0467755078125 15.696387523734  C 3.0883091484375 16.7481324914569  3.3190568203125 17.769954381084  3.73871175 18.7363665988903  C 4.1839004296875 19.7629789963252  4.822834078125 20.6878575969845  5.6346986953125 21.478908189962  C 6.44665771875 22.2701003923144  7.3899904453125 22.8905798917084  8.441853421875 23.3241816334725  C 9.488973046875 23.7578777580489  10.59839315625 23.9838585000158  11.742385265625 24  L 11.751706734375 24  L 11.7702788671875 24  L 11.81867971875 24  L 11.83715746875 24  L 11.874065765625 24  C 13.45168321875 23.9700296953418  14.7248779921875 22.6784043762906  14.7248779921875 21.0938253075256  C 14.7248779921875 19.4652347388035  13.380202875 18.145833802592  11.7425504296875 18.1873910447389  C 10.199387015625 18.2289482868858  8.9493189140625 19.4860251840957  8.914746890625 21.0290470107138  C 8.90790328125 21.3612217057019  8.95628053125 21.6819038694513  9.05320021875 21.9818192129084  C 8.1720499453125 21.6265414241928  7.360090921875 21.1006689403314  6.665794828125 20.4225143238061  C 5.2817807578125 19.0732138876238  4.51834059375 17.2786539675013  4.51834059375 15.3711980709266  L 4.5183405703125 9.01412082713465  C 4.5183405703125 7.1066649305599  5.2795860703125 5.31444128387262  6.6657948046875 3.96280457425507  C 8.0566996875 2.60885519276479  9.906598453125 1.8615329044321  11.8763784140625 1.8615329044321  C 13.843845703125 1.8615329044321  15.69593915625 2.60885519276479  17.0892746953125 3.96511724612782  C 18.473076375 5.31444128387262  19.2364929609375 7.10885961805775  19.2364929609375 9.01659868650723  L 19.195077328125 15.1126983133665  C 19.190451984375 15.5833263363444  19.6241953125 15.9362914531872  20.085407484375 15.8393717657819  C 20.9203279921875 15.6663228128259  21.690871359375 15.2465262976108  22.31585821875 14.6215630404086  C 23.1646311328125 13.7703594709274  23.630610234375 12.6471105579618  23.630610234375 11.4569122622491  C 23.630610234375 9.43405892828705  22.311209296875 7.72018281277326  20.5075166953125 7.16667629768879  C 20.3898065859375 6.64998369663087  20.2261735078125 6.14244735337651  20.0115673125 5.64883424448356  C 19.5664730390625 4.62252862048581  18.9275865703125 3.69765004326401  18.1155803671875 2.90643423934918  C 17.30362134375 2.11524203699683  16.3602886171875 1.49492772510261  15.3085436484375 1.06118439740119  C 14.2197487265625 0.613612288463269  13.0664587265625 0.385342476186189  11.87621325 0.385342476186189  C 10.6861565390625 0.385342476186189  9.530365078125 0.613612288463269  8.4418533984375 1.06116084271371  C 7.3923266953125 1.49490417041513  6.4466576953125 2.11521848230936  5.634698671875 2.90641068466171  C 4.8228340546875 3.69762648857654  4.183806 4.62016879236312  3.7387117265625 5.64881068979608  C 3.528730875 6.13095484557524  3.3673160625 6.6270222357158  3.2520602109375 7.13429896178291  Z M 21.2710512421875 13.5766381039291  C 21.09788428125 13.7495454709477  20.911148109375 13.897178681741  20.710465125 14.0217087753694  L 20.710465125 9.01659868650723  C 20.710465125 8.96340730374667  20.708152453125 8.9126938037962  20.708152453125 8.86198028040822  C 21.5731848515625 9.38320384239922  22.154372578125 10.3496396617679  22.154372578125 11.4568886606866  C 22.154372578125 12.2526118239721  21.8406756328125 13.006895706048  21.2710512421875 13.5766381039291  Z M 11.7724971328125 22.5261222201893  C 11.0068386796875 22.500848063964  10.3908901171875 21.8709526895792  10.3885774453125 21.0960199715859  C 10.3885774453125 20.3071404411063  11.029823765625 19.6660357073574  11.8186796953125 19.6660357073574  C 12.6075592265625 19.6660357073574  13.2486639609375 20.3071404411063  13.2486639609375 21.0960199715859  C 13.2486639609375 21.8802269551951  12.6167155078125 22.5168479545734  11.8371574453125 22.5261222201893  L 11.7724971328125 22.5261222201893  Z M 2.370957140625 13.5766381039291  C 1.8011675625 13.006895706048  1.48747059375 12.2526118239721  1.48747059375 11.4568886841241  C 1.48747059375 10.3035986852504  2.1195606328125 9.30025456904272  3.0421265625 8.79963263984411  C 3.0399554765625 8.87125456946167  3.0399554765625 8.9449531787647  3.0399554765625 9.01657510838225  L 3.0399554765625 14.0840092596836  C 2.800027921875 13.9503464395016  2.5739291953125 13.7796101584184  2.370957140625 13.5766381039291  Z " fill-rule="nonzero" fill="#ffffff" stroke="none" transform="matrix(1 0 0 1 18 476 )" />
  </g>
</svg>