<?xml version="1.0" encoding="utf-8"?>
<svg version="1.1" xmlns:xlink="http://www.w3.org/1999/xlink" width="17px" height="19px" xmlns="http://www.w3.org/2000/svg">
  <g transform="matrix(1 0 0 1 -17 -421 )">
    <path d="M 7.28749345892203 17.101645021645  C 6.15388337163789 17.8503126548119  4.10258891442526 18.4262108217116  2.6990716472353 18.4262108217116  C 2.37518304273504 18.4262108217116  2.10527588180708 18.4262108217116  1.88935016445142 18.3686210131202  C 1.45749869178441 18.253441375691  1.13361010626199 18.0230821008325  0.917684369928484 17.7351330173826  C 0.485832897261469 16.9864653842158  0.863702945334031 16.2953875798868  1.40351726718995 15.4891301381285  C 1.83536873985697 14.8556421423909  1.94333158904587 14.7404625049617  1.99731301364033 14.5101032301032  C 2.15925730640154 14.0493846803863  1.99731301364033 13.7614355969364  1.88935016445142 13.6462559595072  C 0.701758633594976 11.9185614385614  0.107962868166754 10.3060465347985  0.107962868166754 8.69353165128205  C 0.107962868166754 3.91357678907759  4.48045894351997 0.0550590060606066  9.82462081339613 0.0550590060606066  C 12.1458224315367 0.0550590060606066  14.4130426250829 0.80372663922744  16.1944299023897 2.18588226813187  C 16.4103556387232 2.35865171415251  16.4643370633176 2.70419062644023  16.3023927705564 2.99213970989011  C 16.1404484777952 3.22249898474858  15.7625784487005 3.28008879333999  15.546652712367 3.10731934731935  C 13.9811911524158 1.89793318468198  11.9298966952032 1.20685536010656  9.82462081339613 1.20685536010656  C 5.0742547089482 1.20685536010656  1.18759153085645 4.54706478481519  1.18759153085645 8.69353165128205  C 1.18759153085645 10.0756872801865  1.67342442811791 11.4578428888445  2.6990716472353 12.8975883465867  C 3.18490454449677 13.4158967048951  3.29286741266353 14.1645643380619  2.96897880816327 14.9708217798202  C 2.80703451540206 15.3739505006993  2.645090203663 15.5467199467199  2.21323874997384 16.237797751049  C 1.67342442811791 16.9864653842158  1.72740585271237 17.101645021645  1.78138729628467 17.1592348302364  C 2.10527590078493 17.5623635511156  4.96629184078144 17.2744144676657  6.69369769349381 16.0650283050283  L 6.90962342982732 15.9498486675991  C 7.01758629799407 15.8922588590077  7.17953059075528 15.8346690301698  7.34147488351648 15.8922588590077  L 7.55740061984999 15.9498486675991  C 8.47508498977848 16.1802079424575  8.85295501887319 16.237797751049  9.28480647256236 16.2953875798868  C 9.60869507706262 16.2953875798868  9.82462079441828 16.5833366633367  9.77063936982383 16.9288755756244  C 9.71665794522937 17.2744144879121  9.50073220889587 17.5047737425241  9.17684362337345 17.4471839339327  C 8.63702930151753 17.3895941253413  8.09721496068376 17.2744144879121  7.28749345892203 17.101645021645  Z " fill-rule="nonzero" fill="#ffffff" stroke="none" transform="matrix(1 0 0 1 17 421 )" />
  </g>
</svg>