<?xml version="1.0" encoding="utf-8"?>
<svg version="1.1" xmlns:xlink="http://www.w3.org/1999/xlink" width="21px" height="24px" xmlns="http://www.w3.org/2000/svg">
  <g transform="matrix(1 0 0 1 -17 -291 )">
    <path d="M 20.558461546875 22.916266675  C 19.6215384699519 17.610666675  16.5846153930288 15.351466675  13.9956923076923 14.382933325  C 16.1691430710114 12.9811943978316  17.4795776120483 10.5859591729146  17.4784615384615 8.017066675  C 17.4784615384615 3.91253335  14.217538453125 0.635733349999998  10.2889230685096 0.635733324999998  C 6.31292307692308 0.635733324999998  3.09723076081731 3.957333325  3.09723076081731 8.064  C 3.09723076081731 10.7392  4.43692306009615 13.090133325  6.53692308533654 14.382933325  C 0.553538469951923 16.597333325  0.0172307776442317 22.91626665  0.0172307776442317 23.008  C -0.0279999915865375 23.515733325  0.329538461538463 23.976533325  0.820615384615386 23.976533325  C 1.26646153846154 24.02346665  1.71446153004808 23.6544  1.75753846153846 23.146666675  C 1.75753846153846 22.82453335  2.42738462379808 15.95093335  10.1532307608173 15.488  C 10.4676923076923 15.488  17.3901538377404 15.2128  18.8181538377404 23.2384  C 18.885364999895 23.6725981409884  19.2686872010341 23.9891435378994  19.7120000084135 23.976533325  L 19.8907692223558 23.976533325  C 20.3366153762019 23.8848  20.6489230600962 23.42186665  20.558461546875 22.916266675  Z M 15.6929230853365 8.064  C 15.6929230853365 11.2  13.2375384699519 13.6448  10.2436922992788 13.6448  C 7.24984615384615 13.6448  4.79446153846154 11.153066675  4.79446153846154 8.017066675  C 4.79446153846154 4.925866675  7.24984615384615 2.436266675  10.2436922992788 2.436266675  C 13.2375384447115 2.436266675  15.6929230600962 4.925866675  15.6929230853365 8.064  Z " fill-rule="nonzero" fill="#ffffff" stroke="none" transform="matrix(1 0 0 1 17 291 )" />
  </g>
</svg>