<?xml version="1.0" encoding="utf-8"?>
<svg version="1.1" xmlns:xlink="http://www.w3.org/1999/xlink" width="20px" height="20px" xmlns="http://www.w3.org/2000/svg">
  <g transform="matrix(1 0 0 1 -23 -423 )">
    <path d="M 18.1924753723077 19.0170126147476  C 17.9790899387546 19.074997776716  17.7657045052015 19.1329829590699  17.4456263736264 19.1329829590699  C 16.0586210742857 19.1329829590699  14.0314595117949 18.5531312578436  12.8044932782418 17.6833536856187  C 12.0042979117949 17.8573091919095  11.150756196337 17.9732795362319  10.2972144808791 17.9732795362319  C 5.01592510358974 17.9732795362319  0.694870158534797 14.0882730727823  0.694870158534797 9.27550387513935  C 0.694870158534797 4.46273467749641  5.01592510358974 0.577728214046822  10.2972144808791 0.577728234432233  C 15.5785038581685 0.577728254817645  19.8995588032234 4.46273469788183  19.8995588032234 9.27550387513935  C 19.8995588032234 10.8990886548813  19.3660952380952 12.5226734550088  18.1924753723077 14.2042434171046  L 18.1391290232967 14.2622285994585  C 18.0324363065201 14.4361841057493  17.8723972407326 14.668124794394  18.0324363065201 15.132006151298  C 18.1391290232967 15.3639468399427  18.1924753723077 15.479917184265  18.6725925884249 16.1177540678452  C 19.2060561535531 16.8715612957477  19.6328270206593 17.5673833412964  19.1527098045421 18.3791757311674  C 18.9926707387546 18.6691015817805  18.6725925884249 18.9010422704252  18.1924753723077 19.0170126147476  Z M 12.6444542124542 16.5236502627807  L 13.0712250795604 16.4656651008122  L 13.4446495789011 16.6976057690715  C 15.1517330098168 17.8573091919095  17.9790899575092 18.2052202248766  18.2991680890842 17.7993240299411  C 18.3525144380952 17.7413388679726  18.4058608058608 17.6253685236503  17.8723972407326 16.8715612957477  C 17.3922800246154 16.2337244121675  17.2855873078388 16.0017837235229  17.1255482232967 15.5958875285874  C 16.8588164407326 14.8420803006848  16.9121627897436 14.0882730727823  17.3922800246154 13.508421371556  C 18.4058608058608 12.0008069157509  18.885978021978 10.6671479866221  18.885978021978 9.27550387513935  C 18.885978021978 5.1005715610766  15.0450402930403 1.73743163688485  10.3505608486447 1.73743165727027  C 5.65608140424909 1.73743167765568  1.81514367531136 5.10057158146202  1.81514367531136 9.27550387513935  C 1.81514367531136 13.4504361688167  5.65608140424909 16.8135761133939  10.3505608486447 16.8135761133939  C 11.1507562150916 16.8135761133939  11.8976052137729 16.6976057690715  12.6444542124542 16.5236502627807  Z " fill-rule="nonzero" fill="#ffffff" stroke="none" transform="matrix(1 0 0 1 23 423 )" />
  </g>
</svg>