<?xml version="1.0" encoding="utf-8"?>
<svg version="1.1" xmlns:xlink="http://www.w3.org/1999/xlink" width="15px" height="24px" xmlns="http://www.w3.org/2000/svg">
  <g transform="matrix(1 0 0 1 -28 -289 )">
    <path d="M 14.3377777864583 23.317333325  C 14.7533333333333 23.2704  15.0755555729167 22.8096  14.9822222135417 22.301866675  C 14.015555546875 16.9984  10.8822222135417 14.737066675  8.20888888020833 13.768533325  C 10.4521856704294 12.3672922410062  11.8051067710191 9.9719696991441  11.804444453125 7.402666675  C 11.804444453125 3.29813335  8.44 0.0213333499999976  4.384444453125 0.0213333249999977  C 3.09555557291667 0.0213333249999977  1.85111111979167 0.345599999999998  0.791111119791665 0.945066674999998  C 1.84261972913538 1.06340314112094  2.86006843200411 1.37715171249974  3.78666666666666 1.8688  C 3.97111111979166 1.8688  4.155555546875 1.821866675  4.38666666666666 1.821866675  C 7.47333333333333 1.821866675  10.0066666666667 4.3136  10.0066666666667 7.4496  C 10.0111112262654 8.92903059030969  9.41578341411666 10.3520792400725  8.34666666666666 11.4176  C 8.0637675005537 12.7595295714765  7.46562160144804 14.0217922352738  6.59777778645833 15.108266675  C 8.9 15.6608  12.264444453125 17.367466675  13.2311111197917 22.5792  C 13.300455968468 23.0133981312809  13.6959471132894 23.3299435250575  14.1533333333333 23.317333325  L 14.3377777864583 23.317333325  Z " fill-rule="nonzero" fill="#ffffff" stroke="none" transform="matrix(1 0 0 1 28 289 )" />
  </g>
</svg>