<?xml version="1.0" encoding="utf-8"?>
<svg version="1.1" xmlns:xlink="http://www.w3.org/1999/xlink" width="26px" height="24px" xmlns="http://www.w3.org/2000/svg">
  <g transform="matrix(1 0 0 1 -17 -232 )">
    <path d="M 9.8177895625 21.79949996875  C 8.1617923125 22.61507496875  6.17878478125 23.04611075  4.08311765625 23.04611075  C 3.816962125 23.04611075  3.5428759375 23.03849990625  3.26850196875 23.023438125  L 1.30496925 22.91583109375  L 2.95616975 21.8478511875  C 4.24483203125 21.0143363125  5.149178875 19.98543390625  5.5690861875 18.8926388125  L 3.71322446875 18.8926388125  L 3.71322446875 18.835013875  C 2.029725875 18.532307125  0.74825871875 17.056635625  1 15.28730721875  L 1 4.23633578125  C 0.74825871875 2.24878734375  2.36524240625 0.631771687500002  4.3528228125 1  L 21.42665475 1  C 23.4142031875 0.631771687500002  25.031186875 2.248755375  25 4.23633578125  L 25 15.28730721875  C 25.031186875 17.05666759375  23.74971971875 18.5323710625  22.066221125 18.8351098125  L 22.066221125 18.8919033125  L 21.42665475 18.89260684375  L 13.047248 18.89260684375  C 12.44001171875 20.04369840625  11.30954615625 21.06489403125  9.8177895625 21.79949996875  Z M 4.3528228125 17.6127385  L 4.9923571875 17.61350603125  L 7.17004871875 17.61350603125  L 7.03848990625 18.3635575  C 6.88297934375 19.250156375  6.49812028125 20.101930875  5.8945615 20.8953449375  C 5.6761815625 21.1824143125  5.43109971875 21.45928259375  5.16043525 21.72492646875  C 6.65676475 21.60686253125  8.05492078125 21.24189396875  9.25266871875 20.65198990625  C 10.6340041875 19.971747125  11.6277304375 19.03305553125  12.05077159375 18.0088859375  L 12.214084875 17.613506  L 21.42665475 17.61280246875  C 22.70888940625 17.61280246875  23.752054125 16.56960575  23.752054125 15.287339125  L 23.752054125 4.23633571875  C 23.752054125 2.95406909375  22.70888940625 1.910904375  21.42665475 2  L 4.3528228125 2  C 3.07058815625 1.910904375  2.02739146875 2.95406909375  2 4.23633571875  L 2 15.28730715625  C 2.0274234375 16.5695418125  3.0705881875 17.6127385  4.3528228125 17.6127385  Z " fill-rule="nonzero" fill="#ffffff" stroke="none" transform="matrix(1 0 0 1 17 232 )" />
  </g>
</svg>