<?xml version="1.0" encoding="utf-8"?>
<svg version="1.1" xmlns:xlink="http://www.w3.org/1999/xlink" width="19px" height="18px" xmlns="http://www.w3.org/2000/svg">
  <g transform="matrix(1 0 0 1 -344 -33 )">
    <path d="M 10.6611111111111 16.9585714285714  L 7.88851851851852 10.7871428571429  L 1.14 8.21571428571429  C 0.876028667564194 8.11665717247803  0.703680554553559 7.88177061077789  0.703680554553559 7.62107142857143  C 0.703680554553559 7.36037224636496  0.876028667564195 7.12548568466483  1.14 7.02642857142857  L 18.0288888888889 0.675  C 18.1120549777943 0.644588995215412  18.200812321084 0.628963854519537  18.2903934761226 0.628963854519537  C 18.6790383000777 0.628963854519537  18.9940971798264 0.916780801056884  18.9940971798264 1.27182099737668  C 18.9940971798264 1.35365641344583  18.9769931163486 1.43473924960898  18.9437037037037 1.51071428571429  L 11.962962962963 16.9585714285714  C 11.8545300735768 17.1997181721124  11.5974114504812 17.3571640046748  11.312037037037 17.3571640046748  C 11.0266626235929 17.3571640046748  10.7695440004973 17.1997181721124  10.6611111111111 16.9585714285714  Z M 17.0014814814815 2.46857142857143  L 3.25111111111111 7.63714285714286  L 8.69777777777778 9.70714285714286  C 8.8697272984769 9.77237673547941  9.00636949943407 9.89720400928614  9.07777777777778 10.0542857142857  L 11.3366666666667 15.03  L 17.0014814814815 2.46857142857143  Z " fill-rule="nonzero" fill="#999999" stroke="none" transform="matrix(1 0 0 1 344 33 )" />
  </g>
</svg>