<?xml version="1.0" encoding="utf-8"?>
<svg version="1.1" xmlns:xlink="http://www.w3.org/1999/xlink" width="24px" height="24px" xmlns="http://www.w3.org/2000/svg">
  <g transform="matrix(1 0 0 1 -18 -114 )">
    <path d="M 1.971428578125 9.428571421875  C 2.257142859375 4.9714285546875  5.3142857109375 3.0857142890625  5.4285714375 3  C 5.7714285703125 2.8000000078125  5.885714296875 2.3714285625  5.68571428125 2.0285714296875  C 5.4857142890625 1.685714296875  5.05714284375 1.5714285703125  4.7142857109375 1.7714285625  C 4.5428571328125 1.8571428515625  0.88571428125 4.0857142734375  0.5714285625 9.3714285703125  C 0.542857124999999 9.771428578125  0.85714284375 10.1142857109375  1.2285714375 10.1142857109375  L 1.2571428515625 10.1142857109375  C 1.628571421875 10.1142857109375  1.942857140625 9.8285714296875  1.971428578125 9.428571421875  Z M 23.514285703125 9.4000000078125  C 23.228571421875 4.085714296875  19.5428571328125 1.857142875  19.3999999921875 1.7714285625  C 19.057142859375 1.5714285703125  18.6285714140625 1.6857142734375  18.428571421875 2.0285714296875  C 18.2285714296875 2.3714285625  18.3428571328125 2.8000000078125  18.6857142890625 3  C 18.8285714296875 3.0857142890625  21.8571428671875 4.971428578125  22.1142857109375 9.457142859375  C 22.1428571484375 9.8285714296875  22.45714284375 10.1428571484375  22.8285714375 10.1428571484375  L 22.8571428515625 10.1428571484375  C 23.257142859375 10.1142857109375  23.542857140625 9.771428578125  23.514285703125 9.4000000078125  Z M 10.1714285625 21.3714285703125  L 9.4000000078125 21.3714285703125  L 9.4000000078125 21.6  C 9.4000000078125 21.6571428515625  9.4285714453125 21.714285703125  9.428571421875 21.7999999921875  L 9.428571421875 21.8285714296875  C 9.428571421875 21.88571428125  9.457142859375 21.9428571328125  9.485714296875 22.0000000078125  L 9.485714296875 22.028571421875  C 9.514285734375 22.0857142734375  9.5428571484375 22.142857125  9.5428571484375 22.2  L 9.5428571484375 22.2285714375  L 9.6285714375 22.3999999921875  L 9.6285714375 22.4285714296875  C 9.657142875 22.48571428125  9.6857142890625 22.5428571328125  9.742857140625 22.5714285703125  C 9.742857140625 22.5714285703125  9.742857140625 22.6000000078125  9.771428578125 22.6000000078125  C 9.800000015625 22.657142859375  9.8571428671875 22.685714296875  9.88571428125 22.7428571484375  C 9.88571428125 22.7428571484375  9.88571428125 22.7714285859375  9.91428571875 22.7714285625  C 9.94285715625 22.8285714140625  10.0000000078125 22.8571428515625  10.028571421875 22.8857142890625  C 10.48571428125 23.3142857109375  11.11428571875 23.571428578125  11.828571421875 23.571428578125  C 12.542857125 23.571428578125  13.1714285625 23.3142857109375  13.628571421875 22.8857142890625  C 13.6857142734375 22.8571428515625  13.7142857109375 22.8  13.7428571484375 22.7428571484375  C 13.7428571484375 22.7428571484375  13.7428571484375 22.7142857109375  13.7714285625 22.7142857109375  C 13.8 22.657142859375  13.8571428515625 22.628571421875  13.8857142890625 22.5714285703125  C 13.8857142890625 22.5714285703125  13.8857142890625 22.5428571328125  13.914285703125 22.5428571328125  C 13.942857140625 22.48571428125  13.9714285546875 22.45714284375  14.0285714296875 22.3999999921875  L 14.0285714296875 22.371428578125  L 14.11428571875 22.2  L 14.11428571875 22.1714285625  C 14.14285715625 22.1142857109375  14.1714285703125 22.057142859375  14.1714285703125 22.0000000078125  L 14.1714285703125 21.9714285703125  C 14.2000000078125 21.91428571875  14.2000000078125 21.8571428671875  14.228571421875 21.7999999921875  L 14.228571421875 21.771428578125  C 14.228571421875 21.7142857265625  14.257142859375 21.657142875  14.257142859375 21.5714285625  L 14.257142859375 21.3428571328125  L 10.1714285625 21.3714285703125  Z M 22.0000000078125 18.457142859375  C 21.91428571875 18.142857140625  21.6857142890625 17.857142859375  21.3714285703125 17.6571428671875  L 19.7714285625 16.6000000078125  C 19.48571428125 16.400000015625  19.314285703125 16.1142857109375  19.314285703125 15.7999999921875  L 19.314285703125 8.857142859375  C 19.314285703125 7.9999999921875  19.1142857109375 7.1714285625  18.742857140625 6.4000000078125  C 18.3714285703125 5.6571428671875  17.857142859375 4.971428578125  17.1714285703125 4.3999999921875  C 16.48571428125 3.82857140625  15.714285703125 3.3714285703125  14.828571421875 3.0285714375  C 14.514285703125 2.914285734375  14.1714285703125 2.8285714453125  13.8285714375 2.7428571328125  L 13.8285714375 2.0571428671875  C 13.8285714375 1.1714285859375  13.0000000078125 0.4285714453125  11.9428571484375 0.428571421875  C 10.9142857265625 0.428571421875  10.057142859375 1.142857125  10.057142859375 2.0571428671875  L 10.057142859375 2.7428571328125  C 9.7142857265625 2.828571421875  9.4000000078125 2.9142857109375  9.0571428515625 3.0285714375  C 8.1714285703125 3.34285715625  7.3999999921875 3.800000015625  6.714285703125 4.3999999921875  C 6.0285714140625 4.9714285546875  5.514285703125 5.65714284375  5.1428571328125 6.4000000078125  C 4.7714285625 7.1714285859375  4.5714285703125 8.000000015625  4.5714285703125 8.857142859375  L 4.5714285703125 15.771428578125  C 4.5714285703125 16.085714296875  4.3999999921875 16.371428578125  4.1142857109375 16.5714285703125  L 2.514285703125 17.6285714296875  C 2.199999984375 17.828571421875  1.9999999921875 18.1142857265625  1.8857142890625 18.428571421875  C 1.8 18.714285703125  1.8 19.028571421875  1.914285703125 19.314285703125  C 2.02857140625 19.599999984375  2.228571421875 19.8571428515625  2.514285703125 20.0285714296875  C 2.828571421875 20.228571421875  3.1714285546875 20.3428571484375  3.5714285625 20  L 20.1714285703125 20  C 20.571428578125 20.3428571484375  20.9142857109375 20.2285714453125  21.2285714296875 20.0285714296875  C 21.5142857109375 19.8571428515625  21.7142857265625 19.6000000078125  21.8285714296875 19.314285703125  C 22.085714296875 19.0571428359375  22.085714296875 18.742857140625  22.0000000078125 18.457142859375  Z M 11.6571428671875 2.571428578125  C 11.6571428671875 2.3142857109375  11.6571428671875 2.14285715625  11.68571428125 2.1428571328125  C 11.7428571328125 2.08571428125  11.857142859375 2.0285714296875  12 2.0285714296875  C 12.2285714296875 2.0285714296875  12.3428571328125 2.1428571328125  12.3428571328125 2.1428571328125  L 12.3428571328125 2.571428578125  L 11.6571428671875 2.571428578125  Z M 11.4285714375 1.971428578125  C 11.4857142890625 1.8857142890625  11.542857140625 1.8285714375  11.6571428671875 1.8  C 11.571428578125 1.8285714375  11.4857142890625 1.914285703125  11.4285714375 1.971428578125  Z M 11.3714285625 2.08571428125  C 11.3714285625 2.0285714296875  11.4 1.9999999921875  11.4 1.9999999921875  C 11.3714285625 2.0285714296875  11.3714285625 2.05714284375  11.3714285625 2.08571428125  Z M 20.4 18.9428571328125  L 20.3142857109375 19  L 3.5714285625 19  L 5.0571428671875 17.9428571484375  C 5.74285715625 17.4857142890625  6.171428578125 16.7142857109375  6.171428578125 15.88571428125  L 6.171428578125 8.9714285625  C 6.171428578125 8.342857125  6.31428571875 7.742857125  6.6 7.1714285625  C 6.88571428125 6.6  7.2857142890625 6.085714265625  7.8 5.6285714296875  C 8.3428571484375 5.1714285703125  8.9714285625 4.8  9.6571428515625 4.5428571328125  C 9.91428571875 4.45714284375  10.2 4.3714285546875  10.4571428671875 4.314285703125  L 11.4571428515625 4.085714296875  L 12.457142859375 4.085714296875  L 13.51428571875 4.314285703125  C 13.8 4.3714285546875  14.0571428671875 4.45714284375  14.3142857109375 4.5428571328125  C 15.0285714140625 4.8  15.6285714140625 5.1714285703125  16.1714285625 5.6285714296875  C 16.6857142734375 6.0857142890625  17.08571428125 6.6  17.3714285625 7.1714285625  C 17.65714284375 7.742857125  17.799999984375 8.342857125  17.8000000078125 8.9714285625  L 17.8000000078125 15.88571428125  C 17.8000000078125 16.7142857109375  18.2285714296875 17.4571428515625  18.91428571875 17.9428571484375  L 20.4 18.9428571328125  Z " fill-rule="nonzero" fill="#ffffff" stroke="none" transform="matrix(1 0 0 1 18 114 )" />
  </g>
</svg>