<?xml version="1.0" encoding="utf-8"?>
<svg version="1.1" xmlns:xlink="http://www.w3.org/1999/xlink" width="24px" height="24px" xmlns="http://www.w3.org/2000/svg">
  <g transform="matrix(1 0 0 1 -18 -173 )">
    <path d="M 8.06919642857143 8.5859375  C 8.40401785714286 8.9765625  8.57142857142857 9.44791666666667  8.57142857142857 10  C 8.57142857142857 10.5520833333333  8.40401785714286 11.0234375  8.06919642857143 11.4140625  C 7.734375 11.8046875  7.33035714285714 12  6.85714285714286 12  C 6.38392857142857 12  5.97991071428572 11.8046875  5.64508928571429 11.4140625  C 5.31026785714286 11.0234375  5.14285714285714 10.5520833333333  5.14285714285714 10  C 5.14285714285714 9.44791666666667  5.31026785714286 8.9765625  5.64508928571429 8.5859375  C 5.97991071428572 8.1953125  6.38392857142857 8  6.85714285714286 8  C 7.33035714285714 8  7.734375 8.1953125  8.06919642857143 8.5859375  Z M 13.2120535714286 8.5859375  C 13.546875 8.9765625  13.7142857142857 9.44791666666667  13.7142857142857 10  C 13.7142857142857 10.5520833333333  13.546875 11.0234375  13.2120535714286 11.4140625  C 12.8772321428571 11.8046875  12.4732142857143 12  12 12  C 11.5267857142857 12  11.1227678571429 11.8046875  10.7879464285714 11.4140625  C 10.453125 11.0234375  10.2857142857143 10.5520833333333  10.2857142857143 10  C 10.2857142857143 9.44791666666667  10.453125 8.9765625  10.7879464285714 8.5859375  C 11.1227678571429 8.1953125  11.5267857142857 8  12 8  C 12.4732142857143 8  12.8772321428571 8.1953125  13.2120535714286 8.5859375  Z M 18.3549107142857 8.5859375  C 18.6897321428571 8.9765625  18.8571428571429 9.44791666666667  18.8571428571429 10  C 18.8571428571429 10.5520833333333  18.6897321428571 11.0234375  18.3549107142857 11.4140625  C 18.0200892857143 11.8046875  17.6160714285714 12  17.1428571428571 12  C 16.6696428571429 12  16.265625 11.8046875  15.9308035714286 11.4140625  C 15.5959821428571 11.0234375  15.4285714285714 10.5520833333333  15.4285714285714 10  C 15.4285714285714 9.44791666666667  15.5959821428571 8.9765625  15.9308035714286 8.5859375  C 16.265625 8.1953125  16.6696428571429 8  17.1428571428571 8  C 17.6160714285714 8  18.0200892857143 8.1953125  18.3549107142857 8.5859375  Z M 17.109375 3.0859375  C 15.5245535714286 2.36197916666667  13.8214285714286 2  12 2  C 10.1785714285714 2  8.47544642857143 2.36197916666667  6.890625 3.0859375  C 5.30580357142857 3.80989583333333  4.046875 4.78645833333333  3.11383928571429 6.015625  C 2.18080357142857 7.24479166666666  1.71428571428571 8.57291666666666  1.71428571428571 10  C 1.71428571428571 11.1666666666667  2.03348214285714 12.2786458333333  2.671875 13.3359375  C 3.31026785714286 14.3932291666667  4.20982142857143 15.3072916666667  5.37053571428571 16.078125  L 6.53571428571428 16.859375  L 6.17410714285714 18.359375  C 5.95982142857143 19.3072916666667  5.64732142857143 20.203125  5.23660714285714 21.046875  C 6.59375 20.390625  7.82142857142857 19.5  8.91964285714286 18.375  L 9.49553571428572 17.78125  L 10.2589285714286 17.875  C 10.875 17.9583333333333  11.4553571428571 18  12 18  C 13.8214285714286 18  15.5245535714286 17.6380208333333  17.109375 16.9140625  C 18.6941964285714 16.1901041666667  19.953125 15.2135416666667  20.8861607142857 13.984375  C 21.8191964285714 12.7552083333333  22.2857142857143 11.4270833333333  22.2857142857143 10  C 22.2857142857143 8.57291666666666  21.8191964285714 7.24479166666666  20.8861607142857 6.015625  C 19.953125 4.78645833333333  18.6941964285714 3.80989583333333  17.109375 3.0859375  Z M 23.0491071428571 6.1171875  C 23.6830357142857 7.3515625  24 8.64583333333333  24 10  C 24 11.8125  23.4642857142857 13.4869791666667  22.3928571428571 15.0234375  C 21.3214285714286 16.5598958333333  19.8660714285714 17.7734375  18.0267857142857 18.6640625  C 16.1875 19.5546875  14.1785714285714 20  12 20  C 11.375 20  10.7276785714286 19.9583333333333  10.0580357142857 19.875  C 8.29017857142857 21.6979166666667  6.23660714285714 22.9583333333333  3.89732142857143 23.65625  C 3.45982142857143 23.8020833333333  2.95089285714286 23.9166666666667  2.37053571428571 24  L 2.30357142857143 24  C 2.16964285714286 24  2.04910714285714 23.9453125  1.94196428571429 23.8359375  C 1.83482142857143 23.7265625  1.76339285714286 23.5833333333333  1.72767857142857 23.40625  L 1.72767857142857 23.390625  C 1.70089285714286 23.3489583333333  1.69866071428571 23.2864583333333  1.72098214285714 23.203125  C 1.74330357142857 23.1197916666667  1.75223214285714 23.0677083333333  1.74776785714286 23.046875  C 1.74330357142857 23.0260416666667  1.76339285714286 22.9765625  1.80803571428571 22.8984375  L 1.88839285714286 22.7578125  C 1.88839285714286 22.7578125  1.91964285714286 22.7135416666667  1.98214285714286 22.625  C 2.04464285714286 22.5364583333333  2.08035714285714 22.4895833333333  2.08928571428571 22.484375  C 2.15178571428571 22.4010416666667  2.29017857142857 22.2213541666667  2.50446428571429 21.9453125  C 2.71875 21.6692708333333  2.87276785714286 21.4713541666667  2.96651785714286 21.3515625  C 3.06026785714286 21.2317708333333  3.19866071428571 21.0260416666667  3.38169642857143 20.734375  C 3.56473214285714 20.4427083333333  3.70982142857143 20.1770833333333  3.81696428571429 19.9375  C 3.92410714285714 19.6979166666667  4.04464285714286 19.390625  4.17857142857143 19.015625  C 4.3125 18.640625  4.42857142857143 18.2447916666667  4.52678571428571 17.828125  C 3.125 16.9010416666667  2.02008928571429 15.7552083333333  1.21205357142857 14.390625  C 0.404017857142857 13.0260416666667  0 11.5625  0 10  C 0 8.64583333333333  0.316964285714286 7.3515625  0.950892857142857 6.1171875  C 1.58482142857143 4.8828125  2.4375 3.81770833333333  3.50892857142857 2.921875  C 4.58035714285714 2.02604166666666  5.85714285714286 1.31510416666666  7.33928571428572 0.789062499999999  C 8.82142857142857 0.263020833333332  10.375 0  12 0  C 13.625 0  15.1785714285714 0.263020833333332  16.6607142857143 0.789062499999999  C 18.1428571428571 1.31510416666666  19.4196428571429 2.02604166666666  20.4910714285714 2.921875  C 21.5625 3.81770833333333  22.4151785714286 4.8828125  23.0491071428571 6.1171875  Z " fill-rule="nonzero" fill="#ffffff" stroke="none" transform="matrix(1 0 0 1 18 173 )" />
  </g>
</svg>