<?xml version="1.0" encoding="utf-8"?>
<svg version="1.1" xmlns:xlink="http://www.w3.org/1999/xlink" width="15px" height="15px" xmlns="http://www.w3.org/2000/svg">
  <g transform="matrix(1 0 0 1 -20 -78 )">
    <path d="M 14.8664246154525 14.8124999963835  C 15.0538165371331 14.5624999915618  15.0538165371331 14.1874999916532  14.8039606561988 13.9999999916992  L 12.1180099837388 11.3124999874727  C 13.1174334928346 10.124999997528  13.7420731878495 8.56249999302661  13.7420731878495 6.87499999343874  C 13.7420731878495 3.06249998948679  10.681338701308 0  6.87103660124472 0  C 3.06073448654151 0  0 3.06250000413511  0 6.87499999343874  C 0 10.6874999973907  3.06073448654151 13.7499999868775  6.87103658660492 13.7499999868775  C 8.55756374996913 13.7499999868775  10.1191629801868 13.1249999821471  11.305978381683 12.1249999921571  L 13.9919290541437 14.8124999963835  C 14.2417849350776 15.0625000012055  14.6165687491584 15.0625000012055  14.8664246154525 14.8124999963835  Z M 6.87103658660492 12.4999999920655  C 3.74783814081005 12.4999999920655  1.24927937538997 10.0000000024413  1.24927937538997 6.87499999343874  C 1.24927937538997 3.74999999908445  3.74783814081005 1.24999999481218  6.87103658660492 1.24999999481218  C 9.99423503239969 1.24999999481218  12.4927937978195 3.74999999908445  12.4927937978195 6.87499999343874  C 12.4927937978195 9.9999999877928  9.99423503239969 12.4999999920655  6.87103658660492 12.4999999920655  Z " fill-rule="nonzero" fill="#999999" stroke="none" transform="matrix(1 0 0 1 20 78 )" />
  </g>
</svg>