<?xml version="1.0" encoding="utf-8"?>
<svg version="1.1" xmlns:xlink="http://www.w3.org/1999/xlink" width="36px" height="36px" xmlns="http://www.w3.org/2000/svg">
  <g transform="matrix(1 0 0 1 -12 -214 )">
    <path d="M 35.8672551428571 18.0304662053571  C 35.8672551428571 27.8850693616071  27.8695278883929 35.8752725758929  18.0032480758929 35.8752725758929  C 8.13787280357143 35.8752725758929  0.142982477678565 27.8850282589286  0.142982477678565 18.0304662053571  C 0.142982477678565 10.4662553303571  4.85118233035714 4.00380255803572  11.5004615223214 1.40669256696428  C 13.5095039598214 0.596234049107144  15.7043861116071 0.148656374999996  18.0037003258929 0.148656374999996  C 20.30585146875 0.148656374999996  22.4988423348214 0.59578179910714  24.5097760580357 1.40669256696428  C 31.1586441428571 4.00380255803572  35.8672551428571 10.4662964330357  35.8672551428571 18.0304662053571  Z M 11.1380741116071 14.2670886428571  C 11.1380741116071 17.2743205982143  12.6788991428571 19.8779678839286  14.9187610848214 21.1524089866071  C 15.8476718571429 21.6809831651786  16.8935958482143 21.9858096696429  18.0032480758929 21.9858096696429  C 19.0739644151786 21.9858096696429  20.0834194419643 21.7006772946429  20.9879901160714 21.2081197901786  C 23.2807670357143 19.9580187857143  24.87125896875 17.3225485044643  24.87125896875 14.2675820357143  C 24.87125896875 10.0139905446429  21.7910067991071 6.55169797767857  18.0032891785714 6.55169797767857  C 14.2178739910714 6.5512456875  11.1380741116071 10.0135793571429  11.1380741116071 14.2670886428571  Z M 18.0758160401786 34.7188726205357  C 23.2943350178572 34.7188726205357  27.9495787901786 32.3189089553571  31.00080375 28.5630553928571  C 30.6403487276786 25.6003098348214  27.7533780669643 23.0781524464286  23.6674945848214 21.8200751517857  C 22.1243259776786 23.2082813571429  20.1527392901786 24.0435733258929  18.0027547232143 24.0435733258929  C 15.8050356428571 24.0435733258929  13.7932384821429 23.1633427098214  12.2350629375 21.7147385491071  C 8.26051881696429 22.8491419821429  5.34929034375 25.1630109241071  4.66669944642857 27.9356407633929  C 7.69448884821429 32.048742375  12.5745081830357 34.7188726205357  18.0758160401786 34.7188726205357  Z " fill-rule="nonzero" fill="#cccccc" stroke="none" transform="matrix(1 0 0 1 12 214 )" />
  </g>
</svg>