<?xml version="1.0" encoding="utf-8"?>
<svg version="1.1" xmlns:xlink="http://www.w3.org/1999/xlink" width="12px" height="6px" xmlns="http://www.w3.org/2000/svg">
  <g transform="matrix(1 0 0 1 -20 -346 )">
    <path d="M 11.28354 4.82379428571428  C 11.28354 4.42326857142857  10.99968 4.09865142857143  10.64922 4.09865142857143  L 1.3425 4.09865142857143  C 0.992075326232362 4.09865142857143  0.708 4.42330894426556  0.708 4.82379428571428  C 0.708 5.22427962716301  0.992075326232362 5.54893714285714  1.3425 5.54893714285714  L 10.64922 5.54893714285714  C 10.99968 5.54893714285714  11.28354 5.22432  11.28354 4.82379428571428  Z M 10.64922 0.472937142857143  L 1.3425 0.472937142857143  C 0.992075326232362 0.472937142857143  0.708 0.79759465855127  0.708 1.19808  C 0.708 1.59856534144873  0.992075326232362 1.92322285714286  1.3425 1.92322285714286  L 10.64922 1.92322285714286  C 10.9995453646693 1.92322285714287  11.2835401021566 1.59865744287163  11.2835401021566 1.19828571428572  C 11.2835400255537 0.7974104265013  10.9996258768114 0.472937113652956  10.6494000255537 0.472937113652956  Z " fill-rule="nonzero" fill="#cdcdcd" stroke="none" transform="matrix(1 0 0 1 20 346 )" />
  </g>
</svg>