<?xml version="1.0" encoding="utf-8"?>
<svg version="1.1" xmlns:xlink="http://www.w3.org/1999/xlink" width="20px" height="20px" xmlns="http://www.w3.org/2000/svg">
  <g transform="matrix(1 0 0 1 -17 -398 )">
    <path d="M 19.1745150585938 12.8221627734375  C 19.17447046875 10.5184838476563  17.1238350195313 6.6637904296875  14.0670011132813 4.6535562890625  C 14.5299442578125 4.05025640625  14.799442578125 3.3858416796875  14.799442578125 2.75917501953125  C 14.7994202929688 1.737012265625  14.1764994335938 0.02229654296875  10.005574140625 0.02229654296875  C 8.21482720703125 0.02229654296875  5.21114828125 0.37785953125  5.21114828125 2.75917501953125  C 5.21114828125 3.3858416796875  5.4806466015625 4.05025640625  5.94361203125 4.6535562890625  C 2.886755859375 6.66432552734375  0.83612041015625 10.5185061328125  0.83612041015625 12.8221627734375  C 0.83612041015625 17.1727759375  4.4351170703125 19.9845484960938  10.0055964257812 19.9845484960938  C 15.57549609375 19.9845484960938  19.1745150390625 17.1727759179687  19.1745150585938 12.8221627734375  Z M 10.0055518359375 18.6174358984375  C 5.69587513671875 18.6174358984375  2.20265328125 16.766086953125  2.20265328125 12.8221181640625  C 2.20265328125 10.5700111328125  4.900178359375 6.04878482421875  8.44124861328125 4.95384615234375  C 7.3585284375 4.42178373046875  6.57770345703125 3.447491640625  6.57770345703125 2.75917501953125  C 6.57770345703125 1.76891861328125  8.11224080078125 1.3893868359375  10.005574140625 1.3893868359375  C 11.8983277734375 1.3893868359375  13.4328874023438 1.76889630859375  13.4328874023438 2.75917501953125  C 13.4328874023438 3.4474693359375  12.6526421484375 4.421806015625  11.5693422460938 4.95384615234375  C 15.1104347851563 6.04880712890625  17.8079375585937 10.5700111523437  17.807937578125 12.82214046875  C 17.807937578125 16.766086953125  14.314648828125 18.617458203125  10.0055518359375 18.617458203125  Z M 10.688561875 11.40450390625  L 12.1694314453125 11.40450390625  C 12.5468004492187 11.40450390625  12.8524860742188 11.0983500585937  12.8524860742188 10.7209810546875  C 12.8524860742188 10.3441471679687  12.5468227539063 10.0379487304687  12.1694314453125 10.0379487109375  L 11.2270234179688 10.0379487109375  L 12.2741806054688 8.9907915234375  C 12.54095875 8.72399107421875  12.54095875 8.291326640625  12.2741806054688 8.0244816015625  C 12.0072909765625 7.7576365625  11.574648828125 7.7576365625  11.30782609375 8.0244816015625  L 10.0135116992188 9.31875138671875  L 8.71921962890625 8.0244816015625  C 8.45239689453125 7.7576365625  8.0202452734375 7.7576365625  7.75288740234375 8.0244816015625  C 7.48606466796875 8.2913043359375  7.48606466796875 8.72399107421875  7.75288740234375 8.990813828125  L 8.8000223046875 10.0379487109375  L 7.84167224609375 10.0379487109375  C 7.4643032421875 10.0379487109375  7.15812708984375 10.3441025585937  7.15812708984375 10.7209810546875  C 7.15812708984375 11.0983500585937  7.4643032421875 11.4045262109375  7.84167224609375 11.4045261914062  L 9.3220066796875 11.4045261914062  L 9.3220066796875 12.1492307617187  L 7.78002230468751 12.1492307617187  C 7.40263099609375 12.1492307617187  7.09698998046876 12.4553623046875  7.0969899609375 12.8322408007812  C 7.0969899609375 13.2096098046875  7.40263099609375 13.5157636523437  7.78002230468751 13.5157636523437  L 9.3220066796875 13.5157636523437  L 9.3220066796875 14.8212263085938  C 9.3220066796875 15.1981047851563  9.62818283203126 15.5042586328125  10.0055518359375 15.5042586328125  C 10.3829208398438 15.5042586328125  10.688561875 15.1981047851563  10.688561875 14.8212486132813  L 10.688561875 13.5157859570312  L 12.1077368945313 13.5157859570312  C 12.485128203125 13.5157859570312  12.7913043359375 13.2096098046875  12.7913043554688 12.8322408007812  C 12.7913043554688 12.4553623242187  12.485128203125 12.1492084765625  12.1077591992188 12.1492084765625  L 10.688561875 12.1492084765625  L 10.688561875 11.40450390625  Z " fill-rule="nonzero" fill="#cdcdcd" stroke="none" transform="matrix(1 0 0 1 17 398 )" />
  </g>
</svg>