<?xml version="1.0" encoding="utf-8"?>
<svg version="1.1" xmlns:xlink="http://www.w3.org/1999/xlink" width="20px" height="19px" xmlns="http://www.w3.org/2000/svg">
  <g transform="matrix(1 0 0 1 -15 -280 )">
    <path d="M 19.6428571428571 6.79735795454546  C 19.6428571428571 5.93857954545455  18.800119047619 5.213125  17.8027380952381 5.213125  L 16.9932142857143 5.213125  C 17.5892604925662 4.64481781430477  17.9154373559051 3.88702381201256  17.9015476190476 3.10282954545454  C 17.9015476190476 2.15660795454545  17.2610714285714 1.17173863636364  16.3013095238095 0.648698863636364  C 15.2133333333333 0.109897727272727  14.0122619047619 0.108926136363636  12.7246428571429 0.648051136363636  C 11.45 1.24903409090909  10.5828571428571 2.40339204545455  10.0604761904762 3.32197727272727  C 9.53571428571428 2.40198863636364  8.66666666666667 1.24730681818182  7.39023809523809 0.64621590909091  C 6.10857142857143 0.107954545454545  4.8052380952381 0.109681818181818  3.81452380952381 0.65075  C 2.85940476190476 1.17141477272727  2.21761904761905 2.15682386363636  2.21761904761905 3.10282954545454  C 2.20361408009887 3.88704261121539  2.52980736854164 4.64487477331155  3.12595238095238 5.213125  L 2.31571428571429 5.213125  C 1.26666666666667 5.213125  0.476190476190476 5.89431818181818  0.476190476190476 6.79789772727273  L 0.476190476190476 9.52547727272727  C 0.476046462850972 9.53128645933805  0.475974449359942 9.53709693019375  0.475974449359942 9.54290758453293  C 0.475974449359942 9.97122951187897  0.858877587123702 10.3184530390784  1.33121254459804 10.3184530390784  C 1.33695959462753 10.3184530390784  1.34270649867674 10.3184005082323  1.34845238095238 10.3182954545455  L 1.63809523809524 10.3182954545455  L 1.63809523809524 17.0037045454545  C 1.63900316275211 17.9248327248975  2.46041882173005 18.6722160244979  3.47619047619048 18.6761363636364  L 16.6404761904762 18.6761363636364  C 17.6569647996063 18.6728115368412  18.4795476350237 17.9254795094755  18.4813095238095 17.0037045454545  L 18.4813095238095 10.3177556818182  L 18.77 10.3177556818182  C 19.1738095238095 10.3177556818182  19.4884523809524 9.99777840909091  19.6211904761905 9.68082386363637  L 19.6330952380952 9.65329545454546  L 19.6428571428571 6.79735795454546  Z M 2.30178571428571 6.71099431818182  L 9.18666666666667 6.71099431818182  L 9.18666666666667 8.81988636363636  L 2.22011904761905 8.81988636363636  L 2.22011904761905 6.79735795454545  C 2.21671549113738 6.75746384165887  2.22601223494463 6.71752221306783  2.24690476190476 6.68227840909091  L 2.30178571428571 6.71099431818182  Z M 7.15559523809524 5.12503409090909  C 5.47273809523809 5.12492613636364  3.76904761904762 4.43034659090909  3.76904761904762 3.10282954545454  C 3.76904761904762 2.77626704545455  4.05321428571429 2.27384659090909  4.59666666666667 1.94534090909091  C 4.83534009043305 1.79014122815645  5.11986008087117 1.70342409969579  5.41345238095238 1.69639772727273  C 5.80362030697731 1.70073501224472  6.18718168574616 1.78830957718236  6.53309523809524 1.95203409090909  C 7.57357142857143 2.39324431818182  8.42047619047619 3.46048295454545  9.05119047619048 5.12503409090909  L 7.15559523809524 5.12503409090909  Z M 3.2847619047619 10.4060625  L 9.18666666666667 10.4060625  L 9.18666666666667 17.1781590909091  L 3.38 17.1781590909091  C 3.331767772591 17.1697365433734  3.29404992710698 17.1355333153095  3.2847619047619 17.0917954545455  L 3.2847619047619 10.4060625  Z M 17.8990476190476 6.7105625  C 17.9475217347423 6.71902591749919  17.9854288127828 6.75340074508594  17.9947619047619 6.79735795454545  L 17.9947619047619 8.81988636363636  L 10.9316666666667 8.81988636363636  L 10.9316666666667 6.7105625  L 17.8990476190476 6.7105625  Z M 10.9316666666667 10.4060625  L 16.6403571428571 10.4060625  L 16.6403571428571 17.0913636363636  C 16.6316642886359 17.135385606262  16.593664578334 17.1698444344676  16.545119047619 17.1777272727273  L 10.9316666666667 17.1777272727273  L 10.9316666666667 10.4060625  Z M 11.0667857142857 5.12449431818182  C 11.3405952380952 4.41566477272727  12.1636904761905 2.59684659090909  13.5870238095238 1.95063068181818  C 14.3288095238095 1.61348863636364  14.9628571428571 1.61197727272727  15.525 1.94620454545455  L 15.5414285714286 1.95484090909091  C 16.0063354452279 2.18993066770647  16.3098616718134 2.62112863498447  16.3492857142857 3.10250568181818  C 16.3492857142857 3.82321022727273  15.7763095238095 4.29432386363636  15.295 4.56259090909091  C 14.586886912547 4.93635079162055  13.780975138257 5.13057618337359  12.9616666666667 5.12492613636364  L 11.0667857142857 5.12492613636364  Z " fill-rule="nonzero" fill="#cdcdcd" stroke="none" transform="matrix(1 0 0 1 15 280 )" />
  </g>
</svg>