<?xml version="1.0" encoding="utf-8"?>
<svg version="1.1" xmlns:xlink="http://www.w3.org/1999/xlink" width="17px" height="21px" xmlns="http://www.w3.org/2000/svg">
  <g transform="matrix(1 0 0 1 -18 -340 )">
    <path d="M 6.16253090909091 2.534784  C 6.52357451236666 2.534784  6.81625818181818 2.21661963461976  6.81625818181818 1.824144  C 6.81625818181818 5.614224  6.81625818181818 -1.96593600000001  6.81625818181818 1.824144  L 6.81625818181818 1.1308416  C 6.80780212595383 0.744959482568832  6.51760975043841 0.436928398936679  6.16253090909091 0.436928398936679  C 5.80745206774341 0.436928398936679  5.51725969222799 0.744959482568832  5.50880363636364 1.1308416  L 5.50880363636364 1.824144  C 5.50880353102164 2.21680026792156  5.80132113881674 2.53478411451294  6.16215989465801 2.53478411451294  Z M 10.8291236363636 2.534784  C 11.1901672396394 2.534784  11.4828509090909 2.21661963461976  11.4828509090909 1.824144  L 11.4828509090909 1.1308416  C 11.4743948532266 0.744959482568832  11.1842024777111 0.436928398936679  10.8291236363636 0.436928398936679  C 10.4740447950161 0.436928398936679  10.1838524195007 0.744959482568832  10.1753963636364 1.1308416  L 10.1753963636364 1.824144  C 10.1753963373158 2.21670992262617  10.4679969759391 2.53478402861198  10.8289381554976 2.53478402861198  Z M 6.64318474170085 3.75865616373601  C 6.64318474170085 3.88942486661334  6.67637758415654 4.01765797829684  6.73910909090909 4.1292384  C 6.97370909090909 4.5398976  7.61760727272727 5.2348128  8.54228363636364 5.2348128  C 9.46250909090909 5.2348128  10.1143818181818 4.5453408  10.3545454545455 4.1377056  C 10.5465791762077 3.81064258385615  10.4602566938381 3.37645242523896  10.1611163636364 3.164784  C 9.86253454545455 2.9512896  9.45824363636364 3.0422112  9.25758181818182 3.3641664  C 9.25461454545454 3.3684  8.97272363636364 3.8135328  8.54228363636364 3.8135328  C 8.12389818181818 3.8135328  7.86352 3.401664  7.84590181818182 3.3728352  C 7.72545898106513 3.17031631620459  7.51875454195644 3.04801616373601  7.29691201442812 3.04801616373601  C 6.93586841115237 3.04801616373601  6.64318474170085 3.36618052911625  6.64318474170085 3.75865616373601  Z M 8.21124727272727 19.134528  L 3.26554545454545 19.134528  C 2.42450909090909 19.134528  1.74018181818182 18.390624  2 17.4761664  L 2 3.7367232  C 1.74018181818182 2.8222656  2.42450909090909 2.07816  3.26554545454545 2.07816  C 3.62664026967982 2.07816  3.91936545454545 1.75995050492254  3.91936545454545 1.3674192  C 3.91936545454545 0.974887895077462  3.62664026967982 0.6566784  3.26554545454545 0.6566784  C 1.70364727272727 0.65688  0.432727272727273 2.0384448  0.432727272727273 3.7367232  L 0.432727272727273 17.4761664  C 0.432727272727273 19.1742432  1.70364727272727 20.5554048  3.26554545454545 20.5554048  L 8.21124727272727 20.5554048  C 8.57218845228578 20.5554048  8.86478909090909 20.2373306940142  8.86478909090909 19.8449664  C 8.86478909090909 19.4526021059858  8.57218845228578 19.134528  8.21124727272727 19.134528  Z M 16.5585563636364 3.7367232  C 16.5585563636364 2.0384448  15.2874509090909 0.65688  13.7259236363636 0.65688  C 13.369121378284 0.663412594155273  13.083022833957 0.979700748583756  13.083022833957 1.3676208  C 13.083022833957 1.75554085141624  13.369121378284 2.07182900584473  13.7259236363636 2.0783616  C 14.5665890909091 2.0783616  15.2514727272727 2.8222656  15.2514727272727 3.7369248  L 15.2514727272727 13.4492064  C 15.2514727272727 13.4727936  15.2555527272727 13.4949696  15.2574072727273 13.5177504  C 15.1921272727273 13.641936  15.0263309090909 13.84656  14.6348363636364 13.84656  L 11.5266181818182 13.84656  C 10.5667054545455 13.84656  9.58528 14.0735616  9.58528 15.7573248  L 9.58528 18.769632  C 9.58528 19.63752  9.8974 20.2092576  10.5149636363636 20.4699264  C 10.6458011211378 20.5261382387449  10.7850645613899 20.5555955907565  10.9257454545455 20.556816  C 11.3454290909091 20.556816  11.7232 20.2780032  12.1345381818182 19.8645216  C 12.14548 19.8534336  12.1562363636364 19.842144  12.1664363636364 19.8302496  C 16.5587418181818 14.7650496  16.5587418181818 13.9532064  16.5587418181818 13.686288  C 16.5587418181818 13.6435488  16.5548472727273 13.6014144  16.5483563636364 13.5606912  C 16.5537345454545 13.5242016  16.5587418181818 13.4875104  16.5587418181818 13.4492064  L 16.5587418181818 3.7367232  Z M 14.1480181818182 15.2672352  C 13.3544581818182 16.3133376  12.2541563636364 17.6553888  11.2308181818182 18.8367648  C 11.0878327272727 18.9790944  10.9923236363636 19.0567104  10.93372 19.09824  C 10.9175854545455 19.0544928  10.8927345454545 18.9573216  10.8927345454545 18.7694304  L 10.8927345454545 15.7569216  C 10.8927345454545 15.4335552  10.9363163636364 15.3428352  10.9329781818182 15.3428352  C 10.9517090909091 15.3291264  11.06224 15.2672352  11.5266181818182 15.2672352  L 14.1480181818182 15.2672352  Z " fill-rule="nonzero" fill="#cdcdcd" stroke="none" transform="matrix(1 0 0 1 18 340 )" />
  </g>
</svg>