<?xml version="1.0" encoding="utf-8"?>
<svg version="1.1" xmlns:xlink="http://www.w3.org/1999/xlink" width="33px" height="34px" xmlns="http://www.w3.org/2000/svg">
  <g transform="matrix(1 0 0 1 -40 -136 )">
    <path d="M 32.7985959174107 17  C 32.7985959174107 26.27425384375  25.501481671875 33.7924927633929  16.5 33.7924927633929  C 7.49851829129464 33.7924927633929  0.201404082589287 26.27425384375  0.201404082589287 17  C 0.201404082589287 7.72574615625  7.498518328125 0.207507236607144  16.5 0.207507236607144  C 25.501481671875 0.207507236607144  32.7985959174107 7.72574615625  32.7985959174107 17  Z M 6.73308303348214 24.7070002410714  C 6.72533473989473 24.7497291759126  6.72123885591609 24.7930759639915  6.72084246428571 24.836542328125  C 6.72084246428571 25.0120067276786  6.77645726116072 25.1823991316964  6.87824031026786 25.3463486875  C 6.90697907477679 25.4087208147321  6.93811269642857 25.4534094129464  6.97110905022322 25.4782211785714  C 7.70753948102679 26.402013890625  9.99173782700893 27.0756327433036  12.6969055714286 27.0756327433036  C 15.9974710279018 27.0756327433036  18.6731017466518 26.0731551897321  18.6731017834821 24.836679390625  C 18.6731017834821 24.756486671875  18.6593976495536 24.6773906049107  18.6359808716518 24.5995282901786  C 18.6527596543544 24.3983747789254  18.6579133502896 24.1963712371208  18.6514146696429 23.9945873125  C 18.6643205055804 23.9038393013393  18.6731017834821 23.8118575758929  18.6731017834821 23.7171341830357  C 18.6731017834821 23.4060960736607  18.5935380100446 23.1213776830357  18.4801796216518 22.8539315200893  L 18.5042616294643 22.8421425133929  C 18.3983166380492 22.7828666494838  18.3172750921554 22.685461197366  18.2766134866072 22.5685276651786  C 18.2026011317342 22.5642469969299  18.1367932063564 22.5185897274299  18.1051123392857 22.4495408705357  C 17.6116273185549 22.7681807985606  17.0872914485207 23.0330329277236  16.5405801662946 23.2398161517857  C 16.2522613392857 23.1492052410714  16.3403402912946 23.2106177790179  16.4575571383929 23.2647649799107  C 15.4304129866071 23.5749805625  14.1237312488839 23.7172712455357  12.6970386395089 23.7172712834821  C 10.2180554732143 23.7172712834821  8.09258550669643 23.1516727075893  7.18758102120536 22.3461813638393  C 6.89966132477679 22.7260344107143  6.72097549553572 23.1980062455357  6.72097549553572 23.7172712834821  C 6.72097549553572 23.7231658058036  6.72177379352679 23.7289232276786  6.72177379352679 23.7349547745536  C 6.71034633155774 23.8767569112433  6.70466460755256 24.0189884400273  6.70474343638393 24.1612784977679  C 6.70474343638393 24.3557972410714  6.71498827901786 24.5401719553571  6.73308303348214 24.7070002410714  Z M 6.70461036830357 19.6379978058036  C 6.70461036830357 19.8440313928571  6.71618570758928 20.0384130736607  6.73627622544643 20.2126437589286  C 6.72663008524015 20.2606438730047  6.72146196701563 20.3094845184628  6.72084246428571 20.3584985602679  C 6.72084246428571 21.595111421875  9.39647318303571 22.5974519129464  12.6970386395089 22.5974519129464  C 15.9976040959821 22.5974519129464  18.6732348147321 21.594974359375  18.6732348147321 20.3584985602679  C 18.6732348147321 20.2750158861607  18.6580671529018 20.1930410892857  18.6329207477679 20.1121629821429  C 18.6512105610016 19.9113316390535  18.6577861638717 19.7095504154658  18.6526120982143 19.5079073928571  C 18.6656349793131 19.4189154407522  18.6725264458855 19.3290852181347  18.6732348147321 19.2390904151786  C 18.6732348147321 18.9312051986607  18.5951346060268 18.6492283995536  18.4836389129464 18.384112640625  C 18.4004828169643 18.3194101473214  18.3100089709821 18.2196147589286  18.2241918816964 18.0884276941964  C 18.2086250524554 18.0647125803571  18.1950539866071 18.040449140625  18.1808176540179 18.0163228013393  C 17.9385340479911 18.1782161540179  17.7059630491071 18.3051536741071  17.5161010479911 18.3819193370536  C 16.7869883671875 18.7469675848214  16.2388233415179 18.8211286808036  16.5349920803571 18.7099555491071  C 16.0526866941964 18.8621160982143  15.5057191339286 18.9843928482143  14.9109866886161 19.0736329821429  C 14.8713378515625 19.0449829352679  14.8271653258929 19.0172924397321  14.7935037421875 18.987271578125  C 14.7678251383929 19.0211307209821  14.7511939118304 19.0612956116071  14.7326999899554 19.099952625  C 14.0956577142857 19.1867252544643  13.4141768504464 19.2388162522321  12.6969055714286 19.2388162522321  C 10.2179224051339 19.2388162522321  8.09245243861607 18.6732176763393  7.187447953125 17.8677263705357  C 6.905914640625 18.2390803660714  6.73002287276786 18.69885196875  6.7223059921875 19.2045458839286  C 6.71044010075776 19.3487056734064  6.70453621434643 19.4933205752775  6.70461036830357 19.6379978058036  Z M 12.6970386395089 13.6415014397321  C 9.39647318303571 13.6415014397321  6.72084246428571 14.6439789933036  6.72084246428571 15.8804547924107  C 6.72084246428571 17.1170676540179  9.39647318303571 18.1194081450893  12.6970386395089 18.1194081450893  C 15.9976040959821 18.1194081450893  18.6732348147321 17.1169305915179  18.6732348147321 15.8804547924107  C 18.6732348147321 14.6439789933036  15.9976040959821 13.6415014397321  12.6970386395089 13.6415014397321  Z M 26.2791575357143 8.04391246428571  C 26.2791575357143 6.80743666517857  23.6035268169643 5.80495911160714  20.3029613604911 5.80495911160714  C 17.0023959040179 5.80495911160714  14.3267651852679 6.80743666517857  14.3267651852679 8.04391246428571  C 14.3267651852679 9.28038826339285  17.0023959040179 10.2828658169643  20.3029613604911 10.2828658169643  C 23.6035268169643 10.2828658169643  26.2791575357143 9.28038826339286  26.2791575357143 8.04391246428571  Z M 26.1635373214286 12.0916571651786  C 26.2323240535714 11.8732862075893  26.2791575725446 11.6444970580357  26.2791575357143 11.4025480870536  C 26.2791575357143 10.8831459866071  26.1004717064732 10.4113112142857  25.812552046875 10.0314582053571  C 24.9075475613839 10.8369495491071  22.7819445636161 11.4025480870536  20.3030944285714 11.4025480870536  C 17.8242442935268 11.4025480870536  15.6986412957589 10.8369495111607  14.7936368102679 10.0314582053571  C 14.5055840825893 10.4113112522321  14.3270312845982 10.8832830870536  14.3270312845982 11.4025480870536  C 14.3270312845982 11.6446341584821  14.3738648035714 11.8732862075893  14.4427845669643 12.0916571651786  C 14.3701394129464 12.23120621875  14.3270312845982 12.374593515625  14.3270312845982 12.5220933325893  C 14.3270312845982 12.9637701808036  14.6798792544643 13.0377942142857  15.2691566450893 13.3847476696429  C 16.7554555412947 13.5281350044643  18.0151706919643 14.2103899709821  18.8177268616071 14.6829101696429  C 19.2952424598214 14.7289695825893  19.7872604899554 14.7610466852679  20.3030944285714 14.7610466473214  C 23.6036598850446 14.7610466473214  26.2792906037946 13.75856909375  26.2792906037946 12.5220933325893  C 26.2792906037946 12.3745935535714  26.2360494441964 12.23120621875  26.1635373214286 12.0916571651786  Z M 26.1634042533482 16.5697009330357  C 26.2323240167411 16.3511929129464  26.2791575357143 16.1225408258929  26.2791575357143 15.8804547924107  C 26.2791575357143 15.3610526919643  26.1004717064732 14.8892179196429  25.812552046875 14.5093648727679  C 24.9075475613839 15.3148562165179  22.7819445636161 15.8804547544643  20.3030944285714 15.8804547924107  C 20.1169578180804 15.8804547924107  19.9374736908482 15.8711332522321  19.7555946328125 15.8649645669643  C 19.7557277008929 15.8703107633929  19.7597191908482 15.8752456964286  19.7597191908482 15.8804547924107  C 19.7597191908482 16.3799800602679  19.4388031774554 16.8901976450893  19.0180998046875 17.3241979308036  C 19.0971313794643 17.3891745870536  19.1822832020089 17.4856800200893  19.2630444040179 17.609053421875  C 19.4539708024554 17.9007630245536  19.549899703125 18.231266703125  19.4948171049107 18.3832901517857  C 19.53127275 18.6404551852679  19.5094525680804 18.9216094955357  19.5122466294643 19.21839109375  C 19.6951900479911 19.2246968415179  20.1156272845982 19.2390904151786  20.3029613604911 19.2390904151786  C 23.6035268169643 19.2390904151786  26.2791575357143 18.2366128616071  26.2791575357143 17.0001371004464  C 26.2791575357143 16.8526373214286  26.2359163761161 16.7092499866071  26.1634042533482 16.5697009330357  Z M 26.1635373214286 21.0477447008929  C 26.2323240535714 20.8292366808036  26.2791575725446 20.60058459375  26.2791575357143 20.3584985602679  C 26.2791575357143 19.8390964598214  26.1004717064732 19.3672616875  25.812552046875 18.987408640625  C 24.9075475613839 19.792899984375  22.7819445636161 20.3584985223214  20.3030944285714 20.3584985602679  C 20.1169578180804 20.3584985602679  19.9374736908482 20.3491770200893  19.7555946328125 20.3430083348214  C 19.7557277008929 20.34835453125  19.7597191908482 20.3532894642857  19.7597191908482 20.3584985602679  C 19.7597191908482 20.8513068169643  19.4160516662946 21.3727651205357  18.8897067857143 21.8511798035714  C 18.941995359375 21.8705083102679  19.0018677455357 21.9132777678571  19.0640019575893 21.9724970022321  C 19.1579140246366 22.03033677417  19.2300429014842 22.1192436951829  19.2686325267857 22.2247271026786  C 19.44226246875 22.4935440803571  19.5365947366071 22.7944381227679  19.5055941462054 22.9566056004464  C 19.5262168627232 23.187450953125  19.5098517354911 23.4358427723214  19.5123796607143 23.6964348616071  C 19.6953230792411 23.702740609375  20.1157603158482 23.7171341830357  20.3030944285714 23.7171341830357  C 23.6036598850446 23.7171341830357  26.2792906037946 22.7146566294643  26.2792906037946 21.4781808303571  C 26.2792906037946 21.3306810513393  26.2360494441964 21.1872937165179  26.1635373214286 21.0477447008929  Z M 16.5405801662946 23.2395419888393  C 16.7253862801339 23.366616609375  16.5765036127232 23.3193234821429  16.4575571383929 23.2644908169643  C 16.4852315055804 23.256128828125  16.5134380345982 23.2481781026786  16.5405801662946 23.2395419888393  Z " fill-rule="nonzero" fill="#f5aa52" stroke="none" transform="matrix(1 0 0 1 40 136 )" />
  </g>
</svg>