<?xml version="1.0" encoding="utf-8"?>
<svg version="1.1" xmlns:xlink="http://www.w3.org/1999/xlink" width="18px" height="7px" xmlns="http://www.w3.org/2000/svg">
  <g transform="matrix(1 0 0 1 -16 -221 )">
    <path d="M 17.3492678626019 2.47875508626302  C 17.3492678626019 1.36522682020399  16.4381876634681 0.459770553927951  15.3177430536685 0.459770572916667  L 2.79039019616169 0.459770572916667  C 1.67224631453804 0.459770572916667  0.758865387228261 1.36522682020399  0.758865387228261 2.47875508626302  L 0.758865387228261 4.55490225965712  C 0.758865387228261 4.86129402940538  0.979733324133832 5.12424218207465  1.28342673021399 5.17911831597222  L 9.02760848972486 6.56245427517361  C 9.0644198157269 6.56931379665799  9.10353183169157 6.57160030381944  9.14034315769361 6.57160028483073  C 9.17715448369565 6.57160028483073  9.21626649966033 6.56931377766927  9.25767924380095 6.56016776801215  L 16.8270072477921 5.17683180881076  C 17.128399944803 5.1219556749132  17.3492678626019 4.85900752224392  17.3492678626019 4.55261577148438  L 17.3492678626019 2.47875508626302  Z M 16.070074441661 4.02443293999566  L 16.0677737325917 4.02443293999566  L 9.13574173955503 5.29344361707899  L 9.12653892238451 5.29115710991753  L 2.03345740913723 4.02443293999566  L 2.03345740913723 2.47875508626302  C 2.03345740913723 2.06489755588108  2.37166143215014 1.72878121202257  2.78808948709239 1.72878123101128  L 15.3154423445992 1.72878123101128  C 15.7318704186481 1.72878123101128  16.070074441661 2.06489757486979  16.070074441661 2.47875508626302  L 16.070074441661 4.02443293999566  Z " fill-rule="nonzero" fill="#cdcdcd" stroke="none" transform="matrix(1 0 0 1 16 221 )" />
  </g>
</svg>