<?xml version="1.0" encoding="utf-8"?>
<svg version="1.1" xmlns:xlink="http://www.w3.org/1999/xlink" width="6px" height="8px" xmlns="http://www.w3.org/2000/svg">
  <g transform="matrix(1 0 0 1 -22 -229 )">
    <path d="M 4.66007173461914 4.005216796875  L 4.66007173461914 4.00307876420455  C 4.99741298217773 4.00307876420455  5.27301859130859 3.73582485795455  5.27301857299805 3.4087060546875  C 5.2730185546875 3.08158725142046  4.99741298217773 2.81433334517046  4.66007173461914 2.81433336292614  L 3.44299740600586 2.81433336292614  L 5.12749881591797 1.24074232954546  C 5.24656043701172 1.131702734375  5.31270578613281 0.984178568892048  5.31491063232422 0.823826225142049  C 5.31711547851562 0.665611914062503  5.25758466796875 0.515949715909094  5.14513758544922 0.404772088068185  C 5.03269050292969 0.291456427556821  4.88055620727539 0.227315482954548  4.7151928527832 0.225177450284093  L 4.70637346801758 0.225177450284093  C 4.5454198059082 0.225177450284093  4.3932855102539 0.285042329545457  4.27863358154297 0.391943892045457  L 2.65145813598633 1.91636020951705  L 1.08381350097656 0.402634055397729  C 0.966956726074217 0.289318394886366  0.812617584228514 0.227315482954548  0.649459075927733 0.227315482954548  L 0.647254229736326 0.227315482954548  C 0.484095721435545 0.227315482954548  0.331961425781248 0.289318394886366  0.217309497070311 0.402634055397729  C -0.0230185913085941 0.63567947443182  -0.0230185913085941 1.00342084517046  0.217309497070311 1.238604296875  L 1.85330432739258 2.81860942826705  L 0.653868768310546 2.81860942826705  C 0.316527520751951 2.81860942826705  0.0409219116210924 3.08586333451705  0.0409219116210924 3.41298212002841  C 0.0409219116210924 3.74010090553977  0.316527502441405 4.00735482954545  0.653868768310546 4.00735482954545  L 2.0473306640625 4.00735482954545  L 2.0473306640625 4.7620798828125  L 0.653868768310547 4.7620798828125  C 0.316527520751954 4.7620798828125  0.0409219116210937 5.0293337890625  0.0409219116210937 5.35645257457386  C 0.0409219116210937 5.68357136008523  0.316527502441406 5.95082528409091  0.653868768310547 5.95082528409091  L 2.0473306640625 5.95082528409091  L 2.0473306640625 7.30633712713068  C 2.0473306640625 7.63345591264205  2.32293625488281 7.90070983664773  2.66027752075195 7.90070981889204  C 2.99761878662109 7.90070980113636  3.2732243774414 7.63345591264205  3.27322435913086 7.30633712713068  L 3.27322435913086 5.95082528409091  L 4.66007173461914 5.95082528409091  C 4.99741298217773 5.95082528409091  5.27301859130859 5.68357137784091  5.27301857299804 5.35645257457386  C 5.2730185546875 5.02933377130682  4.99741298217773 4.76207986505682  4.66007173461914 4.7620798828125  L 3.27322435913086 4.7620798828125  L 3.27322435913086 4.005216796875  L 4.66007173461914 4.005216796875  Z " fill-rule="nonzero" fill="#cdcdcd" stroke="none" transform="matrix(1 0 0 1 22 229 )" />
  </g>
</svg>