<?xml version="1.0" encoding="utf-8"?>
<svg version="1.1" xmlns:xlink="http://www.w3.org/1999/xlink" width="18px" height="13px" xmlns="http://www.w3.org/2000/svg">
  <g transform="matrix(1 0 0 1 -16 -227 )">
    <path d="M 0.761166096297554 10.9488345282661  C 0.869299346127717 11.8936513522678  1.73436540208899 12.6303961480035  2.7834880689538 12.6303961480035  L 15.3131416355299 12.6303961480035  C 16.4289848271909 12.6303961480035  17.3400650263247 11.7917385145399  17.3446664444633 10.7598711669922  L 17.3446664444633 1.12273961859809  C 17.3446664444633 0.797892491319445  17.0570780018682 0.532494497341579  16.7050697435462 0.532494514973959  C 16.3530614852242 0.532494532606337  16.0654730235224 0.797892491319445  16.0654730235224 1.12273961859809  L 16.0654730235224 10.7577479817708  C 16.0654730235224 11.1420442599826  15.7272690005095 11.4541522935655  15.3108409264606 11.4541522935655  L 2.7834880689538 11.4541522935655  C 2.36705999490489 11.4541522935655  2.02885597189198 11.1420442599826  2.02885599099864 10.7577479817708  L 2.02885599099864 1.12273961859809  C 2.02885599099864 0.797892491319445  1.74126754840353 0.532494497341579  1.38925927097486 0.532494514973959  C 1.07636302861753 0.532494514973959  0.816383075747283 0.740566525607639  0.761166096297554 1.01445724283854  L 0.761166096297554 10.9488345282661  Z " fill-rule="nonzero" fill="#cdcdcd" stroke="none" transform="matrix(1 0 0 1 16 227 )" />
  </g>
</svg>