<?xml version="1.0" encoding="utf-8"?>
<svg version="1.1" xmlns:xlink="http://www.w3.org/1999/xlink" width="220px" height="45px" xmlns="http://www.w3.org/2000/svg">
  <g transform="matrix(1 0 0 1 -105 -125 )">
    <path d="M 0 24.0697674418605  L 0 20.9302325581395  C 0 9.20930232558139  9.23707927330777 0  20.9933619847904 0  L 191.15741452977 0  C 195.71842729587 0  199.900259755398 1.38614691700183  203.310623231994 3.76733173130208  C 208.690675225789 7.52379294011044  212.15077651456 13.7565996076596  212 20.9302325581395  L 212 33.4883720930233  C 212.31746031746 35.4069767441861  213.714285714286 36.2790697674418  215.522667246666 37.6033946380121  C 217.331048779047 38.9277195085824  223.205202886583 39.248727277751  216.364506205196 40.2929682900383  C 209.52380952381 41.3372093023256  206.902436018362 36.453488372093  206.423385829784 37.0155305393351  C 205.944335641206 37.5775727065773  198.449435942618 45  191.15741452977 45  L 20.9933619847904 45  C 9.23707927330777 45  0 35.7906976744186  0 24.0697674418605  Z " fill-rule="nonzero" fill="#0985ff" stroke="none" transform="matrix(1 0 0 1 105 125 )" />
  </g>
</svg>