<?xml version="1.0" encoding="utf-8"?>
<svg version="1.1" xmlns:xlink="http://www.w3.org/1999/xlink" width="120px" height="92px" xmlns="http://www.w3.org/2000/svg">
  <g transform="matrix(1 0 0 1 -129 -91 )">
    <path d="M 119.87595760134 46.731836998325  C 119.87595760134 43.8776729514238  117.607262981575 41.6089782244556  114.753098827471 42  L 91.3343160603015 42  C 94.1884802144054 41.6089782244556  96.4571748341709 39.3402836046901  96.4571747269682 36.4861194505863  C 96.4571746197655 33.6319552964824  94.1884801072027 31.3632606767169  91.3343160603015 32  L 108.166566164154 32  C 111.020730318258 31.3632607839196  113.289424938023 29.0945661641541  113.289424938023 26.2404020100502  C 113.289424938023 23.3862378559464  111.020730318258 21.1175432361809  108.166566164154 22  L 75.9657398458962 22  C 76.1852909346734 21.1175432361809  76.4780257554439 21.1175432361809  76.6975767370184 21.0443596113903  C 74.2093310284757 20.6784411658291  72.306554961474 18.5561139028476  72.306554961474 15.9946845695142  C 72.306554961474 13.4332552361809  74.2093310284757 11.3109279731993  76.6975767370184 10.9450095276382  C 76.4780256482412 10.9450095276382  76.1852908274707 10.8718257956449  75.9657398458962 10.8718257956449  L 84.01594639866 10.8718257956449  C 86.8701105527638 10.8718257956449  89.1388051725293 8.6031311758794  89.1388051725293 5.74896702177555  C 89.1388051725293 2.89480286767169  86.8701105527638 0.626108247906203  84.01594639866 1  L 13.7595979899498 1  C 10.9054338358459 0.62610835510888  8.6367392160804 2.89480297487437  8.6367392160804 5.74896702177555  C 8.6367392160804 8.60313106867672  10.9054338358459 10.8718257956449  13.7595979899498 11  L 38.6420547537688 11  C 41.4962189078727 10.8718257956449  43.7649135276382 13.1405204154104  43.7649134204355 15.9946845695142  C 43.7649133132328 18.8488487236181  41.49621880067 21.1175433433836  38.6420547537688 22  L 5.70939143718593 22  C 2.85522728308208 21.1175432361809  0.586532663316584 23.3862378559464  0.586532663316584 26.2404020100502  C 0.586532663316584 29.0945661641541  2.85522728308208 31.3632607839196  5.70939143718593 32  L 45.9604243082077 32  C 43.1062601541039 31.3632607839196  40.8375655343384 33.6319554036851  40.837565641541 36.4861194505863  C 40.8375657487437 39.3402834974874  43.1062602613065 41.6089782244556  45.9604243082077 42  L 31.3236850921273 42  C 28.4695209380235 41.6089782244556  26.200826318258 43.8776728442211  26.200826318258 46.731836998325  C 26.200826318258 49.5860011524288  28.4695209380235 51.8546957721943  31.3236850921273 51  L 64.2563484087102 51  C 61.8412864321608 51.8546956649916  59.8653266331658 53.8306554639866  59.8653266331658 56.245717440536  C 59.8653266331658 58.6607794170854  61.8412864321608 60.6367392160804  64.2563484087102 60  L 15.223271879397 60  C 12.3691077252931 60.6367392160804  10.1004131055276 62.9054338358459  10.1004132127303 65.7595979899498  C 10.100413319933 68.6137621440536  12.3691078324958 70.8824567638191  15.223271879397 70  L 37.1783807571189 70  L 36.8124623115578 70.8824567638191  C 39.4470753768844 71.1020078525963  41.5694025326633 73.2975187403685  41.5694025326633 76.0053154304858  C 41.5694025326633 78.713112120603  39.4470753768844 80.9086231155779  36.8124623115578 81.1281742043551  L 37.1783807571189 81.1281742043551  L 27.6645003149079 81.1281742043551  C 24.810336160804 81.1281742043551  22.5416415410385 83.3968688241206  22.5416415410385 86.2510329782244  C 22.5416415410385 89.1051971323283  24.810336160804 91.3738917520938  27.6645003149079 91  L 104.507381386935 91  C 107.361545541039 91.3738916448911  109.630240160804 89.1051970251256  109.630240053601 86.2510329782244  C 109.630239946399 83.3968689313233  107.361545433836 81.1281742043551  104.507381386935 81  L 63.5245114103853 81  C 63.451327678392 81.1281742043551  63.1585929648241 81.0549904723618  62.8658581440536 80.9086231155779  C 60.7435309882747 80.2499698492462  59.2066733668342 78.3471937822446  59.2066733668342 76.0053154304858  C 59.2066733668342 73.663437078727  60.7435309882747 71.7606610117253  62.8658581440536 71.1020078525963  C 63.0854092328308 71.028824120603  63.3781440536013 70.8824567638191  63.5245114103853 70  L 92.0661529514238 70  C 94.9203171055276 70.8824567638191  97.1890117252931 68.6137621440536  97.1890117252931 65.7595979899498  C 97.1890117252931 62.9054338358459  94.9203171055276 60.6367392160804  92.0661529514238 60.6367392160804  C 94.4812149279732 60.6367392160804  96.4571747269682 58.6607794170854  96.4571747269682 56.245717440536  C 96.4571747269682 53.8306554639866  94.4812149279732 51.8546956649916  92.0661529514238 51  L 114.753098827471 51  C 117.607262981575 51.8546956649916  119.87595760134 49.5860010452261  119.87595760134 46.731836998325  Z " fill-rule="nonzero" fill="#f0f2f9" stroke="none" transform="matrix(1 0 0 1 129 91 )" />
  </g>
</svg>