<?xml version="1.0" encoding="utf-8"?>
<svg version="1.1" xmlns:xlink="http://www.w3.org/1999/xlink" width="9px" height="8px" xmlns="http://www.w3.org/2000/svg">
  <g transform="matrix(1 0 0 1 -180 -127 )">
    <path d="M 1.5469569715243 4.14530433500838  C 1.5469569715243 2.53526308877722  2.86426350418762 1.21795644891122  4.47430485762145 1.21795644891122  C 6.08434621105529 1.21795644891122  7.4016527437186 2.53526298157454  7.4016527437186 4.14530433500838  C 7.4016527437186 5.75534568844221  6.08434621105528 7.07265222110553  4.47430485762145 7.07265211390285  C 2.86426350418762 7.07265200670017  1.5469569715243 5.75534558123953  1.5469569715243 4.14530433500838  Z M 8.13348963484087 4.14530433500838  C 8.13348963484087 2.09616091122278  6.52344828140703 0.486119557788946  4.47430485762145 0.486119450586266  C 2.42516132663317 0.486119450586266  0.815120080402018 2.0961608040201  0.815120080402018 4.14530433500838  C 0.815120080402018 6.19444786599665  2.42516143383586 7.80448911222781  4.47430485762145 7.80448911222781  C 6.52344828140703 7.80448911222781  8.13348963484087 6.19444775879397  8.13348963484087 4.14530433500838  Z " fill-rule="nonzero" fill="#b1c4de" stroke="none" transform="matrix(1 0 0 1 180 127 )" />
  </g>
</svg>