<?xml version="1.0" encoding="utf-8"?>
<svg version="1.1" xmlns:xlink="http://www.w3.org/1999/xlink" width="119px" height="84px" xmlns="http://www.w3.org/2000/svg">
  <g transform="matrix(1 0 0 1 -126 -93 )">
    <path d="M 75.0138202479062 83.0069100703518  C 74.794269159129 83.0800938023451  74.7210854271357 83.1532774271357  74.5747180703518 83  L 37.2510329782245 83  C 37.1046656214405 83.1532775343384  37.0314818894472 83.0800938023451  36.9582981574539 83.0069100703518  C 36.8851144254606 82.9337263383585  36.8851144254606 82.7873589815745  36.9582981574539 82.6409916247906  L 42.1543405561139 70.5656817420436  C 42.2275242881072 70.4193143852597  42.3738916448911 70.3461306532663  42.5202591088777 70  L 69.4518592964824 70  C 69.5982266532663 70.3461306532663  69.7445941172529 70.4193143852597  69.8177777420435 70.5656817420436  L 75.0138202479062 82.6409916247906  C 75.0870039798995 82.7873589815745  75.0870039798995 82.8605427135679  75.0138202479062 83.0069100703518  Z M 42.6666264656616 71  L 37.8365025125628 82  L 74.062432160804 82  L 69.1591244757119 71  L 42.6666264656616 71  Z M 51.8877721943049 2.28529313232831  C 51.8877721943049 3.52941593299833  50.9363841072027 4.4808040201005  49.6922613065327 4.4808040201005  C 48.4481385058627 4.4808040201005  47.4967504187605 3.52941593299833  47.4967504187605 2.28529313232831  C 47.4967504187605 1.04117033165829  48.4481385058626 0.0897822445561118  49.6922613065327 0.0897822445561118  C 50.9363841072027 0.0897822445561118  51.8877721943049 1.04117033165829  51.8877721943049 2.28529313232831  Z M 51.1559351959799 2.28529313232831  C 51.1559351959799 1.48027250921273  50.4972819296482 0.821619242881074  49.6922613065327 0.821619242881074  C 48.8872406834171 0.821619242881074  48.2285874170854 1.48027250921273  48.2285874170854 2.28529313232831  C 48.2285874170854 3.09031375544389  48.8872406834171 3.74896702177555  49.6922613065327 3.74896702177555  C 50.4972819296482 3.74896702177555  51.1559351959799 3.09031375544389  51.1559351959799 2.28529313232831  Z M 5.05020655276382 34.4861194505863  C 5.05020655276382 35.7302422512563  4.09881846566164 36.6816303383585  2.85469566499162 36.6816303383585  C 1.61057286432161 36.6816303383585  0.65918477721943 35.7302422512563  0.65918477721943 34.4861194505863  C 0.65918477721943 33.2419966499162  1.61057286432161 32.2906085628141  2.85469566499162 32.2906085628141  C 4.09881846566164 32.2906085628141  5.05020655276382 33.2419966499162  5.05020655276382 34.4861194505863  Z M 4.31836966164154 34.4861194505863  C 4.31836976884422 33.681098720268  3.65971639530988 33.022445561139  2.85469566499162 33.022445561139  C 2.04967504187605 33.022445561139  1.39102177554439 33.6810988274707  1.39102177554439 34.4861194505863  C 1.39102177554439 35.2911400737018  2.04967504187605 35.9497933400335  2.85469566499162 35.9497934472362  C 3.6597162881072 35.9497935544389  4.31836955443886 35.2911401809045  4.31836966164154 34.4861194505863  Z M 118.484935825796 57.9049023249581  C 118.484935825796 59.1490251256281  117.533547738693 60.1004132127303  116.289424938023 60.1004132127303  C 115.045302137353 60.1004132127303  114.093914050251 59.1490251256281  114.093914050251 57.9049023249581  C 114.093914050251 56.6607795242881  115.045302137353 55.7093914371859  116.289424938023 55.7093914371859  C 117.533547738693 55.7093914371859  118.484935825796 56.6607795242881  118.484935825796 57.9049023249581  Z M 117.753098827471 57.9049023249581  C 117.753098827471 57.0998817018425  117.094445561139 56.4412284355109  116.289424938023 56.4412283283082  C 115.484404314908 56.4412283283082  114.825751048576 57.0998815946399  114.825750941374 57.9049023249581  C 114.825750834171 58.7099230552764  115.484404207705 59.3685762144054  116.289424938023 59.3685762144054  C 117.094445668342 59.3685762144054  117.753098827471 58.7099229480737  117.753098827471 57.9049023249581  Z " fill-rule="nonzero" fill="#b1c4de" stroke="none" transform="matrix(1 0 0 1 126 93 )" />
  </g>
</svg>