<?xml version="1.0" encoding="utf-8"?>
<svg version="1.1" xmlns:xlink="http://www.w3.org/1999/xlink" width="39px" height="14px" xmlns="http://www.w3.org/2000/svg">
  <g transform="matrix(1 0 0 1 -188 -165 )">
    <path d="M 38.4817465460636 13.7147068676717  C 38.4817465460636 13.787890599665  38.3353791892797 13.9342579564489  38.1890117252931 14  L 0.865326633165822 14  C 0.792142901172525 13.9342579564489  0.645775544388613 13.8610742244556  0.572591812395302 13.787890599665  C 0.499408080402006 13.7147068676717  0.499408080402006 13.5683395108878  0.499408187604686 13.4951557788945  L 2.54855161139027 0.688008897822442  C 2.54855161139027 0.54164154103853  2.69491896817418 0.395274077051923  2.91447016415408 0.395274184254603  L 29.8460703517588 0.395274184254603  C 29.9924377085427 0.395274184254603  30.065621440536 0.4684579162479  30.1388051725293 0.541641541038516  L 38.4817465460636 13.3487884221105  C 38.5549302780569 13.4951557788945  38.5549302780569 13.5683395108878  38.4817465460636 13.7147068676717  Z M 3.20720487772194 1.12711107537689  L 1.30442881072025 13  L 37.5303584589615 13  L 29.6265192629816 1.12711107537689  L 3.20720487772194 1.12711107537689  Z " fill-rule="nonzero" fill="#b1c4de" stroke="none" transform="matrix(1 0 0 1 188 165 )" />
  </g>
</svg>