<?xml version="1.0" encoding="utf-8"?>
<svg version="1.1" xmlns:xlink="http://www.w3.org/1999/xlink" width="8px" height="8px" xmlns="http://www.w3.org/2000/svg">
  <g transform="matrix(1 0 0 1 -196 -127 )">
    <path d="M 0.915533185929647 4.14530433500838  C 0.915533185929647 2.53526308877722  2.23283971859297 1.21795644891122  3.8428810720268 1.21795644891122  C 5.45292242546064 1.21795644891122  6.77022895812394 2.53526298157454  6.77022895812394 4.14530433500838  C 6.77022895812394 5.75534568844221  5.45292242546063 7.07265222110553  3.8428810720268 7.07265211390285  C 2.23283971859297 7.07265200670017  0.915533185929647 5.75534558123953  0.915533185929647 4.14530433500838  Z M 7.50206584924622 4.14530433500838  C 7.50206584924622 2.09616091122278  5.89202449581238 0.486119557788946  3.8428810720268 0.486119450586266  C 1.79373754103851 0.486119450586266  0.183696294807362 2.0961608040201  0.183696294807362 4.14530433500838  C 0.183696294807362 6.19444786599665  1.7937376482412 7.80448911222781  3.8428810720268 7.80448911222781  C 5.89202449581238 7.80448911222781  7.50206584924622 6.19444775879397  7.50206584924622 4.14530433500838  Z " fill-rule="nonzero" fill="#b1c4de" stroke="none" transform="matrix(1 0 0 1 196 127 )" />
  </g>
</svg>