<?xml version="1.0" encoding="utf-8"?>
<svg version="1.1" xmlns:xlink="http://www.w3.org/1999/xlink" width="66px" height="49px" xmlns="http://www.w3.org/2000/svg">
  <g transform="matrix(1 0 0 1 -167 -111 )">
    <path d="M 21.7189592763819 48.1746599664992  C 21.7189592763819 48.2478436984925  21.572591919598 48.3210273232831  21.4994081876047 48.3210273232831  C 21.4262244556114 48.3210273232831  21.2798570988275 48.2478435912898  21.2066733668342 48.2478436984925  L 14.0346711691792 41.0026577688442  L 7.96042430820771 41.0026577688442  C 3.71576988944724 41.0026577688442  0.276136201005023 37.563024080402  1 33.3183696616415  L 1 7.70407589949748  C 0.276136201005023 3.45942148073701  3.71576988944724 0.0197877922948066  7.96042430820771 0  L 44.039986599665 0  C 44.2595376884422 0.0197877922948066  44.4059050452261 0.166155149078726  44.4059050452261 0.385706345058622  C 44.4059050452261 0.605257541038526  44.2595376884422 0.751624790619772  44.039986599665 1  L 7.96042430820771 1  C 4.15487206700168 0.751624790619772  1.00797319932998 3.89852376549414  1 7.70407589949749  L 1 33.3183696616416  C 1.00797319932998 37.1239219028476  4.15487217420436 40.2708207705193  7.96042430820771 40.2708207705193  L 14.2542222579564 40.2708207705193  C 14.3274059899497 40.2708207705193  14.4737733467337 40.3440045025126  14.5469569715243 40.3440045025126  L 21.5725918123953 47.3696393433836  L 28.2323082077052 40.3440045025126  C 28.3054919396985 40.2708207705193  28.3786755644891 40.1976371457287  28.5250430284757 40  L 57.7985214606365 40  C 61.6040737018426 40.197637038526  64.7509725695143 37.0507380636516  64 33.2451859296483  L 64 7.70407589949748  C 64.7509726767169 3.89852365829145  61.6040737018426 0.751624790619758  57.7985214606365 0.751624790619758  L 50.4069681742044 0.751624790619758  C 50.1874170854271 0.751624790619758  50.0410497286432 0.605257433835838  50.0410497286432 0.385706345058622  C 50.0410497286432 0.166155256281399  50.1874170854271 0.0197878994974729  50.4069681742044 0.0197877922947995  L 57.7253378358459 0.0197877922947995  C 61.9699922546064 0.0197877922947995  65.4096259430486 3.45942148073701  65 7.70407589949748  L 65 33.3183696616415  C 65.4096259430486 37.563024080402  61.9699922546064 41.0026577688442  57.7253378358459 41  L 28.5982266532663 41  L 21.7189592763819 48.1746599664992  Z " fill-rule="nonzero" fill="#b1c4de" stroke="none" transform="matrix(1 0 0 1 167 111 )" />
  </g>
</svg>