<?xml version="1.0" encoding="utf-8"?>
<svg version="1.1" xmlns:xlink="http://www.w3.org/1999/xlink" width="18px" height="14px" xmlns="http://www.w3.org/2000/svg">
  <g transform="matrix(1 0 0 1 -313 -12 )">
    <path d="M 17.2635004552284 4.72236579251803  C 17.3105731257512 3.52882423001803  17.3143298009315 2.33308724308894  17.2759327666767 1.13935197641226  C 17.2644344012921 0.782416292067308  16.9148760171274 0.5574649609375  16.4141578125 0.565665546123798  C 15.9126094065505 0.573866147085337  15.6542076832933 0.811860935997596  15.571809695012 1.16894191030649  C 15.5291163303786 1.35411712439904  15.5428562515024 1.5478480874399  15.5403863762019 1.73781774414063  C 15.5361730821815 2.06191878004808  15.5392448392428 2.38608436823918  15.5392448392428 2.71024997220553  C 15.4740943990385 2.73322132512019  15.4089231896034 2.75620881610577  15.343772749399 2.77921244516226  C 15.1249303463041 2.61565257587139  14.9097823715445 2.44900940429688  14.6867059254808 2.2890332436899  C 12.6761329755108 0.847359186448317  10.2906388003305 0.310656150841346  7.61915929462139 0.629639872295673  C 3.84728278170072 1.07999452674279  1.05264216346154 3.52246392127404  0.724710653545673 6.5714705483774  C 0.417077699819712 9.43163751502404  2.78943385591947 12.19514078125  6.35039643704928 13.1247781738281  C 9.95272406475361 14.0652313236178  13.9609188078425 12.9706134698017  15.9869543892728 10.4903535404147  C 16.1173798039363 10.3306840978065  16.2529110013522 10.1667690805288  16.3325070297476 9.99023032151442  C 16.487070691857 9.64733895507813  16.4094256527945 9.3281130836839  15.9739409044471 9.14489115985577  C 15.5543753658353 8.96840081505409  15.1567065189303 9.03928430213341  14.8588077426382 9.33883198091947  C 14.7098272107873 9.48863811222957  14.5965663078425 9.65952685847356  14.4574859855769 9.81570942082332  C 13.2013630303486 11.226518273738  11.4758413837139 11.9952270913462  9.26784533428486 12.0789441781851  C 6.31135598257212 12.1910404807692  3.60116810697115 10.6995009833233  2.73953845628005 8.50104767653245  C 1.84964025991587 6.23046790414663  3.08050419996995 3.78396277719351  5.71323383789063 2.59045352238582  C 8.27240717623197 1.43024706204928  11.5578657895132 1.76319441105769  13.6288778094952 3.39911602313702  C 13.7805357466947 3.51891248873197  13.8827134051983 3.67661250300481  14.1285790114183 3.95165525465745  C 13.3200410516827 3.95165525465745  12.6975730889423 3.92605260742187  12.0802939047476 3.95914555964543  C 11.5102534637921 3.98973635366586  11.2083281745793 4.2535759397536  11.2130188363882 4.62397479792668  C 11.2175849639423 4.98460720477764  11.5406805288462 5.2830087492488  12.0891978605769 5.29350163461538  C 13.5209094704026 5.32089614408053  14.9541361996695 5.3109521108774  16.3865742457933 5.29908707932692  C 16.8585050390625 5.29518049879808  17.2491794012921 5.08506448768029  17.2635004552284 4.72236579251803  Z " fill-rule="nonzero" fill="#9a9a9a" stroke="none" transform="matrix(1 0 0 1 313 12 )" />
  </g>
</svg>