<?xml version="1.0" encoding="utf-8"?>
<svg version="1.1" xmlns:xlink="http://www.w3.org/1999/xlink" width="34px" height="29px" xmlns="http://www.w3.org/2000/svg">
  <g transform="matrix(1 0 0 1 -47 -163 )">
    <path d="M 20.8883530105581 16.4521450816865  C 20.8719470146439 13.8965491481179  18.9775085756693 11.8379752744019  16.6538838882822 11.8507986748367  C 14.36332660794 11.8814141907659  12.5210911533481 13.9323608883587  12.5210911533481 16.4518053433498  C 12.5210911533481 18.9930587925416  14.3941665237169 21.0531517501996  16.7047220876549 21.0531517501996  C 19.015157020927 21.0531517501996  20.8881824206368 18.9932658488928  20.8883530105581 16.4521450816865  Z M 33 10.0200932649434  C 33.2928085864807 7.64636390376378  31.5330840560057 5.73423171606887  29.3748216257926 5.74651927865925  C 27.9519305178841 5.74703983304777  26.7182967231024 4.66399629032524  26.4034181456107 3.13783640563243  C 26.029781640973 1.32629411849103  24.5661130949161 0.0402077281803035  22.8771773445156 0  L 10.4305904320488 0  C 8.74165469125957 0.0402077413636921  7.27798615914062 1.32629412879324  6.90434965663305 3.13783640563243  C 6.58947107701808 4.663996300637  5.35583726828939 5.74703984624411  3.9329461507718 5.74651927865925  C 1.77468373056171 5.73423173170468  0.0149592157666054 7.64636391484658  0 10.0200932649434  L 0 24.6879092405957  C 0.0154402516312188 27.0612611786175  1.77502349734545 28.9728085550638  3.9329461507718 29  L 29.3748216257926 29  C 31.5327442892215 28.9728085706971  33.2923275506138 27.0612611896998  33 24.6879092405957  L 33 10.0200932649434  Z M 23.613454325555 16.4521450816865  C 23.5869139067287 20.6526469008971  20.4731021550247 24.0363820429893  16.6538838882822 24.0150117352595  C 12.8889627040211 23.9648641341237  9.86085235049139 20.5938337663678  9.86085235049139 16.4526996232444  C 9.86085235049139 12.2758437054722  12.939477171501 8.88983296967137  16.7371533472657 8.88983296967137  C 20.5346326223168 8.88983296967137  23.6131758782189 12.275505735447  23.613454325555 16.4521450816865  Z " fill-rule="nonzero" fill="#ffffff" stroke="none" transform="matrix(1 0 0 1 47 163 )" />
  </g>
</svg>