<?xml version="1.0" encoding="utf-8"?>
<svg version="1.1" xmlns:xlink="http://www.w3.org/1999/xlink" width="59px" height="59px" xmlns="http://www.w3.org/2000/svg">
  <g transform="matrix(1 0 0 1 -158 -592 )">
    <path d="M 187.5 597  C 201.22 597  212 607.78  212 621.5  C 212 635.22  201.22 646  187.5 646  C 173.78 646  163 635.22  163 621.5  C 163 607.78  173.78 597  187.5 597  Z " fill-rule="nonzero" fill="#ffffff" stroke="none" fill-opacity="0" />
    <path d="M 187.5 595  C 202.34 595  214 606.66  214 621.5  C 214 636.34  202.34 648  187.5 648  C 172.66 648  161 636.34  161 621.5  C 161 606.66  172.66 595  187.5 595  Z " stroke-width="6" stroke="#d7d7d7" fill="none" />
  </g>
</svg>