<?xml version="1.0" encoding="utf-8"?>
<svg version="1.1" xmlns:xlink="http://www.w3.org/1999/xlink" width="15px" height="24px" xmlns="http://www.w3.org/2000/svg">
  <g transform="matrix(1 0 0 1 -24 -21 )">
    <path d="M 14.2316258351893 6.10096153846154  C 14.4432071269488 6.10096153846154  14.6325167037862 6.17307692307692  14.7995545657016 6.31730769230769  C 15 6.50961538461538  15.0389755011136 6.72115384615384  14.9164810690423 6.95192307692308  L 5.89643652561247 23.6394230769231  C 5.75167037861915 23.8798076923077  5.51781737193764 24  5.19487750556793 24  C 5.15033407572383 24  5.07238307349666 23.9903846153846  4.96102449888641 23.9711538461538  C 4.771714922049 23.9230769230769  4.62973273942094 23.8317307692308  4.53507795100223 23.6971153846154  C 4.44042316258352 23.5625  4.41536748329621 23.4182692307692  4.45991091314031 23.2644230769231  L 7.75055679287305 11.6105769230769  L 0.968819599109132 13.0673076923077  C 0.924276169265033 13.0769230769231  0.857461024498887 13.0817307692308  0.76837416481069 13.0817307692308  C 0.567928730512249 13.0817307692308  0.39532293986637 13.0288461538462  0.250556792873051 12.9230769230769  C 0.0501113585746102 12.7788461538462  -0.022271714922049 12.5913461538462  0.0334075723830735 12.3605769230769  L 3.39086859688196 0.461538461538463  C 3.43541202672606 0.326923076923076  3.52449888641425 0.216346153846155  3.65812917594655 0.129807692307693  C 3.79175946547884 0.0432692307692299  3.94766146993318 0  4.12583518930958 0  L 9.60467706013363 0  C 9.8162583518931 0  9.99443207126949 0.0600961538461506  10.1391982182628 0.180288461538463  C 10.2839643652561 0.300480769230769  10.3563474387528 0.442307692307691  10.3563474387528 0.60576923076923  C 10.3563474387528 0.682692307692307  10.3285077951002 0.769230769230769  10.2728285077951 0.865384615384615  L 7.41648106904232 7.54326923076923  L 14.0311804008909 6.12980769230769  C 14.1202672605791 6.11057692307692  14.1870824053452 6.10096153846154  14.2316258351893 6.10096153846154  Z " fill-rule="nonzero" fill="#ffffff" stroke="none" transform="matrix(1 0 0 1 24 21 )" />
  </g>
</svg>