<?xml version="1.0" encoding="utf-8"?>
<svg version="1.1" xmlns:xlink="http://www.w3.org/1999/xlink" width="10px" height="20px" xmlns="http://www.w3.org/2000/svg">
  <g transform="matrix(1 0 0 1 -15 -32 )">
    <path d="M 9.71578993421053 10.7584234183673  C 9.77543105263158 10.6857098979592  9.80700574561404 10.5967159438776  9.84770958333333 10.5134705867347  C 9.85895122807018 10.4881503061224  9.87717175438597 10.466955  9.88701763157895 10.4408009693878  C 10.0800118859649 9.97384596938775  10.0168247368421 9.40245030612245  9.67508611842105 9.02690280612245  L 1.92841936403509 0.503668316326531  C 1.50595210526316 0.0391707397959184  0.840016315789474 0.0611998214285715  0.439994627192983 0.551851428571429  C 0.0406896929824566 1.04329293367347  0.058947938596492 1.81795293367347  0.481415197368421 2.28328428571429  L 7.43230135964912 9.93224522959184  L 0.508764846491228 17.6946866326531  C 0.0905226315789476 18.1640551785714  0.0778851973684207 18.9387590561224  0.481415197368421 19.4261194897959  C 0.687725899122807 19.6758993877551  0.963523574561404 19.8008332142857  1.23932125 19.8008332142857  C 1.5024815131579 19.8008332142857  1.76564175438597 19.6865628571429  1.96983993421053 19.4579782653061  L 9.64634067982456 10.8514545663265  C 9.66109063596491 10.8342964540816  9.66667372807018 10.8106437244898  9.68142368421053 10.7926957397959  C 9.69266532894737 10.7804525  9.70458600877193 10.7714565561224  9.71578993421053 10.7584234183673  Z " fill-rule="nonzero" fill="#9a9a9a" stroke="none" transform="matrix(1 0 0 1 15 32 )" />
  </g>
</svg>