<?xml version="1.0" encoding="utf-8"?>
<svg version="1.1" xmlns:xlink="http://www.w3.org/1999/xlink" width="6px" height="11px" xmlns="http://www.w3.org/2000/svg">
  <g transform="matrix(1 0 0 1 -354 -17 )">
    <path d="M 5.82947396052632 5.91713288010204  C 5.86525863157895 5.87714044387755  5.88420344736842 5.82819376913265  5.90862575 5.78240882270408  C 5.9153707368421 5.76848266836735  5.92630305263158 5.75682525  5.93221057894737 5.74244053316327  C 6.04800713157895 5.48561528316327  6.01009484210526 5.17134766836735  5.80505167105263 4.96479654336735  L 1.15705161842105 0.277017573979592  C 0.903571263157895 0.0215439068877551  0.504009789473685 0.0336599017857143  0.26399677631579 0.303518285714286  C 0.0244138157894739 0.573811113520408  0.0353687631578952 0.999874113520408  0.288849118421053 1.25580635714286  L 4.45938081578947 5.46273487627551  L 0.305258907894737 9.73207764795918  C 0.0543135789473686 9.99023034821428  0.0467311184210524 10.4163174808673  0.288849118421053 10.6843657193878  C 0.412635539473684 10.8217446632653  0.578114144736843 10.8904582678571  0.74359275 10.8904582678571  C 0.901488907894737 10.8904582678571  1.05938505263158 10.8276095714286  1.18190396052632 10.7018880459184  L 5.78780440789474 5.96830001147959  C 5.79665438157895 5.9588630497449  5.80000423684211 5.94585404846939  5.80885421052632 5.93598265688775  C 5.81559919736842 5.929248875  5.82275160526316 5.92430110586734  5.82947396052632 5.91713288010204  Z " fill-rule="nonzero" fill="#9a9a9a" stroke="none" transform="matrix(1 0 0 1 354 17 )" />
  </g>
</svg>