<?xml version="1.0" encoding="utf-8"?>
<svg version="1.1" xmlns:xlink="http://www.w3.org/1999/xlink" width="32px" height="32px" xmlns="http://www.w3.org/2000/svg">
  <g transform="matrix(1 0 0 1 -333 -9 )">
    <path d="M 349 9  C 357.96 9  365 16.04  365 25  C 365 33.96  357.96 41  349 41  C 340.04 41  333 33.96  333 25  C 333 16.04  340.04 9  349 9  Z " fill-rule="nonzero" fill="#ffffff" stroke="none" />
    <path d="M 349 9.5  C 357.68 9.5  364.5 16.32  364.5 25  C 364.5 33.68  357.68 40.5  349 40.5  C 340.32 40.5  333.5 33.68  333.5 25  C 333.5 16.32  340.32 9.5  349 9.5  Z " stroke-width="1" stroke="#ededed" fill="none" />
  </g>
</svg>