<?xml version="1.0" encoding="utf-8"?>
<svg version="1.1" xmlns:xlink="http://www.w3.org/1999/xlink" width="20px" height="20px" xmlns="http://www.w3.org/2000/svg">
  <g transform="matrix(1 0 0 1 -339 -15 )">
    <path d="M 19.9822041796875 10.0024980859375  C 19.9822041796875 15.5229880273438  15.5129983203125 19.9959395507813  9.9968783203125 19.9959395507813  C 4.4807583203125 19.9959395507813  0.0121767382812509 15.5217394726563  0.0121767382812509 10.0024980859375  C 0.0121767382812509 4.48200814453125  4.4807583203125 0.00905662109375  9.9968783203125 0.00905662109375  C 15.5117497460938 0.00905662109375  19.9822041796875 4.48200814453125  19.9822041796875 10.0024980859375  Z M 18.650619296875 10.00124953125  C 18.650619296875 5.217407578125  14.7763503125 1.34001720703125  9.9968783203125 1.34001720703125  C 5.21740630859375 1.34001720703125  1.34313734375 5.217407578125  1.34313732421875 10.00124953125  C 1.34313732421875 14.7838429296875  5.21740630859375 18.661857578125  9.9968783203125 18.661857578125  C 14.7763503320312 18.661857578125  18.6493707421875 14.785091484375  18.650619296875 10.00124953125  Z M 14.9561423828125 10.797828203125  L 10.6092949804687 10.797828203125  L 10.6092949804687 14.8812302929688  C 10.6092949804687 15.285138125  10.33273984375 15.6116354882812  9.99063552734375 15.6116354882812  C 9.649779765625 15.6116354882812  9.3726003515625 15.285138125  9.37260037109375 14.8812302929688  L 9.37260037109375 10.797828203125  L 5.01514025390625 10.797828203125  C 4.61272458775846 10.7861690661623  4.29255174624122 10.4565855456754  4.29255174624122 10.054001015625  C 4.29255174624122 9.65141648557462  4.61272458775846 9.32183296508767  5.01514025390625 9.310173828125  L 9.37260037109375 9.310173828125  L 9.37260037109375 5.1094075  C 9.37260037109375 4.7061239453125  9.64977978515625 4.3783780078125  9.99063552734375 4.3783780078125  C 10.33273984375 4.3783780078125  10.6092949804687 4.70612392578125  10.6092949804687 5.1094075  L 10.6092949804687 9.310173828125  L 14.9561423828125 9.310173828125  C 15.3669467949783 9.310173828125  15.6999695703125 9.64319660345922  15.6999695703125 10.054001015625  C 15.6999695703125 10.4648054277908  15.3669467949783 10.797828203125  14.9561423828125 10.797828203125  Z " fill-rule="nonzero" fill="#515151" stroke="none" transform="matrix(1 0 0 1 339 15 )" />
  </g>
</svg>