<?xml version="1.0" encoding="utf-8"?>
<svg version="1.1" xmlns:xlink="http://www.w3.org/1999/xlink" width="250px" height="72px" xmlns="http://www.w3.org/2000/svg">
  <g transform="matrix(1 0 0 1 -50 -147 )">
    <path d="M 250 53.4193548387097  L 250 18.5806451612903  C 250 8.17548387096774  241.759614921858 0  231.271852095132 0  L 25.730428839203 0  C 21.6615559382639 0  17.9309492411485 1.2305407469642  14.8885689094357 3.34441836275591  C 10.0890322964496 6.67918650683352  7.0022809343348 12.2123103613804  7 18.5806451612903  L 7 61.7806451612903  C 6.85358255451712 63.4838709677419  5.60747663551403 64.258064516129  3.99422208241326 65.4337232399385  C 2.38096752931252 66.609381963748  -2.85935686568584 66.8943540220551  3.24321876341876 67.8213705594146  C 9.34579439252337 68.7483870967742  11.6843179105518 64.4129032258065  12.1116778918664 64.9118516271775  C 12.539037873181 65.4108000285486  19.2252270690322 72  25.730428839203 72  L 231.271852095132 72  C 241.759614921858 72  250 63.8245161290322  250 53.4193548387097  Z " fill-rule="nonzero" fill="#e5e5ea" stroke="none" transform="matrix(1 0 0 1 50 147 )" />
  </g>
</svg>