<?xml version="1.0" encoding="utf-8"?>
<svg version="1.1" xmlns:xlink="http://www.w3.org/1999/xlink" width="250px" height="72px" xmlns="http://www.w3.org/2000/svg">
  <g transform="matrix(1 0 0 1 -75 -249 )">
    <path d="M 0 53.4193548387097  L 0 18.5806451612903  C 0 8.17548387096774  8.24038507814202 0  18.7281479048682 0  L 224.269571160797 0  C 228.338444061736 0  232.069050758852 1.2305407469642  235.111431090564 3.34441836275591  C 239.91096770355 6.67918650683352  242.997719065665 12.2123103613804  243 18.5806451612903  L 243 61.7806451612903  C 243.146417445483 63.4838709677419  244.392523364486 64.258064516129  246.005777917587 65.4337232399385  C 247.619032470687 66.609381963748  252.859356865686 66.8943540220551  246.756781236581 67.8213705594146  C 240.654205607477 68.7483870967742  238.315682089448 64.4129032258065  237.888322108134 64.9118516271775  C 237.460962126819 65.4108000285486  230.774772930968 72  224.269571160797 72  L 18.7281479048682 72  C 8.24038507814202 72  0 63.8245161290322  0 53.4193548387097  Z " fill-rule="nonzero" fill="#0985ff" stroke="none" transform="matrix(1 0 0 1 75 249 )" />
  </g>
</svg>