<?xml version="1.0" encoding="utf-8"?>
<svg version="1.1" xmlns:xlink="http://www.w3.org/1999/xlink" width="20px" height="20px" xmlns="http://www.w3.org/2000/svg">
  <g transform="matrix(1 0 0 1 -297 -15 )">
    <path d="M 0.873015865885417 10  C 0.873015865885417 4.95916666666667  4.95916666666667 0.873015865885417  10 0.873015865885417  C 15.0408333333333 0.873015865885417  19.1269841341146 4.95916666666667  19.1269841341146 10  C 19.1269841341146 15.0408333333333  15.0408333333333 19.1269841341146  10 19.1269841341146  C 4.95916666666667 19.1269841341146  0.873015865885417 15.0408333333333  0.873015865885417 10  Z M 17.757936515067 10  C 17.757936515067 5.71533729445684  14.2846627055432 2.24206348493304  10 2.24206348493304  C 5.71533729445684 2.24206348493304  2.24206348493304 5.71533729445684  2.24206348493304 10  C 2.24206348493304 14.2846627055432  5.71533729445684 17.757936515067  10 17.757936515067  C 14.2846627055432 17.757936515067  17.757936515067 14.2846627055432  17.757936515067 10  Z M 11.5351587230283 11.1691666666667  L 11.5187301515997 11.233055562686  L 11.5351587230283 11.1691666666667  C 11.6240730537926 10.8827849673095  11.8890317571058 10.6876127412536  12.188898787541 10.6876127412536  C 12.5669508484371 10.6876127412536  12.8734225970648 10.9940844898813  12.8734225970648 11.3721365507774  C 12.8734225970648 11.4167562459421  12.8690599163573 11.461269046809  12.8603968182664 11.5050396754092  C 12.5777850558213 12.8858029349783  11.3628681408569 13.8772403777342  9.95347941263171 13.8772403777342  C 8.5465404155869 13.8772403777342  7.33302693304737 12.8891683335399  7.04787699125744 11.5114285714286  C 7.03616800839994 11.4608255890771  7.03025645217769 11.4090543526237  7.03025645217769 11.3571143670402  C 7.03025645217769 10.9790623061441  7.33672820080542 10.6725905575164  7.7147802617015 10.6725905575164  C 8.04638435855552 10.6725905575164  8.33030165277624 10.9102726277356  8.38863095238095 11.2367063420759  C 8.54228660694482 11.9786747073196  9.19584876816457 12.510756981939  9.95356053077746 12.510756981939  C 10.6802596148172 12.510756981939  11.3154676393845 12.02047394844  11.499563484933 11.3174801515997  L 11.5351587230283 11.1691666666667  Z M 6.1210317531622 7.71825396112351  C 6.62510117162835 7.71825396112351  7.03373017299107 8.12688296248623  7.03373017299107 8.63095238095238  C 7.03373017299107 9.13502179941853  6.62510117162835 9.54365080078125  6.1210317531622 9.54365080078125  C 5.61696233469606 9.54365080078125  5.20833333333333 9.13502179941853  5.20833333333333 8.63095238095238  C 5.20833333333333 8.12688296248623  5.61696233469606 7.71825396112351  6.1210317531622 7.71825396112351  Z M 13.8789682468378 7.71825396112351  C 14.3830376653039 7.71825396112351  14.7916666666667 8.12688296248623  14.7916666666667 8.63095238095238  C 14.7916666666667 9.13502179941853  14.3830376653039 9.54365080078125  13.8789682468378 9.54365080078125  C 13.3748988283717 9.54365080078125  12.9662698270089 9.13502179941853  12.9662698270089 8.63095238095238  C 12.9662698270089 8.12688296248623  13.3748988283717 7.71825396112351  13.8789682468378 7.71825396112351  Z " fill-rule="nonzero" fill="#515151" stroke="none" transform="matrix(1 0 0 1 297 15 )" />
  </g>
</svg>