<?xml version="1.0" encoding="utf-8"?>
<svg version="1.1" xmlns:xlink="http://www.w3.org/1999/xlink" width="16px" height="16px" xmlns="http://www.w3.org/2000/svg">
  <g transform="matrix(1 0 0 1 -10 -34 )">
    <path d="M 15.6185638095238 15.1634545454545  C 15.4817028571429 15.2943454545455  15.2980533333333 15.3662727272727  15.1015238095238 15.3662727272727  C 14.9049942857143 15.3662727272727  14.7213447619048 15.2943454545455  14.5844838095238 15.1635381818182  L 8.08761904761905 8.96206909090909  L 1.5908419047619 15.1635381818182  C 1.45389333333333 15.2942618181818  1.27024380952381 15.3662727272727  1.0738019047619 15.3662727272727  C 0.877272380952381 15.3662727272727  0.693622857142857 15.2943454545455  0.556761904761904 15.1635381818182  L 0.521714285714285 15.1300836363636  C 0.384765714285714 14.99936  0.309413333333333 14.8241418181818  0.309413333333333 14.6365454545455  C 0.309413333333333 14.4490327272727  0.384765714285714 14.2736472727273  0.521714285714285 14.1430072727273  L 7.01840380952381 7.94145454545454  L 0.521539047619048 1.73990181818182  C 0.380034285714286 1.60834181818182  0.302579047619048 1.43337454545455  0.302579047619048 1.24636363636364  C 0.302579047619048 1.05935272727273  0.379946666666666 0.884301818181818  0.520487619047619 0.753745454545454  L 0.556499047619048 0.719370909090909  C 0.693447619047619 0.588647272727272  0.877097142857143 0.516636363636364  1.07362666666667 0.516636363636364  C 1.27015619047619 0.516636363636364  1.4537180952381 0.588647272727272  1.59066666666667 0.719370909090909  L 8.08761904761905 6.92928727272727  L 14.5843961904762 0.719287272727272  C 14.7213447619048 0.588563636363636  14.9049066666667 0.516636363636363  15.1014361904762 0.516636363636363  C 15.2979657142857 0.516636363636363  15.4816152380952 0.588647272727272  15.6184761904762 0.719370909090909  L 15.6536114285714 0.752825454545454  C 15.79056 0.88354909090909  15.8659123809524 1.05876727272727  15.8659123809524 1.24636363636364  C 15.8659123809524 1.43396  15.79056 1.60917818181818  15.6535238095238 1.73990181818182  L 9.15683428571429 7.94145454545454  L 15.6536114285714 14.1429236363636  C 15.79056 14.2736472727273  15.866 14.4489490909091  15.866 14.6364618181818  C 15.866 14.8240581818182  15.7906476190476 14.99936  15.6536114285714 15.13  L 15.6185638095238 15.1634545454545  Z " fill-rule="nonzero" fill="#ffffff" stroke="none" transform="matrix(1 0 0 1 10 34 )" />
  </g>
</svg>