<?xml version="1.0" encoding="utf-8"?>
<svg version="1.1" xmlns:xlink="http://www.w3.org/1999/xlink" width="20px" height="19px" xmlns="http://www.w3.org/2000/svg">
  <g transform="matrix(1 0 0 1 -22 -145 )">
    <path d="M 9.90090277777778 6.56890364583333  C 9.97087962962963 6.56402994791667  10.0326157407407 6.55356510416667  10.0766666666667 6.54087369791667  C 10.4384259259259 6.23266796875  11.1803240740741 5.82666666666667  11.8547453703704 5.60549479166667  C 12.9656944444444 5.24120442708333  13.9432407407407 5.3045625  14.5957407407407 6.06780338541667  C 14.7924537037037 6.29790625  14.9278703703704 6.55183333333333  14.9984259259259 6.8273828125  C 15.144375 7.39748177083333  15.0549074074074 7.74715104166667  14.7261574074074 8.54040104166667  C 14.4828703703704 9.12739713541667  14.4680324074074 9.2798671875  14.6380787037037 9.51840625  C 14.7512731481481 9.67713541666667  14.8795138888889 9.7391328125  15.153912037037 9.77198697916667  C 15.2271990740741 9.78074479166667  15.2871064814815 9.78549479166667  15.4403472222222 9.79573697916667  C 16.7707407407407 9.88472526041667  17.4074074074074 10.4614791666667  17.4074074074074 12.233328125  C 17.4074074074074 14.3832721354167  15.9995601851852 16.14235546875  13.7003703703704 17.3948216145833  C 11.8646296296296 18.3948450520833  9.53287037037037 19  7.75625 19  C 5.65520833333333 19  3.68511574074074 18.5538216145833  2.2630787037037 17.51859375  C 0.313425925925926 16.0992591145833  -0.377731481481482 13.7414036458333  0.498078703703703 10.5276575520833  C 1.19618055555556 7.96599739583333  4.16363425925926 4.41999869791667  6.95895833333333 3.1452421875  C 7.58590277777778 2.8593515625  8.3868287037037 2.79995182291667  8.96613425925926 3.1029375  C 9.85446759259259 3.567546875  10.0009027777778 4.61662890625  9.43222222222222 5.87258333333333  C 9.21173611111111 6.35958203125  9.23365740740741 6.4260078125  9.42236111111111 6.50403645833333  C 9.54981481481482 6.55673177083333  9.72858796296296 6.58090234375  9.90092592592593 6.56890364583333  Z M 8.88782407407408 7.98071744791667  C 7.86763888888889 7.55890755208333  7.51143518518519 6.479890625  8.09865740740741 5.18291796875  C 8.24435185185185 4.86113020833333  8.2974537037037 4.63617317708333  8.29157407407407 4.51465234375  C 8.13856481481481 4.4559453125  7.79240740740741 4.48659765625  7.54034722222222 4.6015625  C 5.15115740740741 5.69109375  2.49377314814815 8.86656770833333  1.92043981481481 10.9703971354167  C 1.21759259259259 13.5494986979167  1.69914351851852 15.1923307291667  3.09708333333333 16.2099934895833  C 4.22592592592593 17.03179296875  5.92534722222222 17.4166666666667  7.75622685185185 17.4166666666667  C 9.29766203703704 17.4166666666667  11.3990740740741 16.8713072916667  13.0276157407407 15.9841705729167  C 14.8828935185185 14.9735091145833  15.9259259259259 13.67027734375  15.9259259259259 12.233328125  C 15.9259259259259 11.9308619791667  15.9000694444444 11.710234375  15.8568981481481 11.564765625  C 15.833587962963 11.48616796875  15.8161574074074 11.4565546875  15.805162037037 11.446609375  C 15.7764583333333 11.4206328125  15.6794675925926 11.3981692708333  15.3478240740741 11.3760026041667  C 15.1699305555556 11.3641028645833  15.0948148148148 11.3581158854167  14.9890740740741 11.3454739583333  C 14.3478703703704 11.2687565104167  13.8528240740741 11.0294505208333  13.4596759259259 10.4779557291667  C 12.8638194444444 9.64212890625  12.9296527777778 8.9654765625  13.3715972222222 7.89915104166667  C 13.5546296296296 7.45754947916667  13.589212962963 7.32239713541667  13.5694675925926 7.24528385416667  C 13.5629166666667 7.21967838541667  13.5449768518519 7.18603255208333  13.5020138888889 7.13578645833333  C 13.3370833333333 6.9428671875  12.9112037037037 6.9152578125  12.2893055555556 7.11918619791667  C 12.0030787037037 7.21304817708333  11.7037962962963 7.34812630208333  11.4298148148148 7.50126432291667  C 11.2187037037037 7.61922265625  11.0430092592593 7.73836848958333  10.9937268518519 7.78453255208333  C 10.5497685185185 8.20050390625  9.58224537037037 8.2678203125  8.88782407407408 7.98071744791667  Z M 19.8765509259259 6.33333333333333  C 19.8765509259259 6.6593515625  19.8534259259259 6.98254947916667  19.8077083333333 7.30094791666667  C 19.7456712962963 7.73312369791667  19.3675462962963 8.02970182291667  18.9631712962963 7.963375  C 18.5588194444444 7.89704817708333  18.2813194444444 7.49292708333333  18.3433796296296 7.06077604166667  C 18.3778768634646 6.82005078109044  18.3951568463476 6.57686558893238  18.3950694444444 6.33333333333333  C 18.3950694444444 3.70997265625  16.4052083333333 1.58333333333333  13.950625 1.58333333333333  C 13.8859953703704 1.58333333333333  13.8215509259259 1.58481770833333  13.7573148148148 1.58773697916667  C 13.348587962963 1.60636588541667  13.0031018518519 1.267359375  12.9856481481481 0.830532552083334  C 12.9682175925926 0.393705729166667  13.2854166666667 0.0244674479166671  13.6941435185185 0.00583854166666677  C 13.7794212962963 0.00195442708333317  13.8649305555556 0  13.950625 0  C 17.2234259259259 0  19.8765509259259 2.83552734375  19.8765509259259 6.33333333333333  Z M 17.3934722222222 6.93059635416666  C 17.3569212962963 7.36608723958333  16.9969907407407 7.68745442708333  16.589537037037 7.648390625  C 16.1820601851852 7.60932682291667  15.8813657407407 7.22465104166667  15.9179166666667 6.78918489583333  C 15.9232407407407 6.725703125  15.9259259259259 6.66170182291666  15.9259259259259 6.59720572916667  C 15.9259259259259 5.43127864583333  15.0415509259259 4.48610286458333  13.950625 4.48610286458333  C 13.5415277777778 4.48610286458333  13.2098842592593 4.13165885416667  13.2098842592593 3.69443619791667  C 13.2098842592593 3.25721354166667  13.5415277777778 2.90276953125  13.950625 2.90276953125  C 15.8597453703704 2.90276953125  17.4074074074074 4.55685807291667  17.4074074074074 6.59723046875  C 17.4074074074074 6.7089296875  17.4027546296296 6.82013411458333  17.3934722222222 6.93062109375  Z " fill-rule="nonzero" fill="#ffffff" stroke="none" transform="matrix(1 0 0 1 22 145 )" />
  </g>
</svg>