<?xml version="1.0" encoding="utf-8"?>
<svg version="1.1" xmlns:xlink="http://www.w3.org/1999/xlink" width="20px" height="21px" xmlns="http://www.w3.org/2000/svg">
  <g transform="matrix(1 0 0 1 -22 -204 )">
    <path d="M 6.05546995762712 15.0360631084711  C 6.05546995762712 13.2199969927686  7.04653313559322 11.6361773181818  8.50403697033898 10.821800160124  C 7.88392574564573 10.2051994891106  7.53420614429989 9.35766875210836  7.53466872881356 8.4725770196281  C 7.53466872881356 6.66307438016529  8.97244993644068 5.19083397520661  10.7395993855932 5.1908339535124  C 12.5067488347458 5.19083393181818  13.9445300423729 6.66307438016529  13.9445300423729 8.4725770196281  C 13.9449926213261 9.35766875529331  13.5952730121456 10.205199492759  12.975161779661 10.821800160124  C 14.4326656355932 11.6361773181818  15.4237288135593 13.2199969927686  15.4237288135593 15.0360631084711  C 15.4237288135593 15.4543223340753  15.0925988896135 15.7933884297521  14.6841294279661 15.7933884297521  C 14.2756599663187 15.7933884297521  13.9445300423729 15.4543223340753  13.9445300423729 15.0360631084711  C 13.9445300423729 13.2265604690083  12.5067488347458 11.7543200640496  10.7395993855932 11.7543200640496  C 8.97046608799364 11.7565455405014  7.53684211582457 13.2245290954745  7.53466872881356 15.0360631084711  C 7.53466872881356 15.4543223340753  7.2035388048677 15.7933884297521  6.79506934322034 15.7933884297521  C 6.38659988157298 15.7933884297521  6.05546995762712 15.4543223340753  6.05546995762712 15.0360631084711  Z M 3.83667180084746 11.2494365237603  L 0.878274258474577 11.2494365237603  C 0.469804796827216 11.2494365237603  0.138674872881356 10.9103704280835  0.138674872881356 10.4921112024793  C 0.138674872881356 10.0738519768751  0.469804796827216 9.73478588119834  0.878274258474577 9.73478588119834  L 3.83667180084746 9.73478588119834  C 4.24514126249482 9.73478588119834  4.57627118644068 10.0738519768751  4.57627118644068 10.4921112024793  C 4.57627118644068 10.9103704280835  4.24514126249482 11.2494365237603  3.83667180084746 11.2494365237603  Z M 3.83667180084746 7.96769345764463  L 0.878274258474577 7.96769345764463  C 0.469804796827216 7.96769345764463  0.138674872881356 7.62862736196783  0.138674872881356 7.21036813636363  C 0.138674872881356 6.79210891075944  0.469804796827216 6.45304281508264  0.878274258474577 6.45304281508264  L 3.83667180084746 6.45304281508264  C 4.24514126249482 6.45304281508264  4.57627118644068 6.79210891075944  4.57627118644068 7.21036813636363  C 4.57627118644068 7.62862736196783  4.24514126249482 7.96769345764463  3.83667180084746 7.96769345764463  Z M 3.83667180084746 14.5311795681818  L 0.878274258474577 14.5311795681818  C 0.469804796827216 14.5311795681818  0.138674872881356 14.192113472505  0.138674872881356 13.7738542469008  C 0.138674872881356 13.3555950212966  0.469804796827216 13.0165289256198  0.878274258474577 13.0165289256198  L 3.83667180084746 13.0165289256198  C 4.24514126249482 13.0165289256198  4.57627118644068 13.3555950212966  4.57627118644068 13.7738542469008  C 4.57627118644068 14.192113472505  4.24514126249482 14.5311795681818  3.83667180084746 14.5311795681818  Z M 19.8613251059322 18.1511945826446  C 19.8596947445789 19.6367169736554  18.6840342650176 20.8405544496219  17.233281970339 20.8422238977273  L 4.24591680084746 20.8422238977273  C 2.79516449789506 20.8405544615747  1.61950400544355 19.6367169821141  1.6178736440678 18.1511945826446  L 1.6178736440678 16.2982719700413  C 1.6178736440678 15.8800127444371  1.94900356801366 15.5409466487603  2.35747302966102 15.5409466487603  C 2.76594249130838 15.5409466487603  3.09707241525424 15.8800127444371  3.09707241525424 16.2982719700413  L 3.09707241525424 18.1511945826446  C 3.09761614267512 18.800659826621  3.61165292254927 19.3270164962608  4.24591680084746 19  L 17.233281970339 19  C 17.8675458486372 19.3270164962608  18.3815826285113 18.800659826621  18 18.1511945826446  L 18 2.83302780061983  C 18.3815826285113 2.18356255664342  17.8675458486372 1.65720588700369  17.233281970339 2  L 4.24591680084746 2  C 3.61165292254927 1.65720588700369  3.09761614267511 2.18356255664342  3.09707241525424 2.83302780061983  L 3.09707241525424 4.68595041322314  C 3.09707241525424 5.10420963882734  2.76594249130838 5.44327573450413  2.35747302966102 5.44327573450413  C 1.94900356801366 5.44327573450413  1.6178736440678 5.10420963882734  1.6178736440678 4.68595041322314  L 1.6178736440678 2.83302780061983  C 1.61950401711664 1.34750540962251  2.79516450615573 0.143667943360986  4.24591680084746 0.141998507231405  L 17.233281970339 0.141998507231405  C 18.6840342567569 0.143667955313841  19.8596947329058 1.34750541808116  19.8613251059322 2.83302780061983  L 19.8613251059322 18.1511945826446  Z M 12.4653312711864 8.4725770196281  C 12.4653312711864 7.4981517892562  11.6912172457627 6.70548461776859  10.7395993855932 6.70548459607438  C 9.78798150423729 6.70548459607438  9.0138675 7.49815176756198  9.01386747881356 8.4725770196281  C 9.01386745762712 9.44700227169422  9.78798150423729 10.2396694214876  10.7395993855932 10.2396694214876  C 11.6912172669491 10.2396694214876  12.4653312711864 9.44700225  12.4653312711864 8.4725770196281  Z " fill-rule="nonzero" fill="#ffffff" stroke="none" transform="matrix(1 0 0 1 22 204 )" />
  </g>
</svg>