<?xml version="1.0" encoding="utf-8"?>
<svg version="1.1" xmlns:xlink="http://www.w3.org/1999/xlink" width="9px" height="9px" xmlns="http://www.w3.org/2000/svg">
  <g transform="matrix(1 0 0 1 -49 -4 )">
    <path d="M 2.25 7.875  C 2.25 7.25371875  1.74628125 6.75  1.125 6.75  C 0.503718750000004 6.75  0 7.25371875  0 7.875  C 0 8.49628125  0.503718750000004 9  1.125 9  C 1.74628125 9  2.25 8.49628125  2.25 7.875  Z M 5.765625 9  C 5.765625 5.815546875  3.1843125 3.234375  0 3.234375  L 0 4.78125  C 2.330015625 4.78125  4.21875 6.670125  4.21875 9  L 5.765625 9  Z M 9 9  C 9 4.02946875000001  4.97053124999999 0  0 0  L 0 1.546875  C 4.116234375 1.546875  7.453125 4.883765625  7.453125 9  L 9 9  Z " fill-rule="nonzero" fill="#000000" stroke="none" transform="matrix(1 0 0 1 49 4 )" />
  </g>
</svg>