<?xml version="1.0" encoding="utf-8"?>
<svg version="1.1" xmlns:xlink="http://www.w3.org/1999/xlink" width="20px" height="12px" xmlns="http://www.w3.org/2000/svg">
  <g transform="matrix(1 0 0 1 -338 -3 )">
    <path d="M 2.10879123242187 9.71666809765625  L 13.6153937617187 9.71666809765625  L 13.6153937617187 2.71799920117187  L 2.10879123242187 2.71799920117187  L 2.10879123242187 9.71666809765625  Z M 18.7306876035156 4.46774887695313  L 18.7306876035156 2.71799920117188  C 18.7306876035156 1.75568963867188  17.94329146875 0.968359460937501  16.9810478632813 1  L 2.10879125390625 1  C 1.14648169140625 0.968359460937501  0.359151513671875 1.75568966015625  0.359151513671875 2.71799920117188  L 0.3591514921875 9.71666809765625  C 0.3591514921875 10.6789776601563  1.14648169140625 11.4664177734375  2.10879123242187 11.4664177734375  L 16.9810478417969 11.4664177734375  C 17.9432914472656 11.4664177734375  18.7306875820313 10.6789996386719  18.7306875820313 9.71666809765625  L 18.7306875820313 7.96702835742188  C 19.2118533417969 7.96702835742188  19.6055184414063 7.5733852578125  19.6055184414063 7.09219749804688  L 19.6055184414063 5.34257973632813  C 19.6055184628906 4.86141395507812  19.2118533632813 4.46774887695313  18.7306876035156 4.46774887695313  Z M 17.8558787226563 5.34257973632813  L 17.8558787226563 7.09219749804687  L 17.8558787226563 9.71666809765625  C 17.8558787226563 10.1978118789062  17.4622136230469 10.5914769785156  16.9810478632813 10.5914769785156  L 2.10879125390625 10.5914769785156  C 1.62762549414063 10.5914769785156  1.23396039453125 10.1978118789063  1.23396039453125 9.71666809765625  L 1.23396037304687 2.71799920117187  C 1.23396037304687 2.23683344140625  1.62762547265625 1.84316834179687  2.10879123242187 2  L 16.9810478417969 2  C 17.4622136015625 1.84316834179687  17.8558787011719 2.23683344140625  17.8558787011719 2.71799920117187  L 17.8558787226563 5.34257973632813  Z " fill-rule="nonzero" fill="#000000" stroke="none" transform="matrix(1 0 0 1 338 3 )" />
  </g>
</svg>