<?xml version="1.0" encoding="utf-8"?>
<svg version="1.1" xmlns:xlink="http://www.w3.org/1999/xlink" width="13px" height="13px" xmlns="http://www.w3.org/2000/svg">
  <g transform="matrix(1 0 0 1 -306 -36 )">
    <path d="M 12.4680836621094 4.38505395019531  C 12.5020805908203 3.27676535644531  12.5047937451172 2.16643815429688  12.4770625537109 1.05796969238281  C 12.4687581787109 0.7265294140625  12.2162993457031 0.51764603515625  11.85466953125 0.525260864257813  C 11.4924401269531 0.532875708007813  11.3058166601562 0.753870869140625  11.2463070019531 1.08544605957031  C 11.2154729052734 1.25739447265625  11.2253961816406 1.43728750976563  11.2236123828125 1.61368790527344  C 11.2205694482422 1.9146388671875  11.2227879394531 2.21564977050781  11.2227879394531 2.51666068847656  C 11.17573484375 2.53799123046875  11.1286667480469 2.5593367578125  11.0816136523437 2.58069727050781  C 10.9235608056641 2.42882024902344  10.7681761572266 2.27408016113281  10.607065390625 2.12553086914063  C 9.15498492675781 0.786833530273437  7.43212802246094 0.28846642578125  5.50272615722656 0.584665595703125  C 2.77859312011719 1.00285206054687  0.7602415625 3.27085935546875  0.523402138671875 6.10207979492188  C 0.301222783203125 8.75794912109375  2.01459111816406 11.324059296875  4.58639742675781 12.1872940185547  C 7.18807849121094 13.0605719433594  10.0828858056641 12.0441410791016  11.5461337255859 9.74104257324219  C 11.6403298583984 9.59277809082031  11.7382135009766 9.4405712890625  11.7956995214844 9.27664244140625  C 11.9073288330078 8.95824331542969  11.8512518603516 8.66181929199219  11.5367350976563 8.4916846484375  C 11.2337155419922 8.32780075683594  10.9465102636719 8.39362113769531  10.7313611474609 8.67177255371094  C 10.6237640966797 8.81087824707031  10.5419645556641 8.96956065429687  10.44151765625 9.11458731933594  C 9.53431774414063 10.4246241113281  8.28810766601563 11.13842515625  6.69344385253906 11.2161624511719  C 4.55820154296875 11.320251875  2.6008436328125 9.93525091308594  1.97855555175781 7.89382998535156  C 1.33585129882813 5.78543448242187  2.22480858886719 3.51367972167969  4.12622443847656 2.40542112792969  C 5.97451629394531 1.32808655761719  8.34734751464844 1.637251953125  9.84307841796875 3.15632202148437  C 9.95260915039063 3.26756159667969  10.0264041259766 3.41399732421875  10.2039737304687 3.66939416503906  C 9.6200296484375 3.66939416503906  9.170469453125 3.64562027832031  8.72465670898437 3.67634944824219  C 8.31296083496094 3.70475518554687  8.09490368164063 3.94974908691406  8.09829138183594 4.29369088378906  C 8.101589140625 4.62856383300781  8.3349359375 4.90565098144531  8.73108734375 4.915394375  C 9.76510128417969 4.94083213378906  10.8002094775391 4.93159838867187  11.8347480664063 4.920580859375  C 12.1755869726562 4.9169533203125  12.4577406787109 4.72184559570312  12.4680836621094 4.38505395019531  Z " fill-rule="nonzero" fill="#000000" stroke="none" transform="matrix(1 0 0 1 306 36 )" />
  </g>
</svg>