<?xml version="1.0" encoding="utf-8"?>
<svg version="1.1" xmlns:xlink="http://www.w3.org/1999/xlink" width="6px" height="6px" xmlns="http://www.w3.org/2000/svg">
  <g transform="matrix(1 0 0 1 -34 -7 )">
    <path d="M 37 7  C 38.68 7  40 8.32  40 10  C 40 11.68  38.68 13  37 13  C 35.32 13  34 11.68  34 10  C 34 8.32  35.32 7  37 7  Z " fill-rule="nonzero" fill="#ffffff" stroke="none" />
    <path d="M 37 7.5  C 38.4 7.5  39.5 8.6  39.5 10  C 39.5 11.4  38.4 12.5  37 12.5  C 35.6 12.5  34.5 11.4  34.5 10  C 34.5 8.6  35.6 7.5  37 7.5  Z " stroke-width="1" stroke="#333333" fill="none" />
  </g>
</svg>