<?xml version="1.0" encoding="utf-8"?>
<svg version="1.1" xmlns:xlink="http://www.w3.org/1999/xlink" width="7px" height="12px" xmlns="http://www.w3.org/2000/svg">
  <g transform="matrix(1 0 0 1 -294 -4 )">
    <path d="M 7 8.76923076923077  C 6.99957325828314 8.63474536254134  6.94328718849681 8.50721608554301  6.846 8.42030769230769  L 6.84731249999999 8.41869230769231  L 4.17221874999996 6  L 6.84709375 3.58130769230769  L 6.84578124999996 3.57969230769231  C 6.93940624999999 3.495  7 3.37084615384615  7 3.23076923076923  C 6.99957325828314 3.0962838240798  6.94328718849681 2.96875454708148  6.846 2.88184615384615  L 6.84731249999999 2.88023076923077  L 3.78481250000004 0.110999999999999  L 3.7835 0.112615384615383  C 3.70693749999998 0.0433846153846155  3.60871875000004 0  3.5 0  C 3.25837542194898 0  3.0625 0.206637807770403  3.0625 0.461538461538462  L 3.0625 4.99638461538461  L 0.722312499999987 2.88023076923077  L 0.720999999999947 2.88184615384615  C 0.644437500000038 2.81261538461539  0.546218750000037 2.76923076923077  0.4375 2.76923076923077  C 0.19587542194904 2.76923076923077  0 2.97586857700117  0 3.23076923076923  C 0 3.37084615384615  0.0605937500000095 3.495  0.153999999999996 3.57969230769231  L 0.152687500000013 3.58130769230769  L 2.82778125000004 6  L 0.152687500000013 8.41869230769231  L 0.153999999999996 8.42030769230769  C 0.0567128115031892 8.50721608554301  0.000426741716864854 8.63474536254134  0 8.76923076923077  C 0 9.02413142299883  0.19587542194904 9.23076923076923  0.4375 9.23076923076923  C 0.546218750000037 9.23076923076923  0.644437500000038 9.18738461538461  0.720999999999947 9.11815384615385  L 0.722312499999987 9.11976923076923  L 3.0625 7.00361538461538  L 3.0625 11.5384615384615  C 3.0625 11.7933621922296  3.25837542194898 12  3.5 12  C 3.60871875000004 12  3.70693749999998 11.9566153846154  3.7835 11.8873846153846  L 3.78481250000004 11.889  L 6.84731249999999 9.11976923076923  L 6.846 9.11815384615385  C 6.94328718849681 9.03124545291852  6.99957325828314 8.9037161759202  7 8.76923076923077  Z M 3.9375 7.00361538461538  L 5.89028124999999 8.76923076923077  L 3.9375 10.5348461538462  L 3.9375 7.00361538461538  Z M 5.89028124999999 3.23076923076923  L 3.9375 4.99638461538461  L 3.9375 1.46515384615385  L 5.89028124999999 3.23076923076923  Z " fill-rule="nonzero" fill="#666666" stroke="none" transform="matrix(1 0 0 1 294 4 )" />
  </g>
</svg>