<?xml version="1.0" encoding="utf-8"?>
<svg version="1.1" xmlns:xlink="http://www.w3.org/1999/xlink" width="12px" height="12px" xmlns="http://www.w3.org/2000/svg">
  <g transform="matrix(1 0 0 1 -52 -36 )">
    <path d="M 12 6  C 12 9.31214886199496  9.31614210346 11.997793897232  6.0039939752827 11.99999867068  C 6.00266265037308 11.9999995568933  6.00133132520457 12  6 12  C 2.68629150101523 12  0 9.31370849898474  0 6  C 0 2.68629150101521  2.68629150101523 0  6 0  C 7.58965669250644 0  9.11434352161827 0.630840584469013  10.2392880929298 1.75400936586715  C 11.3665570766745 2.8794988904794  12 4.4070586854109  12 6  Z M 6.0039939752827 1.27807353699012  L 6.0039939752827 1.30481150490459  C 6.0026558849589 1.30481036734727  6.00131779421096 1.30480979856856  5.99997970340361 1.30480979856856  C 3.39213246222398 1.30480979856856  1.27805456971377 3.41888769107879  1.27805456971377 6.02673493225842  C 1.27805456971377 8.63458217343805  3.39213246222398 10.7486600659482  5.99997970340361 10.7486600659482  C 8.60782694458323 10.7486600659482  10.7219048370934 8.63458217343805  10.7219048370934 6.02673493225842  C 10.7219048370934 4.77538652111338  10.2251970247625 3.57520716338945  9.34089237100463 2.6898382428725  C 8.46262765271437 1.79123476358495  7.2605035220877 1.2826437852429  6.0039939752827 1.27807353699012  Z " fill-rule="nonzero" fill="#999999" stroke="none" transform="matrix(1 0 0 1 52 36 )" />
  </g>
</svg>