<?xml version="1.0" encoding="utf-8"?>
<svg version="1.1" xmlns:xlink="http://www.w3.org/1999/xlink" width="15px" height="14px" xmlns="http://www.w3.org/2000/svg">
  <g transform="matrix(1 0 0 1 -346 -28 )">
    <path d="M 1.374828125 8.981984375  L 1.374828125 12.746015625  C 1.374828125 13.38475  1.894375 13.9041875  2.533 13.9041875  L 6.29703125015625 13.9041875  C 6.93562500015625 13.9041875  7.45520312515625 13.384765625  7.455203125 12.746015625  L 7.455203125 8.981984375  C 7.455203125 8.34325  6.93565624984375 7.823828125  6.29703125 7.823828125  L 2.533 7.823828125  C 1.89440625 7.823828125  1.374828125 8.34325  1.374828125 8.981984375  Z M 2.73892187515625 8.663921875  L 6.0968125 8.663921875  C 6.38173437484375 8.663921875  6.613390625 8.89571875  6.613390625 9.1805  L 6.613390625 12.5383906248437  C 6.613390625 12.8231874998437  6.3816875 13.0549687498438  6.0968125 13.05496875  L 2.738921875 13.05496875  C 2.45400000015625 13.05496875  2.222328125 12.823171875  2.222328125 12.538390625  L 2.222328125 9.1805  C 2.222328125 8.89571875015625  2.45403125 8.663921875  2.73892187515625 8.663921875  Z M 3.5960625 0.4345  L 0.9345 3.0960625  C 0.482828125000001 3.547734375  0.482968750000001 4.282390625  0.93449999984375 4.733953125  L 3.5960625 7.395515625  C 4.04759375 7.847046875  4.782296875 7.84718749984375  5.233953125 7.395515625  L 7.89553125 4.7339375  C 8.347203125 4.282265625  8.3470625 3.547609375  7.895515625 3.096078125  L 5.233953125 0.434515625  C 4.782390625 -0.017015625  4.04771875 -0.0171562498437501  3.5960625 0.434515625  Z M 4.7809375 1.17078125  L 7.15393750015625 3.54378125  C 7.35528125015625 3.745125  7.35509375015625 4.072765625  7.15371875 4.27412500015625  L 4.77929687515625 6.648546875  C 4.57790625015625 6.8499375  4.25028125015625 6.850109375  4.0489375 6.64878125  L 1.6759375 4.27578125  C 1.47459375 4.0744375  1.47478125 3.746765625  1.67615625 3.545421875  L 4.050578125 1.171  C 4.2519375 0.969640624999999  4.57959375 0.969453124999999  4.7809375 1.17078125  Z M 8.3238125 8.981984375  L 8.3238125 12.746015625  C 8.3238125 13.38475  8.843375 13.9041875  9.481984375 13.9041875  L 13.2460312498438 13.9041875  C 13.884484375 13.9041875  14.4042031248438 13.384765625  14.404203125 12.746015625  L 14.404203125 8.981984375  C 14.404203125 8.34325  13.884484375 7.823828125  13.24603125 7.823828125  L 9.481984375 7.823828125  C 8.843390625 7.823828125  8.3238125 8.34325  8.3238125 8.981984375  Z M 9.69140625015625 8.663921875  L 13.049296875 8.663921875  C 13.334328125 8.663921875  13.565875 8.89571875  13.565875 9.1805  L 13.565875 12.5383906248437  C 13.565875 12.8231874998437  13.334328125 13.0549687498438  13.049296875 13.05496875  L 9.69140625 13.05496875  C 9.4065 13.05496875  9.174828125 12.823171875  9.174828125 12.538390625  L 9.174828125 9.1805  C 9.174828125 8.89571875015625  9.40653125 8.663921875  9.69140625015625 8.663921875  Z M 8.3238125 2.033015625  L 8.3238125 5.797046875  C 8.3238125 6.43578125  8.843375 6.95521875  9.481984375 6.95521875  L 13.24603125 6.95521875  C 13.8844843751563 6.95521875  14.404203125 6.43578125  14.404203125 5.797046875  L 14.404203125 2.033  C 14.404203125 1.394265625  13.884484375 0.874843749999999  13.24603125 0.874843749999999  L 9.481984375 0.874843749999999  C 8.843390625 0.874859375  8.3238125 1.39428125  8.3238125 2.033015625  Z M 9.69140625015625 1.711390625  L 13.049296875 1.711390625  C 13.334328125 1.711390625  13.565875 1.9431875  13.565875 2.22796875  L 13.565875 5.585875  C 13.565875 5.870671875  13.334328125 6.102453125  13.049296875 6.102453125  L 9.69140625 6.102453125  C 9.4065 6.102453125  9.174828125 5.87065625  9.17482812484375 5.585875  L 9.174828125 2.22796875  C 9.174828125 1.94318750015625  9.40653125 1.711390625  9.69140625015625 1.711390625  Z " fill-rule="nonzero" fill="#999999" stroke="none" transform="matrix(1 0 0 1 346 28 )" />
  </g>
</svg>