<?xml version="1.0" encoding="utf-8"?>
<svg version="1.1" xmlns:xlink="http://www.w3.org/1999/xlink" width="50px" height="20px" xmlns="http://www.w3.org/2000/svg">
  <defs>
    <mask fill="white" id="clip120">
      <path d="M 0 15  L 0 5  C 0 2.2  2.19999999999999 0  5 0  L 45 0  C 47.8 0  50 2.2  50 5  L 50 15  C 50 17.8  47.8 20  45 20  L 20 20  L 5 20  C 2.19999999999999 20  0 17.8  0 15  Z " fill-rule="evenodd" />
    </mask>
  </defs>
  <g transform="matrix(1 0 0 1 -131 -39 )">
    <path d="M 0 15  L 0 5  C 0 2.2  2.19999999999999 0  5 0  L 45 0  C 47.8 0  50 2.2  50 5  L 50 15  C 50 17.8  47.8 20  45 20  L 20 20  L 5 20  C 2.19999999999999 20  0 17.8  0 15  Z " fill-rule="nonzero" fill="#ffffff" stroke="none" fill-opacity="0" transform="matrix(1 0 0 1 131 39 )" />
    <path d="M 0 15  L 0 5  C 0 2.2  2.19999999999999 0  5 0  L 45 0  C 47.8 0  50 2.2  50 5  L 50 15  C 50 17.8  47.8 20  45 20  L 20 20  L 5 20  C 2.19999999999999 20  0 17.8  0 15  Z " stroke-width="2" stroke="#ea3005" fill="none" transform="matrix(1 0 0 1 131 39 )" mask="url(#clip120)" />
  </g>
</svg>