<?xml version="1.0" encoding="utf-8"?>
<svg version="1.1" xmlns:xlink="http://www.w3.org/1999/xlink" width="16px" height="20px" xmlns="http://www.w3.org/2000/svg">
  <g transform="matrix(1 0 0 1 -337 -115 )">
    <path d="M 5.71590909090909 7.6171875  C 5.78409090909091 7.6953125  5.81818181818182 7.79513888888889  5.81818181818182 7.91666666666667  L 5.81818181818182 15.4166666666667  C 5.81818181818182 15.5381944444444  5.78409090909091 15.6380208333333  5.71590909090909 15.7161458333333  C 5.64772727272727 15.7942708333333  5.56060606060606 15.8333333333333  5.45454545454545 15.8333333333333  L 4.72727272727273 15.8333333333333  C 4.62121212121212 15.8333333333333  4.53409090909091 15.7942708333333  4.46590909090909 15.7161458333333  C 4.39772727272727 15.6380208333333  4.36363636363636 15.5381944444444  4.36363636363636 15.4166666666667  L 4.36363636363636 7.91666666666667  C 4.36363636363636 7.79513888888889  4.39772727272727 7.6953125  4.46590909090909 7.6171875  C 4.53409090909091 7.5390625  4.62121212121212 7.5  4.72727272727273 7.5  L 5.45454545454545 7.5  C 5.56060606060606 7.5  5.64772727272727 7.5390625  5.71590909090909 7.6171875  Z M 8.625 7.6171875  C 8.69318181818182 7.6953125  8.72727272727273 7.79513888888889  8.72727272727273 7.91666666666667  L 8.72727272727273 15.4166666666667  C 8.72727272727273 15.5381944444444  8.69318181818182 15.6380208333333  8.625 15.7161458333333  C 8.55681818181818 15.7942708333333  8.46969696969697 15.8333333333333  8.36363636363636 15.8333333333333  L 7.63636363636364 15.8333333333333  C 7.53030303030303 15.8333333333333  7.44318181818182 15.7942708333333  7.375 15.7161458333333  C 7.30681818181818 15.6380208333333  7.27272727272727 15.5381944444444  7.27272727272727 15.4166666666667  L 7.27272727272727 7.91666666666667  C 7.27272727272727 7.79513888888889  7.30681818181818 7.6953125  7.375 7.6171875  C 7.44318181818182 7.5390625  7.53030303030303 7.5  7.63636363636364 7.5  L 8.36363636363636 7.5  C 8.46969696969697 7.5  8.55681818181818 7.5390625  8.625 7.6171875  Z M 11.5340909090909 7.6171875  C 11.6022727272727 7.6953125  11.6363636363636 7.79513888888889  11.6363636363636 7.91666666666667  L 11.6363636363636 15.4166666666667  C 11.6363636363636 15.5381944444444  11.6022727272727 15.6380208333333  11.5340909090909 15.7161458333333  C 11.4659090909091 15.7942708333333  11.3787878787879 15.8333333333333  11.2727272727273 15.8333333333333  L 10.5454545454545 15.8333333333333  C 10.4393939393939 15.8333333333333  10.3522727272727 15.7942708333333  10.2840909090909 15.7161458333333  C 10.2159090909091 15.6380208333333  10.1818181818182 15.5381944444444  10.1818181818182 15.4166666666667  L 10.1818181818182 7.91666666666667  C 10.1818181818182 7.79513888888889  10.2159090909091 7.6953125  10.2840909090909 7.6171875  C 10.3522727272727 7.5390625  10.4393939393939 7.5  10.5454545454545 7.5  L 11.2727272727273 7.5  C 11.3787878787879 7.5  11.4659090909091 7.5390625  11.5340909090909 7.6171875  Z M 13.0113636363636 17.87109375  C 13.0643939393939 17.7105034722222  13.0909090909091 17.5347222222222  13 17.34375  L 13 5  L 3 5  L 3 17.34375  C 2.90909090909091 17.5347222222222  2.93560606060606 17.7105034722222  2.98863636363636 17.87109375  C 3.04166666666667 18.0316840277778  3.09659090909091 18.1488715277778  3.15340909090909 18.22265625  C 3.21022727272727 18.2964409722222  3.25 18.3333333333333  3.27272727272727 18.3333333333333  L 12.7272727272727 18.3333333333333  C 12.75 18.3333333333333  12.7897727272727 18.2964409722222  12.8465909090909 18.22265625  C 12.9034090909091 18.1488715277778  12.9583333333333 18.0316840277778  13.0113636363636 17.87109375  Z M 6.01136363636364 1.80989583333333  L 5.45454545454545 3.33333333333333  L 10.5454545454545 3.33333333333333  L 10 1.80989583333333  C 9.9469696969697 1.73177083333333  9.88257575757576 1.68402777777778  9.80681818181818 1.66666666666667  L 6.20454545454545 1.66666666666667  C 6.12878787878788 1.68402777777778  6.06439393939394 1.73177083333333  6.01136363636364 1.80989583333333  Z M 15.8977272727273 3.45052083333333  C 15.9659090909091 3.52864583333333  16 3.62847222222222  16 3.75  L 16 4.58333333333333  C 16 4.70486111111111  15.9659090909091 4.8046875  15.8977272727273 4.8828125  C 15.8295454545455 4.9609375  15.7424242424242 5  15.6363636363636 5  L 14.5454545454545 5  L 14.5454545454545 17.34375  C 14.5454545454545 18.0642361111111  14.3674242424242 18.6870659722222  14.0113636363636 19.2122395833333  C 13.655303030303 19.7374131944444  13.2272727272727 20  12.7272727272727 20  L 3.27272727272727 20  C 2.77272727272727 20  2.34469696969697 19.74609375  1.98863636363636 19.23828125  C 1.63257575757576 18.73046875  1.45454545454545 18.1163194444444  1.45454545454545 17.3958333333333  L 1.45454545454545 5  L 0.363636363636364 5  C 0.257575757575758 5  0.170454545454545 4.9609375  0.102272727272727 4.8828125  C 0.0340909090909091 4.8046875  0 4.70486111111111  0 4.58333333333333  L 0 3.75  C 0 3.62847222222222  0.0340909090909091 3.52864583333333  0.102272727272727 3.45052083333333  C 0.170454545454545 3.37239583333333  0.257575757575758 3.33333333333333  0.363636363636364 3.33333333333333  L 3.875 3.33333333333333  L 4.67045454545455 1.15885416666667  C 4.78409090909091 0.837673611111109  4.98863636363636 0.564236111111109  5.28409090909091 0.338541666666667  C 5.57954545454546 0.112847222222221  5.87878787878788 0  6.18181818181818 0  L 9.81818181818182 0  C 10.1212121212121 0  10.4204545454545 0.112847222222221  10.7159090909091 0.338541666666667  C 11.0113636363636 0.564236111111109  11.2159090909091 0.837673611111109  11.3295454545455 1.15885416666667  L 12.125 3.33333333333333  L 15.6363636363636 3.33333333333333  C 15.7424242424242 3.33333333333333  15.8295454545455 3.37239583333333  15.8977272727273 3.45052083333333  Z " fill-rule="nonzero" fill="#7f7f7f" stroke="none" transform="matrix(1 0 0 1 337 115 )" />
  </g>
</svg>