<?xml version="1.0" encoding="utf-8"?>
<svg version="1.1" xmlns:xlink="http://www.w3.org/1999/xlink" width="16px" height="20px" xmlns="http://www.w3.org/2000/svg">
  <g transform="matrix(1 0 0 1 -245 -115 )">
    <path d="M 7.46188340807175 15  L 7.96412556053812 15  L 9.00448430493273 13.3522727272727  L 7.64125560538117 11.1931818181818  L 6.60089686098655 12.8409090909091  L 6.60089686098655 13.6363636363636  L 7.46188340807175 13.6363636363636  L 7.46188340807175 15  Z M 11.9013452914798 5.24147727272727  C 12.0029895366218 5.08049242424242  12.0059790732436 4.92424242424242  11.9103139013453 4.77272727272727  C 11.8146487294469 4.62121212121212  11.7159940209268 4.62594696969697  11.6143497757848 4.78693181818182  L 8.47533632286996 9.75852272727273  C 8.37369207772795 9.91950757575758  8.37070254110613 10.0757575757576  8.46636771300448 10.2272727272727  C 8.56203288490284 10.3787878787879  8.66068759342302 10.374053030303  8.76233183856502 10.2130681818182  L 11.9013452914798 5.24147727272727  Z M 12.4484304932735 12.7982954545455  C 12.5680119581465 12.874053030303  12.627802690583 13.0113636363636  12.627802690583 13.2102272727273  L 12.627802690583 15.9090909090909  C 12.627802690583 17.0359848484848  12.3751868460389 17.9995265151515  11.8699551569507 18.7997159090909  C 11.3647234678625 19.5999053030303  10.7563527653214 20  10.0448430493274 20  L 2.58295964125561 20  C 1.87144992526158 20  1.26307922272048 19.5999053030303  0.757847533632287 18.7997159090909  C 0.252615844544096 17.9995265151515  0 17.0359848484848  0 15.9090909090909  L 0 4.09090909090909  C 0 2.96401515151515  0.252615844544096 2.00047348484848  0.757847533632287 1.20028409090909  C 1.26307922272048 0.400094696969695  1.87144992526158 0  2.58295964125561 0  L 10.0448430493274 0  C 10.4215246636771 0  10.7713004484305 0.118371212121211  11.0941704035874 0.355113636363635  C 11.1838565022422 0.421401515151514  11.237668161435 0.53030303030303  11.2556053811659 0.681818181818181  C 11.2735426008969 0.84280303030303  11.2466367713004 0.980113636363635  11.1748878923767 1.09375  L 10.7354260089686 1.78977272727273  C 10.6517189835575 1.92234848484848  10.5560538116592 1.96022727272727  10.4484304932735 1.90340909090909  C 10.3109118086697 1.84659090909091  10.1763826606876 1.81818181818182  10.0448430493274 1.81818181818182  L 2.58295964125561 1.81818181818182  C 2.18834080717489 1.81818181818182  1.85052316890882 2.0407196969697  1.5695067264574 2.48579545454545  C 1.28849028400598 2.93087121212121  1.14798206278027 3.46590909090909  1.14798206278027 4.09090909090909  L 1.14798206278027 15.9090909090909  C 1.14798206278027 16.5340909090909  1.28849028400598 17.0691287878788  1.5695067264574 17.5142045454545  C 1.85052316890882 17.9592803030303  2.18834080717489 18.1818181818182  2.58295964125561 18.1818181818182  L 10.0448430493274 18.1818181818182  C 10.4394618834081 18.1818181818182  10.7772795216741 17.9592803030303  11.0582959641256 17.5142045454545  C 11.339312406577 17.0691287878788  11.4798206278027 16.5340909090909  11.4798206278027 15.9090909090909  L 11.4798206278027 14.1193181818182  C 11.4798206278027 13.9962121212121  11.5067264573991 13.8920454545455  11.5605381165919 13.8068181818182  L 12.1345291479821 12.8977272727273  C 12.2242152466368 12.7556818181818  12.3288490284006 12.7225378787879  12.4484304932735 12.7982954545455  Z M 5.73991031390134 12.2727272727273  L 11.7668161434978 2.72727272727273  L 14.3497757847534 6.81818181818182  L 8.32286995515695 16.3636363636364  L 5.73991031390134 16.3636363636364  L 5.73991031390134 12.2727272727273  Z M 16 3.63636363636364  C 16 4.01515151515151  15.9162929745889 4.33712121212121  15.7488789237668 4.60227272727273  L 14.9237668161435 5.90909090909091  L 12.3408071748879 1.81818181818182  L 13.1659192825112 0.511363636363635  C 13.3333333333333 0.246212121212119  13.5366218236173 0.113636363636365  13.7757847533632 0.113636363636365  C 14.0149476831091 0.113636363636365  14.2182361733931 0.246212121212119  14.3856502242152 0.511363636363635  L 15.7488789237668 2.67045454545455  C 15.9162929745889 2.93560606060606  16 3.25757575757576  16 3.63636363636364  Z " fill-rule="nonzero" fill="#7f7f7f" stroke="none" transform="matrix(1 0 0 1 245 115 )" />
  </g>
</svg>