<?xml version="1.0" encoding="utf-8"?>
<svg version="1.1" xmlns:xlink="http://www.w3.org/1999/xlink" width="16px" height="20px" xmlns="http://www.w3.org/2000/svg">
  <g transform="matrix(1 0 0 1 -291 -115 )">
    <path d="M 12.125 18.0859375  C 12.2467948717949 17.9210069444444  12.3076923076923 17.7256944444444  12.3076923076923 17.5  C 12.3076923076923 17.2743055555556  12.2467948717949 17.0789930555556  12.125 16.9140625  C 12.0032051282051 16.7491319444444  11.8589743589744 16.6666666666667  11.6923076923077 16.6666666666667  C 11.525641025641 16.6666666666667  11.3814102564103 16.7491319444444  11.2596153846154 16.9140625  C 11.1378205128205 17.0789930555556  11.0769230769231 17.2743055555556  11.0769230769231 17.5  C 11.0769230769231 17.7256944444444  11.1378205128205 17.9210069444444  11.2596153846154 18.0859375  C 11.3814102564103 18.2508680555556  11.525641025641 18.3333333333333  11.6923076923077 18.3333333333333  C 11.8589743589744 18.3333333333333  12.0032051282051 18.2508680555556  12.125 18.0859375  Z M 14.5865384615385 18.0859375  C 14.7083333333333 17.9210069444444  14.7692307692308 17.7256944444444  14.7692307692308 17.5  C 14.7692307692308 17.2743055555556  14.7083333333333 17.0789930555556  14.5865384615385 16.9140625  C 14.4647435897436 16.7491319444444  14.3205128205128 16.6666666666667  14.1538461538462 16.6666666666667  C 13.9871794871795 16.6666666666667  13.8429487179487 16.7491319444444  13.7211538461538 16.9140625  C 13.599358974359 17.0789930555556  13.5384615384615 17.2743055555556  13.5384615384615 17.5  C 13.5384615384615 17.7256944444444  13.599358974359 17.9210069444444  13.7211538461538 18.0859375  C 13.8429487179487 18.2508680555556  13.9871794871795 18.3333333333333  14.1538461538462 18.3333333333333  C 14.3205128205128 18.3333333333333  14.4647435897436 18.2508680555556  14.5865384615385 18.0859375  Z M 15.7307692307692 13.6979166666667  C 15.9102564102564 13.9409722222222  16 14.2361111111111  16 14.5833333333333  L 16 18.75  C 16 19.0972222222222  15.9102564102564 19.3923611111111  15.7307692307692 19.6354166666667  C 15.5512820512821 19.8784722222222  15.3333333333333 20  15.0769230769231 20  L 0.923076923076923 20  C 0.666666666666667 20  0.448717948717949 19.8784722222222  0.269230769230769 19.6354166666667  C 0.0897435897435897 19.3923611111111  0 19.0972222222222  0 18.75  L 0 14.5833333333333  C 0 14.2361111111111  0.0897435897435897 13.9409722222222  0.269230769230769 13.6979166666667  C 0.448717948717949 13.4548611111111  0.666666666666667 13.3333333333333  0.923076923076923 13.3333333333333  L 5.39423076923077 13.3333333333333  L 6.69230769230769 15.1041666666667  C 7.06410256410256 15.5902777777778  7.5 15.8333333333333  8 15.8333333333333  C 8.5 15.8333333333333  8.93589743589744 15.5902777777778  9.30769230769231 15.1041666666667  L 10.6153846153846 13.3333333333333  L 15.0769230769231 13.3333333333333  C 15.3333333333333 13.3333333333333  15.5512820512821 13.4548611111111  15.7307692307692 13.6979166666667  Z M 12.3076923076923 6.66666666666667  C 12.5769230769231 6.66666666666667  12.7660256410256 6.8359375  12.875 7.17447916666667  C 12.9839743589744 7.53038194444444  12.9391025641026 7.83420138888889  12.7403846153846 8.0859375  L 8.43269230769231 13.9192708333333  C 8.31730769230769 14.0842013888889  8.17307692307692 14.1666666666667  8 14.1666666666667  C 7.82692307692308 14.1666666666667  7.68269230769231 14.0842013888889  7.56730769230769 13.9192708333333  L 3.25961538461538 8.0859375  C 3.06089743589744 7.83420138888889  3.01602564102564 7.53038194444444  3.125 7.17447916666667  C 3.23397435897436 6.8359375  3.42307692307692 6.66666666666667  3.69230769230769 6.66666666666667  L 6.15384615384615 6.66666666666667  L 6.15384615384615 0.833333333333333  C 6.15384615384615 0.607638888888886  6.21474358974359 0.412326388888886  6.33653846153846 0.247395833333333  C 6.45833333333333 0.082465277777779  6.6025641025641 0  6.76923076923077 0  L 9.23076923076923 0  C 9.3974358974359 0  9.54166666666667 0.082465277777779  9.66346153846154 0.247395833333333  C 9.78525641025641 0.412326388888886  9.84615384615385 0.607638888888886  9.84615384615385 0.833333333333333  L 9.84615384615385 6.66666666666667  L 12.3076923076923 6.66666666666667  Z " fill-rule="nonzero" fill="#7f7f7f" stroke="none" transform="matrix(1 0 0 1 291 115 )" />
  </g>
</svg>